<?xml version="1.0" encoding="UTF-8"?>
<svg id="Layer_1" xmlns="http://www.w3.org/2000/svg" version="1.1" viewBox="0 0 761.5 638">
  <!-- Generator: Adobe Illustrator 30.5.1, SVG Export Plug-In . SVG Version: 2.1.4 Build 3)  -->
  <defs>
    <style>
      .st0 {
        fill: #ffa64f;
      }
    </style>
  </defs>
  <path class="st0" d="M2.4,5c3.2,0,3.2-5,0-5s-3.2,5,0,5h0Z"/>
  <g>
    <g>
      <path class="st0" d="M422.3,433.9c.8-15.4-.5-30.6-2.9-45.8s-2.2-14.2-4.2-21-3.7-10.4-7.3-14.6c-8.5-10-22.3-10.6-34.2-7.7s-18.7,6.4-26.7,11.8-19.3,17.2-25.8,28.3-9.8,19.9-13.2,30.4-5.6,18.3-7.5,27.7-4.1,24.2-4.4,36.4.6,23.8,4.6,34.9,4.3,9.8,7.7,13.9c4.2,5.1,10,8.9,16.3,10.9s6.2,1.5,9.4,1.7,2.5-1.2,2.5-2.5-1.1-2.4-2.5-2.5c-6.3-.5-12.9-2.7-17.9-6.9s-6.3-6.7-8.5-11.1c-2.2-4.4-3.7-9.4-4.8-14.4s-1.6-11-1.8-16.7c-.3-11.8.8-23.6,2.8-35.1s4.1-19.5,7-29,6.1-18.5,10.3-27.2,11.9-20.7,20.7-28.7,9.8-7.7,15.5-10.5,2.3-1.2,3.5-1.7c2.2-1,3.4-1.5,5.7-2.4,10.1-3.8,22.6-6.6,32.5-.8s7.1,6.3,9.2,10.8,3.6,11.1,4.7,16.7c2.9,15.3,4.9,30.8,4.8,46.4s-.1,5.6-.3,8.5,4.8,3.2,5,0h0Z"/>
      <path class="st0" d="M333.3,540.8c13.7,3.2,27.6,5.2,41.6,5.8s24.7.1,36.9-.7,23.3-2.2,34.5-5.4c10.6-3,21-7.6,29-15.3,9.2-8.9,13.6-21.5,13.3-34.2s-5.9-27.7-17.7-35.4-23.3-7.7-35-5.1-23.3,10.4-30.9,20.6-2.8,4.1-3.8,6.3-1.5,3.9-1.1,5.9,2.2,3.3,4.3,3.4,4.7-.6,6.8-1.4c4.8-1.7,9.5-4.1,14-6.5s6.9-3.8,10.3-5.8.3-5.9-2.5-4.3c-5.8,3.4-11.7,6.7-17.8,9.6s-2,.9-3,1.3c.4-.2-.2,0-.3.1-.2,0-.4.2-.6.2-.4.2-.8.3-1.3.5-1.2.4-2.5.9-3.8,1.1s-.4,0-.6.1c-.4,0,.6,0,0,0s-.7,0-1,0,.6.2.2,0-.3,0-.4,0c-.5,0,.6.3.3.1s-.2,0-.2-.1c.1,0,.6.5.3.2s.4.5.2.3c-.3-.5.1.6,0,0s0,.6,0,.2,0-.3,0-.5c0-.5,0,0,0,0,0-.2,0-.3.1-.5.1-.4.2-.8.4-1.2s.2-.6.1-.4.2-.4.2-.5c.2-.5.5-.9.7-1.4,2.7-4.9,6.6-9.1,10.8-12.7s9.5-6.7,14.9-8.5c10-3.3,21.7-3.7,31.5.7s9.6,5.9,12.8,10.5,5.8,11.5,6.6,17.9c1.5,11.8-1.3,24.5-9,33.3-6.6,7.5-15.7,12.2-25.1,15.3s-21.2,5.1-32,6c-10.5.9-21.1,1.3-31.7,1.4-14.4,0-28.8-1.3-43-4.1s-5.3-1.1-7.9-1.7-4.5,4.1-1.3,4.8h0Z"/>
      <path class="st0" d="M433.1,473.1c6.4,3.9,10.7,12.6,6.9,19.7s-3.7,4.7-6.3,6.2-2.2,1.2-3.3,1.7.2,0-.1,0-.4.1-.5.2c-.3.1-.6.2-.9.3-3.7,1.3-7.5,1.3-11.4.7s-9.6-1.9-14.2-3.7c-7-2.7-13.5-6.8-18.4-12.4s-.8-.9-1.2-1.4c-.6-.7-.8-.9-1.2-1.5-1-1.3-1.9-2.7-2.7-4.1-2-3.4-3.5-6.9-4.5-10.7-2.3-8.5-1.7-17.6.6-26.1s2.5-7.5,4.6-10.7,1.7-2.4,3-3.4.4-.3,0,0c.1,0,.3-.2.4-.3.3-.2.5-.3.8-.5s.3-.1.4-.2c.6-.3-.3,0,.1,0s.6-.2,1-.3.7-.1.3,0,0,0,.1,0c.3,0,.6,0,.8,0s-.4-.1.3,0,.6.1.9.2.8.3.3,0c.3.1.6.3.8.4.6.3,1.2.7,1.7,1.1s.4.3,0,0c.1,0,.2.2.4.3.2.2.5.4.7.6.6.5,1.1,1,1.7,1.6,1,1.1,2,2.2,3,3.4,2,2.4,3.7,4.8,5.7,7.4s3.2,4.2,5.3,5.8,4.1,2.8,6.6,2.4c3.9-.7,5.6-5,6.4-8.4s.8-5,1-7.6-1.2-2.5-2.5-2.5-2.4,1.1-2.5,2.5c-.2,2.5-.5,5.1-1.2,7.5s-.5,1.6-1,2.3-.7,1.1-1.2,1.2c.7-.2-.2,0-.2,0,.1-.1.5,0,0,0s.4.2,0,0-.8-.3-.4-.1-.3-.1-.4-.2c-.2-.1-.4-.3-.6-.4s-.2-.2-.3-.2c0,0,.4.3,0,0s-.5-.4-.7-.6c-4.6-4.2-7.4-9.3-11.6-14.1s-9-9.1-15.1-7.4-6,3.6-8,6.5-4,7.5-5.2,11.5c-2.7,9.1-3.4,19.1-1.2,28.3s5.6,14.6,10.6,20.5,11.8,10.5,19,13.5c4.8,2,9.8,3.5,14.9,4.4,4.7.8,9.5,1.2,14.1,0s10.6-4.5,14-8.8c5.9-7.5,4.4-17.6-1.6-24.5s-3.4-3.3-5.4-4.5-5.3,2.6-2.5,4.3h0Z"/>
      <path class="st0" d="M586.4,435.5c.6,0-.1,0-.2,0,.5.3-.1-.1-.2-.1-.6-.5.3.4-.2-.2s-.2-.2-.3-.4c-.2-.2-.4-.6-.7-1s-.6-1.1-.9-1.6c-1.3-2.6-2.3-5.3-3.7-7.9-2.7-5.1-6.7-9.4-11.7-12.4-4.2-2.5-8.8-4-13.5-5s-9.9-1.8-14.9-1.6c-11.7.5-22.8,5.1-32,12.3-9.5,7.6-17.3,18.8-19.5,30.9s2.1,24.7,10.9,33.6,22.1,13.4,34.8,15.1c13.4,1.8,27.5,1.8,40.6-1.9,11.4-3.3,21.9-9.7,29.6-18.8s6.8-9.5,9-15c2.1-5.3,2.9-11,1.4-16.6-1.5-5.7-5.6-10.8-10.8-13.5s-10.7-2.4-14.8,1.8-1.3,1.4-1.9,2-.2.2-.3.3c.4-.3-.1,0-.2,0,.6-.2-.1,0-.2,0,.6,0-.2,0-.2,0-3.2-.1-3.2,4.9,0,5,4.6.2,5.9-5.1,9.9-5.9s8.7,2.6,11.1,5.9c6.7,9,2,20.4-3.7,28.6s-14.6,15.3-24.2,19.1c-12,4.8-25.1,5.6-37.9,4.6s-24.8-3.3-34.6-10.8c-8.5-6.4-14.4-16.7-14.1-27.5.3-11.5,6.9-22.5,15-30.3s17.5-12.3,28-13.7,10-.5,14.9.5c3.9.7,7.8,1.6,11.5,3.2s8.6,4.9,11.4,8.9,2.8,4.9,4,7.5c1,2.2,1.9,4.5,3.3,6.5s3,3.1,5.4,3.3,2.5-1.3,2.5-2.5-1.2-2.4-2.5-2.5Z"/>
      <path class="st0" d="M571.1,450.3c-2.7-.8-5.4,1.2-7,3.1s-3.4,5.7-3.6,9c-.3,5.9,3.2,12.8,9.6,13.4s7.1-1.2,10-3.1,4.8-3.6,5.8-6.2.4-2.7-.6-3.6-2.4-1.1-3.8-.8-.9.2-1.3.3-.5.1-.8.2-1,.2-.6.1c-.3,0-.6,0-.9,0s-.6,0-.3,0-.2,0-.2,0c-.4-.1-.4-.1-.5-.2s-.6-.4-.3-.2-.1-.1-.2-.1c-.1,0-.2-.2-.3-.3-.2-.3.3.5,0,0s-.3-.5-.4-.7-.2-.4,0,0-.1-.3-.1-.3c0-.3-.2-.6-.3-.9-.3-1.2-.4-2.4-.6-3.6-.4-2.5-1-5-3.6-6s-2.7.6-3.1,1.7.5,2.6,1.7,3.1h-.4c.2,0,.2,0-.2-.3.3.4-.2-.5,0,0s.1.3.2.4c-.3-.6,0-.2,0,0,.2.8.4,1.7.5,2.5.3,1.9.6,3.8,1.4,5.6s2.7,3.8,5,4.3,4.5,0,6.6-.6.5,0,0,0c.2,0,.6.1-.1,0s-1.4-1-1.4-1.8c0,.5.1-.7,0-.2s.3-.4,0,0-.2.3-.3.5c-.4.6.3-.3-.2.2s-.4.5-.7.7c-1.6,1.6-3.5,2.9-5.7,3.7s-2.3.8-3.5.7-1.1-.1-1.6-.3c.5.2-.2-.1-.3-.2,0,0-.8-.6-.5-.3-1.5-1.2-2.3-2.9-2.8-4.9s-.2-.9-.2-1.6,0-.6,0-.9,0-1,0-.8c.2-1.2.6-2.4,1.2-3.5s1.2-1.9,2.2-2.8-.3.2.3-.2.8-.6.3-.2c.4-.3.3.2,0,0,.1,0,.2,0,.3,0-.4,0-.5,0-.2,0,3.1,1,4.4-3.9,1.3-4.8Z"/>
    </g>
    <path class="st0" d="M638.8,395.2c-.2,0-.5,0-.7,0-.8,0,.5,0-.3,0s-.9-.2-1.4-.3-.9-.3-1.3-.4-.4-.1-.5-.2c-.2,0-.1,0,0,0-.1,0-.3-.1-.4-.2-1.8-.9-3.1-1.8-4.4-2.9-3.4-3-5.6-6.5-8-10.3-5.9-10-10.4-20.7-15.8-30.9-6-11.3-13.1-22-22.2-31.1s-17.2-14.9-27.1-20.6c-17.9-10.2-37.8-16.4-57.8-20.7-20.8-4.4-41.8-7.5-63-7.1-24.4.5-48.8,4.8-72,12.5-23.1,7.7-45.1,18.7-65,32.6-19.8,13.9-37.6,30.6-52.3,49.8-16.5,21.4-30.1,45.8-36.5,72.2s-4.5,26.5-3.6,39.8,3.5,23.9,7.7,35.2c8.5,22.9,22.9,43.4,40.6,60.2,19.1,18.1,42.1,31.3,66.5,40.8,26.1,10.1,53.6,15.7,81.2,19.3,28.6,3.7,57.5,5.5,86.3,5.1,29.1-.5,58.3-3.5,86.7-10.1s51.3-15.3,74.6-28.2c21-11.6,40.6-26.1,57.5-43.2,16.8-17,31.1-36.6,41.3-58.3s8.7-19.5,10.7-29.8,2.3-24.4-.4-36.3c-5.5-24.1-23.2-44.8-45.5-55.2-9.7-4.5-20.6-7.2-31.4-5.9s-10.9,2.3-15.7,5.2-7.7,5.6-11,8.9-2.8,2.8-4.2,4.2-1.3,1.2-2,1.8-.7.6-1.1.9-.6.5-.2.2c-.2.1-.4.3-.5.4-.7.5-1.4.9-2.1,1.3-1,.6-1,.5-2,.9s-.7.2-1.1.3-.4,0-.7.1-.8.1-.2,0c-1,.1-1.9.1-2.9,0-3.2-.2-3.2,4.8,0,5,8.6.5,14.4-5.6,19.9-11.2,3.2-3.2,6.3-6.1,10-8.3s9.2-4.3,14-4.8c10.2-1.2,20.6,1.4,29.8,5.9,10.3,5,19.4,12.3,26.7,21.1,8.1,9.7,13.6,21.4,15.9,33.9,2,10.9,1.6,22.3-.9,33-1.1,4.7-2.8,9.3-4.5,13.8s-4.5,10.8-7.1,16.1c-5.2,10.5-11.4,20.5-18.4,29.9-14,18.8-31.2,35.3-50.2,49.1-19.4,14-40.7,25.2-63.2,33.5-26.9,9.9-55.2,15.8-83.7,18.7-28.6,2.9-57.4,2.8-86.1.9-27.7-1.9-55.4-5.2-82.3-11.7-26.5-6.4-52.3-16.1-75.3-30.9-19.9-12.8-37.4-29.8-50.3-49.7-12.9-19.8-21.2-42.8-21.9-66.5s7.6-52.7,20.4-75.8c12.1-21.7,27.8-41.5,46.1-58.2s37.6-29.3,59.1-39.6c21.5-10.3,44.5-17.4,68.1-21.1,23.7-3.7,48-3.7,71.7.3s35.7,6.6,52.8,12.7c20.4,7.3,39.5,18.5,54.2,34.6,8.5,9.4,15,20.3,20.7,31.6,5,9.8,9.2,20.2,15.3,29.3,4.5,6.8,10.6,12.9,19.1,13.6s2.5-1.2,2.5-2.5-1.1-2.4-2.5-2.5Z"/>
  </g>
</svg>