<?xml version="1.0" encoding="UTF-8"?>
<svg id="Layer_1" data-name="Layer 1" xmlns="http://www.w3.org/2000/svg" viewBox="0 0 674.08 569.73">
  <path d="M420.83,520.44c40.01-62.36,78.69-125.57,115.98-189.6,38.35-65.85,75.22-132.56,110.6-200.05,4.63-8.84,9.24-17.68,13.81-26.55,2.41-4.67,4.82-9.34,7.22-14.02,2.23-4.35,5.69-9.07,5.64-14.06-.09-10.78-1.59-21.75-2.38-32.5s-1.63-22.33-2.45-33.49c-.75-10.21-16.75-10.29-16,0,1.63,22.33,3.27,44.65,4.9,66.98l1.09-4.04c-29.91,58.59-60.93,116.62-93.07,174.03-32.69,58.4-66.53,116.16-101.48,173.23-18.9,30.87-38.14,61.53-57.68,91.99-5.58,8.69,8.27,16.72,13.82,8.08h0Z" fill="#4fd1ff"/>
  <path d="M376.34,433.83c1.45-24.7,2.9-49.41,4.35-74.11.6-10.29-15.4-10.25-16,0-1.45,24.7-2.9,49.41-4.35,74.11-.6,10.29,15.4,10.25,16,0h0Z" fill="#4fd1ff"/>
  <path d="M14.28,168.41c-5.34,25.86-9.35,51.99-11.98,78.26-.6,6.04-1.13,12.08-1.58,18.13-.52,6.91-1.57,13.53.59,20.2,4.09,12.62,8.16,25.25,12.22,37.88,16.44,51.15,32.65,102.38,48.62,153.68,9.07,29.13,18.07,58.28,26.99,87.46,2.14,6.99,14,8.22,15.43,0,5.13-29.6,10.26-59.2,15.4-88.8.72-4.16,1.44-8.32,2.16-12.48l-5.59,5.59c69.36-25.56,139.13-50.22,208.1-76.81,17.98-6.93,35.76-14.58,52.08-24.89-3.92-1.59-7.83-3.19-11.75-4.78,12.11,29.9,24.23,59.8,36.34,89.71,2.43,5.99,10.96,8.45,14.62,1.91,64.14-114.45,128.29-228.9,192.43-343.35,18.23-32.53,36.47-65.07,54.7-97.6,2.95-5.27-.76-12.03-6.91-12.04-130.99-.12-261.98-.25-392.97-.37C225.95.07,188.72.03,151.48,0c-4.74,0-9.67,5.19-7.71,10.13,11.89,30.08,23.79,60.16,35.68,90.25l3.68-9.03c-52.54,27.93-107.1,51.83-163.26,71.48-3.93,1.37-7.01,5.5-5.59,9.84,24.59,75,48.7,150.17,72.31,225.49,6.74,21.52,13.45,43.04,20.11,64.58v-4.25c-5.85,33.76-11.71,67.52-17.56,101.28-1.23,7.09,5.2,12.12,11.75,9.03,70.42-33.22,140.84-66.43,211.25-99.65,20.08-9.47,40.15-18.94,60.23-28.41l-10.95-2.87c15.2,27.53,30.39,55.05,45.59,82.58,3.7,6.7,15.5,3.99,14.91-4.04l-4.9-66.98c-.75-10.21-16.75-10.29-16,0,1.63,22.33,3.27,44.65,4.9,66.98l14.91-4.04c-15.2-27.53-30.39-55.05-45.59-82.58-2.22-4.02-7.11-4.68-10.95-2.87-70.42,33.22-140.84,66.43-211.25,99.65-20.08,9.47-40.15,18.94-60.23,28.41,3.92,3.01,7.83,6.02,11.75,9.03,4.56-26.29,9.12-52.59,13.68-78.88,1.07-6.17,2.14-12.34,3.21-18.5.65-3.73,1.08-6.41.09-10.05-1.04-3.83-2.36-7.61-3.53-11.4-3.93-12.67-7.87-25.33-11.83-37.99-15.83-50.64-31.89-101.22-48.17-151.72-9.36-29.04-18.8-58.06-28.31-87.06l-5.59,9.84c57.44-20.1,113.35-44.52,167.08-73.1,2.83-1.51,4.92-5.88,3.68-9.03-11.89-30.08-23.79-60.16-35.68-90.25l-7.71,10.13c130.99.12,261.98.25,392.97.37,37.24.03,74.47.07,111.71.1l-6.91-12.04c-64.14,114.45-128.29,228.9-192.43,343.35-18.23,32.53-36.47,65.07-54.7,97.6l14.62,1.91c-12.11-29.9-24.23-59.8-36.34-89.71-1.84-4.55-6.95-7.81-11.75-4.78-30.84,19.48-66.73,30.19-100.73,42.72-36.56,13.48-73.13,26.95-109.69,40.43-9.06,3.34-18.13,6.68-27.19,10.02-4.38,1.61-8.75,3.23-13.13,4.84s-9.75,2.66-11.21,7.67c-.92,3.15-1.16,6.68-1.72,9.9-3,17.31-6,34.61-9,51.92-2.28,13.15-4.56,26.3-6.84,39.45h15.43c-15.52-50.74-31.26-101.41-47.23-152.02-7.79-24.67-15.63-49.32-23.52-73.96-4.05-12.63-8.11-25.26-12.19-37.89-1.9-5.89-5.19-12.54-5.73-18.71s.83-12.97,1.34-19.06c2.41-28.72,6.63-57.24,12.46-85.47,2.08-10.05-13.34-14.35-15.43-4.25h0Z" fill="#4fd1ff"/>
</svg>