<svg xmlns="http://www.w3.org/2000/svg" width="1346" height="1370" viewBox="0 0 1346 1370"><path fill="currentColor" d="M388.438 39.75h3.1c7.6 0 12 1.3 18.5 5.2 3.7 1.7 7.5 3.4 11.3 5 17.8 7.6 17.8 7.6 23.2 11.8 7.7 5.6 16.3 9.5 25.1 13.2 4 1.9 7.5 4 11.2 6.5 8.3 5.5 16.9 8.7 26.2 12.1 6.2 2.1 12.1 4.7 18 7.4 1.4.7 2.8 1.4 4.2 2 12.1 5.6 12.1 5.6 17.8 9 2.3 1 4.7 1.8 7.1 2.6 1.4.5 2.7.9 4.1 1.4 2.9 1 5.8 2 8.6 2.9l4.2 1.5c1.2.4 2.5.8 3.7 1.2 3.3 1.4 3.3 1.4 7.3 5.4 2.8 1.3 2.8 1.3 6.1 2.4 1.2.4 2.3.8 3.6 1.3 1.2.4 2.5.8 3.8 1.2 8.1 2.8 15.9 5.7 23.5 9.7 6.1 3 12.6 5.3 19 7.7 6.1 2.4 11.5 5.1 17 8.7 7.9 5.1 15.9 9.7 24.3 14.1 2.7 1.4 5.3 2.9 8 4.4 4.9 2.7 10 4.8 15.2 6.8 6.9 2.7 13.3 5.6 19.6 9.4 7.3 4.3 14.9 6.9 23 9.6 7.3 2.6 14 6.1 20.9 9.7 1.4.8 2.9 1.5 4.4 2.3 9.5 4.9 18 10.3 26.6 16.7 2.1.9 4.3 1.6 6.5 2.4 5.6 1.9 10.6 4.2 15.7 7.2 3.8 2 7.8 3.6 11.8 5.1 3.7 1.7 6.7 4 10 6.3 2.2 1.2 4.5 2.3 6.8 3.4 10.1 4.9 19.5 10.9 29 16.9 9.2 5.7 18.5 11.1 28.2 15.7 24 11.7 24 11.7 33 19 1.3.8 2.6 1.5 3.9 2.2 5.5 3.1 10.6 6.7 15.7 10.4 3.1 2.3 6.2 4.4 9.4 6.4 1.4 1.1 2.9 2.2 4.3 3.2 5.7 4.1 11.8 7.4 17.9 10.7 5.2 2.9 10 6.3 14.8 9.7 3.5 2.5 7.1 4.5 11 6.4.7.6 1.4 1.2 2.2 1.9 3.2 2.5 6.7 4.5 10.2 6.6 2.6 1.5 2.6 1.5 6.6 4.6 4 3 4 3 8.4 5.4 4.9 2.8 9.1 6 13.6 9.5 2.4 1.8 4.9 3.5 7.4 5.3 2.6 1.7 5.1 3.6 7.6 5.4 19.7 14.4 19.7 14.4 28 19.3 2 1.7 4 3.4 6 5 3.6 2.5 7.2 4.8 11 7 1.2.8 2.5 1.6 3.9 2.5 8.4 5.2 16.8 10.2 25.6 14.7 3.5 1.9 3.5 1.9 7.3 4.3 4.6 2.8 9.4 5 14.4 7.2 8.2 3.6 14.7 7.2 21.4 13.2 5.1 4.5 10.5 8.5 16 12.5 4.6 3.8 7.7 7.9 11.4 12.6 1.3 1.2 2.6 2.4 4 3.6 4.3 3.8 7.5 7.8 11 12.4 3.4 4.2 6.7 7.8 10.9 11.2 4.6 4.3 7 8.7 9.9 14.2 3.5 6 7.8 11.2 12.2 16.6 1.6 2.1 3.1 4.2 4.7 6.2l2.1 2.7c5.3 7.6 9.2 15.2 12.7 23.8.3 1 .7 2 1.1 2.9 1.1 2.8 2.3 5.6 3.4 8.4 1 2.7 2.1 5.3 3.2 8 .2.6.2.6 1.4 3.6.9 2.3 1.9 4.7 3 7 3.8 8.8 5.5 17.2 6.7 26.8.5 3.8 1.2 7.2 2.3 10.8 2.5 9.2 3.2 19.5 1.4 28.8-.2 4.1-.4 8.2-.5 12.3-1.3 11-6.1 20.7-10.9 30.4-.6 1.2-1.1 2.4-1.7 3.5-3.2 6.7-6.8 12.8-10.9 18.8-1.2 2.2-2.4 4.4-3.5 6.6-2.1 4-3.9 6.8-7 10.3-4.2 5-6.7 10.2-9.5 16.2-2.3 4.6-5.1 8.5-8.3 12.6-2.7 3.6-4.6 6.9-5.9 11.2-3.1 8.6-7.3 16.9-12 24.8-1.7 3.1-2.8 5.9-3.8 9.3-3.6 11.3-11 18.6-19 27-2.7 3-5.4 6-8 9-1.2 1.4-2.4 2.7-3.6 4-2.4 2.8-4.6 5.6-6.8 8.5-2.6 3.3-5.1 6.1-8.1 9-3.9 3.8-7.3 7.9-10.7 12.2-1.6 2.1-3.3 4-5 6-2.8 3.4-2.8 3.4-5 7.3-3.2 4.6-6.5 6.9-11 10-3.6 2.6-6.6 5.7-9.7 8.9-4.3 4.4-8.6 8.4-14.1 11.1-1.4 2.7-2.8 5.3-4.1 8-2.8 4.5-6.5 7.8-10.4 11.5-3.1 3.2-5.2 6.7-7.5 10.5-1 .8-1.9 1.6-2.9 2.4-3 2.5-4.4 4.5-6.5 7.8-3 5.1-6.5 9.3-10.5 13.6-2.1 2.3-2.1 2.3-4.2 4.9-1.9 2.3-1.9 2.3-6 5.3-6.3 4.8-10.9 11-15.9 17-5.9 6.9-11.8 12.6-19 18-2.9 2.6-5.7 5.2-8.5 7.8-4.4 4-9 7.6-13.9 11.1-3.5 2.5-6.9 5.2-10.1 8.1-6 5.5-12.7 10-19.3 14.7-7 5-12.9 9.6-18.2 16.3-3.9 4.5-7.8 8.9-12 13-.8.8-1.5 1.6-2.3 2.4-5.8 6-11.9 10.9-18.7 15.6-4.5 3.2-8.6 6.5-12.6 10.2-5.3 4.9-11.1 9-17 13.2-3.4 2.6-3.4 2.6-6 5.8-2.6 3-4.7 4.5-8.2 6.4-3.8 2.1-7.3 4.2-10.9 6.6-4.3 2.8-4.3 2.8-8.8 4.7-4.7 2.2-7.5 4.9-11 8.6-9.9 9.9-22.1 17.5-34.5 23.5-4.3 2.2-7 4-10.4 7.5-4.2 4-8.4 6-13.6 8.5-.4.4-.4.4-1.9 2.5-2.5 3-5 4.5-8.5 6.5-5 3-9.3 6.1-13.6 10-14.2 11.5-28.7 21.6-44.8 30.2q-6.9 3.75-13.5 8.1c-2.7 1.7-5.5 3.5-8.2 5.2-3.9 2.4-7.5 5-11.1 7.7-4.9 3.6-10 6.2-15.4 8.8-.9.9-1.8 1.7-2.7 2.6-4.5 3.3-9 4.2-14.4 5.5-4.8 1.2-9.5 2.6-14.2 4.1-6.2 1.9-11.6 2.4-18 1.3-4.2-.5-7.3 0-11.4.9-.7.2-.7.2-3.9.9-2.5.5-5 1.1-7.4 1.7-4.2.4-8.3.6-12.4.8-3.6.2-3.6.2-6.6 1.2-36.2 4.1-79.2-9-105-36-1.7-2.6-3.4-5.3-5-8-3-2.2-3-2.2-6-4-4.9-2.8-9-5.8-9-12-1.7-.6-3.3-1.3-5-2-2.1-2.6-2.1-2.6-4-5.8-2.7-4.3-5.1-7-9-10.2-.7-2.3-1.4-4.6-2-7-.9-.9-1.7-1.9-2.5-2.9-2.5-3.1-2.5-3.1-3.5-7.3-1-3.8-1-3.8-6-5.8-2.2-3.4-2.2-3.4-4.2-7.4-3.7-7.4-3.7-7.4-5.8-9.6-1.1-2.3-2.1-4.6-3-7-1.2-2.5-2.4-5.1-3.5-7.7l-1.8-3.9c-1.7-3.4-1.7-3.4-4.7-6.4-.5-1.2-.9-2.4-1.4-3.6-1.6-4.3-1.6-4.3-4.6-8.4-3.1-4-4.3-7.3-6-12-1.4-2.5-2.9-5.1-4.4-7.6-.4-.7-.4-.7-2.3-3.9-2.2-3.2-4.5-5.7-7.3-8.5-1.4-1.8-2.8-3.7-4.2-5.6-2.1-3.1-4.1-5.7-6.8-8.4-4-4-4-4-6-7s-2-3-7-6c-.7-.8-1.3-1.6-2-2.4-2-2.6-2-2.6-4.8-3.9-4.4-2.2-7.6-5.4-11.2-8.7-.9-.4-.9-.4-5-3-.7-1.3-1.4-2.6-2-4-4.4-2-8.7-3.1-13.4-4.3-7.3-1.8-14.5-3.9-21.6-6.1-1.3-.4-2.6-.8-3.9-1.1-6-1.8-11.9-3.7-17.8-5.7-12.4-4.1-30-5.3-42.3-.8-4 .8-8 1.5-12.1 2.2-5.4 1.2-10 3.4-14.9 5.8-1.7.3-3.4.6-5.2.9-5.7 1.1-10.4 2.9-15.8 5.1-6.6 2.5-12.8 4.2-19.8 4.6-8.6.4-14.9 4.2-22.2 8.4-4 1.9-7.7 3.3-11.9 4.5-10.2 3.1-21.7 6.9-27.1 16.5-3.7 1.9-7.1 1.4-11 1-8.8-6.5-5.9-17.2-5-27 .9-7.3 2.1-14.7 3.3-22 2.3-14.2 4.5-28.3 6-42.5.7-5.7 1.5-11.4 2.2-17.1 1.3-9.5 2.2-19.1 2.9-28.7.4-4.1.9-8.1 1.5-12.2 1.3-9.6 2-19.1 2.8-28.7.1-1.9.3-3.8.4-5.8.3-4 .6-8.1.9-12.1l1.2-15.3c1.6-19.1 3.1-38.1 3.6-57.3.1-4.7.5-9.3.9-14 2.4-32.1 1.4-64.7 1.4-96.9v-20.9c0-76.4 0-76.4-1.7-95.8-.4-5.5-.6-11-.8-16.6-.6-18.1-2.1-36.1-3.5-54.1l-1.2-15c-2.9-37.4-2.9-37.4-5.3-55.9-.7-5.6-1.2-11.3-1.6-16.9-.7-8.5-1.9-16.8-3.3-25.2-.8-5.4-1.4-10.8-2.1-16.2-1.4-12.9-3.5-25.8-5.6-38.7-4.7-29.4-4.7-29.4 0-38.1 4.2-2.7 7-2.3 12-2 3.5 1.9 3.5 1.9 7 4q4.5 1.65 9 3c1.9.9 3.8 1.8 5.6 2.7 5.8 2.5 10.7 2.7 16.9 2.4 3.3 0 6.3.2 9.6.6 5.7.3 9.5-.3 14.9-1.8 3-.9 6-1.3 9.1-1.7 6.4-1.3 10.4-3.6 15.9-7.2 4-2 7.9-3.9 12.2-5.6 5.1-3.2 6.4-6.8 8.8-12.4.7-1.2 1.4-2.5 2.2-3.8 1.8-3.1 1.8-3.1 3.8-8.2.5-.4.5-.4 3-3 1.3-2.6 2.7-5.3 4-8 .5-.9 1.1-1.8 1.7-2.8 5.4-8.9 6.6-16.8 7.3-27.2 1.7-22 1.7-22 3.5-28.1 1.7-5.7 2.1-10.9 2.5-16.9.3-.6.6-1.3 1-2 0-2.4 0-4.8-.1-7.3-.4-25.2.4-49.4 9.1-73.3 1.8-4.8 2.9-9.4 4-14.4 3.7-13.4 8-24.8 17-35.5 2-2.5 2-2.5 5-7.6 3.5-5.8 7.1-11 12.8-14.7 3.4-2.3 5.9-4.8 8.7-7.7 12.2-11.4 28.1-17.7 43.5-23.5 3.5-1.4 7.1-2.8 10.6-4.2 1.7-.7 3.4-1.3 5.1-2 7.1-2.9 12-4.1 19.7-4m-15.6 11.1c-.5.1-.5.1-3 1-4.6 1.8-8.6 3.6-12.8 6.1-1.5.6-3 1.2-4.6 1.9-5 2-9.6 4.2-14.3 6.6-4.1 2-8.2 3.6-12.4 5.2-3.3 1.6-5.2 3.7-7.7 6.3-1.8 1.7-3.7 3.4-5.5 5-.5.5-.5.5-2.9 2.7-1.9 1.7-3.9 3.3-6 4.9-3.6 3.4-5.9 7.3-8.6 11.4-2.4 3-4.7 6-7 9-6.3 9-12.7 18.5-13.3 29.6-.8 5.9-2.7 9.9-5.2 15.2-5.5 11.8-6.8 25.1-7.7 37.9-.1 1.2-.2 2.5-.3 3.8-.6 10.4-.4 20.5.4 30.8.1 4.7.1 4.7-1.9 9.7-.3 2.9-.5 5.8-.7 8.7-.5 4.5-1.5 8.8-2.6 13.1-2.1 9.5-1.9 19-2.1 28.6-.7 6.1-2.4 9.5-5.6 14.6-.7 1.7-1.4 3.4-2 5-.7 1.2-1.4 2.3-2 3.5-2 3.5-2 3.5-3 6.6-1.2 3.5-2.9 6-5 8.9-2.6 3.8-4.3 6.8-6 11-4.5 5-9.3 8.6-15 12-1.6 1.7-3.1 3.3-4.6 5-7.3 8.6-14.4 10.9-25.4 12-1.4.7-2.7 1.4-4 2-14.9 3.1-30.7 4.1-45.1-1.2-4.6-1.2-7.8-.4-11.9 1.9-5.2 8.4-.2 23.3 1.3 32.7 2 11.9 3.6 23.8 5 35.8.7 5.8 1.4 11.7 2.2 17.5 1.2 9.3 2.2 18.5 2.9 27.8q.6 6.3 1.5 12.6c1.2 9.8 2 19.5 2.8 29.3.1 1.9.3 3.8.4 5.8.3 4 .6 8 .9 12.1.4 4.1.7 8.1 1 12.2 3.2 40.9 3.2 40.9 3.8 60.2.1 3.9.3 7.7.6 11.6 2.7 33.5 1.7 67.5 1.7 101.1v21.7c0 76.2 0 76.2-1.9 100-.4 4.5-.4 9-.6 13.6-.6 20.9-2.6 41.8-4.3 62.6-.4 4.6-.7 9.2-1.1 13.8-.4 4.4-.7 8.9-1.1 13.3-.1 2.1-.3 4.2-.5 6.3-.8 10.5-1.7 20.9-3.2 31.3-.6 4.6-1 9.1-1.3 13.7-1 12.4-2.8 24.7-4.7 37-.7 5-1.3 10-1.9 15-1.3 9.6-2.7 19.2-4.3 28.7-2.1 13.4-2.1 13.4.8 17.5 7.1 5.1 15.3.6 22.6-2.2 1.2-.4 2.3-.8 3.5-1.2 4.9-1.8 8.6-3.3 12.9-6.5 3.7-.9 7.4-1.8 11.2-2.6 11.1-2.6 21.8-5.8 32.5-9.5 5-1.8 10.1-3.4 15.2-4.9 2.4-.7 4.7-1.5 7.1-2.3 1.4-.4 2.8-.9 4.3-1.3 1.2-.5 2.5-.9 3.8-1.3 8.5-2.3 17-2.2 25.7-2.2h3.7c11.1 0 20.1.8 30.5 5.1 4.2 1.3 8.6 2.4 12.9 3.6 8.2 2.1 16.1 4.5 24.1 7.4 1.1.3 2.3.6 3.5.9 8.9 2.9 15.5 7.9 22.5 14.1 1.3.4 2.6.7 4 1 .6 1.4 1.3 2.7 2 4 2 1.4 4 2.7 6 4 2.3 2.4 4.6 4.7 7 7 1.2 1.1 2.5 2.2 3.8 3.4 8 7.1 14.5 15.2 20.9 23.8 2.3 2.9 2.3 2.9 6.3 6.8 1 2.4 2 4.7 3 7 1 1 1.9 2 3 3 .9 2.7 1.9 5.4 2.8 8.1 1.8 4.5 4.4 8.1 7.2 11.9 4.6 7.5 8.7 14.9 11.9 23.1 2.5 6 5.5 10.4 10.1 14.9.8 2 1.6 3.9 2.3 5.9 1.5 3.8 2.4 5.9 5.3 8.8 2.4 2.3 2.4 2.3 3.2 7.3 1.4 6.1 2.9 7 8.2 10 3.5 3.1 5.2 5.4 7.4 9.6 2.6 4.5 4.3 5.8 8.6 8.4 1.3 2 2.6 4 4 6 2.6 2.4 5.3 4.7 8 7 3.6 3.9 7.1 7.7 9.9 12.2 5.6 7.7 15.5 11.1 23.9 14.9 3.4 1.6 6.7 3.3 10 5 23.6 12 44.9 12.4 70.5 8.7 10.1-1.3 20.7-2.6 30.8-1.1 4.4.4 6.8-.3 10.8-1.9 1.2-.5 2.4-.9 3.7-1.4 1.1-.5 2.2-.9 3.4-1.4 4.6-1.6 8.8-2.9 13.6-3.7 10.4-2.4 19-7.7 27.4-14.3 2.7-1.8 5.5-3.5 8.3-5.2 2.2-1.5 4.5-3 6.7-4.5 9.9-6.5 19.9-12.6 30.2-18.4 10.2-5.8 20-11.9 29-19.5q9.9-8.4 20.7-15.6c4.1-2.8 4.1-2.8 7.1-5.9 3.4-3.3 6.7-4.8 11-6.9 2.1-1.6 4.3-3.3 6.5-5 6.1-4.8 12.5-9 19.5-12.4 8.4-4.3 15.4-9.8 21.9-16.7 4.5-4.6 9.2-7.4 14.9-10.3 4.3-2.1 8.2-4.8 12.2-7.6 1-.6 2-1.3 3-2 5.4-3.6 10.4-7.3 15-12 1.6-.9 3.3-1.9 5-3 1.8-1.6 3.6-3.2 5.4-4.9 3.7-3.4 7.4-6.3 11.6-9.1.4-.4.4-.4 2.9-3 3.1-3 3.1-3 6.3-4.8 4-2.3 7-5 10.4-8.2 6-5.7 6-5.7 9-8 2.5-2.1 4.4-4.3 6.4-6.9 2.8-3.6 5.6-6.9 9-10.1.6-.6.6-.6 3.5-3.7 5-5 10.7-9.1 16.5-13.3 5.8-4.4 11.4-9.1 17-14 2.8-2.3 5.4-4.2 8.6-6.1 4.6-3 8.3-6.4 12.3-10.2 5.5-5.3 11-10.1 17.1-14.7 3.7-2.7 6.5-5.6 9.4-9.2.8-1 1.6-1.9 2.4-2.9 1.8-2.4 3.6-4.8 5.3-7.2 3-3.8 5.9-6 9.9-8.7 1.7-1.6 3.3-3.2 5-5 1.1-.9 2.1-1.9 3.3-3 3.2-3.4 5.3-6.5 7.7-10.6 2.9-4.8 5.5-7.8 10-11.4 2.1-2.7 4.1-5.5 6.1-8.4 2-2.8 4.3-5.1 6.9-7.6 3.1-3.3 4.8-5.2 5.8-9.7 1.6-4.6 3.6-4 8.2-5.3 3-3.3 3-3.3 6-7 1-.8 2-1.6 3.1-2.5 2.9-2.4 2.9-2.4 4.5-5.3 2.4-3.3 4.5-4.8 7.9-7.2 4.2-2.9 6.8-5.4 9.5-10l5-5c6.4-7.1 6.4-7.1 8.9-11 2.1-2.9 2.1-2.9 5.7-6.1 6.1-5.4 11.1-11.5 15.6-18.2 2-3 4.2-5.2 6.8-7.7.6-.8 1.3-1.6 2-2.4 2.1-2.8 4.5-5.1 7-7.6 11.7-11.7 11.7-11.7 14-21 1.3-3 2.6-6 4-9 .4-1 .9-2 1.4-3.1 2.8-6.3 5.9-12 9.6-17.9.5-1.3 1-2.7 1.5-4.1 1.5-3.9 1.5-3.9 3.5-6.4 2-2.4 2-2.4 2.8-5.9 1.2-3.6 1.2-3.6 4-5.7 5.4-4.8 7.5-11.8 9-18.7 1.6-4.4 4.6-6.2 8.2-9.2 5.1-6.5 8.8-13.2 12.3-20.8 1.7-3.1 1.7-3.1 3.8-5.7 2.2-2.8 2.8-5.2 3.7-8.7 1.4-4.6 2.5-7.2 5.3-11.3 3.5-5.4 4.3-10.2 4.9-16.5.1-.9.2-1.9.3-2.9 1.5-15.5 2.5-32.4-3.3-47.1-.1-.8-.1-.8-.2-5.1-.5-7.7-3.7-14.2-6.8-21.2-2-4.5-3.5-9-5-13.7l-4.8-12.3c-.3-.6-.3-.6-1.3-3.2-4.5-11.4-7.8-19.4-18.9-25.5-1.4-3.9-1.4-3.9-2-8-1.8-3-1.8-3-4-6-2.4-3.7-4.7-7.4-7-11.2-.3-.6-.3-.6-2-3.5-.7-1.1-1.3-2.2-2-3.3-3.3-4.7-7.1-7-12-10-3.7-3-5.9-6.3-8.4-10.3-3.2-5.3-7-8.6-11.6-12.7-1-1.5-2-3-3-4.6-4-5.8-8.2-8.6-15-10.4-.7-1.6-1.4-3.3-2-5-3.6-2.1-7.2-3.4-11-5-.9-1.1-1.9-2.2-2.8-3.3-3.8-4.3-6.9-5.6-12.2-7.7-6.2-2.6-12.1-5.6-18-8.9-4.9-2.8-9.9-5.5-15-8-4-2.1-4-2.1-7-5.1-.6-.2-.6-.2-3.4-1.3-3.9-1.8-6.4-3.9-9.6-6.7-2.7-1.3-5.4-2.6-8-4-2.8-1.9-5-3.9-7.2-6.3-3.9-3.6-8.3-6-12.8-8.7-2.1-1.6-4.1-3.3-6-5-.9-.4-.9-.4-5-3-4.2-3.1-8.2-6.2-12-9.7-3-2.3-3-2.3-8.3-3.7-4.7-1.6-4.7-1.6-6.7-6.6-3.4-3.2-7.2-5.2-11.4-7.3-5.3-2.8-9.9-5.9-14.6-9.7-8.4-5.7-17-11.1-25.8-16.1-2.7-1.5-5.2-3.2-7.8-4.9-4.4-3-4.4-3-7.4-4.4-3-1.5-3-1.5-7.4-5-4.4-3.4-8.5-5.4-13.6-7.6-1.7-1.2-3.4-2.6-5-4-.9-.4-.9-.4-5-3-1.3-1.2-2.6-2.4-4-3.7-4.7-4.3-9.9-6.9-15.7-9.7-4.9-2.3-9.5-4.9-13.6-8.5-3.3-2.5-6.6-3.6-10.5-5-7.7-2.8-14.4-5.9-21-10.9-4.5-3.3-9.1-5.8-14.1-8.3-3.1-1.9-3.1-1.9-6.1-4.3-3.3-2.8-6.5-4.4-10.5-6.2-.6-.3-.6-.3-3.8-1.7-2.4-1.1-4.9-2.1-7.3-3-3.4-1.6-3.4-1.6-6.1-4.5-4.6-4.3-9.6-6.3-15.4-8.7-1.1-.5-2.2-1-3.4-1.5-5.6-2.4-11.2-4.6-17-6.6-5.4-2-8.6-5-12.7-9.1-4.5-3.6-9.6-5.5-14.9-7.5-3.9-1.8-3.9-1.8-7.8-4.2-4.7-2.9-9.3-4.7-14.5-6.6-.9-.4-1.8-.7-2.8-1.1-4.5-1.7-9.1-3.3-13.7-4.8-4.6-1.8-8.2-3.8-12.3-6.4-6.3-3.9-12.5-6.5-19.4-9-5.4-2-10.5-4.3-15.7-6.8-.9-.4-.9-.4-5.3-2.5-4.4-2.4-4.4-2.4-8.4-6.4-2.7-1.3-5.4-2.6-8-4-1.1-.7-2.2-1.5-3.3-2.3-8.7-6.2-18.5-10.4-28.7-13.5-3.5-1.3-6.7-3-10-4.8-8.8-4.5-18-7.7-27.4-10.8-5.8-2-10.6-4-15.6-7.6-10.6-5.4-21.7-9.1-32.9-12.8-7.5-2.6-13.5-5.5-20.1-10.2-10.1-4.6-20.5-8.4-31.2-11.2-5.1-1.4-8.7-3.2-12.6-6.6-6.9-5.5-12.8-9.1-21.3-11.6-6.3-1.9-10.3-3.7-14.9-8.6-6.2-6.2-12.8-8.4-21-11-8-2.6-15-5.2-22-10-10-4.5-17.2-3-27.2.9"/></svg>