<svg xmlns="http://www.w3.org/2000/svg" width="1363" height="2430" viewBox="0 0 1363 2430"><path fill="currentColor" d="M692.313 40.313c1.2 0 2.3.1 3.6.1 12.4.5 24.1 3.5 36.1 6.6 1.7.4 3.5.9 5.2 1.3 14.8 5.2 18.5 10.5 22.8 25.7.6 1.3 1.3 2.6 2 4 0 6 0 6-2.1 8.5-2.3 4.1-1.9 5.3-1.2 9.7.9 7.9-1.8 10.8-6.7 16.8-2.6 4.1-3.1 6.6-3.8 11.6-1.8 12.1-9.4 22.5-16.3 32.3-5.3 8.5-9.2 17.8-13.3 26.9-1.6 3.2-1.6 3.2-4.6 6.2q-2.1 3.15-3.9 6.3c-9.4 14.7-21.8 27.5-34.1 39.7l-3.1 3.1c-9.1 9.2-9.1 9.2-13.8 13.3-4 3.5-7.4 7.1-11 11-5.4 5.9-11 11.4-17.1 16.6-7.7 6.7-7.7 6.7-10.6 9.6-2.4 2.4-2.4 2.4-6 4.8-3.5 2.6-5.2 4.9-7.4 8.6-3 3-3 3-5.7 4.3-5.6 2.8-10.2 6.7-14.9 10.8-3.1 2.6-6.1 4.7-9.4 6.9-.5.4-.5.4-2.8 2.4-3.2 2.6-3.2 2.6-7.7 5.4-4.7 3.3-7.8 6.8-11.5 11.2-4.5 4.2-8.5 7.3-14 10-1.7 1.6-3.4 3.3-5 5-3.6 3.1-6.9 5.5-11 8-.5.5-.5.5-3.1 3.2-3.1 3-5.4 4.9-9 7q-13.65 8.4-24.9 19.8c-1.8 1.4-3.6 2.9-5.4 4.3-4.8 3.9-8.7 8-12.6 12.7-5.7 6.4-11.5 12.4-18 18-1.4 2-2.7 4-4 6-5.1 6.3-5.1 6.3-8.5 8.9-2.6 2.2-4.3 4.4-6.3 7.2-2.6 3.8-5.4 7.2-8.6 10.5-9.4 10.2-22.1 28-17.7 42.4 3.2 8.3 6.9 14 16.1 16 7.3.4 13.5-1 20.4-3.2l3-.9c4.7-1.5 8.9-3.1 13.4-5.3 7.7-3.9 15.9-6.5 24-9.3 8.3-2.9 15-6.4 22.2-11.3 4.5-2.8 9-5.5 13.7-8 8-4.4 15.5-9.2 22.8-14.6 4.6-3.2 9.4-5.9 14.3-8.5 3.4-2 6.2-4.4 9.2-6.9 1.6-1 3.3-2 5-3l2.4-2.4c2.9-2.9 6-4.9 9.5-7.1s6.7-4.2 9.8-6.9c4.5-3.6 9.4-6.1 14.5-8.7 1-.5 1.9-1 2.9-1.5 10.7-5.6 21.1-9 33-10.6.5-.1.5-.1 3.3-.5 12.6-1.8 24.9-2.5 37.6-2.3 1.7 0 3.5 0 5.3.1 20.2.6 32.6 4.8 48.1 17.7 2.1 1.8 4.2 3.4 6.3 5.1 15.3 14.4 16.6 29.9 16.5 50 0 1.7.1 3.4.1 5.1v4.9c0 1.4-.1 2.9-.1 4.4-.2 3.7-.2 3.7-2.2 7.7-.5 2.9-1 5.9-1.4 8.9-2.1 13.8-5.5 24.7-12.4 37-2.2 4.1-2.2 4.1-4.1 8.4-2.4 5.2-5 10.2-7.9 15.1-.5 1-1 1.9-1.6 2.8-3.7 6.5-7.7 12.1-12.6 17.8-1 1.3-2 2.7-2.9 4.1-2.5 3.1-4.8 5.6-7.6 8.3-3.1 3-5.1 5.4-7.4 9.1-3.2 4.6-6.5 7.6-10.7 11.2-2.4 2.3-4.1 4.6-6 7.4-3.8 5.4-7.2 8-12.4 11.9-2.3 2.6-2.3 2.6-4 5-5.7 7.6-13.1 12.6-20.9 17.7-3 2.2-5.5 4.6-8.1 7.3l-9 6c-7.3 5.3-13.1 11.2-19 18-3.4 3.6-6.8 6.3-11 9-4 2.8-5.8 4.6-7.9 9.1-2.5 4.6-4.4 5.6-9.1 7.9-4.2 2.3-5.7 3.4-7.7 7.7-2.8 5.1-5.8 7.1-10.5 10.4-5.4 3.7-10 7.9-14.3 12.8-3.5 4.1-3.5 4.1-8 7.9-4.3 3.8-7.5 8-10.7 12.7-2 2.8-4.3 5.1-6.8 7.5-.8.8-1.5 1.6-2.3 2.4-2.7 2.6-2.7 2.6-6.6 5.8-4.3 4-7 8-10.1 12.8l-3 2.4c-3 2.6-3 2.6-5.4 7-3.9 6.9-9.8 11.7-15.6 17-12.9 11.7-16.5 20.2-15 37.6 2.3 6.1 4.5 9.8 11 12 7.9.8 13.6-2.4 20-6.7 5.8-3.8 11.8-6.9 18-10.1 3.8-2.1 6.7-4.4 10-7.2 2.6-1.6 5.2-3.1 7.8-4.6 6.5-3.7 12.3-7.7 18.2-12.4l9-6c.8-.5.8-.5 4.6-3.2 4.4-2.8 4.4-2.8 7.7-4.2 3.9-1.7 7.4-3.7 11-5.9 1.3-.8 2.6-1.6 4-2.4 1.2-.8 2.4-1.5 3.7-2.3 1.8-1.1 3.6-2.1 5.4-3.2 3.1-1.9 6.1-3.8 9.1-5.9 6-3.9 12.2-7 18.9-9.6 9.5-3.7 18.7-8.7 27.3-14 7.7-4.7 15.6-8 24-11 7.7-2.8 15-5.6 22.3-9.3 2.7-1 5.3-2 8.1-2.9 1.4-.6 2.9-1.1 4.5-1.6 1.4-.5 2.9-1 4.4-1.5.6-.2.6-.2 3.7-1.3 7.2-2.4 14.4-4.6 21.7-6.6 6.6-1.9 13.1-3.9 19.5-6.3 7.3-2.6 14.5-4.4 22.1-5.8.6-.1.6-.1 3.8-.8 5.8-1.3 11.4-2.3 17.3-2.7 4.4-.4 7.9-.9 12.1-2 12.3-3 24.4-3.1 36.8-.5.9.2.9.2 5.3 1 23.4 4.6 43.3 10.5 52.4 34.1 5.3 16.1 7.6 34.1 8 51 .3 3.9.3 3.9 1.5 8.1.8 3.8.8 3.8-2.2 8.8-.6 2.3-1 4.7-1.5 7.1-1 5.5-2.4 10.6-4.4 15.8-5.1 14.2-7.9 28.7-9.6 43.6-.5 3.5-.5 3.5-1.5 6.5l-.9 8.4c-1.4 12.6-3.9 22.6-9.5 34.1-2 4.4-3.4 8.8-4.6 13.5-.7 2.2-1.4 4.4-2.1 6.5-1.1 3.7-2 7.2-2.8 10.9-1.3 5.4-3.4 10.2-5.7 15.2-1.7 4.1-3 8.2-4.4 12.4-3.4 8.1-7.2 15.9-11.6 23.5-2.4 4.5-2.4 4.5-4.2 9.4-2.2 5-4.7 8.6-8 13-3.4 4.8-6.2 10.1-9 15.3-1.9 3.2-3.8 6.2-6 9.2-3.2 4.6-3.2 4.6-5.8 9.3-2.4 4.3-2.4 4.3-5.1 7.3-2.3 3-2.3 3-3.3 7.5-1.5 6.7-5.2 9.7-10 14.5-1.3 2-2.6 4.1-3.8 6.2-2.5 4.1-4.7 7.4-7.9 11-3.7 4.3-5.8 8.7-8.3 13.8-2.3 3-4.7 5.7-7.5 8.3-5.5 5.9-9.3 13-13.1 20.1-3 5.4-6.3 10.5-10.1 15.5-4.6 6.2-8.2 13-11.9 19.9-1.9 3.2-3.7 6.1-6 9.1-4.5 6.1-7.2 13.3-10.2 20.4-2.6 5.5-5.6 9.8-9.2 14.7-2.2 4.3-3.9 7.7-4.4 12.5-1.1 6.2-5.4 10.8-9.1 15.8-5.4 7.4-9.2 14.1-12.5 22.7-1.3 1.7-2.6 3.3-4 5-4.4 6.9-6.5 12.9-8 21-1.6 3.3-3.3 6.7-5 10l-3 9c-1 2.3-2 4.7-3 7-1.7 3.9-3.3 7.8-4.6 11.9-1.5 4.3-3.4 8.1-5.4 12.1-1.4 3.6-2.2 6.9-3 10.7-1 4.3-1 4.3-3 7.3-.7 2.6-1.4 5.3-2 8-.3.8-.3.8-1.6 4.8-3.8 13.8-4.8 31.6-.4 45.2.1 1.6.2 3.1.2 4.7 1.6 11.2 5.4 16.1 15.8 20.3 3.5 4.1 6.2 8.3 9 13 15.1 5.8 24.4.4 38-6.5 2-1 4-2 6.1-3 6.3-3.1 12.1-6.5 17.9-10.5 2-1.4 4.1-2.7 6.2-4.1 4.1-2.7 8-5.7 11.8-8.9 6.3-4.8 12.7-9.2 19.5-13.4 2.6-1.7 5-3.6 7.5-5.6 2-1.4 4-2.7 6-4 7.5-5.5 13.9-10.9 20-18 2.1-1.7 4.3-3.4 6.5-5q4.35-3.6 8.4-7.5c3.7-3.3 7.3-6.6 11.3-9.6 4.2-3.3 7.8-6.9 11.5-10.7 3.1-3 6.4-5.6 9.8-8.2 6.9-5.5 12.7-11.4 18.5-18 2.6-2.4 5.3-4.7 8-7l8-8c.7-.8 1.5-1.5 2.2-2.3q3.3-3.15 6.6-6.6c1.3-1.4 2.7-2.7 4.1-4.2l4.2-4.2c3.2-3.1 6.2-5.4 9.9-7.7 1.5-1.3 3.1-2.7 4.5-4.1 4-3.6 8.1-7.1 12.2-10.5 3.4-2.9 6.6-5.7 9.7-8.9 3.3-3.3 6.7-6 10.3-8.8 4.7-3.5 8.9-7.2 13-11.4 4.2-4.3 8.5-7.8 13.4-11.2 4.5-3.3 8.6-6.9 12.8-10.5 2.4-2.1 4.9-4 7.4-5.9 6-4.5 11.3-9.8 16.7-15 4.8-4.4 9.6-8.8 14.7-12.8 3.6-2.9 6.6-6 9.4-9.7 3.3-3.7 6.9-6.2 10.9-9.1 3-2.1 5.8-4.3 8.5-6.7 6-4.9 12.1-9.6 19-13.3 4.1-2.5 7.4-5.6 10.9-8.9 3.6-3.1 7.6-5.6 11.6-8.2.9-.7 1.8-1.5 2.7-2.2 2.6-2 5.3-3.3 8.3-4.8l3-3c.9-.4.9-.4 5.5-2.2 4.5-1.8 7.7-3.6 11.3-6.7 5.1-4.5 10.6-6.5 17-8.7 4.1-1.8 5.7-4.2 7.4-8.3 8.9-15.5 37.6-13.5 52.8-14.1 1.4-.1 2.8-.1 4.2-.2 7.7-.2 14.1.7 21.5 3.1 3.3 1.1 3.3 1.1 7.2 1.9 4.6 1.3 8.4 3.3 12.6 5.6 5.1 2.8 10.2 5.3 15.5 7.6 9.4 6.4 16 17.4 20.1 27.8 2.4 6.1 5.2 11.3 8.9 16.9 11.8 19.9 16.3 40.6 18.9 63.2.8 7.6 2.2 14.7 4.1 22.1 3.8 22.2-.9 46.4-3.2 68.6-.2 2.1-.4 4.3-.6 6.4-.3 3-.7 6.1-1 9.1l-.6 5.4c-.6 4.5-.6 4.5-2.6 9.5-.6 3.8-1.1 7.5-1.5 11.3-1.3 10.7-1.3 10.7-2.6 15.9-1 4.3-1.2 8.2-1.2 12.7-.4 8.4-2 15.7-4.4 23.7-1.6 5.5-2.6 11-3.6 16.6-1.3 6.8-2.7 13.6-4.8 20.2-1.2 4.7-1.7 9.3-2.3 14.1-1.1 6.2-4.2 11.7-6.9 17.4-3.2 6.7-5.8 13.6-8.4 20.5-2.6 7-5.7 13.4-9.2 20-4.2 7.7-8.2 15.2-10.6 23.7-1.4 4.4-3 7.3-5.6 11-4.6 7-8.1 14.5-11.9 21.9-.6 1.1-1.2 2.3-1.8 3.4-3.1 5.9-5.6 11.9-7.7 18.2-1.7 3.8-3.8 7.2-5.9 10.7-2.6 4.4-4.9 8.8-7.2 13.3-.5.9-1 1.8-1.4 2.7-2.1 4-4.2 8-6.2 12.1-1.8 3.6-1.8 3.6-4.6 7.7-4.9 7.5-8.8 15.4-12.1 23.8-4.4 10.7-9.7 20.5-16.1 30.1-2.5 4.6-4.9 9.3-7.4 14q-3.6 6.75-7.5 13.2c-4.6 7.7-8.8 15.6-12.8 23.6-3.2 6.2-6.7 12.2-10.3 18.2-2.6 4.4-4.9 8.6-6.6 13.4-2 5.2-4.8 9.7-7.8 14.3-4.1 6.6-7.5 13.1-10.3 20.4-1.4 3.1-3.1 5.3-5.3 7.9-4.1 6.5-7.8 13.2-11.3 20-1.7 3-1.7 3-3.6 5.3-3.9 5-6.6 10.8-9.6 16.4-2.2 3.8-4.4 6.2-7.5 9.3-1.3 2.1-2.6 4.3-3.8 6.5-4 7.2-8.4 13.8-13.2 20.5-.7.9-1.4 1.9-2 2.9-4 5.6-8.3 10.7-12.9 15.8-3 3.2-5.5 6.7-8.1 10.3l-3.3 3.9c-6.7 8.5-11.5 18.6-15.3 28.6-2.5 5.7-5.3 9-9.4 13.5-3.4 5.2-6.3 10.6-9.1 16.1-1.9 3.9-1.9 3.9-4.7 8.3-2.9 4.7-5 9.6-7.2 14.7-2.8 6.4-5.6 11.5-10 16.9q-2.7 4.05-5.4 8.4c-1.3 2.1-2.7 4.2-4.1 6.3-3.1 5.3-5.8 10.7-8.5 16.3-1.7 3.3-3.4 6.7-5.1 10.1-3.9 7.7-7 15.8-10.1 23.9-1.6 4.2-3.1 7.4-5.8 11-.3 1.3-.6 2.7-.9 4.1-1.3 5.6-3.5 9.8-6.1 14.9-1.8 4.3-3.4 8.6-5 13-.7 1.6-1.3 3.3-2 5-.2.9-.2.9-1.4 5.7-.9 4-2 7.1-3.7 10.9-2.1 4.9-2.4 9.1-2.9 14.4-1.7 4.8-3.5 9.1-6 13.4-2 3.6-2 3.6-3.9 9-2.1 5.5-4.6 9-8.1 13.6-1.8 3.6-3.4 7.3-5 11-1 1.6-2 3.3-3 5-.4 3-.4 3-.5 6.3-.3 5.5-1.4 9.6-3.5 14.7-.3 1.5-.5 3-.8 4.6-4.7 21.2-19.1 40-33.6 55.5-1.8 2-3.6 4-5.3 6.1-2.2 2.7-4.5 4.7-7.3 6.8-1.3 1.3-2.7 2.6-4 4-1.9 1.3-3.8 2.6-5.7 3.8-7.3 4.8-14.3 9.8-20.3 16.2-3.8 3.8-8.2 5.7-13 8-1.9.9-3.8 1.9-5.8 2.9-.4.2-.4.2-2.9 1.4-2.1 1.1-4.3 2.3-6.3 3.5-9.8 5.6-18.3 6.3-29.5 6.3h-4.7c-25.9.4-48.2-6.1-64.1-27.7-.8-1.1-1.6-2.1-2.4-3.2-.4-.6-.4-.6-2.3-3.2-.4-.5-.4-.5-2.1-2.9-2-2.7-4-5.4-5.9-8.1-.6-.8-1.2-1.7-1.9-2.5-4.2-5.9-7.8-12-11.1-18.5-.5-1-1.1-2-1.6-3-3.5-6.5-5.6-12.8-7.4-20-.7-2.3-1.3-4.6-2-6.9-.7-2.4-1.4-4.7-2-7.1l-.9-3c-7-27.3-7-27.3-1.1-38 .2-3.5.2-3.5.1-7.3-.2-6.7-.2-13.6 2.9-19.7.1-1.8.2-3.7.3-5.6.4-5.8 2.3-10 4.7-15.4 0-.9 0-.9.4-5.4.6-6 2.2-8.9 5.2-14 2-3.8 2.1-7.4 2.4-11.6.6-1.7 1.3-3.3 2-5 .3-1.8.6-3.6.9-5.5.9-4.7 1.9-7.4 4.1-11.5 1-3.3 2-6.7 3-10 .6-1.3 1.3-2.7 2-4 .7-3.2 1.3-6.3 1.9-9.5 1.1-5.9 2.3-11.6 4.3-17.2 1.8-5.3 1.8-5.3 2.3-10.1.5-4.2.5-4.2 2.6-8 1.9-4.2 1.9-4.2 1.9-10.2 0-6.3 1-8.6 4-14 1-3.7 2-7.3 3-11 1-1.7 2-3.3 3-5 .7-3.7 1.3-7.3 2-11 .9-2.7 1.9-5.4 3-8 .7-2.7 1.3-5.3 2-8 .6-1.7 1.3-3.3 2-5 .3-1.4.5-2.7.8-4.1 1.9-7.7 5.1-14.1 9.2-20.8 2.9-5.2 4.1-10.4 5.4-16.3 1.8-8.6 4.6-15.8 8.8-23.5 1.7-3.1 2.7-6 3.8-9.3 2.1-3.6 4.2-7.1 6.9-10.3 5.4-7.1 8.4-14 10.3-22.6 2.3-9.4 6.5-17.7 11.2-26 1.6-3.1 1.6-3.1 3.5-8.6 1.7-4.6 3.5-8.1 6-12.3 4.8-8.2 7.9-16.6 10.2-25.8.9-3.4.9-3.4 3.9-8.4.2-.6.2-.6 1.4-3.8 1.8-4.7 4.1-8.8 6.6-13.2.4-1.4.9-2.7 1.4-4.1 1.6-3.9 1.6-3.9 4.8-7.4 7.9-9.3 12.1-20.9 16.4-32.2 1.7-4.1 4-7.6 6.4-11.3 2.2-5.8 3.7-11.8 5.2-17.9.8-3.2 1.9-6.3 3-9.4 4.7-15.2 1.9-32.7-7.2-45.7-3.2-3.2-6.6-6.1-10-9-4.9-4.6-4.9-4.6-6-8-1.7-.7-3.3-1.3-5-2-.6-.5-.6-.5-3.5-3-10.3-8.7-21.5-3.6-33.1.2-7.2 2.9-12.8 6.9-18.3 12.2-4.8 4.5-9.7 8-15.1 11.6-3.1 2.7-6.1 5.5-9.1 8.3-2.4 2.2-4.9 4.4-7.4 6.6-3.5 3.1-3.5 3.1-5.4 5.5-2.2 2.7-4.4 4.5-7 6.6-3.7 2.8-6.9 5.7-10.1 9-2.7 2.3-5.3 4.7-8 7-3 3-3 3-4.7 5.2-2.3 2.8-2.3 2.8-6.2 6.2-3.8 3.3-6.9 6.7-10.1 10.6-.9.8-1.7 1.7-2.6 2.5-2.4 2.5-2.4 2.5-4.1 5.3-2.8 3.8-6 6.3-9.7 9.2-3.7 2.8-7.1 5.9-10.6 9-1.2 1-2.5 2-3.8 3.1-3.1 2.8-4.9 5.3-7.2 8.9-3.8 4.5-7.8 8.8-12 13-1.7 2-3.4 4-5 6l-3 3c-.7 1.1-1.4 2.3-2.1 3.4-5.8 9.1-12.2 16.1-20.9 22.6-5.6 7.6-9.5 16.7-13.5 25.2-1.5 2.8-1.5 2.8-4.5 5.8-.5.9-1 1.7-1.6 2.6-7.1 9.9-18.1 17.2-28.4 23.4l-3 3c-1.9.9-3.8 1.7-5.8 2.5-.5.2-.5.2-3.2 1.3l-3 1.2c-1.1.5-2.3 1-3.5 1.5-2.1.9-4.3 1.8-6.4 2.6-5.4 2-10.5 4-15.5 6.9-12.5 7-25.2 9.9-39.5 7.5-5.5-.9-11.1-.9-16.6-1.1-4.4-.4-8.3-1.3-12.5-2.4-1.6-.1-3.2-.2-4.9-.3-10-1.4-16-7-22.1-14.7-1-1.2-2-2.3-3.1-3.5-.9-1.2-1.9-2.3-2.9-3.5s-2-2.3-3-3.5c-4.1-6.1-6.5-12.6-9-19.5-.5-1.3-.9-2.5-1.4-3.8l-3.6-10.2c-.6-1.6-1.2-3.1-1.8-4.8-1.4-4.7-1.8-9.3-2.2-14.2-.2-.7-.2-.7-.9-4.1-1.3-5.7-1.9-11.5-2.5-17.3-.6-4.6-1.7-9-2.9-13.4-1.2-5.4-1.8-10.8-2.5-16.3-.1-1.2-.2-2.3-.4-3.4-.9-8.3-.9-8.3.2-10.5.1-4.2.1-8.3.1-12.5v-3.5c0-8.8 0-8.8-1.1-11 .1-2.9.2-5.7.4-8.6.3-4.8.6-9.5.6-14.3 0-4.1 0-4.1 1-7.1.1-2.6.1-5.3.1-7.9-.1-1.6-.1-3.1-.1-4.7v-5c0-3.2-.1-6.4-.1-9.7v-4.3c.1-3.4.1-3.4 1.1-5.4.3-2 .5-4 .8-6 .6-4.5 1.5-7.7 3.2-11.9 2.1-5.5 2.9-10.3 3.5-16 .5-3.1.5-3.1 2.5-7.1.3-3.7.7-7.3 1-11 .7-3 1.3-6 2-9 .1-1.8.2-3.6.4-5.5.6-5.8 2.3-10.1 4.6-15.5.7-3.7 1.3-7.3 2-11 1.7-7 3.8-13.8 6.5-20.5 3.5-8.8 5.4-17.5 5.8-27 .4-6.5 2.6-11.6 5.2-17.6 2-5.3 2.9-10.6 3.7-16.3.8-3.8 2.2-7 3.8-10.6.6-2.6 1.1-5.1 1.6-7.7.7-3.8 1.4-7.6 2.4-11.3.1-2.2.2-4.3.2-6.5.5-7.5 2.8-13.6 5.8-20.5 2.7-6.9 4.6-13.6 6.2-20.8.8-3.2.8-3.2 2.9-8.7 1.9-5.5 2.7-10.4 3.3-16.3.6-3.5 1.9-6 3.6-9.2.7-2.7 1.4-5.3 2-8 1.7-6.2 3.5-10.7 7-16 .2-.8.2-.8 1.4-4.8 2-6.6 5.2-11.9 8.7-17.7 1.9-3.5 1.9-3.5 3.2-7.7 1.7-4.8 3.7-9.3 6-13.9 3.4-7.1 6.5-14.1 9.3-21.4 3.5-9 7.5-17.8 11.9-26.5 2.1-4.3 4.1-8.7 6.1-13.1 1.4-2.9 1.4-2.9 4.4-7.9.6-1.7 1.1-3.3 1.7-5 2-5.6 4.7-10.7 7.6-15.9 1.8-3.3 3.2-6.7 4.7-10.1 13.8-29 13.8-29 22-37 1.2-2.4 2.4-4.7 3.5-7.1 4.1-8 9.2-15.6 15-22.5 7.8-9.2 12.8-17.8 15.5-29.6 1.4-5.2 3.5-10 5.7-14.9 4.6-10.6 1.8-18-4.7-26.9-11.6-8.7-28.1-5-41.7-3.7-.7.1-.7.1-4.3.4-10.2.9-19.5 2.6-29.2 6.3-6.1 2.3-12.4 3.2-18.9 4.2-3.8.8-6.5 1.9-9.9 3.8-1.5.8-2.9 1.5-4.4 2.3-8.7 5.1-14.5 10.5-20.5 18.6-4.6 6-8.5 11.1-15.1 15.1-1.2.8-2.3 1.6-3.5 2.5-3.5 2.5-3.5 2.5-8.5 5.5l-3 3c-1.7 1-3.3 2-5 3-1.8 1.2-3.6 2.3-5.5 3.5-2.9 1.9-5.8 3.6-9 5.2-2.5 1.3-2.5 1.3-6.5 5.3-2.6 1-5.3 1.9-7.9 2.9-6.6 2.4-13.1 5.1-18.1 10.1-2.8 1.2-2.8 1.2-6.3 2.4-.6.2-.6.2-3.7 1.3-1.3.4-2.6.8-3.9 1.3-2.5.9-5.1 1.7-7.6 2.6-1.1.4-2.3.8-3.4 1.2-3.1 1.2-3.1 1.2-8.1 4.2-3.3.7-6.7 1.3-10 2-2.9.8-5.7 1.6-8.5 2.5-6.1 1.8-12.2 3.3-18.5 4.5-1.5.4-2.9.7-4.4 1.1-4.5.9-8.7.9-13.3.8-3.6.1-7 .7-10.6 1.3-9.3 1.2-17.5-.1-26.6-1.9-.7-.1-.7-.1-4.6-.8-21.6-4-21.6-4-27.8-9.4-.9-.7-1.7-1.4-2.5-2.1s-1.5-1.3-2.2-2c-.4-.4-.4-.4-2.6-2.4-5.3-5.8-10.1-11.5-13.4-18.6-.7-.8-1.3-1.5-2-2.3-2.3-3.1-3.1-5.6-4.1-9.4-.3-1.2-.6-2.5-1-3.8-.1-.5-.1-.5-.9-3.5-.5-1.7-1.1-3.4-1.6-5.1-3.6-12.6-4-25-4.4-37.9-.1-1.3-.1-2.5-.2-3.9-.4-15.2 1.6-31.1 6-45.7 1.4-5.1 2.5-10.2 3.7-15.3 3.4-15.3 7.6-29.5 13.9-44 .4-.9.8-1.9 1.2-2.9.4-.9.9-1.9 1.3-2.9 4.7-11.3 8.3-22.9 11.8-34.6 2.6-8.2 5-14.9 10.3-21.7.7-1.1 1.4-2.1 2.1-3.2.6-.9 1.3-1.9 1.9-2.8.7-1 1.3-2.1 2.1-3.1 1.6-2.4 3.2-4.8 4.9-7.1 3.5-5.6 6.1-11.5 8.9-17.5 2.4-5 5.3-9.6 8.3-14.3 1.7-2.9 3-5.8 4.2-8.9 2.4-6.1 5.7-11.2 9.3-16.5 2.2-3.6 4.1-7.1 5.8-10.9 2.6-5.1 5.4-9.2 9.2-13.6 3.8-5.2 6.7-11.1 9.8-16.8 3.5-6.6 7.3-12.9 11.4-19.1q3.3-5.1 6.3-10.2c1.3-2 2.5-4 3.8-6 .7-1.2 1.5-2.4 2.2-3.6 2.8-2.4 2.8-2.4 8.7-3.6 9.1-1.9 11.4-9 14.9-16.9 3.4-11.2 5.5-19.2-1.8-28.9-5.8-3.5-10.8-5.9-17.5-4.1-3.4 2.8-3.4 4.8-3.5 9.1.3.6.6 1.3 1 2 .3 6.5.3 6.5-2 10-4 0-6.3-.5-9.5-2.8-1.7-3.7-1.5-5.3-1-9.3.5-5.9.5-5.9-3.5-9.9-6.8-2.3-13.9-1-20.7.4-2.4.4-4.9.8-7.4 1.1-16.1 2-31.4 6.7-46.9 11.5-1.9.6-3.9 1.2-5.8 1.7-12.3 3.9-12.3 3.9-17.2 9.3-3.6 2.7-5.6 3.6-9.8 4.9-8.2 2.6-13.6 5.7-18.2 13.1-6.2 5.9-11 8.2-19.5 7.7-7.1-.2-13 1.5-19.6 3.7-11.1 3.7-21.3 4.6-32.9 4.6-.8 0-.8 0-4.8.2-14.9.5-29.2-2.2-38.5-14.7-6.3-10.6-5.8-21.4-5.7-33.5 0-5.3-.3-10.4-.7-15.6-.4-8.1.2-15 2-22.8.7-3.6.7-6.7.6-10.3-.2-12.3 6.5-21.7 12.8-31.8 3.7-6.1 5.6-11.5 7.1-18.4 3.9-13.8 11.3-27 20.2-38.1 1.4-2.1 2.9-4.2 4.3-6.3 5.5-8 11.6-15.6 17.7-23.2 3.7-4.7 7-9.6 10.2-14.7 5.1-8 11.1-15.5 16.9-23 4.1-5.5 8.2-10.9 12.3-16.4 3.7-4.9 7.4-9.7 11.1-14.5 4-5.2 7.8-10.5 11.5-15.9 2-2.8 4-5.5 6-8.2 1.3-1.9 2.6-3.7 3.9-5.5 3.7-5.1 7.5-10.2 11.3-15.2l2.4-3.3c2.4-2.8 2.4-2.8 4.9-4.8 3.1-2.5 5-5.3 7.2-8.6 7.8-11 15.9-20.1 25.8-29.2 3.8-3.5 7.1-7.3 10.5-11.2 2.7-2.3 5.3-4.7 8-7 2.4-2.6 4.7-5.3 7-8 8.8-10.1 8.8-10.1 13.5-13.9 4-3.6 6.8-7.4 9.9-11.6 4-5.4 8.2-10.5 12.5-15.7 3.1-3.8 6.1-7.8 9.1-11.8 4.2-5.3 8.5-9 14-13 2.7-2.3 5.3-4.7 8-7 4.1-3.7 8.3-7.2 12.7-10.6 3.9-3.1 5.7-5.3 8.3-9.4 3.8-4 7.8-7.8 12-11.5 3-2.6 5.5-5.2 8.1-8.2 3.3-3.7 5.8-5.7 9.9-8.3 1.9-1.6 3.7-3.3 5.5-4.9 1-.9 1.9-1.7 2.8-2.6 2.6-2.4 5.2-5 7.7-7.5l14-14c.9-.9 1.7-1.8 2.6-2.7 2.3-2.3 4.7-4.2 7.3-6.1 4.6-3.7 8.2-7.7 12.1-12.2 4.4-4.2 9-8.2 13.7-12.1 3.3-2.9 3.3-2.9 6.2-6.4 3.4-3.9 7.1-7.1 11.1-10.5 1.5-1.3 3-2.7 4.5-4 .7-.7 1.5-1.4 2.3-2 2-1.9 4.1-3.7 6.2-5.6 3.4-2.9 6.8-5.7 10.4-8.4 7.4-5.7 14.8-11.5 22.1-17.5 5.2-4.3 10.5-8.5 15.9-12.7 2.4-1.9 4.8-3.8 7.2-5.8 10.1-8.1 10.1-8.1 15.9-10.8 4.5-2.2 4.5-2.2 6.9-5.2 3.8-4.4 10.6-8 16.6-8 .6-1.7 1.3-3.3 2-5 2.6-2.4 5.2-4.8 8-7 .8-.7 1.7-1.4 2.5-2.1 4.4-3.5 8.8-6.8 13.5-9.9l3-3c1.9-.9 3.8-1.8 5.8-2.6 1.1-.4 2.2-.9 3.4-1.4l3.6-1.5c2.3-.9 4.7-1.9 7-2.8 1.1-.4 2.1-.9 3.2-1.3 3-1.4 3-1.4 6-3.4 3.1-2.1 5.9-3.2 9.6-4.3 1.2-.3 2.4-.7 3.7-1.1 1.2-.4 2.5-.8 3.8-1.2 2.5-.7 5.1-1.5 7.6-2.3 1.1-.3 2.2-.7 3.4-1 2.9-1.1 2.9-1.1 6.9-4.1q3.9-1.2 7.8-2.1c.7-.2.7-.2 4.1-1 8.4-1.8 15.9-1.9 24.4-1.6m-21.3 11.7c-1.6.3-3.3.5-4.9.8-6.2 1-11.7 3.1-17.5 5.4-3.4 1.3-6.9 2.6-10.4 3.8-.4.2-.4.2-2.9 1.1-2.9 1-5.7 2-8.6 3-4.1 1.7-6.3 3.2-9.7 5.9-3 1.1-6.1 2.2-9.1 3.2-7.4 2.6-12.7 5.3-18.5 10.6-2.4 2.2-4.9 4-7.7 5.8-4.4 3.2-7.9 6.5-11.7 10.4-1.7 1-3.3 2-5 3-2 3-2 3-1.9 6.5-.1 3.5-.1 3.5-3.1 6.5-3.5.9-6.3 1-9.9.8-7.4.3-11.8 3.4-16.1 9.2-2 1.3-4 2.7-6 4l-6.3 4.8c-3.7 2.9-7.5 5.7-11.5 8.4-6.3 4.4-12.2 9.5-18.1 14.4-3.3 2.7-6.6 5.2-10 7.7-5.5 3.8-10.3 8.2-15.1 12.7-2.1 1.9-4.1 3.7-6.1 5.6-1.1.9-2.1 1.9-3.1 2.8-2.2 2.1-4.5 4.1-6.8 6-5.6 5-10.8 10.3-16 15.6-.9.8-1.7 1.7-2.6 2.6-1.5 1.5-3 3-4.5 4.6-6.2 6.3-13 11.8-20 17.2-3.5 3.1-6.1 6.6-9 10.2-2.3 2.9-5 5.1-7.9 7.4-2.4 2.3-4.8 4.7-7.1 7.2-.4.4-.4.4-2.4 2.3-.7.8-1.4 1.5-2.1 2.3-2.4 2.2-2.4 2.2-5.3 4.1-3.7 2.5-6.6 5.3-9.7 8.5-1.1 1.1-2.2 2.2-3.3 3.4-1 1-2.1 2.1-3.1 3.2-4.7 4.8-4.7 4.8-7.4 6.8-2.6 2.2-2.6 2.2-5.7 5.8-5.8 6.5-12.2 12.1-18.8 17.7-5.5 4.9-10.9 10.1-16.3 15.2-2.3 2.1-4.7 4.2-7.2 6.2-3.4 2.9-4.6 6.3-6.6 10.3-1.7 1.3-3.3 2.7-5 4-1.4 1.7-2.7 3.5-4 5.3-.7 1-1.4 1.9-2.1 2.9-1.5 2.3-3.1 4.5-4.6 6.7-2.2 3-4.4 4.9-7.3 7.1-4.4 4.2-8.5 8.8-12.7 13.2-4.5 4.9-9.1 9.6-14.1 14-3.6 3.2-5.7 5.8-8.2 9.8-2.6 2.7-5.3 5.2-8 7.8-6.7 6.6-12.7 13.4-18.5 20.9-2.9 3.8-6.1 7.4-9.4 10.9-9.2 10.2-17.1 21.5-25.1 32.6-5.9 8-11.9 15.9-18 23.8-2.5 3.2-4.8 6.6-7 10-3.5 4.7-7.1 9.4-10.7 14.1-15.3 19.9-15.3 19.9-19.8 28-3.3 5.9-7.5 10.8-12 15.9-5.9 6.8-10.9 14.3-16.1 21.7-1.8 2.4-3.6 4.8-5.5 7.2-5.9 8.3-9.9 17.7-13.9 27.1-.7 1.4-1.4 2.9-2.1 4.4-1.9 4.6-1.9 4.6-2.7 8.8-2.4 9.6-7.4 17.6-13.1 25.6-4.4 6.7-5 11.9-5 19.9-.1 5.7-1.3 11.1-2.5 16.7-.9 5.3-.8 9.6.4 14.9 1.1 5.2 1.1 9.8 1.1 15.1-.5 24.6-.5 24.6 11.9 32.6 27.2 11.8 63.4 1.7 87.5-12.5 6.1-3.4 12.5-6 19-8.6 15.6-6.6 15.6-6.6 20.9-10.9 8.7-6.7 21.2-9.3 31.6-12 1-.3 2-.5 3.1-.8 6.2-1.6 12.4-3 18.7-4.5 2.1-.5 4.2-1 6.3-1.6 6.6-1.7 12.2-2.2 18.9-2.1 2.7-.3 5.4-.7 8.1-1 17.2-2.1 41.5-4.2 55.9 7 1.8 2.9 1.8 2.9 2.9 5.9.3 1 .7 2 1.1 3.1.1.5.1.5 1 3 .2.5.2.5 1.1 3.1 3.7 12.3-3.9 28.2-11.1 37.9-.9 1.3-1.9 2.7-2.8 4.1-4.2 3.8-7.7 4-13.2 4.9-3.8 3.7-6.2 8.1-8.8 12.6-3 5.1-6 10.1-9.3 14.9-3 4.6-5.6 9.4-8.2 14.2-3.2 6-6.5 11.6-10.8 16.8-5.3 6.6-8.9 13.7-12.7 21.2-2.2 4.3-2.2 4.3-4.3 7.2-1.9 3.1-1.9 3.1-3.8 7.9-2.1 5.1-4.5 9.6-7.4 14.3-3.5 6.1-6.9 12.1-10 18.4-2.6 5.4-5.4 10.1-8.9 14.9-10.1 14.2-15.9 28.9-20.6 45.6-2.1 6.8-4.6 13.4-8.3 19.5-2.6 4.7-3.6 9.4-4.9 14.5-.7 1.5-1.3 2.9-2 4.4-4 9.2-5.5 19.1-7.3 28.9-2 10.4-4.8 20.5-7.9 30.6-6.8 33.9-3.5 75.4 18.2 103.1.8 1 1.5 2.1 2.3 3.2 21.3 22.3 65 17.7 92.7 12.8 3.8-1.1 7.4-2.4 11.1-3.9 2.9-1.1 2.9-1.1 8-2.1 4.8-1 9.2-2.5 13.8-4.4 3.3-1.3 6.7-2.6 10-3.8l3.3-1.2c2.1-.8 4.2-1.5 6.4-2.3 5.3-2 9.8-4 14.4-7.3 4.3-2 8.6-3.9 13.1-5.6 5.9-2.9 11.4-6.4 17-10q4.65-2.85 9.6-5.4c5.5-3 10.3-6.7 15.2-10.6 2.6-2.1 5.3-4 8.1-5.8 10.5-6.9 10.5-6.9 11.5-15.1 2-6.2 4.7-6.8 10.5-9.5 4.1-2.5 8.1-5.1 12-8 8.1-5.3 15.5-7.2 25-9 4.8-1 9.3-2.2 14-3.6 18.1-5.1 62.6-15.9 77.8-1.8 1 1.1 1.9 2.1 2.8 3.2.9 1 1.9 2.1 2.8 3.1s1.7 2.1 2.6 3.1c.7.8 1.4 1.7 2.2 2.6 6.7 9.1 3.5 18.8-.2 28.4-1 1.6-2 3.3-3 5-.7 2.6-1.4 5.3-2 8-2.9 11.6-6.2 21.2-14.6 30-9.7 10.1-16.2 22.6-22.4 35-1.7 2.3-3.3 4.6-5 7-6.7 10-12.2 20.9-17 32-1.2 2.5-2.3 4.9-3.5 7.4-2.2 4.6-4.2 9.3-6.1 14-2 4.9-4.6 9.1-7.4 13.6-2 4.1-3.7 7.9-4.9 12.3-1.2 4-2.9 7.5-4.9 11.2-3.3 6.5-6.2 13-9 19.7-1.2 2.8-1.2 2.8-3.2 5.8-.4 1.5-.8 3-1.3 4.5-1.5 4.8-3.4 8.3-6 12.5-2.9 5.1-4.8 10.5-7 15.8-1.9 4.6-4 8.9-6.2 13.3-5 9.7-9.1 19.2-11.4 30-1 4.4-2.3 8.6-3.7 12.9s-2.4 8-2.9 12.5c-.9 7.2-3.9 13.7-6.5 20.5-1.6 4.5-3 8.9-4 13.6-1 4.4-1 4.4-2.5 7.5-1.9 5-2.4 9.6-3 15-1 8.9-2.7 17.3-5.5 25.9-2.3 7.5-4.4 15-6 22.7-1 4.3-1 4.3-3 9.3-.5 3.5-.9 7-1.3 10.5-1.2 8.9-3.1 16.3-6.7 24.5-1 3-2.1 6-3 9-.3.8-.3.8-1.5 4.7-1.5 5.3-2.7 10.6-3.8 16.1-.7 3.2-.7 3.2-2.7 8.2-.4 2.9-.8 5.8-1.1 8.7-.8 8.1-.8 8.1-1.9 10.3-.2 1.7-.3 3.4-.5 5.1-.4 4.9-1.2 9.2-2.5 13.9-.3 1.6-.7 3.1-1 4.7-1 4.3-1 4.3-3 8.3-.7 3.3-1.4 6.6-2 10-.5 1.8-1 3.5-1.5 5.3-1.9 7.5-2.1 14.8-2.2 22.4 0 1.4-.1 2.8-.1 4.2-.1 5.2-.2 10.4-.2 15.7 0 3.4 0 3.4-.5 6.3-1.6 9.6-.9 20 0 29.6.5 5.3.3 10.3-.1 15.6-.7 12.2.2 24.1 3.6 35.9.3 2.1.6 4.2.8 6.3.9 7.3 2.2 14.6 3.6 21.9.2 1.1.4 2.1.6 3.2 1.4 7.5 3.5 14.4 6 21.6.3 1.3.6 2.7.9 4.1 1.4 5 3.7 9.3 6.1 13.9.6 1.7 1.3 3.5 2 5.3 2 4.7 3.5 6.3 7 9.7l7.8 9.9c11.9 11.4 34.5 10.5 50.2 11.1 1.1.1 2.2.1 3.3.2 10.1.5 18.6-2.2 26.7-8.2 4.9-2.4 9.5-4.1 14.7-5.6 5.3-1.4 5.3-1.4 10.3-4.4 1.4-.6 2.8-1.2 4.2-1.9 8-3.5 14.9-7.7 21.8-13.1l2.7-2.1c16.2-12.9 16.2-12.9 16.4-23.3 1.2-7.4 3.6-7.9 9.9-11.6q3.15-4.35 6-9c1.6-1.7 3.3-3.4 5-5 .6-1 1.3-2 2-3.1 2-2.9 2-2.9 4.4-4.8 2.6-2.1 4.5-4.2 6.5-6.9.7-.8 1.4-1.7 2.1-2.6 1.6-2.2 3.2-4.3 4.8-6.5 3.6-4.7 7.6-8.9 11.6-13.2 3.1-3.5 5.8-7.2 8.6-10.9 4.5-4.9 9.3-9 14.5-13 6.5-5.2 11.7-10.3 16.5-17 3.8-5 8.2-8.9 13-13 3.8-3.7 7.3-7.5 10.8-11.4 6.2-6.7 12.5-12.4 19.9-17.7 4.2-2.9 6.5-5.6 9.3-9.9 3-2.4 6-4.7 9-7 .6-1.3 1.3-2.7 2-4 1.6-.7 3.3-1.3 5-2 2.4-2 4.7-4 7-6 1-.7 2-1.3 3-2v-2c1.6-.7 3.3-1.3 5-2 1.8-1.6 3.6-3.2 5.3-4.8 10.9-10.2 22.7-15 37.2-17.5 3.5-.7 3.5-.7 6.7-1.8 7.5-2.4 13.6 1 19.8 5.1 1.7 1.9 3.4 4 5 6 1.3 1 2.7 2 4.1 3 3.7 2.9 5.3 5.1 7.9 9 7.1 6.7 7.1 6.7 11 8 .7 2.6 1.3 5.3 2 8 .6 1.2 1.3 2.4 2 3.6 5.8 12.8 5.6 29.5.2 42.4-1.6 3.9-2.5 7.9-3.6 11.9-2.1 7.6-4.8 14.2-8.6 21.1-.9 1.7-1.7 3.4-2.6 5.1-1.6 3.4-3.3 6.7-5 10-2.4 4.9-2.4 4.9-3.8 8.9-1.6 4.1-3.9 7.2-6.4 10.8-8.8 12.9-16.2 27-19.7 42.3-1.8 7.9-5.8 14.3-10.2 21-2.5 4.2-3.9 8.2-5.3 12.9-2.7 6.9-5.7 13.5-8.9 20.1-3.8 7.7-6.7 15.3-9 23.5-1.8 5.6-4.5 10.4-8.2 14.9-2.5 3.3-4.1 6.8-5.9 10.5-1 1.6-2 3.3-3 5-2.9 7-5.3 14-7.5 21.3-2.7 9.6-6 18.3-10.7 27.1-2.7 5.4-4.3 10.8-5.8 16.6l-2.1 7.5c-.3 1.1-.6 2.2-.9 3.4-1 3.1-1 3.1-4 8.1-.5 3-.5 3-.7 6.3-.7 6-2.4 10.4-5.3 15.7-3.3 6.2-4.9 11.2-5.6 18.2-1.2 11.4-3.9 22.3-8.4 32.8-1.3 5-2.2 9.9-2.9 15-1.2 7-3.5 13.3-6 20-3.5 9.6-6.3 19.4-8.7 29.4-1.2 4.6-2.6 9-4.3 13.5-3.7 10.3-6.5 20.3-8.1 31.1-.3 1.2-.7 2.4-1 3.6-1.2 5.1-1.6 10.1-2.1 15.3-.4 5.4-.9 10.7-1.5 16-.9 8.2-.1 15.1 1.6 23.1.1 1.7.3 3.4.4 5.2.6 4.6 1.6 7.6 3.6 11.8 1.6 4.4 2.9 8.6 3.8 13.2 1.2 4.9 2.9 9 5.1 13.5.6 1.5 1.3 2.9 2 4.4 1.8 3.4 3.6 6 6.1 8.9 6.6 8.8 13 17.9 19.1 27.1 13 19.3 36.8 25.9 59.1 25 .6 0 .6 0 3.8-.1 14.5-.8 26.2-5.4 38-14 1.5-.8 3-1.6 4.5-2.5 4.8-2.7 8.4-5.9 12.5-9.5 1.6-1 3.3-2 5-3 1.3-1.3 2.6-2.7 4-4 .8-.5.8-.5 5.2-2.7 6-3.2 10.3-7.2 15-12.1.8-.8 1.5-1.6 2.3-2.4 5.2-5.3 10-10.8 14.5-16.8.9-1.1 1.8-2.2 2.8-3.3 2.2-2.8 3.6-5.5 5.2-8.7.7-1.1 1.3-2.2 2-3.4 9.1-15.1 15.9-33.1 17.4-50.8.9-7.7 3.9-12.9 8.6-18.8 1.3-3 2.7-6 4-9 1.3-2 2.6-4 4-6 4.7-8.3 7.6-15.5 9-25 2-8.3 4.7-16.2 7.9-24.2 1.1-2.8 1.1-2.8 2.2-6.7.9-3.3 2.4-6.1 3.9-9.1.3-1.2.6-2.4 1-3.6 1-3.4 1-3.4 4-8.4.3-.9.6-1.9.9-2.9 1.3-3.8 3.1-7.1 5-10.7 3-6 5.3-11.7 7.1-18.2 3.4-11.2 9-21.2 15-31.2.5-.9 1-1.8 1.6-2.8 2.4-4.1 4.9-8 7.7-11.8 6.2-8.8 11.5-18.2 15.5-28.1 2.2-5.3 2.2-5.3 4.2-7.8 2.1-2.7 3.2-5.1 4.4-8.3 2.1-5.2 4.5-9.6 7.6-14.2.5-.8.5-.8 3.1-4.7 2.9-4.3 2.9-4.3 5-6.8 3.5-4.6 6.1-9.9 7.8-15.5 1.1-3.2 2.5-5.5 4.4-8.3 2.3-3.5 4.3-6.8 6.2-10.5 3.1-5.2 6.7-9.4 11-13.7 3.2-3.2 5.7-6.8 8.5-10.5 2.5-3.1 5.1-6.1 7.6-9.1 6-7.4 10.6-15.7 15.3-23.9 2.2-3.6 4.3-6.6 7-9.8 3.9-4.7 6.6-9.6 9.4-15 1.5-2.9 3.2-5.6 5-8.3 3.3-5 6-10.2 8.7-15.5 5.2-10 5.2-10 8.7-14.4 4.7-5.8 8.2-11.9 10.7-18.9 1.6-4.3 3.7-7.8 6.1-11.7 2.8-4.5 4.9-8.4 6.5-13.4 1.7-2.5 3.5-4.9 5.3-7.4 2.5-3.9 4-8.2 5.7-12.6 1.4-2.4 2.7-4.7 4.2-7 2.3-3.9 4.5-7.9 6.7-11.9 2.9-5.2 5.7-10.2 8.9-15.1 3.8-6 7-12.1 9.6-18.6 2-4.3 4.8-7.7 7.6-11.4 1.4-2.6 2.7-5.3 4-8 1.8-3.6 3.6-7.1 5.4-10.6 1.6-3.4 1.6-3.4 2.6-6.4 1.1-3.5 2.8-6.3 4.6-9.4 3.6-6.2 6.9-12.6 10.1-19.1 5.8-11.6 11.7-23.3 18.4-34.5 2.3-4 4.2-7.7 5.9-12 .7-1.4 1.3-2.7 2.1-4.1 1.9-3.9 1.9-3.9 2.7-6.6 1.6-4.4 3.9-8 6.3-12 7.2-12.3 13.4-24.8 17.9-38.3 2.6-5.9 5.7-11.5 9.1-16.9 3.3-5.9 5.6-11.8 7.9-18.1 1-2.6 2-5.3 3.1-7.9.4-1.2.9-2.4 1.4-3.6 1.5-3.5 1.5-3.5 3.5-7.1 3.4-5.8 4.3-10.9 4.9-17.5.5-5.2 1.2-9.8 3.1-14.7 2-5.3 2.4-10.2 2.9-15.8.5-7 1.7-12.9 4.2-19.5 2.8-7.8 3.6-14.7 3.7-22.9.2-4 1.1-7.2 2.2-11 .4-3.2.7-6.3 1-9.5.5-5.8 1.3-11 3-16.5.7-3.7 1.3-7.3 2-11 .3-1.3.6-2.7 1-4 .3-2.9.5-5.7.7-8.6.1-1.7.3-3.4.4-5.2s.3-3.6.4-5.4c.2-3.5.5-7 .8-10.5l.3-4.8c.3-3.1.6-6.1.9-9.2 1.9-17.5.9-34.3-3.2-51.3-1.8-7.6-2.5-15.2-3.1-22.9-.6-6.8-2.2-12.3-5.1-18.5-1.1-2.6-1.1-2.6-2-7.2-1.4-5.5-4.1-9.7-7.1-14.4-7.8-12.9-7.8-12.9-10.1-19.8-2-5.5-4.6-9.5-7.9-14.2-.8-1.4-1.7-2.8-2.5-4.3-5.4-8-11.6-10.1-20.5-12.7-.6-.2-.6-.2-3.6-1.1-.6-.1-.6-.1-3.4-.9-1.6-.5-3.2-1.1-4.8-1.6-5.2-1.4-5.2-1.4-10.5-1.4-4.7 0-4.7 0-9.7-3-6.6-2.6-13.3-2.3-20.3-2.3h-3.5c-9.6 0-18.7.9-27.7 4.7l-3 1.2c-3.6 2-5.3 4.2-6 8.3-2.1 4.3-5.4 5.2-9.7 6.9-2.8 1.2-2.8 1.2-7.8 4.2-1.7.8-3.3 1.6-5 2.4-5 2.6-5 2.6-7.4 4.5-3 2.4-6 3.8-9.4 5.5-9.1 4.4-16.8 10-24.6 16.4-8.1 6.7-16.6 12.8-25.6 18.2-3.1 1.9-5.8 3.8-8.4 6.4s-2.6 2.6-6.4 5c-7.7 4.7-13.4 10.8-19.2 17.6l-3 3v2c-1.7.6-3.3 1.3-5 2-2.3 2.2-2.3 2.2-4.5 4.9-4.4 5.2-8.7 8.6-14.5 12.1-.5.5-.5.5-2.9 3-5 4.8-10.4 8.6-16.1 12.6-3 2.4-3 2.4-3 4.4-1.7.6-3.3 1.3-5 2-1.7 1.2-3.3 2.5-4.9 3.8-.9.7-1.8 1.4-2.7 2.2-.8.6-1.6 1.3-2.4 2-1.1.9-2.2 1.7-3.3 2.6-2.7 2.4-2.7 2.4-5.2 5.5-2.6 3-5.1 4.7-8.5 6.9-3.9 3.2-7 5.9-10 10-1.7 1-3.3 2-5 3-1.8 1.7-3.6 3.5-5.3 5.3-4.3 4.4-8.7 8.1-13.7 11.7-2.2 1.7-4.5 3.4-6.7 5.1-.5.4-.5.4-3.3 2.5l-3 2.4-2.7 2.1c-3.5 2.9-6.3 6.4-9.3 9.9-1.2 1.3-2.4 2.7-3.6 4.1-2.1 2.4-4.3 4.9-6.3 7.4-3.5 3.9-7.2 7.1-11.1 10.5l-2.5 2.5c-3.5 3.5-7.5 6.4-11.5 9.5-2.7 2.3-5.4 4.6-8 7-1.3 1.1-2.7 2.3-4 3.4-4.2 3.7-8.1 7.6-12 11.6-3 3-3 3-7 5.5-5 3.3-9.1 7.1-13.4 11.2-2.6 2.3-2.6 2.3-6.7 5.2-2.9 2.1-2.9 2.1-4.9 6.1-2 1.7-4 3.3-6 5-1 1.3-2 2.6-3 4-3 1.7-6 3.3-9 5-2.7 2-5.4 4-8 6-1.7 1-3.3 2-5 3-5.9 3.5-11.4 7.2-16.6 11.6-4.6 3.8-9.2 6.6-14.4 9.4-4.7 3-9.1 6-13.4 9.6-4.1 3-7.6 4.6-12.4 6.2-6.7 2.5-12.9 5.9-19.2 9.2-8.2 4.1-20.6 3-29 0-.7-1.7-1.3-3.3-2-5-1.4-1.9-2.9-3.7-4.5-5.5-2.9-3.5-5.1-6.6-7.5-10.5-1-.6-1.9-1.3-2.9-1.9-8.7-5.9-11.9-17.2-13.1-27.1-.3-.7-.7-1.3-1-2-1.2-9.9-1.1-19.3-.2-29.1.2-1.7.3-3.4.5-5.2.6-4.4 1.8-7.7 3.7-11.7.1-1.1.3-2.3.4-3.5.7-4.4 2.6-7.5 4.6-11.5 1-3.3 2-6.7 3-10 3.7-10.7 7.8-21.1 12.4-31.4 3.2-7.3 5.6-14.7 8.1-22.2 3-9.1 6-17.1 11.8-24.9 1.7-2.5 1.7-2.5 4.1-7.5 2-3.9 3.7-6.5 6.5-9.8 7.4-9 11.4-18.7 14.9-29.7 1.8-5.2 4.4-9.8 7.2-14.5 1.6-3 3.3-6 4.9-9 3.8-6.9 7.8-13.4 12.1-20 .8-1.4 1.5-2.8 2.3-4.2 5-9 10.4-17.9 16.7-26.1 4.7-6.3 8-13.3 11.5-20.3 2.5-4.3 5.1-7.7 8.5-11.4 6.3-7.7 12.2-15.5 17.1-24.2 1.9-2.8 1.9-2.8 4.4-5.3 2.6-2.7 4.2-5.2 6-8.5 1.7-2.9 3.2-5.6 5.3-8.2 3.3-4.3 5.7-9.1 8.2-13.8 6-11.3 6-11.3 10-16 2.8-4.7 2.8-4.7 4.1-7 1.7-2.6 3.4-5.1 5.2-7.6 3.8-5.4 6.9-10.9 9.9-16.7.6-.9 1.1-1.9 1.6-2.9q3.75-6.75 7.2-13.8c.5-1.1 1.1-2.1 1.6-3.2 5.6-11.1 10.9-22.2 15.2-33.8 1.2-3 1.2-3 2.8-6 1.8-3.9 2.2-7.8 2.9-12 1.6-9.4 5.7-19.2 9.8-27.8 4-8.3 5-16.7 6.1-25.8.6-4.4.6-4.4 1.6-6.4.2-2 .5-4.1.6-6.1.2-1.3.3-2.5.4-3.7.2-2.6.5-5.2.7-7.8.1-1.3.2-2.5.4-3.8.1-1.1.2-2.2.3-3.4.6-3.5 2-6 3.6-9.2.5-3 1-6 1.4-9 .8-4.3 2.7-8 4.6-12 2.4-7.6 3.6-14.9 4.6-22.8.4-3.2.4-3.2 1.4-6.2-.6-64.4-.6-64.4-27-80-7.2-2.8-14.5-3.8-22-5-1-.3-1.9-.7-2.9-1-13.7-4.5-31.5-4.8-44.9.5-4.9 1.7-9.2 2.1-14.3 2.5-15.9 1.4-30.9 4.4-45 12.2-3.9 1.8-6.8 2.2-11 2.7-9.5 1.1-17.8 4.2-26.4 8.2-3.8 1.6-7.4 2.7-11.4 3.8-6.4 1.8-12.1 4.2-18.1 7.1-1.9.8-3.8 1.6-5.8 2.4-.5.2-.5.2-3 1.3-2.3.9-4.7 1.8-7 2.7-7.9 2.9-12.9 6-19.2 11.6-3.7 1-7.3 2-11 3-3.4 1.9-6.7 3.9-10 6-3 1.4-6.1 2.6-9.2 3.8-5.3 2.2-9.8 4.3-14.1 8.1-4.1 3.4-7.9 4.9-12.8 6.7-2.9 1.4-2.9 1.4-5.3 3.8-3.2 3.1-6.3 4.6-10.4 6.5-9.6 4.7-17.9 10.5-26.3 16.9-2 1.5-4 2.9-6.1 4.3-2.8 1.9-2.8 1.9-5.8 4.9l-4.8 2.4c-5.2 2.6-5.2 2.6-8.1 5-3.5 2.9-6.7 4.3-10.9 6-8.2 3.5-15 7.3-21.4 13.8-4.8 3.5-7.5 3.5-13.4 3.4h-5c-6.9-.9-9.5-4.5-13.7-9.7-.6-.9-1.3-1.8-2-2.7-5.9-7.8-3.1-25-.2-33.8 3.2-5.7 7.2-10.4 11.5-15.4 1.4-1.8 2.9-3.6 4.4-5.5 3.2-4 6.6-7.8 10.1-11.6 4.8-5.1 9.2-10.4 13.5-15.9 5.3-6.7 10.5-12.4 17-18 2.3-2.7 4.6-5.5 6.8-8.4 2.3-2.7 4.7-5.1 7.2-7.6l3.3-3.9c3.7-4.1 7.5-7.5 11.7-11.1 5.8-5.2 11.5-10.4 17-16 3.5-3.6 7.1-7 10.9-10.3 3.4-3.1 6.4-6.1 9.4-9.6 4.6-5.1 9.7-9.4 15-13.9 4.7-4.1 9.2-8.4 13.2-13.3 2.8-3.2 5.6-5.4 9-7.7 33.4-23.3 33.4-23.3 41.4-34.2 3.3-4.2 6.6-6.9 10.8-10.1 2.8-2.3 4.4-4.9 6.3-7.9 2.6-2.4 5.3-4.7 8-7 3.2-3.6 6.2-7.3 9.1-11.1 2.4-3.3 5-6 7.9-8.9 1.6-1.9 3.2-3.7 4.8-5.6.8-1 1.6-1.9 2.4-2.9 6.8-8.6 12.6-17.3 17.5-27.1.6-1.1 1.1-2.2 1.7-3.3 3.1-5.9 5.9-12 8.6-18.1 1-2.2 2-4.3 3.1-6.5 4.3-9.5 6.2-18.4 7.3-28.8.6-3.7.6-3.7 2.3-7.6 2.2-7 .9-13.9.3-21.1-.1-1.9-.2-3.8-.4-5.7-.1-1.9-.2-3.8-.4-5.8l-.3-5.4c-2.5-14.1-14-24.6-25.4-32.4-2.5-1.7-2.5-1.7-4.6-3.7-8.1-5.6-18.6-5.6-28.1-6.2-1.2-.1-2.4-.2-3.7-.2-30.2-2-69.8.9-92.1 23.4-5.5 5.1-10.1 8.1-17 11-3.8 2.2-7 4.8-10.5 7.6-9.5 7.7-20 14.2-30.4 20.5-3 1.8-6 3.7-8.9 5.6-3.1 2-5.9 3.6-9.2 5.2-3.5 1.8-6.2 3.7-9.3 6-4.7 3.6-9.4 5.9-15 8-2.7 1.1-2.7 1.1-7.7 4.1-2.8 1-5.7 1.9-8.6 2.8-5.3 1.7-10.2 3.4-15 6.1-18.1 9.7-38.9 14.8-57.1 4.4-9.7-7.4-12.9-16.4-12.3-28.3 4.8-15.2 13.7-29.9 25-41 1.3-2 2.7-4 4-6 1.6-1.9 3.3-3.8 5-5.6 1-1 1.9-2.1 2.9-3.1 1-1.1 2-2.2 3.1-3.3 2.1-2.3 4.2-4.5 6.2-6.8 1-1.1 2.1-2.1 3.1-3.3 2.1-2.2 4.1-4.6 6.1-6.9 4.3-4.8 8.9-9.3 13.5-13.9 3.5-3.6 6.8-7.3 10.1-11.1 3.9-4.3 8.3-7.6 13-11 4-3 7.9-5.9 11.6-9.1 3-2.6 6.1-4.7 9.4-6.9 5.2-3.8 10.1-7.8 15-12 6.8-5.5 13.8-11 20.7-16.4 3.1-2.5 6.2-5 9.3-7.6 1.6-1.3 3.2-2.6 4.8-3.8 3.4-2.8 6.7-5.6 10-8.5 4.2-3.7 4.2-3.7 9.2-6.7 4.1-3.5 8.1-7.1 12.1-10.8 3.9-3.2 3.9-3.2 6.9-4.7s3-1.5 6.9-5.4c4.1-4.1 4.1-4.1 8.3-6.7 3.8-2.4 3.8-2.4 5.7-5.3 2.9-4.3 6.8-6.3 11.1-9.1 2.4-2.6 4.7-5.3 7-8 2.3-2 4.7-4 7-6 2.3-2.7 4.7-5.3 7-8 2-1.7 4-3.4 6-5 .5-.6.5-.6 2.9-3.4 4.6-5.3 9.9-9.7 15.3-14.2 3.8-3.4 3.8-3.4 5.7-6.2 2-3.2 4.2-5.4 6.9-8 4.8-4.7 8.5-9.6 12.2-15.2.6-.9 1.3-1.9 1.9-2.9 2.1-3 4.1-6 6.1-9.1.7-1 1.3-2 2-3.1 4.8-7.4 8.2-14.9 11.3-23.2 1.6-3.5 3.2-5.8 5.7-8.7 8.1-10.7 14.2-21.4 15-35 1.3-3.4 2.9-5.9 5.1-8.8 2.4-4 3-7.7 3.9-12.2.6-1.3 1.3-2.7 2-4 1.7-13.6-1.5-24-12-33-3.1-1.3-3.1-1.3-6.5-2.1-.6-.2-.6-.2-3.7-1-4.9-1.2-9.9-2.3-14.9-3.3-2.9-.6-2.9-.6-5.9-1.6-5.1-.4-10.2-.6-15.3-.8-1.4 0-2.8-.1-4.2-.2-.7 0-.7 0-4.2-.1-1.2-.1-2.4-.1-3.7-.2-4.1.3-6.9 1.6-10.6 3.3"/></svg>