<svg xmlns="http://www.w3.org/2000/svg" width="2040" height="1121" viewBox="0 0 2040 1121"><path fill="#6b7d8c" d="M1851.25 44.04c2.7 1 2.7 1 7.4 1.8 9.2 2.5 15.4 9 21.8 15.7 2.5 2.4 5 4.4 7.7 6.5 4.8 3.8 8.2 8 11.9 13 1.1 1.3 2.3 2.6 3.5 4 3.4 3.9 6.4 7.9 9.5 12 5.4 6.6 5.4 6.6 9 9l3 9c.9 1 1.9 1.9 3 3 1.7 3.5 3.5 7 5.1 10.6l3 6.3c.5 1 1 2.1 1.5 3.1 3.7 7.8 7.6 15.5 11.5 23.2 1.8 3.8 1.8 3.8 3.1 7.8 1.5 4.4 3.3 8.2 5.5 12.3 7.2 14.1 12 29.1 16.6 44.2 1.7 5.6 3.6 11.2 5.6 16.8 5.6 15.6 10.7 30.9 12.2 47.5.1 1.9.3 3.7.5 5.6.2 3.8.3 7.6.3 11.5.1 5.4 1.1 9 3.1 14.1.5 1.6 1 3.2 1.6 4.9 1.4 4.1 1.4 4.1 2.4 6.1 2.5 33.2 2.5 33.2 0 42.5-1.5 6.5-1.6 12.9-1.9 19.5-.6 11.1-1.7 21.3-5.1 32-.4 1.3-.8 2.7-1.2 4-3.4 11.4-7.2 22.1-13.8 32-.6.8-1.1 1.6-1.7 2.4-7.2 10.7-15.5 19.4-26.3 26.6-1.6 1.2-3.2 2.4-4.8 3.7-.9.7-1.7 1.4-2.6 2.1-1.7 1.4-3.4 2.8-5 4.3-16 14.3-40.5 12.6-59.6 6.9-4.4-1.7-6.8-2.7-10-6-2.8-1.1-2.8-1.1-5.9-2-22.1-7-26.5-33.8-32.2-53.7-1-3.3-1-3.3-1.9-5.3-.2-1.9-.3-3.8-.4-5.7-1.1-14.6-5.7-26.5-12.6-39.3-.8-1.6-1.6-3.2-2.3-4.8-4.6-9.2-8.1-14.9-17.8-18.9-3.4-1.6-5.3-3.6-7.9-6.3-15.2-8.5-25.8-4.7-41.5.8q-4.8 1.5-9.6 2.7c-10.9 3.2-17.3 11-22.9 20.5l-7.2 3.3c-7.7 4.4-13.9 11.5-19.7 18.2-3.4 3.9-6.2 5.5-11.1 7.5-5.7 4.4-10.2 8.9-14 15-1.2.9-2.3 1.9-3.5 2.8-3.8 3.4-6 6.8-8.5 11.2-3.2 4.1-6.7 7.7-10.6 11.3-2.6 2.8-4.5 5.7-6.4 9-7.6 12.6-7.6 12.6-11.8 15.8-4.1 3.6-6.4 7.5-9.2 12.2-3.8 6.1-7.7 11.9-12 17.7-1.1 1.5-2.1 3.1-3.1 4.6-2.5 3.7-4.8 6.3-7.9 9.4-6.6 7.9-6.6 7.9-8.6 12.1-1.4 2.9-1.4 2.9-4.7 5.4-3.6 3.4-5 5.6-7.2 9.9-3 5.9-6.3 9.5-11.5 13.6-4.7 4.1-7.1 8.5-10 14-2 2.7-4 5.3-6 8-6.5 8.8-6.5 8.8-8.6 13.1-1.4 2.9-1.4 2.9-4.7 6-3.1 3.2-4.9 5.5-7.1 9.2-3.1 5.2-6.9 9.1-11.3 13.3-3.2 3.2-5.7 6.7-8.3 10.4-1.7 2-3.4 4-5 6-1 1.2-1.9 2.5-2.8 3.8-2.6 3.3-4.8 5.6-7.9 8.3-3.7 3.3-5.7 5.7-8.3 9.9-5.2 6.3-10 10.7-17 15-.5.8-.5.8-3 5-2.7 2.3-5.4 4.6-8 7-2.9 3-5.7 6.1-8.5 9.2-2.1 2.3-4.3 4.5-6.5 6.8-.7.8-1.3 1.6-1.9 2.5-2.2 2.5-2.2 2.5-4.9 4.2-3.3 2.3-3.3 2.3-7.1 6.8s-7.6 6.2-13.1 8.5c-.8.5-.8.5-4.6 3.3-6.5 4.8-13.9 7-21.4 9.7-12.3 4.4-24.7 9.5-35.2 17.3-5.3 3.1-8.7 2.2-14-.5-7.1-2.7-12.6-1.2-19.8 1.2-2.7.1-5.3.2-8 .3-5.3.3-10.1.8-15.2 2.2-5.9 1.5-10.7 1.7-16.7 1.5-3.1 0-3.1 0-8.1 1-8.1.3-15.3-.6-23.2-2.3-1-.2-2-.4-3.1-.6-7.7-1.7-14.4-4.4-21.4-8.1-3.9-1.8-7.7-3.1-11.9-4.4-9.5-3.1-15.3-8.4-22.1-15.5-3.5-3.2-7.4-5.6-11.3-8.1-2.8-2.6-2.8-2.6-5-5l-2.4-2.4c-6.1-6.2-10.7-12.1-14.6-20-4.4-8.4-8.6-16.7-14.9-23.9-2.1-2.7-2.1-2.7-2.9-6.3-1.2-3.4-1.2-3.4-5.4-5.7-7.7-4.4-11.4-11.2-15.8-18.7-3.7-2.7-7.1-4.9-11-7-1.2-.7-2.4-1.4-3.7-2.1-19.6-9.4-54.9-7.7-73.4 4.3-3.8 2.3-7.8 3.9-11.9 5.7-7.1 3.1-12.9 6.4-19 11.1-2.4 1.3-4.7 2.6-7 4-2.5 1.7-4.9 3.4-7.4 5.2-2.7 1.8-5.6 3.4-8.5 4.9-5.2 2.9-5.2 2.9-9.1 6.9-.8.2-.8.2-4.7 1.7-5 2.1-7.9 4.3-11.7 8-3.2 2.7-6.5 4.9-10 7.2-11.1 7.3-20.2 15.5-29.4 24.9-3.5 3.4-7.3 6.3-11.2 9.2-5.7 5.2-10.4 10.8-15 17-4.5 5.2-9.1 10.1-14 15-2.6 2.5-4.9 5.1-7.2 8-.8.9-1.6 1.9-2.4 2.9-1.6 2-3.1 3.9-4.7 5.8-6.5 8.1-13.1 16.1-20.9 22.9-4.3 3.8-7.5 7.8-10.8 12.4-1.2 1.4-2.3 2.8-3.5 4.2-2.8 3.7-5.1 7.3-7.4 11.3-3.2 5.2-6.7 9.2-11.1 13.4-3.2 3.2-5 7-7 11.1-1.2 1.8-2.3 3.6-3.5 5.3-2.3 3.6-4.4 7.2-6.4 11-3 5.5-6.4 10.5-10 15.6-2.2 3.1-2.2 3.1-5 8.1-3.2 4-4.2 4.6-8.8 6.3-5.9 2.9-6.8 4.5-8.5 10.8-1.3 4.6-3.7 8.6-5.8 12.9-1.1 2.1-2.1 4.2-3.2 6.3-1.8 3.7-3.7 7.1-5.8 10.7-.2.6-.2.6-1.2 4.1-2 5.2-4.4 8.7-7.7 13q-3.15 4.2-6 8.7c-.6.8-1.1 1.7-1.7 2.6-1.4 2.6-1.4 2.6-2.4 5.7-1.6 4.5-5.5 6.7-9 9.9-1.4 1.7-2.6 3.4-3.9 5.2-7.3 10.5-16.4 17.8-26.8 25.2-5.3 4.1-9.2 8.8-12.9 14.4-2.9 3.7-5.2 4.4-9.4 6.2-2.3 3-2.3 3-4 6-5.7 5.6-13 8.4-20 12-1 .6-2 1.3-3 2-3.1-.3-6.1-.6-9-1 .1-4.3.2-6.4 3.4-9.4 3.6-1.6 3.6-1.6 8.6-2.5 6.1-1.4 6.5-3.2 10-8.1 4.5-1.2 4.5-1.2 9-2 3.9-4 4.3-5.1 6-10 1.9-2.6 1.9-2.6 4.3-5 2.5-2.8 4.9-5.4 7.1-8.4 3.4-3.5 7.3-5.3 11.6-7.6 2.4-2.3 2.4-2.3 5-5l4.8-4.2c4.4-3.9 7.4-7.9 10.4-13 1.9-3.1 4-5.9 6.2-8.8 3.8-4.9 6.9-9.9 9.9-15.3 1.7-2.7 1.7-2.7 4.8-6.9 3.3-4.4 4.9-8.7 6.9-13.8 1.4-2.8 2.9-5.6 4.4-8.3 1.4-2.6 2.8-5.1 4-7.7 2.8-5.5 5.6-10.8 8.6-16 .5-1 1-1.9 1.5-2.9 3.3-5.8 5.9-9 12.5-11.1 4.6-3.2 5.2-7.9 7-13 2.3-2.6 2.3-2.6 5-5 1.5-2.5 3-4.9 4.4-7.4 1.4-2.4 3-4.7 4.6-7 2.3-3.6 4-6.8 5.7-10.6 2.7-5.7 6.1-8.8 10.9-12.8 3.2-3.1 5-6.6 7-10.6 2.7-5.3 6.5-9.7 10.4-14.1 3-3.5 3-3.5 5.5-7.8 2.5-3.7 2.5-3.7 7.5-6.7 5-3.8 8.3-8 12-13 1.3-1.4 2.6-2.7 4-4 .4-.8.4-.8 2.9-4.5 2.5-3.8 4.8-6.4 8.1-9.5.9-1.4 1.8-2.7 2.8-4 3.2-4 3.2-4 7.2-6.4 4.7-3.1 5.9-6 8.4-11 2.3-4 5.8-6 9.6-8.6l2.7-3.9c3.7-4.7 7.7-7.6 12.5-11 3.1-2.4 5.3-5.1 7.8-8.1 2.1-1.8 4.3-3.5 6.5-5.1 2.6-2 5-4.2 7.4-6.4 5.6-5.2 11.7-9.4 18.1-13.5 5.3-3.7 10.4-7.5 15-12 1.8-1 3.7-2 5.6-2.9 5.4-2.6 10.3-5.7 15.4-9.1 6-3.9 12.2-7.6 18.4-11.2 4.5-2.8 4.5-2.8 7.4-5.3 3.4-2.8 6.9-4.6 10.9-6.5 1.4-.7 2.8-1.4 4.3-2.1 1.3-.7 2.6-1.3 4-1.9l5.1-2.7c9.7-4.7 18-7.8 28.9-8.3 1.2-.2 2.5-.5 3.8-.7 7.1-.6 14.3 0 21.3 1.2 2.9.5 2.9.5 6.9-.2 15.4-1 31.6 7.7 41 19.7 1.4 1.3 2.9 2.7 4.4 4 4.3 3.6 7.9 7.7 11.6 12 1.2 1.2 2.4 2.5 3.6 3.8 3.4 4.2 3.4 4.2 5.2 8.9 2.3 5.7 5.3 9.7 9 14.5 3.3 4.3 5.7 8.3 7.2 13.4 3 6.7 7.9 11.2 13 16.4.9 1 1.9 2 2.9 3 4.5 4.6 8.7 8.4 14.1 12 1.6 1.4 3.3 2.9 5 4.5 5.1 4.2 9.6 6 15.9 7.6 5.9 1.6 10.9 4.7 16.1 7.9 5.2 1.8 10.6 2.6 16.1 3.5 2.8.5 2.8.5 6.3 1.6 10.7 2.6 25.7 1.6 36.3-1.1 6.6-1.6 13.3-1.8 20.1-2.2 5.9-.5 11.4-1.3 17.2-2.8 3.6.3 6.8 1.2 10.4 2.2 6.2 1 9.5-.3 14-4.6 4.7-3.5 9.7-5.4 15.1-7.4 2.2-.9 4.5-1.7 6.7-2.6 1.1-.4 2.3-.9 3.4-1.3 5.1-2 10.1-4.1 15.1-6.2 1.7-.7 3.3-1.4 5-2.1 3.7-1.8 6.2-3.5 9.3-6 1.1-.5 2.2-.9 3.3-1.4 7.6-3.4 12.4-9.5 17.7-15.6 3.2-3.4 6.5-6.6 10.1-9.6 3-2.6 4.8-5.1 6.9-8.4 3.1-4.4 6.8-7.6 11-11 .3-.4.3-.4 2.3-2.5 2.6-2.5 2.6-2.5 7-5.8 4.9-3.8 8.6-8 12.7-12.7 1.1-1.4 2.3-2.7 3.5-4.1 1.1-1.3 2.3-2.6 3.5-3.9l3.3-3.9c5.1-5.8 10-11.7 14.8-17.8 3-3.9 6-7.4 9.5-10.9 3.8-3.9 6.4-7.9 9.4-12.4 4-6.3 8.1-12.3 13-18l6-9 6-9c1-1.6 2-3.2 3-4.9 3-4.1 3-4.1 5.3-5.9 3.4-2.8 5.6-6 8.2-9.5 1.1-1.4 2.1-2.8 3.2-4.3s2.1-2.9 3.3-4.4l6.3-8.4c3.2-4.3 6.3-8.6 9.3-13 2.5-3.4 4.9-6.6 7.7-9.8 4.5-5.5 8.4-11.4 12.3-17.3 3.5-5.3 7.5-10.3 11.5-15.2 3.6-4.3 7.2-8.7 10.3-13.3 3.2-4.7 6.7-9 10.3-13.3 2.2-2.6 4.3-5.3 6.4-7.9 13.2-16.5 28-32.8 44.5-46 2.4-1.8 2.4-1.8 4.7-4.3 3.2-3.1 6.7-5.3 10.5-7.8 4.7-3.2 8.8-6.1 12.5-10.4 9.9-11.6 22.6-16.8 37.1-20.4 3.6-.9 3.6-.9 8.7-3.2 17.4-6.3 31.6 3.2 45.1 13.3 2.7 2 2.7 2 7.3 4.5 10.1 7.9 15.6 20.8 20.5 32.5.4 1.1.9 2.2 1.4 3.3 2.6 6.3 4 11.8 4.6 18.7.6 1.6 1.3 3.3 2 5l.9 6.6c.8 6.1 2.2 11.6 4.1 17.4.4 2 .9 4.1 1.4 6.2 1.4 5.2 2.7 7.5 5.6 11.8.6 2.1 1.2 4.2 1.8 6.4 1.8 6.1 4.2 11.6 10.2 14.6 1.4-.1 2.8-.2 4.3-.3 4.7.3 4.7.3 6.9 2.6 3.5 3.4 6.2 3.9 10.8 4.9 1.4.3 2.8.6 4.2 1 1.3.2 2.5.5 3.8.8s2.6.6 4 1c12.1.8 25.5.9 34-9q2.85-1.65 6-3c3.3-2.3 6.4-4.5 9.3-7.4 2.7-2.6 2.7-2.6 7.3-5.6 16.8-11.5 24.4-31.6 30.4-50l1.5-4.2c3.4-10.1 4.1-19.6 4.2-30.2v-6.3c.3-3.3.3-3.3 1.2-8.1 1.7-8.6 1.4-17.2 1.4-26v-16c-.4-4.3-1.3-6.5-3.3-10.2-.7-3.7-1.4-7.4-2-11-.7-1.4-1.4-2.7-2-4-.3-2.2-.5-4.5-.6-6.7 0-.6 0-.6-.2-4-.1-2.7-.2-5.5-.4-8.2-.6-11.9-2-23.1-6.8-34.1-1.1-3.4-2.1-6.7-3-10-1.7-5.2-3.5-10.1-5.6-15-1.5-3.5-2.6-6.6-3.4-10.3-1.6-7.2-4.4-13.9-7-20.7-.6-1.4-1.1-2.7-1.6-4.1-3.5-8.8-7.1-17.4-11.4-25.8-2-3.9-3.5-7.5-5-11.6-1.9-5.2-4.2-9.3-7-13.9-3.6-6.4-6.6-13.2-9.6-19.9-2.2-4.2-4.4-7.2-7.4-10.7-.9-1.7-1.8-3.4-2.7-5.2-3-5.5-6.6-10-10.7-14.7-2.7-3.2-5.2-6.5-7.7-9.8-7.2-9.5-15.6-17.1-24.9-24.3-1.4-1.1-2.7-2.1-4.1-3.2-20.2-11.5-48.5-14-69.3-1.9-2.6 2.1-2.6 2.1-5.6 6.1-1.4.6-2.7 1.3-4 2l-1.8 2.1c-2.2 2.9-2.2 2.9-5.9 6-5.1 4.5-9.1 9.5-13.3 14.9-7 8.5-7 8.5-11.6 10.6-9.1 4.8-15.4 10-21.4 18.4-2 1.3-4 2.7-6 4-2.7 2.1-5.4 4.2-8 6.3-.7.6-.7.6-4.1 3.4-9.4 7.8-17.1 16.1-24.7 25.6-2.3 2.7-4.7 5.2-7.2 7.7-1.4 1.3-2.7 2.6-4 4-20 20-20 20-22.6 22.5-1.7 1.7-3.4 3.5-5.2 5.2-.9.9-1.8 1.9-2.8 2.8-.9 1-1.8 1.9-2.7 2.8-2.5 2.4-5.1 4.5-7.7 6.7-1.4 1.6-2.7 3.3-4 5-1.4 1.3-2.7 2.6-4 4-1.1 1.2-2.1 2.4-3.2 3.6-2.9 3.3-5.9 6.3-9 9.4-4.1 4-6.4 7.8-8.8 13-1 .6-1.9 1.2-2.9 1.8-3.4 2.3-5.3 4.6-7.7 7.9-.7 1.1-1.5 2.1-2.3 3.2-.7 1-1.4 2-2.1 3.1-5.6 7.6-5.6 7.6-8.4 9.7-3.5 3-5.6 6.4-8.2 10.2-3.1 4.8-6.2 9.1-10.4 13.1-3.6 4-7.1 8-10.6 12.1-3.2 3.6-6.7 6.7-10.4 9.9-2.1 2.3-4.1 4.6-6 7-1.7 1.6-3.4 3.3-5 5-3.6 3.4-7 6.9-10.2 10.6-4.2 4.8-8.6 9.1-13.1 13.5-2.8 2.9-2.8 2.9-4.9 5.5-1.8 2.4-1.8 2.4-5.6 5.5-4.2 3.8-7 7.6-10.2 12.2-2 2.7-2 2.7-6.2 6.2-4.5 4-6.8 8.3-9.8 13.5-2.3 2-4.7 4-7 6q-3.6 4.05-6.9 8.4c-2.9 3.4-5.5 6.2-9.4 8.3-3.8 2.3-3.8 2.3-7.5 6.1-4 3.9-7.8 6.6-12.5 9.5-2.7 1.7-2.7 1.7-5.6 3.7-4.7 3-9.9 4.5-15.2 6.3-4 1.7-4 1.7-7.2 4.2-4.8 3.2-9.6 4.2-15.2 5.3-6.6 1.5-13.1 2.9-19.5 5.1-18.3 6.3-38.1 8.4-56 .1-1.1-.5-2.1-1-3.2-1.5-20.4-10.6-26.3-34.1-32.8-54.5-.6-1.6-1.2-3.2-1.8-4.9-1.1-3.7-1.6-6.6-1.8-10.5-.7-14.6-3.5-29.3-6.4-43.6-.2-.7-.2-.7-.8-4-2.3-10.2-6.2-18.9-11.2-28-.6-1.1-1.2-2.1-1.8-3.2-6.2-11.2-13.7-21.3-22.2-30.8-1.1-1.4-2.1-2.8-3.2-4.2-7.7-10-15.6-18.9-26.8-24.8-16.6-9.5-16.6-9.5-22.2-14-6.6-5.2-14.3-7.2-22.4-9.7l-3-.9c-19.4-5.9-47.4-5.8-63.4 8.6-2.1 2.3-4.1 4.6-6 7-2 1.3-4 2.6-6 4-2.4 2.3-4.7 4.6-7 7l-3 2.1c-7.2 6.7-10.9 14.2-12 23.9-3.2 3-3.2 3-7 6-4.5 5.4-8.2 11.2-12.1 17.1-2.5 3.7-5.2 7.3-7.9 10.9-.7 1-1.4 2.1-2.1 3.1-1.9 2.9-1.9 2.9-4.3 5.1-2.8 2.9-5.2 6-7.6 9.3-3.2 4.1-6.3 7.9-10 11.5-6.6 6.3-12.5 12.7-18 20-3.7 4.4-7.2 8.4-11.9 11.7-5.9 4.6-9.8 10.3-14.1 16.3-.8.9-1.5 1.9-2.3 2.9-3.1 4.3-6 8.5-8.7 13.1-4.3 7.1-9.2 13.1-15 19-.7 1.3-1.4 2.6-2 4-3.4 5.6-7.4 9.1-12.2 13.3-3.4 3.2-5.6 6.6-7.8 10.7-4.9 6.7-10.3 12.3-16.2 18.1-3.5 3.5-6.6 7.2-9.8 10.9-1.4 1.2-2.7 2.5-4.1 3.8-4.2 4.5-6.9 8.9-9.9 14.2-1.2 1.6-2.3 3.3-3.5 5-.6.8-1.2 1.6-1.8 2.5-1.6 2.3-3.3 4.5-5.1 6.8-4.1 5.9-7 12.4-10 19-4.4 9.3-8.7 16.7-15.7 24.3-2.8 3.4-4.5 7.3-6.4 11.3-4.8 9.5-11.9 16.7-19.6 24-2.8 2.9-4.8 5.7-6.9 9.1-1.1 1-2.2 2-3.3 3.1-3.9 4-6.7 8.2-9.7 12.9-4.3 6.3-9.7 11.6-15 17-9.5 10.4-18.3 21.2-25.7 33.3-2.3 3.7-2.3 3.7-4.7 6-2.9 2.9-5.2 6-7.5 9.5-3.8 5.3-7.8 10.3-12.1 15.2-2.8 3.5-5.5 7.1-7.9 10.9-2.3 3.2-4.7 5.9-7.5 8.7l-3.1 3.1-3.3 3.3c-1.1 1-2.1 2.1-3.2 3.2-5.4 5.4-10.8 10.3-17 14.8-2.2 1.8-4.3 3.6-6.4 5.5-5.6 4.8-11 8.2-17.6 11.5-1.2.6-2.4 1.2-3.6 1.9-5.4 2.5-10.9 4.1-16.7 5.7-11.3 3.1-11.3 3.1-15.7 5.4-2.8.4-5.5.8-8.3 1.1-1.4.2-2.9.3-4.4.5-4.3.4-4.3.4-8.7.3-3.6.1-3.6.1-6.6 1.1-8 2.5-15.6-1.2-23-4-.8-.3-.8-.3-4.9-1.6-22.1-7.6-40-30.6-46.1-52.4-1-2.9-2-5.7-3-8.6-2.6-7.5-4.2-14.8-5.4-22.6-.9-5.1-2.2-9.9-3.6-14.8-.3-1.7-.6-3.3-.9-5-1-4.4-1.9-6.5-4.1-10.3-4.1-7.5-4-15.2-4.6-23.6-.5-6.1-2-10.5-4.4-16.1-.8-3-1.4-6-2-9-2.7-12.5-5.9-24.4-11-36-2.8-6.5-4.1-13-5.4-19.8-.6-3.2-.6-3.2-1.6-5.2-.2-1-.2-1-.7-5.8-1.2-7.7-4-13.8-7.5-20.7-.3-.6-.3-.6-1.7-3.5-10.3-20.5-10.3-20.5-15.2-26.6-1.9-2.4-1.9-2.4-4.2-7.4-5.7-10.5-17.4-14.9-27.7-20-1.4-.7-2.7-1.4-4.1-2.2-9.6-4.5-18.3-6-28.8-6h-15.9c-30 0-30 0-41 4.8-3.5 1.4-6.8 2.4-10.4 3.3-6.5 1.8-11.3 4.4-16.8 8.1-3.8 2.5-7.6 3.1-11.9 4-3.6 1.1-6.1 2.9-9.1 5-3.6 1.5-7.1 3-10.7 4.4-3.3 1.6-3.3 1.6-5.7 3.5-3.6 2.8-7.3 4.3-11.4 6-9.6 4.2-18 8.8-26.4 15.1-2.7 1.9-5.5 3.4-8.4 4.9-5.1 2.7-9 6-13.2 10-2.2 2.1-2.2 2.1-7.2 5.1-6.5 4.2-11.1 8-16 14-2.7 2.3-5.4 4.6-8 7-1.4 1.6-2.7 3.3-4 5l-2.4 1.8c-2.7 2.2-4.7 4.5-6.9 7.3-3 3.8-6.2 7.5-9.5 11-6.7 7.4-10.8 15.8-15.1 24.7-2 3.9-4.2 7.6-6.5 11.3-3.2 5.6-6 11.4-8.9 17.1-.6 1.3-1.2 2.5-1.9 3.8l-1.8 3.6c-.5 1.1-1.1 2.2-1.6 3.3-1.9 4.1-3.3 7.9-3.8 12.4-.9 4.8-3 8.1-5.5 12.2-4.3 7.1-8 13.3-10.1 21.3-1.1 4.2-2.2 7.5-4.2 11.3-2.5 5.3-2.5 10-2.8 15.9-.7 1.3-1.4 2.6-2 4-.6 2.7-1 5.5-1.4 8.3-.9 5.6-1.9 10.9-3.6 16.3-2.3 7.4-3.4 15-4.5 22.7-1.2 8.1-3.9 14.5-7.5 21.7-.5 4.2-.1 6.8 1.5 10.8 3.2 11.5.5 23.1-2.6 34.3-.9 3.7-1.5 7.4-1.9 11.2-.7 5.2-2.1 9.6-4 14.5-3.3 10.1-4.2 20.7-4 31.2-.4 1.2-.7 2.4-1 3.6-1 4-1.3 7.4-1.4 11.5-.4 6.8-1.4 13.3-2.7 20-2 10.6-2.4 20-1.4 30.7.5 5.2.5 5.2-.2 9.5-.3 3.7-.3 3.7 2.7 8.7 3.8 2.2 7.7 4 11.7 5.9 3.3 2.1 3.3 2.1 4.3 7.1-3.1 1-3.1 1-6 1.3-3 .7-3 .7-7 4.7.1 17.1 16.6 34.6 28 46 .5 1.2 1.1 2.5 1.8 3.8 2.4 4.7 5.1 6.9 9.2 10.2.8.8 1.6 1.7 2.4 2.5 6.6 6.4 12 8.3 20.9 9.8 3.7.7 3.7.7 6.7 1.8 12.8 3.8 27.5-4.1 39-9.1.7-.4.7-.4 4.7-2.1 6.3-2.9 11.4-6.6 16.7-10.9 2.6-2 2.6-2 6.6-4.7 4.8-4 7.4-8.5 10.7-13.8 2-3.2 4.1-5.7 6.8-8.4 7.9-8.3 11.8-19.2 14.5-30.1.8-1.6 1.6-3.3 2.4-4.9 2.6-5.3 3.5-9.4 4.6-15.1 2.7-12.4 7.1-23.2 12.6-34.4 2.8-5.6 5.1-10.4 6.3-16.5 1.1-5.3 2.9-9.3 5.1-14.1.9-2.9 1.8-5.7 2.8-8.6 4-12.2 8.5-24.8 16.2-35.3 2.6-4.1 3.6-8.5 5-13.1 2.9-6.4 6.3-12.2 10-18 .5-1.3 1-2.5 1.6-3.8 2.9-5.2 6.5-9 10.6-13.2 2.4-2.6 4.2-5.2 6.1-8.1 10.3-13.3 33.5-20.9 49.7-19.9 11 2.2 19.1 4.8 25 15 .3.5.3.5 1.8 3.1 1.2 2 2.4 4.1 3.6 6.2 1.6 2.7 1.6 2.7 4.6 6.7v10c.6 1.3 1.3 2.6 2 4 .4 2.3.7 4.7 1 7.1.9 6.7.9 6.7 2 8.9.2 2 .5 4.1.7 6.2.9 6.5 2.6 12.2 5 18.3 1.2 3.4 2.3 6.7 3.3 10.1 1.2 4.1 2.6 8.1 4.1 12.1 1.9 5.3 1.9 5.3 2.9 9.9 1.1 4.8 2.9 8.9 5 13.4.3 1.3.6 2.6 1 4 1.1 4.4 2.9 7.9 5 12 .6 1.8 1.2 3.5 1.9 5.4 3.8 10.4 9.8 19.2 16.7 27.9 2.1 3.3 3.3 6.1 4.7 9.7 3.4 9.3 8.4 17.6 13.9 25.8 2.8 4.2 2.8 4.2 4.7 8.2 3 5.7 7 10.5 11.2 15.5s7.7 9.9 11 15.5c4.9 7.8 11.2 12.2 18.9 17 .5.3.5.3 3 2 3 2 6 3.6 9.2 5.3 4.1 2.2 7.9 4.4 11.6 7.2 13 9.1 24 10 39.3 8.8 5.2-.3 9.7 0 14.9.7 4.6-1.7 6.4-3.5 10-7 8-2.4 8-2.4 12-1-1.2 5.5-2.1 8-6 12-5.5-.3-5.5-.3-11-1-4.2 1.4-5.9 2.8-9 6-14 3.5-27.7 3.1-41-2-1.8-.7-3.6-1.3-5.5-2-4.3-1.9-7-3.9-10.5-7-4.5-3-9-5.5-13.9-7.8-6.5-3.2-11.7-7.4-17.1-12.2-1.5-1.3-3-2.5-4.5-3.8-4.3-3.9-7.3-7.8-10.5-12.7-3.1-4.5-6.6-8.5-10.2-12.6-4.4-5.1-7.8-9.9-10.8-15.9-3-5.2-6.1-10.1-9.6-14.9-4.7-6.8-8.5-13.9-10.9-21.8-1.9-5.4-5-8.9-8.5-13.3-1.4-2.7-2.7-5.4-4-8l-2.4-2.7c-3.2-4.1-4.6-8-6.3-12.9-1.8-5.3-3.5-9.6-6.3-14.4-.6-2-1.1-4-1.6-6-.7-3.3-1.4-6-3-9-1.8-3.7-2.6-7.5-3.5-11.5-1.5-5.6-3.5-11.1-5.5-16.5-1.7-4.7-3-9.3-4.4-14-.6-1.2-1.1-2.3-1.6-3.4-2-5.1-2.7-10.2-3.4-15.6l-.6-3.9c-.3-2.2-.6-4.5-.8-6.8-.6-3.3-.6-3.3-3.6-7.3.1-1.8.2-3.6.3-5.5.2-8-3.8-13.2-8.3-19.5l-2.1-3.3c-4.6-6.4-15-7.3-22.5-8.1-4.7.5-8.2 2.3-12.4 4.4-2.1.7-4.1 1.5-6.1 2.3-5.7 2.3-9.6 5.3-13.9 9.7-1.3 1.2-2.6 2.4-4 3.6-11.7 12.6-19.6 28.3-25.5 44.3-2.1 5.5-4.7 10.6-7.3 15.8-4.6 9.5-8.5 18.9-11.8 29-1.4 4.3-1.4 4.3-3.4 8.2-2.3 4.6-3.6 9.2-5 14.1-1.9 4.8-3.9 9.5-5.9 14.3-3.1 7.2-6.1 14.4-9 21.7-.4 1-.8 2-1.2 3.1-1.5 4.5-1.6 9.1-1.9 13.9-1.5 4.1-3.3 7.4-5.6 11.2-2.2 4.3-3.3 8-4.5 12.6-3.4 11.2-9.2 20.1-17.3 28.4-2.5 2.6-4.6 5.3-6.6 8.4-8.3 11.7-20.2 20.3-33 26.4-1.7.7-3.3 1.5-4.9 2.3-21.2 9.4-40.5 14.7-62.5 5.2-3.6-1.5-3.6-1.5-7.3-2.6-5.9-2.6-9.6-6.6-14.1-11.2l-2.5-2.5c-4.4-4.5-7.9-8.6-10.7-14.2-2.3-3.8-4.1-6.1-7.5-8.9-3.8-3.4-6-6.7-8.5-11.1-1-1.4-2-2.7-3-4-.5-1.4-1-2.8-1.4-4.3-1.7-4.8-3.9-8.5-6.6-12.7-2.3-5.6-2-9.1-2-15-.2-.8-.2-.8-1-4.6-1.4-7.5-1.8-14.8-2-22.4-.1-1.5-.2-2.9-.2-4.4-.2-11.1.8-21.9 2.2-32.9 1.4-11.4 2.4-22.8 3.5-34.2.2-1.7.3-3.3.5-5 .1-1.5.3-3 .4-4.5.5-3.8 1.4-7.3 2.6-11 .3-1.8.6-3.5.9-5.3 1.1-5.7 1.1-5.7 2.5-10.8 1.7-6.1 2.7-12.2 3.7-18.5 1.7-11.2 1.7-11.2 2.9-13.4.2-9.6.2-9.6-1-12-.8-11.3-.4-20.9 3.7-31.5 1.3-3.7 1.8-7 2.3-10.9.8-7.3 2.6-14.2 4.7-21.3 2.5-8.6 4.2-17.2 5.7-26 1.9-11.1 4.1-21.4 9.2-31.6 1.7-3.5 2.5-7 3.4-10.7 1.2-2.7 2.6-5.4 4-8 3.2-6.2 6.1-12.2 8.3-18.7 4.6-13.3 11.3-25.8 17.7-38.3.7-1.6 1.5-3.2 2.3-4.8 2.7-5.4 5.7-10.7 8.7-16.1.5-.9 1-1.8 1.6-2.7 3.1-5.4 6.1-10.3 10.6-14.6 2.8-2.8 2.8-2.8 6.1-7.2 4.9-6.2 10.5-11.6 16.2-17.2 2.5-2.5 4.9-5.1 7.3-7.8 16.3-18.6 16.3-18.6 24.2-18.6.6-1.4 1.3-2.7 2-4 5.8-4.8 11.7-8.7 18.6-11.5 3.4-1.5 3.4-1.5 7.4-5.5 2-1.4 4.2-2.8 6.3-4.1 1.1-.7 2.2-1.3 3.4-2 4.6-2.7 9.3-5 14.2-7.1 4.7-2.1 9.2-4.5 13.7-6.9 6.6-3.6 13.3-6.7 20.3-9.5 6.6-2.6 12.9-5.2 19-9 6.3-3.9 13.1-6 20.1-8.2 4-1.2 4-1.2 8-3.2 2.9-.3 5.9-.5 8.9-.7 3.1-.3 3.1-.3 5.7-1.4 5.1-1.4 10.1-1.2 15.4-1.1h3.2c5 0 9.8.3 14.8 1.2l9-.3c15.7-.1 29.4 3.1 43 11.3 1.4.7 2.8 1.5 4.3 2.3 10.3 5.8 16.6 10.7 22.8 20.7q2.7 4.2 5.7 8.1c6.6 8.9 11.7 18.7 16.5 28.6 2.7 5.3 2.7 5.3 5.7 9.3.6 2.7 1.1 5.5 1.5 8.3.9 5.4 1.9 10.4 3.5 15.7.3 2.3.7 4.7 1 7 1.3 7.1 3.6 13.5 6.4 20.1 3.6 8.2 6.1 16 7.6 24.9 3.6 18.4 3.6 18.4 6.1 24.6 1.7 4.9 2.1 8.2 2.3 13.3.2 7 1.3 15.8 6.6 21.1.1.8.1.8.9 5.2 1.1 5.8 1.1 5.8 3.1 10.8.4 2 .7 4.1 1 6.1 1 5.9 1 5.9 2 7.9 0 1.4.1 2.8.2 4.3.8 5.7 2.2 10.1 4.4 15.4 1.2 3 2.3 6 3.4 9.1 1.8 4.9 4.1 8.8 7 13.2.4 1.4.9 2.8 1.4 4.2 1.8 4.5 3.5 5.3 7.6 7.8 2.1 2.9 2.1 2.9 4 6 4.1 5.6 6.9 6.6 14 6 4-4 4-4 5-7.4.3-.8.6-1.7 1-2.6 4 1 4 1 6 3 0 .7 0 .7.3 4.3.8 5.4 2.3 7.6 7.4 9.8 17.6 4.4 33.4 0 50.3-5.1 1.7-.6 3.5-1.1 5.4-1.7 10.9-3.5 21.9-7.2 29.9-15.7 3.6-3.7 7.4-6.6 11.7-9.6 1.7-2 3.3-4 5-6 2.6-2.8 5.3-5.4 8-8.1 6.2-6 11.8-12 17-18.9 1.5-1.9 3.1-3.8 4.6-5.7 3-3.7 5.8-7.4 8.4-11.3 1.3-1.7 2.6-3.4 4-5 .6-1 1.2-2 1.9-3 2.1-3 2.1-3 4.4-5.9 2.7-3.1 2.7-3.1 5.4-7.3 3.1-4.6 6.4-8.8 9.9-13.1 2.3-2.6 4.4-5.4 6.6-8.1 2.8-3.5 5.6-6.5 8.8-9.6 2.3-2.7 4.6-5.4 7-8 1.1-1.3 2.3-2.6 3.5-4 3.5-4 3.5-4 6.5-8.5 3-4.6 6.3-8.5 10-12.5 1.1-1.5 2.2-3.1 3.4-4.6 3.6-4.4 3.6-4.4 7.6-7.8 4-3.7 6.4-7.1 9.2-11.8 1.7-2.8 3.5-5.4 5.4-8 3.4-4.8 3.4-4.8 5.8-9.4 2.6-4.4 2.6-4.4 6-8.8 5.1-6.7 8.4-13.8 11.6-21.6.5-.8 1.1-1.5 1.8-2.2 2.2-2.8 2.2-2.8 4.5-7.7 2.7-5.1 2.7-5.1 5.9-8.8 3.5-4 5.7-7.8 8.2-12.5 3.3-5.9 6.1-9.8 11.6-13.8 2.3-2.7 4.6-5.4 7-8 1.9-2.2 3.9-4.3 5.8-6.4 1.1-1.1 2.1-2.2 3.1-3.4 1.9-2 3.8-4 5.6-6 3.4-3.6 6.3-6.9 8.8-11.2 2.4-3.7 4.7-6.1 7.9-9.2 5.3-5.1 8.9-10.5 12.7-16.7 2.5-3.8 5.6-6.2 9.1-9.1 1.7-3.3 3.3-6.7 5-10 2.2-3.1 4.6-6.1 7-9 .8-1.4 1.6-2.8 2.5-4.2 7.2-10.1 16.1-18.7 25.5-26.8 2-2.7 4-5.3 6-8 3.8-4.6 7.8-8.8 12-13 4.4-5.1 8.6-10.3 12.8-15.5 1.9-2.3 4-4.4 6.2-6.5 1.4-2.3 2.9-4.6 4.3-6.9 3.4-5.4 7-9.6 11.7-14.1l3.3-5.4c2.4-4 4.9-7 8.4-10.1 4.8-4.6 5.7-9.1 7.3-15.5 2.9-4.4 2.9-4.4 6-8 .5-1 1.1-1.9 1.7-2.8 2.8-4 6.1-7 9.7-10.3 4.3-3.9 8.5-7.8 12.6-11.9 1.6-1.4 3.3-2.7 5-4 1-1 2.1-1.9 3.3-2.9 17.7-11.8 40.4-13.4 60.8-8.6 3.8.8 7.4 1.5 11.2 1.9 4.5.7 7.7 2.5 11.7 4.6.6.2.6.2 4 1.3 4.5 1.9 7.3 4.5 11 7.7 4.3 2.3 8.7 4.4 13.3 6.4 2.6 1.6 2.6 1.6 5 4.5 3.4 3.9 6.9 5 11.7 7.1 5.2 3.8 9 8.3 12.9 13.5 2 2.5 2 2.5 6.1 6.3 4 4.2 6.4 8.3 9.2 13.3 1.8 2.9 1.8 2.9 5.6 6.6 5.8 6 9.2 12.9 13.2 20.3 1.4 2.5 2.9 5.1 4.4 7.7 3.5 6.1 5.8 11.1 7 18 1 5.5 2.2 10.9 3.6 16.3.6 3.6 1.3 7.3 2 11 .3 1 .6 1.9 1 3l1.8 15.3c1.1 8.4 1.1 8.4 2.2 11.7.1 1.7.2 3.5.3 5.3.7 5.8 1.5 7.1 4.7 11.7.4 2 .9 4.1 1.3 6.1 1.4 7.1 4.4 12.1 8.7 17.9 1 1.4 2 2.9 3 4.4 2.8 3.4 5.3 5.2 9 7.6.6 1.3 1.3 2.6 2 4 3.6 2 3.6 2 8 4 1 .5 2 1 3.1 1.6 13.4 4.8 28 1.1 40.9-3.6 3.9-1 7.8-1.9 11.8-2.5 9.9-1.4 18.2-5.1 27.3-9.3 3.9-1.7 8-3.3 12-4.9 5.9-2.7 10.5-6.7 15.3-10.8 4.1-3.5 8.1-6.6 12.6-9.5 5-3.9 8.8-8.3 13-13 1-1.1 2.1-2.1 3.2-3.2 4.3-4.4 8-9.3 11.8-14.2 3.7-4.5 7.6-8.7 11.5-12.9 3.1-3.4 5.7-7.1 8.5-10.7 1.6-1.7 3.2-3.4 5-5 1.6-1.7 3.3-3.4 5-5 .8-.9 1.6-1.7 2.5-2.5.4-.5.4-.5 2.5-2.5.8-.9 1.7-1.7 2.5-2.5 2.4-2.5 2.4-2.5 4.6-5.2 2.3-2.9 5-5 7.9-7.3 2.5-2.4 4.8-4.8 7-7.5 3.2-4.1 6.8-7.4 10.8-10.7 3.9-3.6 6.9-7.1 10.2-11.3 2.5-3.2 5.2-6.2 8-9.2 2.1-2.5 4-5.1 5.9-7.8 4-5.5 8.4-10.5 13.1-15.5q5.1-5.85 9.9-12c2.5-3.1 5-6.1 7.6-9.1 3.5-3.9 3.5-3.9 6.5-8 4.4-5.8 9.5-10.9 14.4-16.2 3.9-4.1 7.6-8.2 11.4-12.4 3.7-4 7.5-7.6 11.6-11.2 3.9-3.4 7.2-7.2 10.6-11.1.9-.8 1.9-1.6 2.9-2.5 3-2.5 5.3-5.2 7.8-8.1 2.9-3.1 6-5.9 9.2-8.8 5.2-4.7 9.2-9.3 13.2-15.1 2.6-3.5 5.6-6.1 8.9-9 3.7-3.2 7-6.7 10.4-10.2 5.6-5.6 11-10 17.6-14.3 4.9-4 9.9-8 14.4-12.5 2.8-2.8 5.8-5.4 8.8-7.9 1.1-1 2.3-1.9 3.5-2.9 2.6-2.2 5.3-4.2 8-6.2 6.7-5.5 11.5-12.3 16.7-19.2 5.8-7.1 10.8-13.2 19.6-16.3.8-.7 1.7-1.3 2.6-1.9 3.8-2.4 7.3-3.6 11.7-4.8 1.4-.4 2.8-.9 4.3-1.3 14.2-3.4 29.8-3 43.6 2"/></svg>