<?xml version="1.0" encoding="UTF-8"?>
<svg id="Layer_1" xmlns="http://www.w3.org/2000/svg" version="1.1" viewBox="0 0 958.7 413.1">
  <!-- Generator: Adobe Illustrator 30.5.1, SVG Export Plug-In . SVG Version: 2.1.4 Build 3)  -->
  <defs>
    <style>
      .st0 {
        fill: #8f7bff;
      }
    </style>
  </defs>
  <path class="st0" d="M62.2,105.3c16.8-20.6,38.7-33.6,63.9-41.3s20-4.7,29.8-7.8,7.7-2.5,11.8-3.4c20.5-4.7,42.3-4.1,62.5,1.7s13.5,4.5,19.9,7.7,14.7,6.9,19.7,12.4c9.1,10.1.5,26.3-7.5,34-17.6,16.8-43.9,17.9-65.1,27.8s-21.1,12-25.5,23-2.3,23.2,7.9,27.4,11.6-.7,17.1-2.3,15.6-4,23.6-5.2c15.5-2.2,32-2.3,47.4.5s11.2,3.9,13.5,10.3,2,12,.5,17.7c-3.3,12.7-14.6,20.7-26.3,25.2s-26.7,8.1-37.9,17.2-18,20.1-23.5,32-3.5,9.8-.8,14.7,7.2,7.1,12.1,7,10-3.8,13.9-7.3c5.5-4.9,10.8-9.6,17.1-13.3,20-11.8,51.5-16.5,70,.8s11.7,23.9,5.9,36.3-18.8,20.5-32.2,25.4c-14.2,5.1-28.3,10.1-42,16.4s-27.2,13.7-40.6,21.1c-12.8,7-25.9,14-39.9,18.2s-29.8,4.8-45,1.4-29-8.1-42.5-14-23.7-11.9-33.3-21c-13.6-12.9-23.2-30.7-27-49-5.6-26.9,4.7-52.2,11.6-77.7,5.7-21.1,10.8-42.4,15.5-63.8s7.2-43.4,18.1-61.7c2.2-3.6,4.7-7.1,7.3-10.4s-2.4-9.7-5.7-5.7c-6.1,7.6-11.1,15.6-14.6,24.6-3.9,9.9-6.2,20.5-8.5,30.9-3.9,17.8-7.7,35.5-12,53.2-3.2,13.1-6.6,26.1-10.1,39.1s-7.7,24.6-9.9,37.3c-4.4,25.5,1.8,51.5,16.3,72.9,12.1,17.8,29.3,30,49,38.6,27.3,11.9,58.3,21.9,88.1,14.4,29.5-7.4,54.9-26.1,82.2-39,15-7.1,30.5-12.5,46.1-18.2s24.9-11.1,32.7-22.7c7.3-10.7,10.4-24.8,6-37.2s-12.7-19-23.3-23.5c-24.3-10.4-53.8-3.3-74.3,12.1-5.3,4-9.8,10-15.8,13s-5.9,1.4-7.8-1.4.4-7.2,1.9-10.2c6.4-12.8,15.2-25.2,28-32.2s27.9-8.8,40.2-16.8,17.9-16.6,19.6-28.9-.7-22.7-9.6-29.1c-5.7-4.1-13.3-4.7-20.1-5.5s-16.6-1.3-24.9-.9c-15.9.6-31.5,3.7-46.6,8.5s-6,2.2-8.4-.4-3-6.1-3.1-9.1c0-7,4.5-13,9.6-17.3,19.5-16.3,47.4-16,68.8-28.7s19.3-15.1,23.3-26.8,1.6-23.8-8.8-31.3c-22.3-16-50.9-23.9-78.2-23.3s-26.1,2.9-38.9,6.8c-10.9,3.3-22.2,5.3-33.1,8.9s-23.4,8.7-33.9,15.4c-11.5,7.2-21.5,16.4-30.1,26.9s2.4,9.6,5.7,5.7Z"/>
  <path class="st0" d="M342.3,231.8c-8.5,7.6-11,19.1-12,30-1.4,16.1.3,32.5,1.3,48.6s1.1,20.6,1.3,30.9-.4,16.6,1.6,24.8,5.6,17,13.4,20.7,15-1,19.7-7.1c6.9-8.9,11.9-19.7,16.4-30,4.7-10.7,8.5-21.7,11.5-33h-7.7c5.6,14.1,10.3,29.8,19.4,42.1s21.1,19.5,31.7,9c4.4-4.3,6.6-10.7,8.1-16.5,2.2-8.3,3.7-16.8,5.4-25.2,3.8-18.2,7.6-36.3,11.4-54.5s7.2-29.9,4.3-44.8c-2.4-12-11.1-22-23.8-22.5s-23.6,8.1-31.1,17.9-8.3,12.3-12.1,18.6-7.3,14.6-14,17.5-6.3-7.8-7.6-11.6-4-9.9-7.2-14.1c-8.2-10.5-20.7-8.7-30-.7-3.9,3.3,1.8,9,5.7,5.7s6.7-4.6,10.4-4.6c5.7,0,9,5.9,11.2,10.4s2.7,6.3,3.5,9.7,1.4,8.4,5,11.5c9.3,8,20.1-3.7,24.9-11.1,7-11,12.7-23.3,22.1-32.5s19.8-12.4,28.7-4.8,7.9,24.8,6,36c-5.2,30.6-12.5,61.1-19,91.4s-2.5,13.1-6.5,17.8c-5.8,6.9-14.5,0-18.8-5.1-9.9-11.6-14.4-27.7-19.8-41.6s-6.6-4.1-7.7,0c-4.6,17.4-11.1,34.2-20,49.9s-9.1,19.1-17,14.9-9-14.7-9.6-21.7-.2-15.7-.4-23.5-.7-16.9-1.2-25.3c-.8-13.9-2-27.9-1.5-41.9s1.7-22.1,9.9-29.4-1.8-9.1-5.7-5.7Z"/>
  <path class="st0" d="M534.8,166.9c-5.3,11.7-17.1,14.3-28.1,18.6-14,5.5-24.8,14.5-31,28.4s-10,28.7,1.2,38.4c5.5,4.7,13.1,5.5,20,4.3s20.3-10,30-5,12.1,14.2,14.1,22.5,1.9,23.1,1.4,34.5c-.5,11.7-.6,23.3,0,35,.6,10.6.7,22.6,4.1,32.7s8.5,12.7,16.6,11.8c8.3-.9,14-7.7,17.4-14.9s6.7-20.8,8.6-31.3,3-22.1,3.3-33.3c.6-20.6-1-43,10.7-61.1s22.7-22.1,35.1-31.8,27.3-23.2,28.4-39.8c1-15.4-13.7-26.6-28.3-25.7-10.1.7-20.6,6.4-30.8,4.1s-12.9-8.7-16.1-15.7c-8.1-17.5-8.7-38.3-10.9-57.1l-4.2-36c-1.1-9.7-1.5-20.1-5.4-29.2-7.1-16.9-26.4-18.5-42.2-14.5-27,7-13.7,45.5-8.7,63.6,4.1,15,8.5,29.9,12,45s6.1,27.6,5.6,41.7c-.2,5.4-1,10.7-3.1,15.8s5.8,6.8,7.7,2.1c4.3-10.3,3.9-22.1,2.7-32.9-1.5-14-4.8-27.7-8.3-41.3s-7.6-27.2-11.1-40.9c-2.5-9.7-5.4-20-5-30.2.2-5.9,1.7-11.6,7.2-14.1s16.8-3.5,23.9-1.7,12.9,11.1,14.6,20c1.9,10.3,2.6,20.8,3.8,31.2,2.3,19.9,3.8,40.1,7.5,59.8s7.2,30.1,19.6,38.5,15.7,4.9,23.9,3.4,16.9-5.2,25.4-2.5,12.5,8.2,12.2,15.9c-.3,8.5-6.7,16.6-12.3,22.6-10.1,10.8-22.9,18.5-34.1,28-12.3,10.4-21.3,23.3-24.8,39.2s-2,39.8-4,59.6-3,22.1-5.9,32.9-5.2,20.4-14.2,22.5-11-16-11.7-22.7c-1.1-11.1-1.7-22.2-1.6-33.4.1-19.8,3.7-41.1-3.8-60.1s-7.1-13.9-13.5-18.1-16.1-4-24.2-1.2-15.3,6.8-23.1,3.8-8-12.8-6.2-20.1c3.1-12.9,10.2-24.8,22.1-31.4s20.9-7,30-13.3c4.6-3.2,8.1-7.4,10.4-12.5s-4.8-8.7-6.9-4Z"/>
  <g>
    <path class="st0" d="M833.2,192.1c5.8-5.3,13.2-7.2,20.9-8.2s19.4-1.6,29-1.7,20.2,3.1,30.4,5.2,10.8,2,16.2,2.9,11.3,1.1,15.6,4.3c9.2,6.9,5.1,24.8,3.9,34.4-1.4,11.8-4.2,26.1-14.1,34-8.6,6.8-20.3.1-28.7,7.6s-4.7,17.9,1.8,24.7,17.5,14.9,20.2,26.5-9.4,20.2-19.3,19.9-16.4-10.2-20.6-19.2-9.7-20-19-26.5-17-6.9-25.5-3-7.7,5.2-10.1,9.1-4.7,12-10,15.8c-10.1,7.1-21.9-.3-29.6-7.4s-9-9.2-11.1-15.3-.6-13.7,1.9-20.2c4.5-11.6,12.6-20.5,20.4-29.9,7.6-9.1,13.7-18.9,17.2-30.3s4.1-16.2,10.7-22.6c3.7-3.6-2-9.3-5.7-5.7-6.3,6.1-9.2,13.3-11.4,21.5-3.1,11.4-8.1,21.2-15.6,30.3-13.7,16.8-34.6,39.4-23.8,62.8,8.3,18,35.8,38.2,54,21.3,8.6-8,9.1-24.5,24-23.7s20.5,14.5,25.3,24.8c4.7,10.1,9.7,20.6,20.9,24.6,9,3.2,19.2.9,26.4-5.2,9.5-8.1,11.3-19.5,5.8-30.5-2.5-5.1-5.9-9.8-9.8-13.9s-9.5-7.5-12.5-12.6,1.8-11.5,8.5-11.6,11.6.3,17.2-2.8c10.3-5.8,15.7-17.9,18.3-28.9,1.5-6.6,2.3-13.3,2.9-20.1s1.4-13.5.3-20.1c-2-12.3-11.1-17.4-22.6-19.3s-21.3-3.6-31.8-6.2-11-2.6-16.7-2.8c-11.3-.4-23,.4-34.2,1.8s-18.2,3.8-25.3,10.3,1.9,9.1,5.7,5.7Z"/>
    <path class="st0" d="M905.7,217.9c10-6.5,14.8,14.6,4.4,18.7s-8.4-15.1-3.6-19.3-1.8-9-5.7-5.7c-6,5.3-7.8,16.7-5.9,24.2s13,11.5,20.5,7,10.7-16.1,7.2-24.5c-3.5-8.3-13.2-12.5-21-7.4s-.3,9.7,4,6.9Z"/>
  </g>
  <path class="st0" d="M654,255.7c11.9-14.2,29.1-19,46.5-22.9s19.1-1.6,28.2,1.2,16.3,5.2,16.6,11.3c.2,5.8-5.5,10.3-10.1,12.7-9.2,4.7-20.1,5.2-28.7,11.4s-12.5,17.6-2.9,22.9,11.7-1.2,16.5-2.2c6.9-1.4,13.9-1.6,20.9-.9s6.1.4,7.7,3.3,1,5.2.3,7.4c-1.9,6-7.9,8.6-13.3,10.4-5.4,1.8-10.6,3.6-15,7.3s-7.6,8.3-10,13.2-3.3,8.8.6,12.3,8.3,2.3,11.9-.5,8.8-7.7,14.9-9.7,11.4-2.2,16.8-.5c5.2,1.7,9.6,5.8,9.4,11.7s-6.2,12.1-12.5,14.7c-12,4.9-23.8,9-35.2,15.3-11.3,6.2-23.2,13.4-36.6,11.7s-27.6-6.9-37-15.4c-5.8-5.3-9.9-12.5-11.8-20.1-3.2-13.3,2.8-26.7,6.1-39.4,2.4-9.3,4.6-18.7,6.7-28.1,2.1-9.6,3.7-19.3,10-27.1s-2.4-9.7-5.7-5.7c-6.4,8-9,16.7-11.1,26.6s-3.9,17.6-6.1,26.4-7.7,23.2-8.7,35.1,2.7,22.6,9.4,31.6c6.3,8.4,15.2,13.8,24.9,17.7s26.2,8.7,39.7,4.9,24.7-12.1,37.2-17.8c11.8-5.4,28.2-7.5,35.5-19.3,6-9.7,3.5-22-6.4-27.9-9.8-5.9-22.8-4.4-32.6.5s-4.7,2.7-6.9,4.4-2.3,2.4-3.6,3.1c-2.2,1.4-2.4,2.1-1.9-.5s3.7-6.4,5.5-8.4c2.8-3.1,6.1-5.3,10-6.7,10.4-3.9,22.2-7.4,24.2-20.2s0-9.8-3.1-13.4-11-4.8-16.8-5.1-13,.2-19.3,1.5-9.4,3.7-11.2,1.4,4.2-7.9,6.1-9.1c9.7-5.8,21.8-5.8,31-12.8,4.9-3.7,8.7-9,9.2-15.2s-3.9-11.6-10-15c-11.5-6.5-25-9.3-38.1-7.7s-14.8,3.2-22,5.2c-13.6,3.7-25.6,10-34.7,21s2.4,9.6,5.7,5.7Z"/>
</svg>