<?xml version="1.0" encoding="UTF-8"?>
<svg id="Layer_1" xmlns="http://www.w3.org/2000/svg" version="1.1" viewBox="0 0 324.8 199.4">
  <!-- Generator: Adobe Illustrator 30.5.1, SVG Export Plug-In . SVG Version: 2.1.4 Build 3)  -->
  <defs>
    <style>
      .st0 {
        fill: #e85fd0;
      }
    </style>
  </defs>
  <path class="st0" d="M0,17.8l11.2,153.2c.4,5.1,8.4,5.1,8,0-3.7-51.1-7.5-102.1-11.2-153.2C7.6,12.7-.4,12.7,0,17.8H0Z"/>
  <path class="st0" d="M15.2,175c72.7,1.7,145.4-1.6,217.6-10.1,18.8-2.2,37.5-4.8,56.1-7.6,5.1-.8,2.9-8.5-2.1-7.7-69.8,10.8-140.3,16.7-210.9,17.8-20.3.3-40.5.2-60.8-.3-5.1-.1-5.1,7.9,0,8h0Z"/>
  <path class="st0" d="M291.7,152.3c-7-44.3-14.1-88.6-21.1-133-.8-5.1-8.5-2.9-7.7,2.1,7,44.3,14.1,88.6,21.1,133,.8,5.1,8.5,2.9,7.7-2.1h0Z"/>
  <path class="st0" d="M267.8,16.6C234.1,7.8,199.4,2.4,164.6.7s-35-1.1-52.4.2-33.1,5.1-49.4,9.7c-9.3,2.6-18.5,4.6-28.2,4.9-10.2.3-20.4-.7-30.6-1.7s-5.1,7.5,0,8c16.8,1.7,33.6,3,50.3-.7s32.4-9.5,49.5-11.4c34.2-3.8,69.7-1.7,103.7,3,19.6,2.7,39.1,6.6,58.3,11.6s7.1-6.4,2.1-7.7h0Z"/>
  <path class="st0" d="M2,21.3c47.9,31.5,95.9,63,143.8,94.5,4.3,2.8,8.3-4.1,4-6.9C101.9,77.4,54,45.9,6,14.4c-4.3-2.8-8.3,4.1-4,6.9h0Z"/>
  <path class="st0" d="M149.8,115.8c39.7-30.6,79.3-61.3,119-91.9s0-10.1-4-6.9c-39.7,30.6-79.3,61.3-119,91.9s0,10.1,4,6.9h0Z"/>
  <path class="st0" d="M156.5,60.8c-7.1-5-17.5-3.2-22.8,3.6-5.9,7.6-3.9,19.2,4.4,24.2s17.7,2.5,22.2-5.2,3.2-16.6-2.9-22-9.5,2.3-5.7,5.7c6.9,6,1,19.7-8.5,15.2s-6.5-8.9-3.1-13.1,8.6-4.1,12.4-1.4,8.2-3.9,4-6.9Z"/>
  <path class="st0" d="M264.8,23.9c16,8,30,19,41.5,32.7,3.3,3.9,9-1.7,5.7-5.7-11.9-14.1-26.6-25.7-43.1-33.9s-8.6,4.6-4,6.9h0Z"/>
  <path class="st0" d="M285.9,156.8c9.9,7.1,20.8,12.5,32.4,16,4.9,1.5,7-6.2,2.1-7.7-11-3.3-21.2-8.5-30.5-15.2-4.2-3-8.2,3.9-4,6.9h0Z"/>
  <path class="st0" d="M305.2,54.8c10.3,37.2,13.8,75.8,10.1,114.2s7.5,5.1,8,0c3.7-39.1.1-78.6-10.4-116.4-1.4-5-9.1-2.8-7.7,2.1h0Z"/>
  <path class="st0" d="M11.8,173c9.8,13.7,24.1,23,40.7,26.1s7.2-6.8,2.1-7.7c-14.4-2.8-27.3-10.4-35.9-22.4-3-4.1-9.9-.2-6.9,4h0Z"/>
  <path class="st0" d="M53.5,199.3c39.4.8,78.7-3.6,118-5.9,29.1-1.7,57.9-4.3,86.7-8.7,20.9-3.2,41.6-7.2,62.2-11.8,5-1.1,2.9-8.8-2.1-7.7-32.7,7.3-65.8,13.1-99.1,16.6-31.8,3.3-63.9,4.4-95.8,6.8s-46.6,3.3-69.9,2.8c-5.2-.1-5.1,7.9,0,8h0Z"/>
</svg>