<?xml version="1.0" encoding="UTF-8"?>
<svg id="Layer_1" xmlns="http://www.w3.org/2000/svg" version="1.1" viewBox="0 0 684.7 536.2">
  <!-- Generator: Adobe Illustrator 30.5.1, SVG Export Plug-In . SVG Version: 2.1.4 Build 3)  -->
  <defs>
    <style>
      .st0 {
        fill: #ff4f5e;
      }
    </style>
  </defs>
  <path class="st0" d="M217,521.5c-24.7-4.3-49-12.5-71.6-23.3-42.2-20.1-79.5-50.6-103.8-90.8C14.2,362.2,3.2,306.2,11.2,253.9c4.4-29,14.4-57.3,27.4-83.5,14.4-29.1,32.5-57.6,54.4-81.6,22.5-24.6,51.9-40.4,82.9-51.8,31.5-11.6,64.6-18.3,97.9-22.2,33.5-3.9,67.3-5.3,100.9-5.5,34.6-.3,69.5,1.3,103.1,10.4,57.2,15.5,104.4,54.4,139,101.6,18,24.6,33.7,51.6,44.7,80,12.8,32.8,16.9,66.7,12,101.5-8.9,63.6-34.9,128.5-88.5,166.9-20.7,14.8-44,25.4-67.6,34.7-30.4,12-62.5,19.3-95.1,21.8-12.2.9-24.4,1.2-36.6.9s-5.8,8.8,0,9c59.7,1.6,117.6-12.8,171.1-39.2,26.8-13.2,51.1-31.2,70.2-54.3,20.9-25.3,34.5-55.6,43.8-86.9,10.1-34,17-70.4,12.6-105.9-4.1-33.6-17.6-65.3-34.1-94.6-28.9-51.4-69.9-98.3-122.6-125.9C464.9-3.1,393-1.7,325.3,1.7c-67.8,3.3-139.2,13.2-198.5,48.4s-50.8,42.8-69.6,70.8c-18.6,27.7-34.2,57.6-44.5,89.3-16.2,49.7-17,103.2-.9,153.1s52.5,96.4,98.9,126c28.8,18.3,61.2,31.6,94.5,39s6.3,1.3,9.4,1.9c5.7,1,8.1-7.7,2.4-8.7h0Z"/>
  <path class="st0" d="M220.3,525.9c2.9-61.8,5.8-123.7,8.7-185.5.3-5.8-8.7-5.8-9,0-2.9,61.8-5.8,123.7-8.7,185.5-.3,5.8,8.7,5.8,9,0h0Z"/>
  <path class="st0" d="M223.3,336c-14,2.9-28.7,1.6-41.9-4l2.1,5.1c2-9-2-16.6-2.9-25.4s1.8-19.5,3.1-28.7,0-4.7,1.6-5.6,1.9,0,2.4,0c2.4-.1,4.9-.4,7.3-.6,8.3-.9,16.6-1.9,24.8-3s5.7-9.7,0-9c-9,1.1-18,2.3-27,3.2-5.8.6-13-.3-16.2,5.7-2.2,4.1-2,9.9-2.7,14.4s-1.6,10.5-2.2,15.8-.2,9.9,1,14.8,3.3,10.6,2,16.1.2,4.3,2.1,5.1c15.5,6.6,32.3,8.4,48.8,5,5.7-1.2,3.3-9.9-2.4-8.7h0Z"/>
  <path class="st0" d="M224.3,269.2c5.4-41.1,24.3-82.5,57.3-108.6s23.7-14.7,37.4-17.9,28.7-4.8,43-6.7c15.3-2.1,30.6-4.1,45.9-6s22.5-3.5,33.2-.6c15.7,4.3,14.4,20.3,15.3,33.7,1.2,17.7,2.5,35.3,3.7,53l5.7-4.3c-22.6-4.4-47-6.2-62.4,14.2s-16.8,35.1-15.5,53.7,9.4,5.8,9,0c-1.2-16.2,3.2-32.5,12-46.1,12.5-19.2,34.6-17,54.4-13.2s5.9-1.2,5.7-4.3c-1.2-16.7-2.3-33.4-3.5-50.1-.9-12.8.5-29.4-9.9-38.8s-20.1-8.6-30.7-8.1c-15.2.7-30.5,3.6-45.6,5.6s-32.4,4.2-48.5,6.7c-15.3,2.4-29.9,6.2-43.3,14.2-20.7,12.4-37.6,32.3-49.4,53.1s-19.6,45.9-22.9,70.5,8.3,5.7,9,0h0Z"/>
  <path class="st0" d="M392.4,284.1c14.7-.7,29.3-1.4,44-2.3,7.6-.5,15.3-.7,22.8-1.8s2.2-.6,2.6-.5c-.8-.8-.9-.3-.3,1.4,0,.9.1,1.8.1,2.7,0,2.1,0,4.2,0,6.3-.3,8.2-1.9,16.4-4.1,24.3-4.6,16.3-12.1,31.6-19.7,46.7l3.9-2.2h-55.3c-5.8,0-5.8,9,0,9h55.3c1.5,0,3.2-.8,3.9-2.2,8.3-16.6,16.6-33.5,21.3-51.5,2.4-9,3.8-18.3,3.8-27.6s.2-15.5-8.1-15.8-4.4.7-7.4.9c-4.6.4-9.3.7-14,1-16.2,1-32.5,1.8-48.7,2.6s-5.8,9.3,0,9h0Z"/>
  <path class="st0" d="M381.9,363.2c-1.5,56.1-1.8,112.2-.8,168.3s9.1,5.8,9,0c-1-56.1-.7-112.2.8-168.3.2-5.8-8.8-5.8-9,0h0Z"/>
</svg>