<?xml version="1.0" encoding="UTF-8"?>
<svg id="Layer_1" xmlns="http://www.w3.org/2000/svg" version="1.1" viewBox="0 0 527.2 455.8">
  <!-- Generator: Adobe Illustrator 30.5.1, SVG Export Plug-In . SVG Version: 2.1.4 Build 3)  -->
  <defs>
    <style>
      .st0 {
        fill: #8f7bff;
      }
    </style>
  </defs>
  <path class="st0" d="M152.2,380.4c-31.8-2.7-58.2-32-71.8-58.7-15.6-30.8-14.9-65-10.8-98.4s6.4-36.7,14.8-53.3c7.8-15.3,19-28.8,32.1-39.9,23.3-19.7,52.5-33.1,82.2-39.6,51.9-11.3,106.9-2.3,157,13.7,31.9,10.2,57.7,30.9,73.5,60.6s16.3,43.6,18.7,66.8c1.4,13.3,2.5,26.6,1.3,39.9s-7.9,36.8-18,52.5c-14.2,22.2-38.2,42.3-63.4,50.6s-15.3,3.6-23.3,2.9-11.1-1.2-14.8-4.5-.1-8.7.6-12.8c2.4-12.4,2.3-26.2-2.2-38.1-2.8-7.4-9.1-14.1-3-21.6s13-7.2,20.7-8.6c12.6-2.2,21.8-12,26.1-23.6s2.5-25.9-3.7-37.2-6.5-9.4-11.1-12.8-9.9-4.5-10.1-9.3,3.7-8.5,6-11.9c3.8-5.6,6.9-11.7,8.3-18.4s2.4-14.4-4.1-17.6-14.1,1-19.7,3.5-11.5,5.7-16.8,9.4-5.3,4.2-8.7,4.7c-9.2,1.4-17.4-9.2-24.3-13.7-11.4-7.4-25.2-10.5-38.7-9.5s-28.3,7-39.5,16.1-7.8,8-11.6,12.2-6.4,1.1-9.5-2.1c-9.5-9.7-23.5-17.6-37.6-15.7-4.6.6-9.3,3-10.2,7.9s2.2,8.8,3.8,12.8c7.1,16.9-.5,33-7.6,48.4s-4.8,9.1-6.2,14-1.3,14,1.4,20.5c6.7,15.9,22.6,23.5,37.4,30.3,7.2,3.3,16.7,7.6,18,16.5s-9.9,11.2-17,7c-7.2-4.3-13.1-9.8-21.2-12.5s-15.8-2.6-23.6-1-3.8,4.7-1.8,6.7c7,6.8,14.8,12.2,22.1,18.5s9,15.7,17.8,18.1,5,.5,7.5.1,3.2-1,4.5.4c2.4,2.7,1.4,8.9.6,12-3,11.8-13,15.1-24.1,14.3s-5.1,7.6,0,8c11.6.8,23.4-2.4,29.2-13.4,4-7.6,6.5-21.4-1.2-27.7-5.1-4.2-10.7.8-15.8-2s-2.7-2.8-3.8-4.5c-1.6-2.6-3.4-5.1-5.5-7.4s-6.2-5.6-9.6-8.1c-5.7-4.2-10.9-9-16-13.9l-1.8,6.7c9.4-2,19.1-.4,27.2,4.7s13.4,10.8,22.2,11.8c16.3,1.9,23.1-15.9,14.5-28.2s-12.4-10.4-19.7-13.7-17.2-7.7-24.1-14.1-11.7-14.9-10.3-24,3.6-9.7,5.7-14.3c7.1-15.2,15-31.5,11-48.7s-1.9-6.1-3.2-9.1-2.9-4.6-2.6-6.4c.7-4.3,12.4-1.3,14.9-.5,8,2.3,13.9,6.7,19.6,12.5s7.3,6.7,12.6,6.2,8.4-5.4,11.8-9.3,7.6-7.6,12.1-10.6c13.6-9,30.1-12.9,46.3-9.5s13.7,4.5,19.7,8.7,8.4,6.9,12.9,9.9c7.5,4.8,16.2,4.9,23.6-.2s8.6-6.1,13.4-8.6,8.6-4.2,13.1-5.5,3.8-1.4,4.9-.6.4,6.3.1,7.6c-1.3,6.9-4.6,12.8-8.5,18.5s-5.9,8.3-6.2,13.4,2.1,9.3,6.1,12.2,10.9,6.8,14.8,12.7c6.5,10.2,8.7,23.5,3.7,34.8-3,6.7-8.1,12.7-15.1,15.3-6.6,2.5-13.6,2-20.2,5.1s-12.2,8.9-13.8,16,3.5,13.9,6.1,20.9c4.1,11.2,4.1,24.3,1.3,35.8s-3.8,11.5,1,16.8,9.5,6.1,14.9,7c7.8,1.4,15.7,1.4,23.5,0,14-2.7,26.9-9.8,38.5-17.8s19.9-15.3,28.1-24.9c22.9-27,31.9-61.1,29.4-96-1.6-22.5-4.8-45.2-12.8-66.4-11.4-30.2-32.1-57-60.9-72.3s-50.4-18.2-76.1-23.4c-27.1-5.5-55-7.8-82.5-5.3-63.7,5.8-132.4,40.6-154.6,104.4-5.9,17-8.4,34.9-10,52.8-1.4,15.7-2.1,31.5,0,47.2,4.7,35.3,23.6,68.4,52.5,89.6,11.6,8.5,24.9,14.6,39.3,15.9s5.1-7.6,0-8Z"/>
  <path class="st0" d="M269.9,0c-48.3-1-96.2,5.1-139.7,27.6-51.8,26.8-90.8,72.9-111.6,127.1C5.9,187.9-.8,224.7,0,260.2c1.3,53.8,23.3,108.4,63.5,144.9,19.6,17.8,42.8,30.6,67.7,39.4,20.3,7.1,41.2,10.1,62.7,10.9,31.5,1.1,63.2-.2,94.7-1.4,30-1.1,59.2-5,88.6-10.9,27.7-5.6,54.6-13.4,77.9-29.9,17.5-12.4,32.7-27.9,44.7-45.7,18.6-27.7,28-60.2,27.4-93.5-.6-31.3-7.5-62.9-14.1-93.4-6.7-31.1-16.7-61.5-34.9-87.8-16.5-23.7-38.3-43.4-63.3-57.8C376.4,12.7,332.1,3,288.2.7c-6.1-.3-12.2-.5-18.3-.6s-5.1,7.9,0,8c36,.7,71.8,5.1,105.8,17.3,53.9,19.5,97.4,59.2,117.5,113.5s15.6,58.8,20.9,88.6c5.6,31.8,8.2,64-1.5,95.3-14.9,47.7-53.8,87.7-101.3,103.4-13.1,4.3-26.6,7.2-40,9.8s-29.6,5.7-44.6,7.3c-30.7,3.3-61.8,3.4-92.6,4-24.1.5-48.7,1-72.6-3.2-19.6-3.5-39-10.5-56.5-19.9-47.6-25.3-80-71.5-91.8-123.8-8.6-38-5.6-77.8,4.1-115.1,12.7-48.9,39.4-93.6,78.7-125.7C138.4,24.9,191.8,9.3,246.2,8c7.9-.2,15.8,0,23.7,0s5.1-7.9,0-8Z"/>
</svg>