<?xml version="1.0" encoding="UTF-8"?>
<svg id="Layer_1" xmlns="http://www.w3.org/2000/svg" version="1.1" viewBox="0 0 544.9 444.6">
  <!-- Generator: Adobe Illustrator 30.5.1, SVG Export Plug-In . SVG Version: 2.1.4 Build 3)  -->
  <defs>
    <style>
      .st0 {
        fill: #4fd1ff;
      }
    </style>
  </defs>
  <path class="st0" d="M95.9,21.1c26.2-11.3,54.9-10.7,82.9-10.9,22-.2,44-.8,66-1.2,60.5-1.1,121.1-2.2,181.5.9,12.5.6,24.8,1.7,36.6,6.3s27.5,17.7,35.1,32.5c9.8,19,15.4,40.4,20.4,61.1,13.5,56.6,19.9,115.9,17.8,174.1-1,27.7-3.9,56.3-13.6,82.5-9.3,25-28.1,49.2-53.7,58.9-26.4,10-56.2,10.8-84,11.1-31.4.4-62.7-1.4-94-1.7-54.7-.5-109.7,3.3-164.1-3.8-13.9-1.8-27.6-4.8-41-9.1-16.9-5.4-35-12.9-48-25.3-12.1-11.5-12.8-27.2-15.1-42.7s-3.1-18.9-4.8-28.3c-3.8-21.6-7.1-43.3-8.5-65.3-2.2-33.1-1-66.1,1.1-99.2s2.9-53.4,16-77,32-41.8,54.4-55.2,9.9-5.6,15.1-7.8.6-9-4-6.9C51.2,32,15.4,70,7.1,114.4c-2.7,14.5-3.6,29.4-4.6,44.1S.2,196.8,0,216c-.3,27.6,1.3,55,5.2,82.3,2.8,20.1,7,40,10,60,2.4,16,4,31.5,16.3,43.4s30.4,20.4,47,26.2c28.2,9.9,57.8,13,87.5,14.4,30.1,1.5,60.3,1.1,90.4.7,27.6-.4,55,.2,82.6.9,32.3.8,65,1.6,97.1-2.8,13.1-1.8,26.2-4.4,38.5-9.6s22.5-13.4,31.5-22.9c20.6-21.7,29.5-51.1,34-80.1,9.1-59.2,4.2-121.1-5.7-179.9-4.4-26.2-10-52.3-18.6-77.5s-20.6-49.4-46.3-60.9c-11.8-5.3-24.4-7.4-37.2-8.1s-29.9-1.4-44.9-1.7c-32.6-.7-65.3-.6-97.9-.2-28,.3-56,.9-84,1.5-24.3.5-48.9-.3-73.1,2s-27.5,4.8-40.6,10.4-.6,8.9,4,6.9Z"/>
  <path class="st0" d="M120,69.7c19.4-8.8,40.7-8.3,61.6-8.5s34.1-.6,51.2-1c45.5-.9,91.5-2.2,136.9,1.1,9.9.7,19.6,3,28,8.4s16,15.9,20.4,26.4c6.4,15.4,10.4,31.8,13.8,48.1,9.2,43.4,13.6,88.5,11.9,132.8-.8,21.3-3,43.1-10.1,63.3-6.7,19-20.4,38-39.8,45.6s-42.9,8.2-64.2,8.4c-22.6.1-45.2-1.2-67.8-1.3-41.4-.2-83.6,3.1-124.7-3.7s-21.4-4.7-31.6-8.8-27.8-12.4-34-24.9-4.4-20-5.9-29.7-2.4-14.7-3.6-22.1c-6.9-42.3-7.3-84.3-4.6-127s2.3-40,11.7-58,23.1-32.3,39.8-42.8,7.3-4.3,11.2-6.1.6-9.1-4-6.9c-30.9,14.4-56.8,44.6-63,78.3-1.9,10.6-2.7,21.4-3.4,32.2s-1.8,30.1-2,45.2c-.3,21.6.6,43.1,3.3,64.5s4.9,31.1,7.3,46.7,1.8,23,8.1,32.6,20.2,18.4,32.1,23.6c21.4,9.4,44.1,12.8,67.3,14.2s46.3,1.3,69.4.9c20.6-.3,41.2,0,61.9.6,24.5.7,49.2,1.4,73.5-2,10.2-1.4,20.3-3.6,29.7-7.8s16.7-10.6,23.2-18c15.5-17.4,22.1-40.3,25.4-62.9,6.6-45.2,3.3-92.1-3.4-137.1-3.1-20.4-7-40.8-12.9-60.6-5.4-18.1-12.1-37.1-28-48.7s-40.5-11.9-61.3-12.5-50.6-.7-75.9-.4-43.6.7-65.4,1.2-36.8-.3-54.9,1.6c-10.9,1.1-21.1,3.8-31,8.3s-.6,9,4,6.9Z"/>
  <path class="st0" d="M373.3,91c-5.9-9.5-18.5-14.7-27.5-5.9-7,6.9-9.8,17.4-5.7,26.5s15.9,12.7,25.1,7.8,13.3-18.2,8.1-28.4c-2.4-4.6-9.3-.5-6.9,4s1.6,13.6-4.6,17.1-12.4,1.7-14.8-4.7c-1.7-4.5-.8-9.3,1.8-13.4s4.6-5.9,8.3-5.7,7.3,3.5,9.3,6.6,9.7.3,6.9-4Z"/>
  <g>
    <path class="st0" d="M167.2,189.1c16.8-17.2,41.8-23.3,65.2-20.3s60.7,29,67.1,61.9-2.2,32.8-15.8,43.7-13.9,9.8-21,14.4c-6.9,4.5-14.1,8.8-21.8,11.9-25.7,10.3-59,5.6-77.9-15.8-23.3-26.4-19.1-70.9,4.2-95.8s-2.1-9.4-5.7-5.7c-23.5,25-29.3,66-12.2,96,15.5,27.3,49.6,38.9,79.5,33.2,18.6-3.6,34.5-14.4,49.8-24.8,15.1-10.3,27.2-21.7,29.4-40.8,2.2-19.1-5.9-38.6-17.3-53.6-11.1-14.6-26.6-25-44.3-29.9-29.2-8-63.3-2.1-85,19.9s2,9.3,5.7,5.7Z"/>
    <path class="st0" d="M184.5,205c10.4-11.3,26-15.8,41.1-13.5,21.4,3.2,38.1,21.1,41.5,42.3,1.7,11-1.5,20.9-9.9,28.1-8.1,7-17.8,14.1-27.8,18.2-16.3,6.7-37.4,2.6-48.3-11.9s-11-46.6,3.4-63.2-2.3-9.6-5.7-5.7c-15.2,17.6-19,44.5-9,65.6,9.2,19.4,31.3,29.2,52,25.6,12.8-2.2,23.4-9.9,33.6-17.3,10-7.3,18-15.3,19.7-28.2,3.3-25.3-15.2-51.5-38.9-59.2s-43-1.9-57.4,13.5c-3.5,3.8,2.1,9.4,5.7,5.7Z"/>
  </g>
</svg>