<?xml version="1.0" encoding="UTF-8"?>
<svg id="Layer_1" xmlns="http://www.w3.org/2000/svg" version="1.1" viewBox="0 0 477.9 352">
  <!-- Generator: Adobe Illustrator 30.5.1, SVG Export Plug-In . SVG Version: 2.1.4 Build 3)  -->
  <defs>
    <style>
      .st0 {
        fill: #231f20;
      }
    </style>
  </defs>
  <path class="st0" d="M86.6,18.8c46.1-5.8,92.4-8,138.8-7.3,34.5.5,69.1,2,103.5-1.7s33.6-2.3,50.4-1.1,28.6,3.6,42.7,7.3,27.7,5.5,35,16.3,9.4,26.1,11,38.8,2,27.3,1.7,41c-.6,29.2-2.9,58.3-4.6,87.4-.8,14.3-1.4,28.6-2.6,42.9-1.2,14-3.9,27.7-10.9,40-13.5,23.6-37,33.8-61.6,42.5-26.2,9.2-53.1,18.7-81.1,19-14.5.2-28.5-2.9-42.7-5.6s-27.1-4.3-40.8-4.9c-29.2-1.3-58.5.4-87.7,1.2-14.6.4-29.2,1-43.8,1-12.1,0-24.9-.8-35.4-7.4-10.2-6.4-16.2-17.6-21.7-27.9-6.5-12.3-13.1-24.8-17.6-38.1-8.7-26-7.1-54.7-8.5-81.8-1.1-21.9-3.7-43.9-2.7-65.9.9-18.9.5-39.6,6.6-57.7,5.8-17.3,21.4-27.2,38.3-31.9s22.4-4.6,33.7-6.1,5.1-8.7,0-8c-21.6,2.8-45.4,5.4-62.9,19.6S5,57,2.9,73.9C-.5,100.7-.7,127.3,1.1,154.1c1.5,22.1,2.2,44.1,3.3,66.2s2.3,29.8,7.1,44,10.5,25,16.8,37c5.7,11,11.7,22.5,21.5,30.4s21.9,10.8,34.2,11.6c13.9.9,27.9-.1,41.8-.5s31.7-.8,47.5-1.2c30.4-.8,60.7-1.5,90.7,4.4,14.5,2.8,29,6,43.9,5.9,13.9,0,27.8-2.4,41.3-5.8,14.5-3.7,28.7-8.6,42.8-13.6,12.2-4.3,24.5-8.6,35.7-15.2,22.7-13.4,37.2-36,41.2-61.9s2.6-29.4,3.4-44.1c.9-15.9,1.8-31.8,2.7-47.7,1.7-29.5,4.4-59.4,1.2-89-1.4-13.1-3.4-26.7-8.5-38.8s-13.7-18.6-26-22.5C414.5,4.6,386.6-.2,357.8,0c-15.6.1-30.9,2.3-46.4,3.3s-35.7,1.1-53.6.8c-43.1-.7-85.9-1.3-128.9,2.2-14.2,1.2-28.3,2.7-42.4,4.5s-5.1,8.6,0,8Z"/>
  <path class="st0" d="M125.7,87.3c-10.6-5.5-22.9-4.6-33,1.4s-20,25.3-14.2,40.7,21.3,26.7,37.7,25.1,23.9-14.6,25.5-28.8-3.1-30.4-16-38.4-8.4,4.2-4,6.9c15.5,9.6,18.2,42,.2,50.6-12.3,5.9-27.6-2.8-33.8-13.7s-4.5-26.6,6.8-34.4,18-7.1,26.7-2.5,8.6-4.5,4-6.9Z"/>
  <path class="st0" d="M91.9,188.7c9.1-11.9,29.1-18.5,42.4-9.7s10.6,21.3,10.6,32.6,0,30,0,44.9.7,57.8-28.7,50.8c-21.1-5-25.8-25.8-28.3-44.2s-3-28.3-2.8-42.6,0-22.4,6.6-31.7-3.9-8.2-6.9-4c-6.5,9.1-7.3,20.1-7.6,30.9-.5,15.5.5,30.6,2.5,45.9s2.7,21.7,7.4,31.5,14.6,18.5,25.6,21.7c11.9,3.4,24.4-.3,31.8-10.4s8.3-24.2,8.4-36.5c.1-18,0-36.1,0-54.1,0-13-.1-28.3-10.2-38-16.7-16.1-45.1-7.2-57.7,9.2s3.8,8.1,6.9,4Z"/>
  <path class="st0" d="M187,188.4c0-5.9.5-12,2.6-17.6,3.6-9.4,14-11,23.1-12,16.7-1.7,28.8,15.1,36.2,27.9s9.5.4,6.9-4c-5.9-10.2-13.4-19.8-23.2-26.5s-14.2-6.1-22.6-5-21.9,3.9-26.9,14.5-4.1,15.1-4.2,22.8,8,5.2,8,0h0Z"/>
  <path class="st0" d="M255.2,187.5c12-14.1,29.8-25.2,48.8-25.3s33.5,12.8,41.2,29.6c8.6,18.8,10.9,40.7,13.2,61s1.5,10.9,1.2,16.3-3.4,10.3-7.8,13.9c-7.6,6.2-18.3,13.2-28.1,14.6-4.4.6-9.3,0-13-2.5s-5.8-9-5.9-14.5c-.1-11.6,0-22.9-1.8-34.5s-3.9-19.4-11.5-25.6-14.5-6.4-21.1-2.8-8.4,14.4-8.6,22.8-.6,23.3-3.8,34.5c-5.3,18.3-22.3,36.9-43,29.8-20.5-7-28-29.9-30.6-49.2s-1.8-44.5,2.5-66.3c1-5-6.7-7.2-7.7-2.1-4.2,21.6-5.7,43.7-3.1,65.7s6.9,37.6,21.3,50.5,38,14.4,53.6-.6c17.2-16.6,18.5-41.5,18.9-64s-.4-11.6,4.6-14.1,10.2,0,13.4,3.4c8.2,8.8,8.4,25.3,8.9,36.6s-2.4,23.7,4.7,32.7c5.9,7.5,16.2,9.5,25.1,7.8,10.6-2.1,21.2-9,29.6-15.6,9-7.1,12.1-16,11.1-27.3-1.9-22.7-4.4-47-12.7-68.4s-22.6-37.1-45.1-39.5c-22.8-2.4-45.6,10.4-60,27.4-3.3,3.9,2.3,9.6,5.7,5.7h0Z"/>
</svg>