<?xml version="1.0" encoding="UTF-8"?>
<svg id="Layer_1" xmlns="http://www.w3.org/2000/svg" version="1.1" viewBox="0 0 398.1 390.2">
  <!-- Generator: Adobe Illustrator 30.5.1, SVG Export Plug-In . SVG Version: 2.1.4 Build 3)  -->
  <defs>
    <style>
      .st0 {
        fill: #8aff6b;
      }
    </style>
  </defs>
  <path class="st0" d="M63,57.2c16-10.9,36.6-21.2,55.4-10.5,12.9,7.3,20.7,21.6,25.1,35.3,4.3,13.3,7.1,29.7-3.1,41s-27.3,13.5-39.8,21.9-18.6,26.6-13.6,43.2,23.1,43.8,36.5,63.6c11.1,16.3,23,36.7,41,46.4s27.5,5.2,38.1-5,17.4-24.4,29.6-33.6,38.6-12.9,57.6-6.5c17.6,5.8,32.8,17.5,42.9,32.9s9.4,18.5,8.7,29-6.3,22-13.7,30.4c-16.8,18.8-42.7,26.8-66.6,31.6-26,5.2-53,5.8-79.2,1.6-24.9-4-50.3-11.6-71.6-25.4-20.8-13.4-35.8-32.4-49.1-52.9-21.6-33.4-47.1-68.7-51.5-109.4-4.3-38.8,6.1-82.2,31-112.8,6.4-7.9,13.8-14.9,22.2-20.6s.2-11.1-4.5-7.8C22.9,74.1,4.6,117,.7,159.1s-.3,38.7,5.3,57.1,15.7,37.3,26.2,54.5,25.4,42.9,41.4,61.5c17.3,20.2,39.1,34.7,64,43.8,50,18.4,108.8,19.4,158.7.1,22.2-8.6,42.9-23.3,51.4-46.4,7.3-19.9.6-39.4-11.9-55.4-24.6-31.5-75.7-47.9-109.7-21.3s-19.1,24.5-30.9,34.8-29.3,2.2-39.7-8.9c-8.6-9.3-15.8-19.9-22.9-30.3s-16-23.3-23.3-35.4-24.1-39.9-9.3-56.1,29.2-13.5,41.8-23.1,16.7-30.2,12.5-48c-3-12.7-8.8-25.2-17.1-35.2-13.7-16.4-34.7-21.4-54.7-14.2-8.6,3.1-16.3,7.7-23.8,12.8s-.3,11,4.5,7.8Z"/>
  <path class="st0" d="M210.6,128c10,4.6,21.1,2.1,31,6.9s14.2,9.7,18.6,16.4,4.2,9.2,5.4,14.3,2.1,5.7,5.5,6.4c7.6,1.6,14.5-7.8,17.2-13.7,6.2-14-3-25-13.5-33.6s-25.9-18.2-41.1-20.6-18.5-.5-26.4,4.2-6.9,5.5-6.2,10,5.6,7.6,9.6,9.6,9.7-5.2,4.5-7.8-2.8-1.7-4.2-2.3-1.2-.3,0-1.2c2.1-1.7,5.2-2.6,7.8-3.3,6.6-1.8,13.6-.8,20.1,1.2,11,3.3,21.3,9.7,30.1,17s16.6,14.6,10.1,25.3-1.9,2.9-3.2,4.1-2.8,1.8-2.8,2.1h-.4c.8.7,1.5,1.2,2.3,1.7,0,0-.4-1.3-.4-1.5,0-1.9-.8-4-1.3-5.8-2.3-7.4-6.7-13.8-12.1-19.2s-11.1-9.7-17.9-12.5-19-1.4-27.7-5.4-9.8,5.4-4.5,7.8Z"/>
  <path class="st0" d="M224.2,92.2c7.1,3.6,14.3,5.4,22.3,5.7s16.4,1.1,24.2,4.8c11.4,5.3,21.6,15,29.1,25.1,5.4,7.3,9.3,15.6,11.2,24.5s.9,10.6,5,13.5c10,7,22.2-10.5,25.7-17.6,5-10.2,6.2-21.3,1.2-31.6s-12.3-17.3-20-24.2c-17-15.2-37.5-29-60-34.2s-27.8-2.3-40.6,4.1-12.2,7.3-12.2,14.2,8.1,12.5,14.1,15.7,9.7-5,4.5-7.8-12.1-5.6-8.4-10,7.8-5.2,11.8-6.6c11-3.9,22.7-2.9,33.7.5,18.7,5.7,35.7,17.3,50.2,30.1,6.6,5.8,13,12.2,17.4,19.8s4.6,16.8.4,25.6-6,10.4-10.8,13.4-1.6.6-2,1c-1.1,1.2-.6-.9.1.5,0,0-.7-3.9-.9-5-2.5-13.8-8.7-26.2-18-36.7s-17.4-17.6-28.6-22.6c-7.3-3.3-14.9-4.9-22.9-5.2s-14.9-.9-22.1-4.6-9.7,5.1-4.5,7.8Z"/>
  <path class="st0" d="M253.4,41.3c8.6,4.4,17.2,6.4,26.9,6.8s20,1.6,29.4,6.2c13.7,6.7,26,18.4,34.9,30.7,6.3,8.7,10.9,18.5,13.2,29.1s.9,12.7,5.8,16,10.5.5,14.5-2.4c6.6-4.8,11.8-11.9,15.2-19.3,5.5-11.8,6.8-24.6,1-36.5s-14.7-20.7-24-28.9c-20.1-17.9-44.3-34.3-70.8-40.6-16.2-3.8-32.6-2.9-47.7,4.4s-14.7,8.5-14.8,16.6,9.6,14.4,16.4,18.1,9.7-5,4.5-7.8-14.7-6.9-11.1-12.5,9.1-6.7,13.5-8.5c13-5.1,27-4.5,40.3-.8,23.2,6.5,44.4,20.8,62.3,36.6s15.5,14.5,21,23.5,6.5,19.5,2.1,30.3-6.9,12.9-12.4,17.3-3.8,3.2-5.3,2.9c.5.1-.3-1.7-.5-2.5-1.7-8-3.2-15.7-6.5-23.3-3.3-7.7-7.8-14.8-13.1-21.3-9.5-11.6-21.3-22.6-34.9-29.1s-18.2-6.4-28.1-6.9-18.5-1.1-27.5-5.7-9.7,5.1-4.5,7.8Z"/>
</svg>