<?xml version="1.0" encoding="UTF-8"?>
<svg id="Layer_1" xmlns="http://www.w3.org/2000/svg" version="1.1" viewBox="0 0 388.1 349.4">
  <!-- Generator: Adobe Illustrator 30.5.1, SVG Export Plug-In . SVG Version: 2.1.4 Build 3)  -->
  <defs>
    <style>
      .st0 {
        fill: #ffa64f;
      }
    </style>
  </defs>
  <path class="st0" d="M12.8,19.1c92.9-2.6,185.9-5.3,278.8-7.9,26.3-.7,52.6-1.5,78.9-2.2S376.3-.2,370.5,0c-92.9,2.6-185.9,5.3-278.8,7.9-26.3.7-52.6,1.5-78.9,2.2s-5.8,9.2,0,9h0Z"/>
  <path class="st0" d="M366.2,5.7c13.6,86.5,16.4,174.6,8.6,261.8-1.9,21.4-4.5,42.7-7.7,63.9-.8,5.7,7.8,8.1,8.7,2.4,12.6-84.1,15.7-169.4,8.4-254.1s-5.3-51-9.3-76.3c-.9-5.7-9.6-3.3-8.7,2.4h0Z"/>
  <path class="st0" d="M371.5,328.1c-53.9-5.4-107.4,4.6-161,9-45.6,3.7-91.7,4.2-137.4,2.6-21.3-.8-42.7-2.1-63.9-4-5.8-.5-5.7,8.5,0,9,42.7,3.8,85.5,5.2,128.4,4.6,21.1-.3,42.2-1,63.3-2.5s53.3-5.3,80-8c30.1-3,60.5-4.7,90.7-1.7,5.8.6,5.7-8.4,0-9h0Z"/>
  <path class="st0" d="M13.7,340.2c-5.6-84.4-6.2-169.1-1.5-253.6s3.1-48,5.2-71.9-8.5-5.7-9,0C.8,98.9-1.7,183.6,1.1,268.2c.8,24,2,48,3.6,72s9.4,5.8,9,0h0Z"/>
  <path class="st0" d="M56,46.8c13.6-9,31-3.2,46-2s15.4,0,22.8-2.4,16.4-6.9,25.7-5.2,15.7,5,23.9,6,15.6-.9,22.9-4.3,14.7-8.5,22.8-10.8,16.3-2.1,24.4-1.3c19.2,2,37.7,7.8,57.1,4.6s3.3-9.6-2.4-8.7c-17.2,2.8-34.5-2.4-51.5-4.5s-17-1.4-25.4.1-15.4,5.2-22.6,9.1-15.1,7.9-23.8,6.9-16.3-4.9-24.7-6.2-16.1.7-24.2,3.7-15.7,4.5-24.4,3.9c-17.1-1.2-35.7-7.2-51.3,3.2s-.3,11,4.5,7.8h0Z"/>
  <path class="st0" d="M157.5,72.4c12.2-3.3,24.4,3.6,36.4,5s24.2-5.9,37-8c25.7-4.2,53.2,8.3,76.8-7.3,4.8-3.2.3-11-4.5-7.8-22.6,14.9-51.7,1.7-76.5,6.7-6.2,1.3-11.9,4-17.9,5.9s-12.1,2.1-18.4.8c-11.8-2.5-23.1-7.3-35.2-4s-3.2,10.2,2.4,8.7h0Z"/>
  <path class="st0" d="M65.6,132.2c9.1.6,14.4-6.5,22-10s21.9.5,31.9,2.2,21.4,2.6,32.1,2.8,18.8-1.1,26.8-6.3.3-11-4.5-7.8c-7.9,5.2-17.1,5.4-26.3,5s-22-1.4-32.7-3.8-18.1-4.2-27-1.7-7.5,3.3-10.9,5.7-6.9,5.3-11.4,5-5.8,8.6,0,9h0Z"/>
  <path class="st0" d="M126.3,147.2c19.6,5.8,41.9,16.6,61.6,5.2,4-2.3,7.3-5.6,11.3-7.7s11-1.1,16.7-.5c11.9,1.3,23.8.9,35.8.5s5.8-9.2,0-9c-11.3.4-22.6.8-33.9-.3-5.4-.5-11-2-16.5-.9s-8.1,3.3-11.7,5.9c-8.6,6.3-16.9,9.1-27.7,7.8-11.5-1.3-22.2-6.2-33.2-9.5-5.6-1.7-7.9,7-2.4,8.7h0Z"/>
  <path class="st0" d="M64.9,232.4c5.7-5.5,13.4-13,22-11.9s13.3,8.8,20,12.3c14.8,7.8,32,3.3,46.9-1.7s36.4-11.2,55.4-14.5c19.2-3.4,38.6-5.7,58-7.5s10.5,0,16,1.9,8.9,3,13.7,3.5c9.7,1.1,19.2-1,27.8-5.5s.6-10.5-4.5-7.8c-8,4.2-17.3,5.7-26.1,3.7s-8.4-2.9-12.7-4-9.3-1.3-14.1-.8c-19.5,1.9-39.1,4.2-58.5,7.5-19,3.2-37.4,8.1-55.7,14.3s-16.8,5.7-25.6,6.1-16.2-2.3-23.2-7.9c-6.7-5.3-13.6-9.8-22.5-8.4-9.2,1.5-16.7,8.1-23.2,14.3s2.2,10.4,6.4,6.4h0Z"/>
  <path class="st0" d="M250.3,247.5c11.4,10.9,27.4,12.1,42.4,11.6,17.7-.5,35.7-1.5,52.2-8.6,5.3-2.3.7-10-4.5-7.8-14.5,6.2-30.6,6.7-46.2,7.3s-27.6.6-37.6-8.9c-4.2-4-10.6,2.3-6.4,6.4h0Z"/>
  <path class="st0" d="M195.9,316.7c6.8-.4,12.7,2.5,18.9,5.1s10.4,3.9,15.9,4.9c11.1,2,22.5,1.6,33.5-1.2s20.6-7.7,29.2-14.6c2.2-1.8,4.7-4.9,7.6-5.5s6.6,2.4,9.3,3.6c5.8,2.5,12,3.5,18.3,3.3s5.8-9.2,0-9-12.7-1.4-18.8-4.6-9.9-3.3-15-.2-8.8,7.3-13.7,10.3-10.6,5.6-16.3,7.3c-10.9,3.3-22.7,3.9-33.9,1.6-11.8-2.5-22.5-10.6-34.9-9.9s-5.8,9.4,0,9h0Z"/>
  <path class="st0" d="M79.6,299.3c8,0,15.5,2.9,23.4,3.9s13.2,0,19.6-2.4c11.9-4.5,22.9-13.4,36.1-13.1s5.8-8.8,0-9c-13.2-.4-24,7-35.5,12.1s-13.2,4.4-20.4,3.3c-7.8-1.2-15.2-3.8-23.1-3.9s-5.8,8.9,0,9h0Z"/>
</svg>