<?xml version="1.0" encoding="UTF-8"?>
<svg id="Layer_1" xmlns="http://www.w3.org/2000/svg" version="1.1" viewBox="0 0 906.6 899.1">
  <!-- Generator: Adobe Illustrator 30.5.1, SVG Export Plug-In . SVG Version: 2.1.4 Build 3)  -->
  <defs>
    <style>
      .st0 {
        fill: #4fd1ff;
      }
    </style>
  </defs>
  <path class="st0" d="M101.6,363.1c-5-17.7,3.6-36.1,13.7-50.3s25.9-28.8,43-36.8c11.9-5.5,28.1-8.8,36.4,4s6.6,14.1,9.4,21.3c4,10.2,8.6,20.2,14.5,29.4,14.7,22.7,36.6,40.1,59.8,53.5s35.1,15.8,53.6,21.8c4.6,1.5,9.4,2.8,13.7,5s3,1.4,2.9,1.9-6,1-6.8,1.1c-12.5,1.1-25.1,2.1-37.7,2.8-29.7,1.7-59.5,2.3-89.3.6-22.4-1.2-43.8-5-64.6-13.4-19.1-7.7-42.1-19.9-48.7-40.9s-9.3-2.8-7.7,2.1c6.4,20.6,26,33.6,44.6,42.3s37.7,14.4,57.6,16.5c30.9,3.3,62.4,2.9,93.4,1.5,14.5-.6,29.1-1.6,43.6-2.8s13.1.2,18.1-2.7c3.8-2.2,6.9-6.3,4.6-10.8s-5.2-4.8-8.2-6.2c-5.3-2.3-10.8-4-16.3-5.8-11.6-3.7-23.3-7.2-34.4-12.4-23-10.8-45.3-26.1-61.8-45.4-8.7-10.2-15.5-21.8-20.8-34.1s-6.5-17.8-10.9-26.2c-7.8-14.8-22.5-18.8-38.1-14.4s-36.1,19-48.9,33.7-24,33.4-24.3,53.4.5,9,1.8,13.3,9.1,2.8,7.7-2.1Z"/>
  <path class="st0" d="M444.6,424.8c.8-3.3,8.8-4.5,11.4-5.1,8.2-2,16.5-3.3,24.7-5,17.1-3.4,34.1-7.3,50.9-11.8s47.8-12.8,69-25.4c19.6-11.6,34.5-28,50.9-43.5,5.7-5.4,12-10.9,19.7-13.4s21.1-1,30.3,4,21.8,18.1,30.7,28.8c5.3,6.3,10.1,13.1,14.2,20.2,5.3,9.1,11.3,21.3,8.3,32.2-2.1,7.4-8.5,10.7-14.7,14.4s-15.7,8.9-23.9,12.8c-51.9,24.8-110.6,33.3-167.7,28.1s-28.7-3.5-42.8-6.9c-4-1-7.8-2.3-11.7-3.8-14.2-5.2-29.1-10.5-41.9-18.8s-7.7-4.5-7.4-7.9c.5-5.1-7.5-5.1-8,0-1,10.2,14.6,17.1,21.8,20.6,13,6.4,26.9,12.2,40.7,16.4s21.3,4.8,31.9,6.3c56.6,8,115.7,2.6,169-18.4s34.4-15.3,50.3-25.4,14.7-19,12-31.6c-4.5-21.2-20.4-40.1-34.8-55.6-16.3-17.6-41-32.6-64.8-20.5s-14.9,10.7-21.3,17c-8.1,8.1-16,16.3-24.8,23.7-20.7,17.3-44.7,26.7-70.3,34.2s-32.7,8.9-49.2,12.6c-9.8,2.2-19.7,4.2-29.6,6s-14.7,2.5-21.6,5.2-8.1,3.9-9.1,8.3,6.5,7.1,7.7,2.1Z"/>
  <path class="st0" d="M337.4,514.6c3.8,2.2,7.4-.9,10.1-3.3,4.1-3.6,7.8-7.7,12.4-10.8s10.4-5.2,15-.6,5.4,9.5,7,14.5,1.9,8.2,5.6,9.4,5.2-1.2,6.3-3.7c2.9-6.6,2.7-15.3,3-22.4.4-10.8,0-21.6-1.3-32.3s-2.4-17.9-7.4-24.9c-12.2-16.8-28.9,9.1-34.5,18.7s-11.3,22-15.3,33.7-6.6,16.5-1.7,21.1c3.8,3.5,9.4-2.1,5.7-5.7.6.6.1,1.2.4.3s.2-2.1.3-3c.6-3.4,1.7-6.8,2.8-10.1,3-8.8,6.7-17.3,11-25.5s8.5-15.8,14.7-22.1,3.8-3.8,6.2-4.5,2.4,0,3.7,1.7c4.2,5.4,5.2,13.9,6.1,20.4,1.3,9.3,1.6,18.7,1.4,28.1s-.2,14.5-1.9,21.5-.4,2.5-.5,1.8c0,.9-.4.2-.2.4.4.4,4.7.4,4.8-.4.1-1.2-1.2-3.4-1.5-4.5-.7-2.3-1.5-4.5-2.4-6.8-4.1-10.2-12.3-19.5-24.3-15.4s-10.1,5.5-14.3,9.3-3.9,3.6-5.8,5.4-1.7,1.2-2.2,2c-1.2,1.6-1.6-.5.9,1-4.5-2.6-8.5,4.3-4,6.9Z"/>
  <path class="st0" d="M75.5,426.3c40.2,57.1,80.4,114.1,120.7,171.2,1.4,2,4.4,2.8,6.3.8,13-13.8,26.1-27.6,39.1-41.4h-5.7c31.8,36.6,72.6,65.1,118,82.2,5.1,1.9,10.2,3.4,15.4,1.2s9.4-7.8,13.2-12.2c8.2-9.4,16.3-18.9,24.6-28.3,16.5-18.6,33.7-36.7,53.3-52,5.5-4.3,11.2-8.3,17-12.1s2.8-2,4.3-2.7c3.7-1.7,5.2-1.4,8,1.2s5.5,5.6,8.3,8.4c11.5,11.6,23,23.3,34.5,34.9s4.1,1.5,5.7,0c36.9-34.8,79.6-62.8,126.1-82.8l-5.9-4.5c-24.7,67.9-53.5,134.3-86.1,198.7-9.2,18.2-18.8,36.3-28.6,54.2l6.3-.8c-30.3-33.4-41.3-78.6-51.6-121.3-.6-2.4-3.8-3.9-5.9-2.4-45.8,32.2-61.2,88.7-87.9,135.1-7.8,13.5-16.6,26.4-27.4,37.6l6.3.8c-19.2-35.2-42.1-68.4-68.1-99-13-15.2-26.8-29.8-41.4-43.6s-14-13.6-21.7-19.4-14.4-1.5-20.5,4.9c-13.3,13.9-26.1,28.4-40.3,41.4-7.2,6.6-14.7,12.8-22.8,18.2s-7.8,5-11.9,7.1-10.8,6.4-14.8,2.8-3.9-9.1-5.1-12.7c-1.8-5.4-3.5-10.9-5.2-16.3-3.4-10.9-6.7-21.9-9.8-32.9-6.1-21.4-11.6-43-16.5-64.7-11.2-49.3-19.4-99.2-24.6-149.5-.5-5.1-8.5-5.1-8,0,9.2,89.6,27.9,178.1,55.9,263.7,2.4,7.4,4.3,18.7,13.1,21.2s16.8-3.2,23.5-7.1c16.6-9.7,31-22.6,44.4-36.3s13.7-14.4,20.5-21.6,6-6.4,9.1-9.6,3.8-4.7,7.3-3.1,4.7,3.8,6.7,5.6c15.2,13.4,29.8,27.7,43.5,42.7,31.1,34,57.9,71.7,80,112.1,1.2,2.2,4.5,2.6,6.3.8,38.1-39.7,50.7-95.2,82.1-139.3,8.8-12.3,19.2-23.4,31.6-32.1l-5.9-2.4c10.6,44.2,22.4,90.3,53.7,124.8,1.7,1.9,5.1,1.4,6.3-.8,35-63.7,66.1-129.4,93.3-196.7,7.8-19.2,15.2-38.6,22.3-58.1s-3-5.7-5.9-4.5c-47.1,20.3-90.4,48.8-127.7,84h5.7c-10.3-10.5-20.7-20.9-31-31.4-4.6-4.6-9-9.9-14-14s-9.5-3.6-14.6-.8c-21.5,11.9-40.4,29.7-57.4,47.2s-32.8,37.6-49.8,55.8-4.4,4.8-7.8,4.8-6.8-1.9-9.8-3c-6.1-2.4-12.1-4.9-18-7.7-10.9-5.2-21.5-11-31.7-17.5-23.4-14.9-44.4-33.1-62.6-54-1.4-1.6-4.3-1.5-5.7,0-13,13.8-26.1,27.6-39.1,41.4l6.3.8c-40.2-57.1-80.4-114.1-120.7-171.2-2.9-4.2-9.9-.2-6.9,4h0Z"/>
  <path class="st0" d="M15.6,383.6c5.4-77.2,8.2-154.6,8.5-232l-7.5,2c27.9,45.3,55.8,90.5,83.7,135.8s6.1,2.2,7.3-1c24.1-61.5,56.9-118.7,94.4-173,16.3-23.6,33.6-47.3,54.4-67.1s16.9-15.3,27.3-19.5,8-2.6,12.1-2.3,3.2.5,4.7,1,0-.1,1.4.6c3.2,1.8,5.9,6.6,8.1,11.1,5.6,11.4,9.7,23.7,13.8,35.7,11.6,33.5,21.9,67.4,32.6,101.2s5.6,18,9.2,26.7,4.3,10.4,8.3,14.1c12,11,21.6-7.9,25.6-16.8,5.9-13.4,11-27.2,16.5-40.8,8-19.9,16.5-39.7,25.1-59.4,6.6-15.2,13.4-30.5,21.1-45.2s9.6-18.9,17.2-25.7,4.1-3,5.9-3.1,2,.5,2.7,1.1c3.3,2.7,5.3,7.2,7,11.7,6,15.9,8.4,33.4,10.8,50.1,6.2,43.4,8.9,87.3,16.7,130.4,2.6,14.6,5.4,30.8,13,43.8s10.9,12.8,19.3,10c7.2-2.4,12.4-9.1,16.6-15,7.7-10.9,13.5-23.3,18.9-35.5,22.4-50.9,38.2-105,53.5-158.4,5.6-19.6,11.1-39.3,16.4-59.1l-7.3,1c45.5,96.1,82.4,196.3,110,299,8,30,15.2,60.2,21.7,90.5s4.5,3.5,6.7,1.8c38.1-29.7,76.1-59.4,114.2-89.1l-6.7-3.9c-26.4,91.8-48.9,184.7-67.4,278.3-5.2,26.4-10.1,52.8-14.7,79.3l6.7-1.8c-30.4-27.9-60.9-55.8-91.5-83.6s-6-1.3-6.7,1.8c-14.1,68-24.8,136.8-32,205.9-1.9,18.5-3.6,37.1-5,55.7l6.8-2.8c-26.7-27.7-53.4-55.5-80.1-83.2-1.6-1.7-4-1.4-5.7,0-36.1,29.9-65.9,65.4-93,103.4-4.1,5.8-8.2,11.7-12.8,17.1s-3.1,3.7-4.9,5.2-2.5,1.5-2.8,1.7c0,0,.1,0,.1,0,0-.7-.9-2.8-1.1-4.4-1-7.6-.7-15.4-.9-23-.6-26.2-1.8-52.4-3.9-78.5-.2-2.4-2.4-4.8-5.1-3.9-29.3,10.3-57.7,23.3-84.2,39.7s-42.4,29.5-61.5,47c-10.5,9.5-20.6,20.1-32.6,27.7-6.9,4.4-16.5,8.5-23.2,1.5-7-7.4-8.4-20.5-10.7-29.9-3.8-15.8-8.4-31.3-14.8-46.3-12.6-29.3-31.6-55.5-54-78.1-1.9-1.9-4.9-1.4-6.3.8-14.4,22.9-29.2,45.6-45,67.6-12.8,17.8-26.2,35.7-42.1,50.9-5.5,5.3-21.1,21.2-29.9,13.9s-6.3-15.9-7.3-22.5c-2.1-14-3.6-28.1-5.4-42.2-4.5-35.4-9.5-70.9-12.6-106.5-.9-10.3-.7-20.5-.6-30.8.2-21.1.1-42.1-.1-63.2-.7-58.8-2.6-117.5-4.7-176.2-.1-3.2-4.5-5.7-6.8-2.8-13.9,16.8-27.9,33.5-41.8,50.3l6.8,2.8c2.9-30.4,5.5-60.9,7.6-91.3s-7.6-5.1-8,0c-2.1,30.5-4.7,60.9-7.6,91.3-.3,3.4,4.7,5.4,6.8,2.8,13.9-16.8,27.9-33.5,41.8-50.3l-6.8-2.8c2,55.2,3.8,110.5,4.6,165.8.3,22.4.5,44.8.3,67.3s-.6,23.6.4,35.4c3,36.8,8.3,73.5,12.9,110.1,1.7,13.7,3.3,27.4,5.3,41s2.3,18.9,8,25.9c8.7,10.6,22.6,4,31.5-2.6,18.6-13.7,33.1-33.1,46.8-51.4,18.9-25.2,36.1-51.6,52.8-78.3l-6.3.8c20.6,20.7,38,44.4,50.3,71,7.2,15.5,12.1,31.8,16.1,48.5s4.3,23,10.8,32.2c14.7,20.6,38.9.8,52-10.7,21.1-18.5,41.2-37.6,64.5-53.2,29.5-19.8,61.6-35.2,95.1-47l-5.1-3.9c2,25.1,3.3,50.3,3.9,75.4.2,8.6,0,17.4,1,26,.4,4,1.1,8.8,4.8,11.1,8.9,5.5,18-8.4,22.2-14,13-17.2,25-35.1,38.6-51.7s39.6-43.9,62.4-62.8h-5.7c26.7,27.7,53.4,55.5,80.1,83.2,2.6,2.7,6.6.5,6.8-2.8,5.3-68,13.9-135.7,25.8-202.8,3.4-18.9,7-37.8,10.9-56.6l-6.7,1.8c30.6,27.8,61.1,55.7,91.5,83.6,2,1.9,6.1,1.4,6.7-1.8,16.5-95.1,37-189.4,61.5-282.8,6.6-25,13.4-50,20.6-74.8,1.2-4.2-3.8-6.2-6.7-3.9-38.1,29.7-76.1,59.4-114.2,89.1l6.7,1.8c-22.9-108-55.9-213.8-98.6-315.6-10.7-25.5-22-50.8-33.8-75.8-1.5-3.2-6.5-2.2-7.3,1-17.3,64.1-35.1,128.6-58.9,190.7-6.2,16.1-12.7,32.1-21,47.2-4.6,8.3-9,16.2-16.1,22.2s0,.1-1.2.9-1.2.7-1.8,1.1c-1.3.7,0,0-.8.4s-1.1.3-1.7.5c.8-.2-2-.2-1.5,0-1.5-.3-2.4-.9-3.5-2.1-8.3-8.3-11.1-24.5-13.6-36.1-8.9-42.4-11.4-85.9-17.1-128.8-2.4-18.4-4.8-37-10-54.8-2.6-8.8-6.7-23.1-17.2-25.7s-12.4,2.9-16.5,7.4c-7.5,8.2-12.8,18.4-17.8,28.2-17.3,33.9-31.8,69.5-45.9,104.8-5.3,13.3-10.2,26.9-16.2,39.9s-3.4,7.4-5.8,10.5-1.9,2.1-2.2,2.3c-1,.7-1.4.8-1.8.8-.6,0-1.4-.2-2.1-.9-1.6-1.5-2.2-2.5-3.4-4.7-3.6-6.4-5.9-13.7-8.2-20.6-9.9-29.7-18.6-59.9-28.5-89.6-5.5-16.5-11-33.1-17.5-49.3-2.9-7.2-5.8-14.9-10.8-21.1-9.2-11.5-25.7-7.7-36.9-1.5-22.7,12.5-40.3,34.7-55.9,54.9-40.4,52.1-75.5,109.4-102.7,169.4s-10.9,24.9-15.9,37.6l7.3-1c-27.9-45.3-55.8-90.5-83.7-135.8-2.1-3.3-7.4-2-7.5,2-.3,77.4-3.1,154.8-8.5,232-.4,5.1,7.6,5.1,8,0Z"/>
  <path class="st0" d="M225.6,333.1c-33.2,14.3-50.2,52.7-38.4,86.9s9.4,2.8,7.7-2.1c-10.8-31.2,4.6-64.9,34.7-77.9s.6-8.9-4-6.9h0Z"/>
  <path class="st0" d="M245.3,360.1c4.7,22.3-4.3,45.7-23,58.9-4.2,3-.2,9.9,4,6.9,21.7-15.4,32.1-41.9,26.6-67.9s-8.8-2.9-7.7,2.1h0Z"/>
  <path class="st0" d="M488.6,406.3c-7.9,15.3-8.4,32.7-2.2,48.6,1.8,4.7,9.6,2.7,7.7-2.1-5.4-13.9-5.6-29,1.4-42.5s-4.5-8.6-6.9-4h0Z"/>
  <path class="st0" d="M536.6,397.4c6.4,21.5,1.7,45-12.8,62.2-3.3,3.9,2.3,9.6,5.7,5.7,16.4-19.4,22.2-45.5,14.9-69.9-1.5-4.9-9.2-2.8-7.7,2.1h0Z"/>
</svg>