<svg xmlns="http://www.w3.org/2000/svg" width="2412" height="2909" viewBox="0 0 2412 2909"><path fill="#6b7d8c" d="m1689 50 4 4 6 3c5.6 3.4 10.9 6.9 16 11 1.3.8 2.7 1.7 4.1 2.5 3.9 2.5 3.9 2.5 7.9 6.5 1.7 1 3.3 2 5 3 4.4 3.3 7.6 6.7 10.7 11.2 3.8 5.4 8.1 9.5 13.1 13.9 8.9 8 16.6 16 23.2 25.9 1.2 1.3 2.4 2.7 3.6 4.1 3.5 4.1 6.4 8.4 9.4 12.9 1.1 1.3 2.3 2.6 3.4 3.9 2.8 3.1 4.8 5.9 7 9.4 3.1 5.1 6.6 9.6 10.5 14.1 4.4 5.3 8.3 10.9 12.1 16.6.7 1.1 1.5 2.1 2.2 3.2 5.6 8.3 10.6 16.7 15.4 25.5q3.3 5.85 7.2 11.4c3.9 6.1 6.3 12.1 8.7 18.9 2 5.3 4.7 10.1 7.4 15 3.2 6 5.7 12.3 8.2 18.6 1.9 4.4 1.9 4.4 3.9 8.3 2.3 4.8 3.9 9.5 5.5 14.5 2.2 6.8 4.6 13.2 7.5 19.6 2 5.6 3.6 11.2 5 17 2.2 9 4.8 17.9 7.4 26.8.6 1.7 1.1 3.4 1.6 5.2.2.6.2.6 1.2 3.8 3.7 12.6 5.9 25.2 7.8 38.2.2 1.1.3 2.2.5 3.3.5 4.1.8 8.1 1 12.2 0 1.6.1 3.3.2 4.9.2 3.4.3 6.8.5 10.2 0 1.6.1 3.2.2 4.9.1 1.4.1 2.9.2 4.4.4 4 1.3 7.3 2.4 11.1.4 3.7.7 7.3 1 11 .3.7.7 1.3 1 2 .5 3.1.9 6.3 1.4 9.4.7 4.3 1.7 8.4 2.8 12.5.8 3.3 1.6 6.6 2.2 9.9 1.9 8.8 4.1 17.5 6.4 26.2 2.1 7.7 3.3 15.5 4.4 23.4.8 4.8 1.9 9.6 3.1 14.4 1.8 8.1 2.9 16.1 3.7 24.4.9 10.2 1.9 19.5 5.9 29 1.6 4.2 1.7 8.4 2.1 12.8.9 2.6 1.8 5.3 2.8 7.9 4 10.5 6.8 21.2 9.2 32.1 3.4 14.6 8.5 28.6 13.5 42.7 6.8 19.4 6.8 19.4 8.5 26.6 1 3.7 1 3.7 3 6.7l1.2 3.9c1.4 4 2.9 7.4 4.7 11.2 2.3 4.7 3.8 9.3 5 14.4 2.3 10.2 6.3 19.8 10.1 29.5 2.3 6.3 4.5 12.6 6.7 18.9 3.2 9.2 6.4 18.2 10.3 27.1 3.2 7.6 6.3 15.3 9.2 23.1 7.4 19.2 15 38.2 25.8 55.8 2.7 4.6 5 9.3 7.2 14.2 1.8 3.9 3.7 7.8 5.6 11.7 4 8.2 7.7 16.4 10.2 25.2 4.4 15.2 9.5 29.5 16.1 43.9 2.5 5.7 4.7 11.3 6.4 17.2 2.5 8.5 6.4 16 10.5 23.9 5.3 10.7 10.2 21.1 13.7 32.5 1.9 5.1 4.6 9.4 7.3 14 3.2 5.6 5.6 11.5 8 17.5.5 1.2 1 2.3 1.5 3.5 1.4 3.2 2.6 6.4 3.9 9.7 3 7.9 6.2 15.7 9.7 23.4 2 4.7 3.4 9.5 4.9 14.4.6 1.4 1.2 2.7 1.8 4.1 2.8 6.2 5 12.5 7.2 18.9 1.9 5.4 4.1 10.1 7 15 .7 2.1 1.4 4.3 2 6.4 1.5 5.2 3.5 9.8 6 14.6 1.3 3.7 2.7 7.3 4 11 .5.9.9 1.8 1.4 2.7 3 6.3 4.3 13.3 6 20 3.4 11.2 3.4 11.2 7.6 13.3 4.5.2 8.6-.2 13-1 .5 22 .5 22-2 32-1.4 5.6-2.5 11.2-3.6 16.8-.2 1.1-.5 2.1-.7 3.2-.9 4.6-1.7 9.1-2.1 13.8-.7 4.7-2.4 7.9-4.6 12.2q-1.2 4.8-2.1 9.6c-.4 1.8-.7 3.5-1 5.4q-1.95 11.1-3.3 22.5c-.7 5.3-1.4 10.5-2.6 15.8-4.9 20.5-5.2 43.2 0 63.7 2.1 8.5 2.3 16.4 2.2 25v4.3c-.1 4.6-.1 9.1-.2 13.7 0 1.5 0 3.1-.1 4.6 0 4.6-.1 9.1-.2 13.6 0 .7 0 .7-.1 4.2-.2 7.5-1 14.4-2.9 21.7-.8 3.2-1 6.2-1.3 9.5-.4 5.4-.4 5.4-2.4 9.4q-.6 5.4-.9 10.8c-.7 8.1-1.7 16-3.3 24-1.3 7.1-2.2 14.3-3.1 21.5-.7 4.7-.7 4.7-2.7 9.7-.5 2.4-1 4.9-1.4 7.3-1.7 9.7-4.1 19.1-6.7 28.6-1 4.4-1.4 8.7-1.7 13.3-.7 7.3-2.1 13.3-5 20-2.2 5.3-3.1 10.6-3.6 16.2-.7 5.4-2.6 9.6-4.6 14.6-.3 1.8-.6 3.5-.9 5.4-1.1 5.4-2.7 9.7-4.9 14.7-1.6 3.9-2.4 7.8-3.2 11.9-.5 1.2-1 2.5-1.5 3.8-1.3 3.6-1.9 6.7-2.4 10.5-.9 6.4-2.7 11.7-5.1 17.7-2 5.6-3 9-3 15 5.1 5.1 5.1 5.1 11 4 4.6-3.3 4.6-3.3 9-7 .8-.5.8-.5 5-3 1.3-.8 2.6-1.7 4-2.5 15.3-9.6 30.1-12.7 48-14.5.9-.1.9-.1 5.6-.6 26-1.8 26-1.8 36.4 7.6 1 .5 1.9.9 2.9 1.4 3.1 1.6 3.1 1.6 5.9 4 3.2 2.6 3.2 2.6 8.1 4.9 5.6 3 8.3 5.7 12.1 10.7.7.9 1.4 1.7 2.1 2.6 10 13.3 15.2 28.9 9.9 45.4-2.1 3.6-4.5 6.7-7.2 9.9-2.8 4.1-4 6.2-3.8 11.1 5 5 7.2 5.2 14.2 4.7 16.2.9 29.1 8 41.3 18.2 1.9 1.6 3.9 3.1 5.9 4.6 6.6 6.3 8.7 14.7 11.2 23.3 1.4 4.2 3.2 8 5.2 12 7.3 16.2 4.2 33-5.8 47.1-1.3 1.7-2.7 3.4-4 5.1-.4.6-.4.6-2.4 3.4-9.6 9.6-27.5 14.3-40.6 15.6-10.2 2.7-10.2 2.7-13 7 .1 6 1.7 8 6 12 1 1.5 2 3.1 3 4.6 3 4.4 3 4.4 8 7.4 1.9 4 1.9 4 3.7 8.8.6 1.5 1.2 3.1 1.7 4.7 2.7 7.6 4 14.3 4.7 22.3.8 10 .8 10 1.9 12.2.5 20.4-6.6 42.5-23 56-3.4 1.5-6.8 2.8-10.2 4-10.1 3.6-10.1 3.6-14.8 6.5-16.8 8.4-35.5 7-53.8 6.8h-8.2c-2.7 0-5.3 0-7.9-.1h-3.7c-5.3 0-10.3-.3-15.4-1.2-12-1-23.8-1.7-35.7.5-3.7.6-7.3.6-11.1.7-7.6.4-14.5 2-21.8 4.1-.5.2-.5.2-3.1.9-5.6 1.7-10.4 3.8-15.3 6.8-2.2 1.1-4.5 2.2-6.7 3.3-9.6 4.8-18.8 10.3-27.8 16.1-2 1.3-4.1 2.5-6.2 3.6-5.2 3.2-9.6 7.2-13.8 11.6-2.5 2.4-2.5 2.4-6.1 4.9-5.1 4-9.2 8.5-13.5 13.3-4.2 4.7-8.7 9.1-13.3 13.5-2.9 3-5.6 6.2-8.4 9.4-3.5 4.2-7.2 8.4-10.9 12.5-3.8 4.2-7.4 8.6-11 13.1-3 3.5-6.1 6.9-9.2 10.4q-6 6.6-11.7 13.5c-2.4 2.8-4.8 5.2-7.4 7.8l-3.3 3.9c-3.7 4.1-3.7 4.1-7.5 7.4-3.4 3-6.2 5.9-9.2 9.2-9.5 10.6-20.5 18.9-33 25.5-4.6 2.5-8.8 4.8-12.9 8.1-4.5 3.2-8.9 4.9-14.1 6.9-1.1.7-2.1 1.4-3.2 2.2-5.8 2.8-11.5 2.6-17.8 2.8-1.5 0-3.1.1-4.7.1-3.3-.1-3.3-.1-6.3-1.1-4.1-.3-8.1-.6-12.2-.9-18.1-1.3-34.3-4.3-50.8-12.1-1.7-.8-3.3-1.5-5.1-2.3-8.2-4.5-13.9-10.6-19.9-17.7-.4-.5-.4-.5-2.4-2.8-8.1-10-13.4-21.7-18.5-33.4-1.8-4.1-3.8-8.2-5.9-12.2-3.6-7.7-5.3-15.7-7.1-23.9-.9-4.1-2.1-7.1-4.1-10.7-.3-1.2-.5-2.4-.8-3.6-1.8-5.1-5.1-7.7-10.2-9.4-12.4-1.3-25.1 3.3-34 12-4.2 2.5-8.3 4.7-12.8 6.6-15.3 8.6-30.3 23.9-39.3 39-1.8 3.1-3.6 6-5.8 8.8-3.4 4.3-5.8 9.1-8.3 13.9l-1.8 3.3c-1.1 2.1-2.3 4.3-3.4 6.4-1.4 2.6-2.8 5.1-4.2 7.6-4.3 7.9-6.1 14.3-6.9 23.3-.9 7.4-3.8 14.2-6.5 21.1-.2.6-.2.6-1.3 3.4-2.2 5.9-5 10.7-8.8 15.8-3.2 4.7-5.4 9.8-7.9 14.9-2.7 5.2-5.8 10-9 14.9-3.4 5.4-6.7 10.9-9.9 16.4-2.7 4.7-5.5 9.3-8.7 13.7-3.9 5.4-7.1 11.3-10.3 17.3-1.8 3.1-3.8 5.8-6.1 8.6-1 1.5-2.1 3-3.1 4.5-6.5 9.3-13.4 18-20.9 26.5l-3.9 5.1c-3.7 4.8-7.9 7.8-13.1 10.9-1.7 1-3.3 2-5 3-10.8 6.3-10.8 6.3-17.6 6.2h-12.1c-12.2-.1-22.3-1.1-33.7-5.7-1.1-.4-2.2-.9-3.4-1.4-3.4-1.3-6.8-2.7-10.2-4.1l-3-1.2c-9.7-4.1-17.9-8.1-26-14.8-2-1.1-4-2.1-6.1-3.1-5.1-2.4-9.4-5.3-13.9-8.9-1.7-1.2-3.5-2.5-5.2-3.7-6.4-4.6-12.1-9.9-17.8-15.3-2.1-1.9-4.2-3.8-6.2-5.6-5-4.6-9.4-9.3-13.8-14.4l-2.5-2.5c-2.2-2.2-4.2-4.5-6.3-6.9-2.7-3.1-5.2-5.4-8.6-8-4.5-3.5-7.9-7.1-11.5-11.4-2.1-2.2-2.1-2.2-7.1-5.2-1.7-1.7-3.5-3.5-5.1-5.2-4.5-4.6-8.9-7.9-14.4-11.1-2.5-1.7-2.5-1.7-6-5.8-4.3-4.8-8.8-7.1-14.5-9.9-2.3-1.3-4.7-2.7-7-4-2.8-1.5-5.5-3-8.3-4.5l-6.9-3.9c-4.1-1.7-6.5-2.3-10.8-1.6-4.9 4.9-4.4 6.1-4.2 12.8v5.3c.1 3.7.3 7.3.4 11 .2 15.2-1.4 28.6-8.8 42.1-1.4 2.9-2.4 5.7-3.3 8.9-5.1 16.1-20.4 29.5-35.1 36.9-.6.5-.6.5-3.9 2.9-5.9 3.6-11.6 5.6-18.1 7.7-4 1.4-4 1.4-7 3-3.8 1.8-7.4 2.5-11.5 3.3-6.8 1.5-13.5 3.2-20.2 5.2-8.5 2.4-16.9 3.5-25.6 4.5-1.2.1-2.3.2-3.5.3-5.4.6-10.8 1.1-16.3 1.5-6.2.6-11.9 1.9-18 3.5-5.8 1.6-11.6 3-17.5 4.1-5.4 1-10.3 2.5-15.5 4.4-.8.3-.8.3-5.2 1.9-3.4 1.2-6.8 2.6-10.2 4-4.3 1.6-8.4 2.5-12.9 3.1-12.7 2-24.9 4.3-36.6 9.6-1.1.5-2.2 1-3.3 1.4-6.3 2.9-12.6 6-18.8 9.2-2.8 1.3-5.5 2.6-8.3 4-4.1 2.1-7.1 4.4-10.6 7.4-2.7 1.7-5.3 3.3-8 5-.8.6-1.5 1.3-2.3 1.9-3.1 2.4-6.1 3.9-9.6 5.5-5.4 2.6-9.1 5.2-13.1 9.6-2 1.1-4 2-6 3-1.8 1.2-3.6 2.3-5.4 3.5-3.2 2-5.8 3.6-9.4 4.9-4.5 2.2-6.9 5.7-10.2 9.6-2.6 2.1-5.3 4.1-8 6-6.7 5-12.5 10.4-18.3 16.4-2.7 2.6-2.7 2.6-6.7 4.6-1.9 2.2-1.9 2.2-3.9 4.9-3.1 4-5.9 6.3-10.1 9.1-2 2.4-3.9 4.8-5.8 7.2-2.3 2.9-4.7 5.6-7.3 8.4-4.2 4.6-8.1 9.4-11.9 14.4-3.2 3.9-6.5 7.5-10 11-1.2 1.3-2.3 2.6-3.5 4-2.8 3.1-5.5 6.1-8.5 9-9.5 9.4-18.1 18.9-25.1 30.4-1.9 2.6-1.9 2.6-4.6 4.3-4.2 2.9-6.8 6.4-10 10.4-4.9 6.2-9.6 11.6-16.3 15.9-1.5 1.5-3 3-4.6 4.4-4.7 4.4-9.3 6.4-15.4 8.4-4.2 1.7-7.4 4.4-11 7.2-3 1.6-6.1 3.1-9.2 4.5-2.8 1.5-2.8 1.5-5.2 3.5-3 2.3-5.8 3.3-9.4 4.5-4.1 1.4-7.4 2.6-11.1 4.8-5.3 2.2-9.8 1.9-15.5 1.6-3.7.1-6.2.8-9.6 2.1-11.1.7-22.3-1.3-33-4.2-3.3-.9-6.7-1.5-10.1-2.2-9.7-2.1-17.6-5.6-24.9-12.6-.8-.8-1.7-1.6-2.6-2.4-3.1-3.3-5.7-6.9-8.4-10.6-.5-.6-.5-.6-3.1-3.9-3-4.3-4.9-8.3-6.9-13.1-.5-1-1-2-1.5-3.1-11.1-22.7-5.4-43.8 4.5-65.9.5-1.6 1-3.2 1.6-4.8 3.3-7 8-11.7 13.4-17.2 1-1 1.9-2 2.9-3.1 5.8-6 10.8-10.8 19.1-12.9 1 2 1 2-.3 4.4-4.7 6.4-9.4 10.7-15.7 15.6-5.5 6.4-9.4 13.4-13 21-1 1.7-2 3.3-3 5q-4.35 11.7-6 24c-.2 1-.3 2-.5 3.1-.7 9.2 1.8 16.7 5 25.2l1.2 3.3c3.1 7.7 6.9 13.2 12.3 19.4 2 2.7 4 5.3 6 8 3.8 5.1 8.3 6.7 14 9 1.2.5 2.5 1 3.7 1.5 4.9 1.7 9.6 2.7 14.7 3.6 10.6 1.9 10.6 1.9 15.6 3 20.9 3.7 45.4-1.6 63-13.1 1.9-1.1 3.8-2.1 5.7-3.1 3.5-1.9 6.9-3.8 10.3-5.9 2.3-1 4.7-1.9 7-2.8 5.5-2.3 8.4-4.3 12-9.2 1.2-.7 2.4-1.5 3.7-2.2 4.6-3 7.7-6.1 11.3-10.2 7.3-8 7.3-8 11.6-11.5 4-3.7 5.3-7.1 7.4-12.1 3.4-3.7 3.4-3.7 7-7 2.7-2.6 5.1-5.1 7.4-8.1 2.6-2.9 2.6-2.9 5.4-4.6 4.1-2.9 6.7-6.5 9.8-10.4 2.2-2.7 4.4-5 6.9-7.3 4.4-4.3 7.9-9 11.4-13.9 2.4-3.1 5.1-5.3 8.1-7.7 1.6-2.1 3.2-4.1 4.7-6.2 6.5-8.1 13.9-15.5 21.3-22.8.5-.6.5-.6 3.3-3.4 3.8-3.7 7.7-7.1 11.7-10.6 3.4-3.2 6.7-6.3 10-9.5 3-2.5 3-2.5 7-3.5.3-1 .7-2 1-3 2.6-2.4 5.3-4.7 8-7l3.3-3.6c3.8-3.5 7.4-5.6 11.9-7.9 4.2-2.2 7.9-4.9 11.8-7.5 1.5-1 2.9-1.9 4.4-2.9 3.2-2.1 6.2-4.3 9.3-6.5 5-3.6 10.4-6.2 15.9-8.8 4.8-2.5 9-5.6 13.4-8.8 2.3-1.3 4.7-2.7 7-4 .6-.4.6-.4 3.5-2.2 17.5-11 35.8-17.9 56.3-20.5 11.5-1.5 22.4-4.6 32.7-10.1 4.9-2.4 9.2-3.3 14.5-4.2.7-.3.7-.3 4.4-1.6 5.6-1.7 10.7-2 16.6-2.4.5-.2.5-.2 3-1 1.6-.1 3.3-.2 4.9-.4 5-.4 9.5-1.5 14.3-2.8 5.1-1.1 10.2-1.6 15.3-2.1 11.3-1.3 21.7-4.1 32.5-7.7 5.4-1.6 10.8-3 16.4-3.9 10.6-2.1 29.6-7.1 34.6-17.1 3-1.5 3-1.5 6.5-2.8 1.2-.4 2.3-.8 3.5-1.2 3-1 3-1 5-1 .7-1.3 1.3-2.6 2-4l2.4-2.1c3.5-3.9 4.8-8 6.6-12.9 2-4.5 4-8.9 6-13.3 6-14.1 7.2-26.2 7.2-41.5v-5.5c.1-34.4.1-34.4-8.2-39.6-1.2-.5-2.4-1-3.7-1.5-1.3-.6-2.7-1.2-4.1-1.8l-4.2-1.8c-1.3-.6-2.7-1.3-4-1.9-14.2-6.6-30.3-11-46-7.1-2.1.2-4.2.3-6.3.4-1.2.1-2.5.1-3.7.2-2.6.1-5.2.3-7.7.4-7.5.4-14 1.6-21.1 4-5.6 1.7-11.3 2.6-17.1 3.5-8.6 1.5-16.9 3.1-25.3 5.7-2.8.8-2.8.8-8.5 1.2-5.3.6-8.5 2.1-13.1 4.8-11.3 6.4-21.2 10.3-34.2 10.8-4.8 1.7-8.6 3.7-12.8 6.6-4.5 2.6-8.2 3.5-13.2 4.6-8.2 2.2-15 7.1-22 11.8-13.3 8.6-26.8 14.1-41.8 18.9-2.7.9-5.5 2-8.2 3.1-10.3 2.4-20.5 4.3-31 5-.5.2-.5.2-3 1q-10.05.6-20.1.9c-2.5.1-5.1.2-7.6.3-8.1.2-13.9-.5-21.3-4.2-4.8-2.3-9.2-3.5-14.4-4.4-7.3-1.2-14.1-3.2-21.1-5.5-4.1-1.3-8.3-2.2-12.5-3.1-15.3-3.6-28.9-11.8-42.1-20.2-2.7-1.7-5.5-3.3-8.3-4.9-7.5-4.7-12.4-9.7-17.6-16.9-1.3-1.7-2.7-3.3-4-5-2.5-3.1-4.8-6.1-7.2-9.3-2.8-3.7-2.8-3.7-5.2-6-5.2-5.4-8.8-12.3-12.6-18.7-6.8-6.8-12.5-8-21.8-9.3-3.8-.6-6.8-1.5-10.3-2.9-6-2.2-9.9-1.8-15.9.2-3.5.3-7 .4-10.5.6-3.5.4-3.5.4-6.4 1.4-5.6 1.8-11.6 1.4-17.5 1.6-4.6.4-7.5 1.5-11.6 3.4-2.5.5-5 1-7.5 1.4-19.6 3.5-19.6 3.5-26 8.6-3.1 2.5-6.1 3.4-9.9 4.6-5 1.5-9.8 3.3-14.6 5.4-1.4.5-2.8 1-4.3 1.5-9.9 3.5-16.3 7-23.7 14.5-1.7 1-3.3 2-5 3-1.7 1.6-3.4 3.3-5 5-9 9.2-9 9.2-14.4 11.3-6.2 2.9-9.6 8.3-13.5 13.6-2.9 3.8-5.9 7.3-9 10.8-2.8 3.1-5.5 6.4-8.1 9.8-1.3 1.6-2.6 3.2-4 4.8-5.3 6.1-8.7 12.7-12.1 20-1.8 3.4-3.7 6.5-5.9 9.7-4.5 7.3-6.1 13.8-7.1 22.3-.8 7.5-.8 7.5-1.9 9.7-1.4 33.6-1.4 33.6 7 42 3.3 1.1 6.6 2.1 10 3 .5.4.5.4 2.8 2.4 6.8 5.5 15.6 8.6 24.3 8.6 4.6-2.3 6.3-5.1 8.9-9.5 3.5-4.4 8-6.1 13-8.5 1.7-1 3.3-2 5-3 6-2.7 12.1-5 18.4-7.2 10-3.4 10-3.4 14.7-6.2 2.9-1.6 2.9-1.6 7.9.4.7 1.3 1.3 2.6 2 4-2 2-2 2-6.8 3.4-5.2 1.6-5.2 1.6-10.2 4.6-3.1 1.2-6.2 2.3-9.3 3.4-6.2 2.2-11.9 4.6-17.7 7.6-1.7.7-3.5 1.4-5.2 2.1-4.8 2.9-4.8 2.9-6.7 8.5-2.7 6.9-4.4 6.6-11.2 8.3-4.1 1.6-5.6 4.5-7.5 8.4-1.4 2.8-3.1 5.1-4.9 7.6-3.1 4.4-5.5 9-7.8 13.8-1.9 3.7-4 7.2-6.1 10.7-1.6 2.5-3.1 5.1-4.6 7.6-.7 1.1-1.3 2.2-2 3.4-4.6 8.3-6.3 16.2-7.5 25.6-.5 4-.5 4-1.5 7-.3 9.8.4 19.2 1.4 28.9.4 3.3.7 6.6 1 10 1 11.1 2.3 22.6 11.6 30.1.4.4.4.4 2.7 2.6 12 8.8 26.2 7.4 40.4 7.4 16.3.1 16.3.1 18.9 4-2.5 4.9-2.8 4.6-8 5-6.4.2-12.7 0-19.1-.1-.8 0-.8 0-5.2-.1-19.4-.3-34.4-6-44.9-23.4-4.9-12-6.3-22.9-6.6-35.8-.2-4.6-.2-4.6-1.2-7.6-1-22.5 1.2-41.3 13-61l6-11.4c1.8-3.2 3.7-5.8 6-8.6.6-1.5 1.3-3 1.9-4.6 2.1-4.3 3.3-5.7 7.1-8.4 2.3-4.6 2.6-6.2 1-11-3.7-2-3.7-2-9-4l-7.2-3.6c-1.1-.5-2.3-1.1-3.5-1.7-1.1-.6-2.2-1.1-3.3-1.7-1.1-.5-2.1-1-3.2-1.5-11.9-6.5-14.5-23.1-15.1-35.4 1-15.8 2.6-32.4 8.6-47.3l1.2-3c1.5-2.8 1.5-2.8 4-5.2 2.9-3 4-5.6 5.4-9.5 2.8-6.8 6.2-11.3 11.5-16.4 3-3.1 5.7-6.5 8.4-9.9 4.9-6.2 9.8-12.2 15-18 3.2-3.8 3.2-3.8 4.9-7.7 2.7-4.8 5.1-6.5 9.7-9.3.6-.5.6-.5 3.9-2.5 1.2-.8 2.4-1.5 3.7-2.3 7.2-4.7 13.7-10 20.1-15.6 10.8-9.4 20.6-14.1 34.2-17.9 8.4-2.6 16.5-6.1 24.7-9.5 4.6-1.8 9.1-3.1 13.9-4.2 2.7-.7 5.4-1.5 8-2.4 7-1.9 14-2.2 21.2-2.8 9.7-1 19.3-2.5 28.9-4.1 2.8-.5 5.5-.9 8.3-1.3.7-.1.7-.1 4.6-.7l3.9-.6c3.2-.9 3.2-.9 7.2-4.9.1-5.9-2.3-9.7-5.5-14.5-.9-1.4-1.8-2.8-2.7-4.3-1-1.4-1.9-2.8-2.8-4.2-4.8-7.6-9.2-15.2-13.1-23.3-2.2-4.5-4.4-8.6-7.3-12.6-6.4-8.7-11.3-18.6-15.3-28.6-2.3-5.4-5-9.7-8.3-14.5-4.9-8.2-9.5-16.7-14.1-25.1-.5-.9-1-1.9-1.5-2.8-2.2-4-4.3-8-6.4-12-3.3-6.5-7-11.7-11.7-17.2-3.3-4.2-5.8-8.7-8.4-13.4-2.4-4.4-5-8.6-7.7-12.8-1.6-2.8-3.3-5.6-5-8.4-5.6-9.6-11.5-18.6-18.2-27.4-3.1-4-6-8.2-8.8-12.3-5.8-8.5-11.1-16.2-19.2-22.6-.8-.6-1.5-1.2-2.3-1.8-1.7-1.4-3.3-2.7-5-4.1-2.9-2.2-5.7-4.5-8.5-6.8-.4-.3-.4-.3-2.7-2.1-2.5-2.2-2.5-2.2-5-4.8-4.5-4.3-10.4-6.5-16.1-8.9-6.2-2.7-11.9-6.1-17.4-10.1-4.5-3.1-8.9-5.3-14-7.4l-6.9-3.6c-5.9-3-11.6-4.7-18.1-6.4-2.7-1-5.3-2-7.9-3.1-6.8-2.6-12.9-3.9-20.1-4.9-7-1.4-12.8-3.4-19-7-3.7-.8-7.4-1-11.2-1.3-18.1-2.6-32.5-13.8-45.8-25.7-1.7-1.4-3.5-2.8-5.2-4.2-6.2-5.1-12-10.4-17.8-15.8-1.3-1.2-2.6-2.3-3.9-3.5-4-4.5-6.5-9.2-9.1-14.5-.4-.8-.4-.8-2.4-4.7-.8-1.7-1.7-3.5-2.6-5.3-1.3-2.6-2.6-5.3-3.9-7.9-.4-.7-.4-.7-1.9-3.9-5.2-10.1-10.9-19.9-16.5-29.8-5-8.7-8.8-17-10.9-27-1.9-7.9-4.1-15.5-6.8-23.2-3.6-10.3-5.9-20.7-7.9-31.5-1.2-6-2.6-11.7-4.3-17.5-.8-3.1-1.4-6.1-1.9-9.1-.8-4.7-2.2-8.6-3.9-13.1-2.3-8.3-3.7-16.4-4.5-24.9-.2-1.3-.3-2.5-.4-3.7-.3-2.6-.5-5.1-.8-7.7-.4-3.8-.7-7.6-1.1-11.4-.7-6.2-1.3-12.5-1.9-18.8-.2-2.2-.4-4.4-.6-6.7-2-19.9-2-39.8-1.9-59.9v-33.2c.1-8.3.3-16.6 1-24.9.8-10 .1-19.9-.8-29.8-1.2-14-1.3-27.9-1.2-41.9v-12.4c.1-35.8.1-35.8 3.2-47.7.3-2 .6-4.1.8-6.1.9-6.1 2.7-11.5 4.8-17.2 3.3-8.9 6-18.1 8.5-27.2 1-3.9 2.1-6.8 4-10.4 2-4.2 2.3-7.2 2.8-11.8.7-7 2.5-12.1 5.7-18.3 1.4-3 1.4-3 2.4-8.7 1-5.1 2.6-8.1 5.4-12.4 2.6-4.8 3.9-9.9 5.4-15.1 1.4-4.5 3.2-8.6 5.2-12.8 1.8-3.8 3-7 3.9-11.1 2.4-10.5 7-20.7 12.6-29.8 4.1-6.6 6.7-13.7 9.4-20.9 2.6-6.5 5.5-12.8 8.4-19.2 1.7-4 1.7-4 2.7-8.1 1-3.9 2.3-6.7 4.2-10.1 5.6-10.8 9.2-22.6 10.9-34.6.9-5.2 2.5-8.5 4.9-13.2 4.1-12.1 5.2-25 6.5-37.7.5-4.2 1.4-8 2.5-12 4.2-14.8 3.5-29.3 1.6-44.6-.6-5-1-10.1-1.4-15.1-.8-9.6-2.4-18.8-4.3-28.2-1.8-9.4-3-18.8-3.7-28.4-.7-6.8-2.3-11.9-5.2-18-1.4-4.1-2.6-8.3-3.8-12.4-2.8-9.4-6-18.5-9.6-27.5-1.6-4-2.8-8-3.9-12.1-4-13.4-12-25.4-19.7-37l-1.2-4.2c-1.9-5.2-4.5-8.4-7.8-12.8-.4-.8-.4-.8-2.5-5.1-2.4-4.7-5-7.9-8.5-11.9-2.1-3.3-4-6.6-6-10-10.4-17.4-10.4-17.4-16.6-21.9-3.3-2.9-4.9-6.5-6.9-10.4-1.5-2.7-1.5-2.7-4.2-5.9-2.3-2.8-2.3-2.8-3.5-6.6-2.2-5.1-5.1-7.5-9.3-11-7.4-6.5-12.1-15.5-16.9-23.8-3.4-5.6-6.9-9.9-11.6-14.4-2-3.3-4-6.7-6-10-5.9-7.4-5.9-7.4-10.1-9.8-3.9-3-4.8-6.4-6.5-11-2.3-5.3-5.8-9.7-9.4-14.2-.7-.9-1.3-1.7-2-2.6-1.7-2.1-3.3-4.3-5-6.4-2-3-2-3-3.4-7.6-2.6-8.8-6.7-17-10.6-25.4-.5-1.1-1-2.1-1.5-3.2-1.9-3.9-3.9-7.4-6.4-11-6.3-9.7-10.2-19.6-13.1-30.8-2.5-6.7-5.3-13.3-8.1-19.9-2.7-7.2-4.8-14.6-6.9-22.1-.4-1.1-.8-2.2-1.3-3.4-4.6-13.5-4.2-26.4-3.9-40.5 0-4.7.1-9.3.1-14 0-.6 0-.6.1-3.4.1-8.3-.2-16.4-.7-24.6-1.2-18.5-1.2-18.5 2.7-26.1.4-2.6.8-5.1 1.1-7.7 1.8-10.4 6-19 10.9-28.3.8-1.6 1.6-3.2 2.5-4.9L65 431c.8-1.5 1.6-2.9 2.4-4.4 5.8-10.6 12.3-19.3 20.4-28.2 3.8-4.2 7.5-8.4 11.2-12.8 3.7-4.2 7.1-7.7 12-10.6 3-2.3 5.7-4.6 8.4-7.2 3.8-3.1 7.3-5.6 11.4-8.2 8.2-5.1 15.4-10.8 22.2-17.6 2.7-1.1 2.7-1.1 5.8-1.9 3.8-1.1 6.5-2.3 10-4.5 4.7-2.9 8.9-4.1 14.3-5.5 9.2-2.5 17.4-5.7 25.9-10.1.5-.3.5-.3 3.2-1.6l6.3-3.3c5-2.4 10.2-4.2 15.4-6 3.1-1.1 3.1-1.1 6.1-3.1 3.4-1.1 6.9-2 10.4-3 5.3-1.5 10.4-2.9 15.6-5 3.7-.7 7.3-1.4 11-2 1-.3 2-.7 3-1 5.3-.5 10.7-.8 16-1 1.4-.1 2.8-.1 4.3-.2 8.6-.2 15.9.7 24.1 3.2 3.5 1 6.8 1.5 10.4 1.9 5.3.8 9.6 2.3 14.4 4.7 3 1.5 5.9 2.7 8.9 4 14.1 5.8 14.1 5.8 18.9 9.4 2.4 1.2 4.8 2.4 7.1 3.5 4.2 2.1 8.1 4.5 12.1 6.9 2.3 1.3 4.6 2.5 6.9 3.7 3.9 1.9 3.9 1.9 8.5 4.8 4 2.5 7.8 4 12.2 5.3 6.7 2.3 11.3 5.6 16.7 10 5.2 4.2 10.6 7.9 16.1 11.7 3 2.1 6 4.2 9 6.4 1.5 1 2.9 2.1 4.5 3.2 1.3 1 2.6 1.9 4 2.9 3.8 2.6 7.8 4.6 11.9 6.6 8.4 5.7 15.3 13.2 22.4 20.4 13.5 13.6 13.5 13.6 20.7 17.1 2.9 1.5 2.9 1.5 5.6 5.1 3.5 4.6 7.2 7.8 11.7 11.3 2.6 2.1 2.6 2.1 6.6 6.1 6 5.2 12.2 9.8 19 14 3.3 2.9 5.3 5.5 7.7 9.2 4.9 7.1 11.1 12 17.6 17.4 3.6 3.3 6 6.5 8.7 10.4 2 1.7 4 3.3 6 5 2.3 2.7 4.7 5.3 7 8 2.9 2.5 5.8 4.9 8.9 7.1 3.6 3.4 6.2 7 9 11 5.7 8 12.2 15.4 18.6 22.8 2.5 3.1 2.5 3.1 4.5 6.2 2.1 3 4.4 5.3 7 7.9 5.7 7 10.6 14.4 15.1 22.2 3 4.4 6.4 6.5 11.1 9 4.9 3.6 4.7 6 5.8 11.8 2.2 2.5 2.2 2.5 5 5 7.2 6.7 12.8 13.4 18 21.8 2.3 3.8 5.1 6.9 8 10.2l6 9c4.1 6.3 8.2 12.3 13 18 2.5 3.8 4.8 7.6 6.9 11.7 2.1 3.3 2.1 3.3 4.9 5.6 3.4 2.9 5.4 5.7 7.8 9.5.7 1.2 1.5 2.4 2.3 3.7 1.7 2.8 3.2 5.6 4.7 8.4 2.4 4.1 2.4 4.1 6.3 7.5 4.7 4.1 7 8.3 10.1 13.6 2 2.3 4 4.7 6 7 .8 1.3 1.6 2.6 2.4 4 3.7 5.7 8 9.9 14.4 12.6 4 1.8 4.8 3.7 7.2 7.4 2.6 2.1 5.3 4.1 8 6 1.4 1.2 2.8 2.4 4.2 3.7 5.8 4 9.9 5 16.8 6.3.5.1.5.1 2.8.6 7.4 1 14 .3 21.3-1.4l4.5-.9c9-2.6 14-5 16.5-14.5.9-4.8.9-4.8 1.2-8.9.6-4.5 1.7-8.1 3.1-12.4 2.4-7.3 3.3-14.1 4.1-21.7.6-4.8 2.3-8.5 4.5-12.8 1-3.3 2-6.7 3-10 .7-1.7 1.4-3.5 2.1-5.2 1.6-4.3 2.3-8.4 2.9-12.9.7-6 2.5-10.4 5-15.9.4-2.9.9-5.8 1.3-8.7 1.1-5 3.2-9.5 5.3-14.1 1.6-3.7 2.5-7.3 3.4-11.2 1-2.3 2-4.7 3-7l3-9c1.8-5.1 3.7-10.2 5.6-15.3.8-2.2 1.6-4.3 2.3-6.5 1.2-3.5 2.7-6.7 4.3-10 3.3-6.9 5.9-14 8.4-21.2 9.2-26.4 24.5-53.4 43.4-74l2.4-2.7c12.9-11.4 27.5-9 42.6-4.3 7.6 2.9 11.6 6.2 16.3 12.6 1.7 2.4 1.7 2.4 4.5 5.1 4.3 4.5 6.8 10.5 9.6 16.1 2.6 5.3 5.3 10.6 8.1 15.8l1.8 3.6c1.2 2.3 2.5 4.6 3.7 7 2.8 5.4 5.5 10.7 7.8 16.4 2.2 5.4 2.2 5.4 4.7 9.3 3.9 6.4 6.2 13.4 8.7 20.4 6 16 14.7 31 23.8 45.4 5.9 9.7 11.1 19.7 15 30.3 1.6 2.7 3.3 5.4 5 8 .3.5.3.5 2.1 3.1 1.3 2 2.6 3.9 3.9 5.8 2 3.1 2 3.1 3.6 6.7 10.8 20 29.4 40.6 53 42.8 8.1-.6 16.6-2.6 22.4-8.4 1.7-1 3.3-2 5-3 .7-.9 1.4-1.7 2.1-2.6 1.9-2.4 1.9-2.4 5.9-3.4.7-2 1.4-4 2-6 2-2.9 2-2.9 4.3-5.6.8-.9 1.5-1.9 2.3-2.8 2.4-2.6 2.4-2.6 4.9-4.4 3.4-3 5-6.4 7-10.4 2.2-4.5 4.5-8.7 7.1-12.9 2.1-3.4 3.8-6.7 5.5-10.4.5-1.1 1-2.2 1.5-3.4.2-.5.2-.5 1.4-3.1 2.3-4.8 4.8-9.5 7.6-14.1 2.5-4.2 4.6-8.3 6.4-12.9.7-1.6 1.5-3.2 2.2-4.9 5.9-12.9 11-26.1 16.2-39.3 1.9-4.6 3.7-9.1 5.8-13.6 1.6-3.6 2.7-7 3.7-10.8q2.1-7.8 5.1-15.3c2.5-6.4 4.4-12.8 6-19.5.8-2.7 1.6-5.3 2.5-7.9 1.6-4.9 2.7-9.7 3.8-14.7 1.9-8.3 4.4-16.2 7.4-24.2 1.2-3.5 2.1-6.8 2.9-10.4 1.3-4.9 2.8-8.1 5.4-12.4.7-2.3 1.3-4.7 2-7 .7-1.3 1.4-2.5 2.1-3.8 1.9-4.2 1.9-4.2 2.3-9.1.7-5.9 2.9-9.8 5.6-15.1.5-2.9 1.1-5.9 1.5-8.8 1.2-7.3 3.8-14.3 6.5-21.2.2-1.3.5-2.6.8-4 1-4.1 2.1-7 3.9-10.8 3.7-7.5 6.1-15.5 8.7-23.5 1.6-4.7 1.6-4.7 3.2-7.8 1.7-3.6 2.5-7.1 3.4-10.9 1-2.9 2-5.8 3-8.8.3-.7.3-.7 1.6-4.4 1.4-3.8 1.4-3.8 3.4-7.8.1-.6.1-.6.8-3.5 1.3-5 3.4-9.1 5.8-13.7 1.4-2.8 1.4-2.8 3-6.6 1.7-4 4.1-7.5 6.4-11.2 2.2-4 3.9-7.8 5.4-12.1 1.7-5.1 3.6-10.1 5.6-15 .7-1.7 1.4-3.4 2.1-5.2 7-17.1 7-17.1 13-24.1 2.1-2.9 2.9-5.2 3.8-8.7 2.4-8.5 6.6-15.5 11.2-23 2.9-4.9 2.9-4.9 5-10 1.9-3.9 1.9-3.9 5.9-4.9 2.3 2.3.5 7.2 0 10-1.9 3.1-1.9 3.1-4 6-1 2.3-2 4.7-3 7-1 2-2 4-3 5.9-1.8 3.6-3.3 6.8-4.6 10.6-1.6 3.9-3.1 5-6.4 7.5-2 5-2 5-2.8 9.3-1.3 5.1-3.4 8.3-6.2 12.7-1.4 3.3-2.6 6.6-3.8 9.9-1.2 3.1-1.2 3.1-4.2 8.1-.2.8-.2.8-1.3 4.8-1.8 5.6-4.3 9.4-7.7 14.2-2.4 4.2-3.9 7.6-4.9 12.4-1.3 5.4-3.5 9.7-6.1 14.6-3.1 6.6-5.1 13-7 20-1 2.7-1.9 5.3-2.9 8-2.7 7.5-5.1 15.1-7.6 22.6-4.8 14.2-4.8 14.2-8.1 20.5-1.9 3.9-2.5 7.7-3.4 11.9l-3 9c-3.3 9.6-6.4 19.2-9.1 29-1.4 4.8-3.3 9.4-5.1 14.1-2.5 6.3-4.4 12.3-5.8 18.9-1 2.7-1.9 5.4-2.9 8.1-1.6 4.1-2.8 8.4-4.1 12.7-.9 2.9-1.9 5.8-2.9 8.7-1.9 5.6-3.3 11.3-4.6 17.1-1.7 7.4-3.7 14.3-6.5 21.4-1 3.3-2.1 6.7-3.1 10-.7 2.5-1.6 4.9-2.6 7.4-1.3 3.6-1.3 3.6-1.8 7.3-.5 3.3-.5 3.3-3.5 8.3-.5 2.2-1 4.5-1.4 6.8-1.2 6.2-3.3 10.7-6.6 16.2-1.3 3.1-2.4 6.3-3.6 9.4-1.5 3.9-3.3 7.8-5 11.6-2.3 5-3.9 9.7-5 15.1-1.1 5.3-2.7 8-6.4 11.9-2.2 3.9-3.8 7.4-5 11.7-1 3.3-1 3.3-3.1 5.8-2.5 3.2-2.9 5.4-2.9 9.5 4.7 4.7 5.7 4.7 12 4 5-3 5-3 8.2-5.8 3.8-3.2 3.8-3.2 8.4-6.2 4.1-2.8 6.3-5.2 9.4-9 6.6-5.3 13.6-10.3 21.2-14.1 3.8-1.9 3.8-1.9 6.7-4.4 3.8-3.1 7.7-4.6 12.1-6.5 4.9-3.1 8.9-5.9 13-10 4.6-3.2 9.2-6.1 14-9 1.4-1 2.9-1.9 4.4-2.9 3.8-2.6 7.6-4.8 11.6-7.1 1.3-1 2.6-2 4-3 1.7-.6 3.5-1.2 5.2-1.8 5.8-1.9 9.3-5.1 13.8-9.2 3-1.4 6-2.8 9-4 1.7-1 3.3-2 5-3 3.9-2.3 7-3.9 11.2-5.4 4.1-1.5 7.4-3 11.2-5.2 7.6-3.9 15.7-4.8 24-6.1 9.8-1.6 19.1-3.6 28.6-6.3 9.2-2.6 17-2 26 1 7.3 1 14.4.9 21.8.8 14.6 0 24.9 3.1 37.5 10.3 3.6 1.8 7.1 3.2 10.9 4.5 20.5 7 40.3 20.7 54.4 36.8 2.4 2.6 2.4 2.6 6.3 5.8 9.4 8.6 16.5 19.1 23.1 29.8 1 1.3 2 2.6 3 4 3.6 4.8 6.8 9.9 10 15 .6 1 1.3 2 1.9 3.1 3.7 6 5.8 10.9 7.1 17.9.6 1.3 1.2 2.6 1.8 4 2.6 5.9 4.2 11.8 6 17.9 1.4 4.9 3.3 9.4 5.2 14.1 6.2 15.7 10.5 32 11.7 48.9.2 2.1.5 4.2.8 6.3 2.1 16.8 1.6 35.8-4.4 51.7-1.1 3-1.9 6-2.8 9.1-2.3 7.3-5.4 13.9-9 20.7-.6 1.1-1.1 2.3-1.7 3.5-3.5 6.7-7.3 12.2-12.6 17.6-3.1 3.4-5.5 7.3-8 11.2-5.7 6.4-12.4 9.1-20.2 12.1-9.7 3.8-9.7 3.8-10.8 4.9-35.1 7.2-35.1 7.2-48 4-5.1-.1-10.1 0-15.2.1-4.8-.1-4.8-.1-7.7-.6-3.2-.5-6.2-.5-9.5-.4-1.2 0-2.4.1-3.6.1-1.2.1-2.5.1-3.8.2-1.2 0-2.4.1-3.7.1-6.8.3-13.6.8-20.5 1.5-1.7.1-3.4.3-5.2.4-9.7.8-17.8 1.8-26.8 5.6-2 .5-3.9 1.1-5.9 1.6-10 2.9-19 8.5-28.1 13.4-4.5 2.3-9 4.5-13.7 6.4-4.8 2.4-6.8 3.9-10.3 7.6-5.2 3.3-10.5 6.3-15.9 9.2-5.1 2.8-5.1 2.8-8.1 5.8-.5.3-.5.3-3.2 1.8-6.1 3.6-10.4 8.7-14.8 14.2-2.9 3.1-5.9 5.7-9.1 8.4-5.2 4.6-9.2 9.9-13.4 15.4-2.5 3.2-2.5 3.2-5.6 6.7-2.8 3.3-4.9 6.7-7.2 10.3-3.5 5.5-7.2 10.1-11.6 14.8-2.8 3.1-5 6.5-7.4 9.9-1.7 2.5-3.6 4.8-5.5 7.1-9.2 11.5-15.8 24.2-21.8 37.5-2.4 4.9-2.4 4.9-5.4 9.4-3.2 4.8-5.3 9.4-7.5 14.7-.8 1.8-1.5 3.7-2.3 5.5-.7 1.8-1.5 3.5-2.2 5.3-1.1 2.6-2.3 5.2-3.4 7.8-2 4.7-3.5 9.2-4.6 14.2-.7 2.1-1.3 4.3-2 6.4-1.2 3.8-2.1 7.3-2.9 11.2-.9 3.7-2.1 6.9-3.6 10.4-2.1 5-3.4 9.7-4.5 15-.7 2.6-1.3 5.2-2 7.8-.3 1.2-.7 2.5-1 3.7-1 3.5-1 3.5-3 8.5-.2.7-.2.7-.9 4.3-1.1 4.7-1.1 4.7-2.6 8.4-1.7 4.8-1.9 8.6-1.9 13.6-.5 11.5-2 23-6.2 33.8-1.4 4-1.9 7.3-2 11.6-.2 4.3-.5 8-1.4 12.3-.1 2.1-.2 4.3-.3 6.4-.3 5-1.1 9.4-2.6 14.2-2.8 9.3-3.9 18.8-5.1 28.4-.2 1.4-.4 2.9-.6 4.4-1.1 9.7-2.1 19.4-2.9 29.1-.5 4.5-.5 4.5-1.5 9.5-.2 3-.3 5.9-.4 8.9-.8 14.7-3.4 28.4-7 42.6-1.4 5.2-2.1 10.2-2.6 15.5-.7 2-1.3 4-2 6-.1 2.2-.2 4.5-.2 6.7-.4 6.3-1.9 10-5.2 15.3-1.9 3.6-3 7.1-4.2 11-3 10-6.2 18.2-13.4 26-1 1.7-2 3.3-3 5-4.6 4.4-9.6 7-15.4 9.8-1.6.7-3.2 1.5-4.9 2.3-7.8 3.1-14.1 3-22.4 2.1-.8-.1-.8-.1-4.9-.5-11.3-1.8-19.3-8.5-25.4-17.7-.6-.8-1.1-1.7-1.7-2.5-5.2-7.9-5.2-7.9-3.3-13.5.7-3.3 1.3-6.7 2-10 .2-1.1.5-2.2.7-3.3.8-10.1-5.6-20.6-10-29.3-9.3-19-13.8-40.7-17.7-61.4-.5-2.6-1-5.1-1.6-7.7-.4-2.4-.9-4.9-1.4-7.3-.1-.6-.1-.6-.8-3.9-1.6-8.3-2.8-16.5-3.8-24.9-.4-3.2-.4-3.2-1.4-6.2-.5-5.4-.8-10.7-1.1-16.1 0-.8 0-.8-.2-4.5-.5-7.4-.7-14.8-.7-22.2 0-7-.4-13.8-1-20.8-4.4-53.6-4.4-53.6 2-66.4 1.3-8.1 1-16.1.9-24.3 0-12.7.3-25.4 1-38.1.1-1.5.1-3 .2-4.6.4-5.9.8-11.6 2-17.4 1.3-7.9 1.1-15.6 1-23.6-.1-3.1-.1-6.3-.1-9.4 0-.7 0-.7-.1-4.2.1-3.4.1-3.4 1.1-6.4.6-4.9 1-9.8 1.5-14.8.5-4.2.5-4.2 1.5-6.2.2-2.2.3-4.4.4-6.6.4-5.4 1.2-10.2 2.6-15.4 1.2-7.1 2.1-14.2 2.5-21.4.8-13.6 3.1-26.8 5.6-40.2 2.3-12.2 4.2-24.4 5.3-36.7 1.5-16.2 6.6-31.6 11.5-47.1 1.9-6.3 3.7-12.5 5.5-18.8 1.9-6.7 4.2-13.2 6.6-19.8 5.6-16.3 5.6-16.3 7.6-24.1 1.4-4.7 3.1-8.6 5.4-12.9.7-1.6 1.3-3.3 2-5l2.4-4.8c2.6-5.2 2.6-5.2 4.1-9.3 2.5-6.5 6.1-12.4 9.9-18.3q4.35-6.75 8.1-13.8c1-1.9 2.1-3.8 3.2-5.7 5.7-9.5 5.7-9.5 3.3-15.1-5.3-3.8-10-3.1-16.4-2.7-11.2.2-18.2-2.4-27.6-8.3-1.3-.7-2.5-1.4-3.8-2.1-3.4-2-5.5-4-8.2-6.9-.7-.8-1.5-1.6-2.2-2.4-3.8-4.1-6.9-7.8-9.8-12.6l-2.3-2.3c-5.8-5.8-9.6-12.1-13-19.5-1.7-3.2-1.7-3.2-4.6-7.4-3.2-5-5.8-10-8.4-15.4-5.2-10.5-10.8-20.7-16.7-30.8-4.8-8.2-8.9-16.5-12.9-25-1.7-3.8-3.5-7.5-5.4-11.2-3.4-6.7-6.6-13.6-9.8-20.5-.5-1-1-2.1-1.5-3.2-2.5-5.4-4.8-10.8-6.9-16.3-2.3-6.1-5.1-11.6-8.3-17.2-3.7-6.6-7.2-13.1-10.4-19.9-8.1-16.3-21.1-29-39.9-30.8-26.7 2.7-41.2 32.6-51.5 55-1.2 2.8-2.3 5.6-3.4 8.5-1 2-2 4-3.1 6-2.3 4.7-4 9.3-5.6 14.3-1.8 5.1-4.1 9.9-6.3 14.7-3.5 7.6-6.6 15-9 23-2.3 7.2-4.7 14.4-7.5 21.5-4.1 10.6-7.5 21.4-10.5 32.3-1 3.2-1 3.2-3 7.8-2.5 6.8-3.7 13.6-5 20.7-.9 4.3-2.2 7.7-4 11.7-1 3.3-2 6.7-3 10-.5 1.3-1 2.7-1.5 4.1-1.8 5.9-2.7 11.8-3.7 17.9-.9 4.5-2.3 8.7-3.8 13-1.3 8.4-1.3 8.4 0 11 .8 6.5-1.3 9.7-5 15-.8 1.4-1.6 2.8-2.5 4.2-7.9 11.9-28.7 15.6-42.3 14.9-2.4-.3-4.8-.7-7.2-1.1-1.2-.2-2.4-.4-3.7-.6-6-1.2-9.6-2.4-14.3-6.4-1.3-.6-2.6-1.3-3.9-1.9-6-3.7-10.6-8.1-15.7-12.9-2.8-2.7-5.6-4.9-8.8-7-7.8-5.4-12.4-12.4-17.6-20.2-2.6-3.4-5.3-6.7-8-10-12.7-15.7-12.7-15.7-16.8-22.8-2.3-4-5-7.4-8-10.9-4.8-5.6-8.4-11.5-12-17.8-2-3.1-4-5.7-6.4-8.4-3.8-4.1-6.2-8.2-8.8-13.1l-4-4c-.5-.7-.5-.7-2.8-4.2-3.2-4.8-3.2-4.8-6.6-8.7-3.6-4.1-3.6-4.1-6.5-9.1-4.4-7.1-10.4-12.4-16.3-18.2-4.3-4.3-7.5-8.7-10.8-13.8-.3-.4-.3-.4-1.9-2.4-2.2-2.8-4-5.7-5.9-8.7-6.3-10.4-13.5-19.5-21.4-28.7-3.1-3.6-6-7.4-8.8-11.2-.8-.8-1.7-1.6-2.5-2.5-3.2-3.2-5.8-6.8-8.5-10.5-5.9-7.3-11.8-14-19-20-6.5-6.2-12.8-12.8-18.2-19.9-3.4-3.8-7.1-6.7-11-9.8-5.9-4.8-10.6-10-14.8-16.3-3.5-3.2-6.9-5.5-11-8-1.6-1.3-3.1-2.7-4.6-4.1-5.3-4.9-10.8-9.4-16.4-13.9-3.5-2.8-6.5-5.4-9.3-8.9-2.7-3.1-5.2-5.1-8.5-7.4-5.7-4.3-10.7-9.1-15.7-14.2-9-9.2-17.9-17-29.5-22.5-2.7-2-5.4-4-8-6-1.7-1-3.3-2-5-3-2.1-1.6-4.1-3.3-6.2-4.9-4.6-3.5-9.5-6.6-14.3-9.7q-4.05-2.7-7.8-5.7c-4.4-3.2-8.8-5.4-13.7-7.7-10.8-5.3-10.8-5.3-15.8-8.4-3.9-2.4-7.8-4.4-11.9-6.4-5.3-2.6-10.2-5.3-15.2-8.5-5.2-3.3-10.1-5-16.1-6.7-2.5-1.1-4.9-2.3-7.4-3.4-15.1-7.2-33.7-14-50.6-11.6-3.2 0-6.3-.1-9.5-.2-7.4 0-11.9.8-18.5 4.2q-3.75.9-7.5 1.5c-6 1.1-10.9 2.9-16.5 5.5-3.6 1-7.2 2-10.8 2.9-3.4 1.2-5.5 2.7-8.2 5.1-4.2 2.1-8.5 3.5-13.1 4.8-4.9 1.4-9.1 3.2-13.7 5.6-6.5 3.4-13 5.4-20.1 7.4-6 1.8-11.5 4.4-17.1 7.2-.9.4-1.9.9-2.8 1.4-6.6 3.1-11.1 6.5-16.2 11.6-2.3 1.4-4.6 2.7-7 4-.8.5-.8.5-5 3h-2c-.7 1.3-1.3 2.6-2 4-4 4-4 4-9 7-6.5 4.3-7.6 8.9-10 16-2 2-2 2-6.6 2.5-7.3 2-9.2 5.6-13.4 11.5l-3.6 3.9c-3.5 4.3-5.7 8.4-8 13.4-1.4 2.7-1.4 2.7-3.9 5.6-3.2 4-4.9 8.2-7 12.8-1.3 3-2.8 5.7-4.6 8.5-9 14.9-9 14.9-8.9 22.8 2 2.7 2 2.7 4 5-1.3 6.4-2.7 6-8 9-3.1 4.7-3.2 8-2.7 13.5.6 6.5.8 12.9.6 19.5.1 3 .1 3 1.1 8-.2 2-.5 3.9-.7 5.9-.5 5.5.2 7.8 3.7 12.1-1 4-1 4-3 8-.5 4.6-.4 9.3-.4 13.9-.1 1.3-.1 2.5-.1 3.8-.1 8 1.1 14 4.2 21.3 1.8 4.2 3 8.5 4.2 12.9 2.2 7.3 4.6 14 7.7 20.9 1.9 4.3 3.1 8.7 4.5 13.2 2.1 6.9 4.7 13 8.9 19 1.3 2.7 2.7 5.3 4 8 .8 1.2 1.6 2.5 2.4 3.8 2.7 4.3 4.5 8.7 6.4 13.4 1.2 2.8 1.2 2.8 3.3 6.3 1.7 3.2 2.8 5.9 3.8 9.4 1.8 5.4 4.1 10.2 7.1 15.1 3 5 3 5 3 7 1.7.7 3.3 1.3 5 2 2.2 3.6 2.2 3.6 4.4 8.1 3.3 6.5 6.5 11.6 11.6 16.9 1.4 1.7 2.9 3.4 4.2 5.2.7.8 1.3 1.6 2 2.4 1.8 2.4 1.8 2.4 4.8 7.4l2.3 2.3c6.2 6.2 9.8 13 13.7 20.7 5.8 8.9 12.2 16.9 20.4 23.6 4.1 3.9 4.4 6 5.6 11.4l6 6c.6 1.3 1.3 2.6 1.9 3.9 2.1 4.1 2.1 4.1 5.5 7.5 4.1 4.1 6.6 8.5 9.6 13.6 1.7 2.5 3.4 4.9 5.1 7.3 2.8 3.9 5.3 7.9 7.9 11.9 2 2.8 2 2.8 4.5 5.2 3.1 3.2 4.7 6.6 6.6 10.7 2.1 4.3 4 8 6.9 11.9 1.7 3.3 3.3 6.7 5 10 2.3 4.1 4.6 8 7 12 .5 1.5 1 3.1 1.5 4.6 1.5 4.4 1.5 4.4 4.5 7.4 2 5.5 3.7 10.6 4.8 16.3 1.1 4.5 2.7 8 4.6 12.1 3 6.2 5 11.9 6.6 18.6 1.5 5.8 3 10.9 5.6 16.4 3.1 7.2 3.3 14.7 3.9 22.5.5 5.3 1.5 10.3 2.7 15.5 1.4 6.1 2.2 12.4 3.2 18.6.6 4 .6 4 1.6 7 .2 3.2.3 6.4.4 9.6.3 7.1.8 14 1.7 21.1 1.9 16.8-1 32-4.3 48.4-1.3 6.6-2.2 13.2-2.8 19.9-1.2 13.3-5.5 25.6-9.8 38.2-1.3 4-2.2 8-3.1 12.1-3 13.6-8.8 26-14.4 38.7-1.8 4.2-3.3 8.5-4.8 12.8-2.3 6.9-5.3 12.9-8.9 19.2-.3.9-.3.9-2.1 5.2-1.9 4.8-1.9 4.8-4.3 8.5-5.7 9.4-8.9 20.1-12.3 30.5-1.8 5.2-3.9 10.3-6 15.4-1 2.7-2 5.4-2.9 8.2-1.4 4.2-1.4 4.2-3.8 9.3-2.7 5.8-4.5 11.9-6.4 18.1-1.2 3.8-1.2 3.8-3.3 8.7-1.6 4.4-2.6 8.2-3.5 12.8-2.7 12.9-7.1 25.3-11.3 37.9-3.8 11.7-7.3 23.4-10.1 35.4-.3 1.2-.7 2.4-1 3.7-1.4 7.3-1.3 14.5-1.3 22v45.2c.1 8.9.7 17.5 1.8 26.3.8 6 .8 12.1.7 18.2v3.5c0 5-.2 9.9-.7 14.9-.8 8-.6 16.1-.6 24.1v48c0 16.3.9 32.4 2.5 48.5 1 9.3 1.8 18.6 2.3 28 .8 13.6 2.6 26.2 7.3 39.1 2.7 7.4 4.3 14.8 6 22.5l1.5 6.6c4.3 19.3 4.3 19.3 6.1 28.3 1.1 5.5 3 10.4 5.2 15.6 1.4 3.9 2.3 7.8 3.1 11.9 5 21.7 17 41 28 60.2 3.2 5.5 5.7 11 8.2 16.8 5.7 13 13.4 22.8 24.7 31.4 4.2 3.2 4.2 3.2 6.4 6 1.8 2.2 1.8 2.2 4.5 3.4 4 2.2 6.7 5.2 9.8 8.5 11 10.4 25.9 15 40.7 16.8 4 .7 7.2 2.7 10.8 4.5 6.3 1.6 12.5 3.1 19 2.9 4.7.1 7.8 1.4 12.1 3.3 6.8 3 13.4 5.2 20.6 6.8 3.7 1.1 6.2 2.9 9.3 5 2.1.8 4.3 1.6 6.4 2.4 5.6 2 9.2 4.5 13.6 8.6 2.7 1.4 5.3 2.7 8 4l2.4 2.1c2.6 1.9 2.6 1.9 7.5 3.3 5 1.6 8 3.4 12.1 6.6 1.7 1 3.3 2 5 3 .4.5.4.5 2.2 2.8 3.5 4.1 7.5 7 11.8 10.2 1.1.9 2.1 1.8 3.2 2.8 2.8 2.2 2.8 2.2 5.7 3.5 4.4 2.4 7 5.9 10.1 9.7.7.8 1.3 1.6 2 2.4 2 2.5 3.6 5.1 5.2 7.8 3.1 4.8 6.4 9.2 10 13.6 2.1 2.6 3.9 5.4 5.8 8.2 1.1 1.4 2.2 2.8 3.4 4.2 3.1 4 5.6 8.2 8 12.8 3.9 7.4 8.1 14.7 12.7 21.7 2.2 3.2 4 6.3 5.8 9.7 3.2 5.9 7.1 11.2 11.1 16.6 4.7 6.4 8.5 12.9 12 20 3.6 6.5 7.3 13 11.4 19.2 7.3 11.5 13.5 23.5 19.3 35.7 8.2 17.5 8.2 17.5 14.2 24.2 3.1 4.3 5.2 9.2 7.4 14 5.2 11.1 10.9 20.8 18.7 30.4 4.4 5.6 8 11.7 11.4 17.9 3.2 4.5 6.8 6 11.6 8.6 3 5 3 5 4.6 10.5 3 9.6 9.8 16.7 16.5 24 4 4.6 7.4 9.4 10.7 14.5 4.1 5.7 8.8 9.3 14.7 13.1 7.1 4.5 7.1 4.5 10.3 7.1 2.2 1.8 2.2 1.8 5.7 3.3s3.5 1.5 5.8 3.4c5.4 4.2 12.3 5.9 18.7 8.1l3.3 1.2c14.6 5.1 28.9 9.6 44.1 12.7 4.1 1 7.6 2.2 11.5 3.9 6.2 2.6 11.7 2.6 18.4 2.3 3.7-.1 7 .3 10.7.9 2.7-.3 5.3-.6 8-1 3-.3 6-.7 9-1 18.1-2 34-6.3 51-12.9 4.3-1.6 8.6-2.8 13-4.1 4.7-2.4 8.8-4.8 13-8 2.7-1.4 5.3-2.7 8-4 1.2-.6 2.4-1.2 3.6-1.9 9.2-4.7 18.6-8.7 28.3-12.3 4.1-1.8 4.1-1.8 7.1-4.8 3.9-1.8 6.8-2 11.1-2.2 11.5-.8 24.6-4.9 33.9-11.8 4.6-2.8 8.9-3.6 14.2-4.3 6.7-1.2 13.2-2.9 19.8-4.5 3.9-.9 7.7-1.7 11.6-2.4 4.4-.8 4.4-.8 8.4-2.8 3.7-.7 7.3-1.4 11-2 .5-.2.5-.2 3-1 2.7-.3 5.5-.5 8.2-.7 1.6-.1 3.3-.3 5-.4s3.4-.3 5.2-.4c3.4-.3 6.7-.5 10.1-.8 1.5-.1 3-.2 4.6-.3 3.9-.4 3.9-.4 8.9-1.4 11.6-.7 21.5 2.4 31.8 7.5 3.1 1.5 6.3 2.7 9.6 3.9 6.2 2.3 12.1 5.1 18 8 3.6 1.6 3.6 1.6 7.8 2.6 3.8 1 3.8 1 7.8 4v2c.4.1.4.1 2.4.8 6.1 2.1 11.1 5.7 15.6 10.2 5 3 5 3 9.1 5 3.9 2 3.9 2 7.9 5 1.4.6 2.9 1.3 4.4 1.9 6 2.7 9.6 4.6 13.4 10 3.8 4.9 7.6 6.4 13.2 9.1 2.8 3 2.8 3 5 6 2.8 3.1 5.5 5.4 8.9 7.8 4.1 3.2 4.1 3.2 7 7.2 3.5 4.6 7.3 6.9 12.1 10 1.4 2 2.7 4 4 6 2.6 2.4 5.3 4.7 8 7 5.3 5 9.7 10.1 14 16 2.5 3.3 4.6 5.7 8 8 3 2 3 2 5.4 5 2.6 3 2.6 3 6.5 4.9 4.1 2.1 4.1 2.1 7 5.5 3.9 4.5 7.8 6 13.1 8.6 2.9 2 5.6 4 8.4 6.1 10.7 7.9 22.6 11.9 34.9 16.5 2.9 1.1 5.7 2.3 8.6 3.6 11.3 5 22.4 5.9 34.7 6.1 1.7 0 3.5.1 5.3.1 8.2-.7 13.5-3.5 19.1-9.4 7.4-5 7.4-5 10-5 .2-.9.5-1.8.8-2.7 1.2-3.3 1.2-3.3 4.1-5.7 3.7-3.1 5-6.2 7.1-10.6 3.5-4.6 6-7 11-10 .7-3 1.4-6 2-9 2.3-2.6 2.3-2.6 5-5 3.7-3.8 5.8-6.4 7.5-11.5 1.7-5 4-7.6 7.5-11.5 1.4-2.6 2.7-5.3 4-8 1.3-2 2.6-4 4-6 2.1-3.5 4-6.9 5.9-10.5 2.1-3.8 4.3-7.2 7.1-10.5 3.7-5.3 6.8-10.3 8.8-16.5 2.2-5.5 2.2-5.5 5.1-7.9 8-6.7 11.6-18.9 14.3-28.8.8-2.8.8-2.8 2.8-7.8-.1-2.1-.2-4.3-.4-6.4-.1-12.8 8.4-22.7 15.6-32.7 2.2-3.5 2.9-6.9 3.8-10.9 3-4.9 6.4-9.5 10-14 1-1.7 2-3.3 3-5 5.2-7.6 10.4-14.6 17-21 2.5-2.4 4.8-4.7 6.8-7.5 3.1-3.5 7.1-5.2 11.2-7.5.8-.8 1.6-1.7 2.4-2.5 3.7-3.6 8-5.3 12.6-7.5 1.3-1 2.6-2 4-3 3.6-2.2 7.2-4.2 10.9-6.1 1-.5 2-1 3.1-1.5 5.7-2.6 11-3.7 17.3-4.7 4.6-.9 9.1-2.1 13.7-3.4 10.6-2.7 19.6-4.7 28 3.7 13.2 5.3 26.7 2.1 39-4 1.1-.1 2.3-.2 3.4-.4 3.6-.6 3.6-.6 5.8-2.4 4.1-3.3 8.9-4.4 13.8-6.2 3.3-2 3.3-2 6-4 3.4-2.4 6.4-4.2 10.2-5.9 6.8-3 12.8-6.8 19-10.8 3.8-2.3 3.8-2.3 7.2-3.7 6.6-2.9 12.1-7.2 17.6-11.6 1.7-1 3.3-2 5-3 2.3-2 4.7-4 7-6 4.9-4 9.8-7.9 14.8-11.7 3.4-2.6 6.2-5.3 9.2-8.3 10.9-10.7 10.9-10.7 17.9-14.2 5.2-2.9 7-4.9 10.1-9.8 1.7-1.3 3.3-2.7 5-4 .5-.6.5-.6 3.1-3.6 3.9-4.4 7.9-8.1 12.3-11.9 3.4-3.3 6.5-6.9 9.6-10.5 1.6-1.4 3.3-2.7 5-4l5-5c1.1-1 2.2-2.1 3.3-3.2 6.2-6 11.6-11.6 15.9-19 4.1-6.5 9.3-13.1 15.4-17.8 2.7-2.3 4.6-4.6 6.6-7.5 4.7-6.4 4.7-6.4 7-9.3 6.7-8.6 12.2-17.8 17.8-27.2 1-1.7 2.1-3.4 3.1-5.1 3.3-5.5 6.4-11.1 9.5-16.7 2.3-4.1 4.7-8 7.2-12 4.6-7.7 8.1-15.4 11.4-23.7 4.6-11.1 9.8-22 15.8-32.5 1.3-3.3 2.7-6.7 4-10 .8-1.7 1.7-3.3 2.6-5 2.4-5 2.4-5 3.8-9.9 1.6-5.1 3.7-9.4 6.2-14.2 2-4.1 3.1-8.5 4.4-12.9 1.7-3.3 3.3-6.7 5-10 .3-1.2.6-2.5.9-3.8 1-3.8 2.3-7 3.9-10.6 3-6.8 5-13.6 6.8-20.8 2-6.8 4.4-13.5 6.8-20.2 1.7-4.9 3.2-9.8 4.7-14.8.9-2.6 1.9-5.3 2.9-7.9 1.8-4.7 2.7-9.4 3.7-14.3 2.2-11 5.7-21.5 9.2-32.1 1.3-4.1 2.6-8.2 3.7-12.3 1.4-5.2 1.4-5.2 3-9.2 1.7-4.8 2.5-9.5 3.4-14.5 1.1-6.5 2.7-12.3 5-18.5.7-3.3 1.3-6.6 1.9-9.9 1.5-8.5 3-17 4.7-25.4.2-1 .4-2.1.6-3.1 3.1-15.3 3.1-15.3 4.9-21.2.9-3.6 1.4-7 1.8-10.6.7-6 1.7-11.8 3-17.6 1.8-7.9 2.8-15.6 3.6-23.6 1-9.8 2.4-19.3 4.5-28.9 2.2-10.4 3.3-20.5 3.4-31.1V1540c0-4 .1-7.9.1-11.8.1-13.6-.8-25.4-4.4-38.5-1.7-7.3-1.7-14.2-1.5-21.6 0-.7 0-.7.1-4.2.1-11.8.4-23.3 3.5-34.8 1.2-4.7 1.7-9.4 2.3-14.1 2.1-15.9 4.9-32.3 10-47.5 1.6-4.9 2.7-9.6 3.7-14.6.3-1.7.7-3.4 1-5.2 1.2-7.2 1.7-10.3-2.2-16.7-.7-3-1.3-6-2-9-.8-2.6-1.6-5.1-2.4-7.7-1.7-5.2-3.1-10.3-4.2-15.6-1.2-6.2-3.1-11.9-5.4-17.7-.5-1.3-1-2.6-1.5-4-3.8-9.8-7.7-19.5-11.6-29.2l-3.6-9c-2.2-5.6-4.4-11.2-7-16.6-2.2-5-3.7-9.9-5.3-15.2-1.4-3.6-2.8-7.1-4.3-10.7-2.6-6.6-5.1-13.3-7.7-20.1q-2.7-7.05-5.7-14.1c-1.3-3.2-2.6-6.3-3.9-9.5-1-2.2-1.9-4.4-2.8-6.6-.4-1.1-.9-2.2-1.3-3.3-2.3-5.5-4.8-10.7-7.9-15.8-3.4-5.6-5.8-11.4-8.1-17.6-3.9-10.1-8.3-19.9-13.1-29.6s-8.8-19.4-12.2-29.7c-1.4-3.3-2.8-6.7-4.3-10-3.5-8-6.6-16.1-9.4-24.3-1.3-3.7-1.3-3.7-2.9-7.3-1.4-3.4-1.4-3.4-2.6-8.8-4.7-19.1-15.8-37.2-25-54.4-7.9-15.1-14.6-30.5-21-46.3-2.6-6.5-5.3-13-8-19.5-.5-1-.9-2-1.3-3-1.8-4.4-3.7-8.8-5.5-13.1-3.2-7.7-6.2-15.4-8.7-23.3-1.1-3.4-2.3-6.7-3.6-10-3.4-8.6-6.2-17.4-9-26.2-2.3-6.8-4.7-13.3-7.7-19.8l-3-9c-1.3-3.2-2.6-6.3-3.9-9.4-3.2-8.1-5.8-16.1-8-24.6-1.1-4.1-2.6-8-4.1-12-5.3-14.5-9.8-29-13.4-43.9-1.4-5.5-3-11-4.7-16.4-14.7-49.6-14.7-49.6-15.1-62.8-1-16.2-5.1-32.2-8.9-47.9-1-4.3-1.7-8.6-2.5-13-1-5.9-2.4-11.3-4.4-17-1-4.3-2-8.7-2.9-13-1.1-5-2.3-9.9-3.6-14.8-4-16.8-6.3-34.1-7.2-51.3-.3-2.9-.3-2.9-1.3-5.9-.2-6.5-.2-6.5 1-9-.4-11.3-2.4-22-5-33-.3-1.2-.6-2.5-.9-3.8-2.2-9.1-4.7-18.3-7.2-27.4-.4-1.3-.7-2.5-1.1-3.9-.3-1.2-.7-2.4-1-3.6l-.9-3.3c-.8-2.7-1.8-5.4-2.9-8-.6-2.3-1.1-4.7-1.6-7-2.6-10.4-6.5-20.1-10.4-30-1-2.6-1.9-5.2-2.9-7.9-5.7-15.2-12.2-29.8-20-44.1-2.1-4.1-3.9-8.2-5.6-12.6-3.4-8.6-7.8-16.4-12.5-24.4-.4-.7-.4-.7-2.5-4.3-10-17.2-20.8-33-33.5-48.3-3-3.6-5.9-7.2-8.5-11.2-11.4-17.3-24.6-34.8-39.5-49.2-.8-.9-1.7-1.7-2.6-2.6-2.4-2.4-2.4-2.4-5.7-5.1-3.7-3.3-6.6-6.8-9.7-10.8-7.7-9.6-16.9-17.2-28-22.5-.8-.6-1.5-1.3-2.3-1.9-2.9-2.3-5.9-3.8-9.2-5.5-5.1-2.6-7.9-5.2-11.5-9.6-6.4-2.8-12.9-3.7-19.8-4.6-2.7-.3-5.5-.9-8.2-1.4-9.6-.4-19.9 0-29 3-2.1.1-4.2.1-6.3.2-14.4.9-28.9 5.2-41.7 11.8-1.1.5-2.2 1-3.3 1.4-9.6 4.4-16.9 10.5-24.7 17.6-7.8 7-7.8 7-10 7-.7 1.3-1.3 2.6-2 4-.9.7-1.8 1.4-2.7 2.2-4.1 3.5-7 7.5-10.3 11.8l-5 5c-6 6.5-10.8 12.9-14.5 20.9-3.5 7.3-7.8 15.3-13.5 21.1-1.3-.3-2.6-.7-4-1-2.1-9.4 3.9-15.7 9-23 1.1-1.8 2.2-3.7 3.3-5.6 2.1-3.4 4.2-6.3 6.7-9.4 2.5-3.6 4.9-7.1 7.4-10.7 2.6-3.3 5.1-5.1 8.6-7.3.9-1.3 1.9-2.6 2.8-3.9 3.6-4.6 7.3-6.9 12.2-10.1 2.7-2.6 5.4-5.3 8-8 9.4-9.6 18.8-15.9 31.2-20.8 2.8-1.2 2.8-1.2 7.8-4.2 3.1-.8 3.1-.8 6.4-1.4 5-1 9.7-2.2 14.5-3.8 6.4-1.9 12-2 18.7-1.7 3.4-.1 3.4-.1 8.3-1.6 15.3-4.5 43.1-2.8 55.1 8.5m-153.8 494.2c-7.3 2.1-14.7 3.9-22.1 5.6-1.9.4-3.7.8-5.6 1.2-5.5 1-5.5 1-11.3 1.5-13.6 1.3-25.4 9.2-37.2 15.5-1.4.7-2.9 1.5-4.4 2.2-1.3.7-2.6 1.4-4 2.1-.6.3-.6.3-3.5 1.8-3.1 1.9-3.1 1.9-5.7 4.5s-4.6 3.5-8 4.8c-5.3 2-9.8 4.6-14.5 7.7-3.2 2.1-6.4 4-9.7 6-13.2 8.1-13.2 8.1-13.2 11.9-.8.3-.8.3-5 2-1.9 1-3.7 1.9-5.6 2.9-.9.5-1.8 1-2.8 1.6-2.6 1.5-2.6 1.5-6.6 4.5l-2.7 1.2c-3.6 2-6.6 4.4-9.7 7-2.8 2-5.7 3.4-8.8 4.9-6 2.9-10.5 5.4-13.6 11.5-3 4.6-6.2 5.2-11.2 7.4-7.7 5.5-14.4 11.1-18 20-1.1.5-2.2 1-3.4 1.5-6.9 3.8-11.4 9.6-16.6 15.5l-7 7c-1.2 1.4-2.4 2.7-3.6 4.1-3.4 3.9-3.4 3.9-6.4 6.3-3.5 3-5.8 6.4-8.4 10.3-1.9 2.7-4.2 4.9-6.6 7.3-8.6 10.9-16.5 22.7-23 35-2.7 4.9-5.4 9.7-8.2 14.6-.5.9-1.1 1.9-1.7 2.9-1.1 1.9-2.2 3.9-3.4 5.9-3.4 6-6.2 12.1-8.7 18.6-.9 1.5-1.8 3-2.8 4.5-2.2 4.5-2.2 4.5-2.2 9.8 0 5.8-.7 5.5-5 8.7-3 7-5 14.3-7 21.6-1.4 4.9-3.2 9.6-5 14.4-2 6.1-3.8 12.3-5.5 18.6-1.4 4.9-2.9 9.7-4.6 14.6-1.1 3.6-2 7.2-2.9 10.8-.4 1-.7 2-1.1 3.1-1.6 5.2-1.9 9.8-1.8 15.3-.1 5.6-.1 5.6-1.5 9.6-2 6.2-2.7 12.3-3.5 18.8-1.4 10.5-3.1 20.7-5.3 31-1 5.4-1.4 10.7-1.8 16.2-.3.7-.7 1.3-1 2-.3 2.3-.5 4.5-.6 6.8-.2 1.4-.3 2.7-.4 4.2-.2 2.9-.5 5.8-.7 8.7-.8 8.4-2.1 16.1-4.3 24.3-.4 2.6-.8 5.2-1.1 7.8-.9 8.2-.9 8.2-1.4 11.7-1.3 9.6-1.6 18.8-1.4 28.4.1 12.6-.6 24.7-2.3 37.2-2 15.2-1.9 30.1-1.7 45.4.1 8.8-.2 16.9-2.1 25.5-.2 2.6-.4 5.3-.6 7.9-.2 4-.4 7.3-1.4 11.1-.2 5.1-.2 10.3-.2 15.4v4.2c0 7.8.3 15.5 1.2 23.2.8 8.3 1.3 16.5 1.5 24.8 0 1.1.1 2.3.1 3.5.1 4.9.2 9.7.4 14.5.3 15.7 1.7 30.1 5 45.4.6 3.5 1 7.1 1.4 10.6 1.2 8.6 3.1 16.7 5.4 25 1.1 4 2 8 2.8 12.1.8 3.9 1.5 6.5 3.4 10.1 2.7 5.6 3.3 11.1 4.1 17.2 1 4.2 2.3 6.5 4.9 10 2.4 4.5 4.3 9.1 6.1 13.9.5 1.4 1 2.7 1.5 4.1 1.8 5.1 3.3 9.9 3.8 15.2 1.3 10.7 4 24.7 12.6 31.8 1 1.1 1.9 2.1 2.9 3.2 6.8 6.2 15.9 6.3 24.5 3.8 3.3-1.3 6.4-2.6 9.6-4 1.2-.5 2.3-.9 3.5-1.4 13.5-6.3 20-18.1 22.5-32.3 1-5.3 1-5.3 3.9-10.1 5.1-8.6 5.1-19.4 6.1-29.2.9-7.2 2.5-13.8 4.9-20.7 4.3-13 5.7-25.9 6.6-39.4 1.9-27.5 6-54.7 11.4-81.7 1.5-7.7 2.5-15.1 3-22.9.7-10.1 3-19.4 5.6-29.1 2.3-8.5 3.2-16.5 3.3-25.3.3-5.4 1.5-9.7 3.2-14.9.5-1.8.9-3.5 1.4-5.3 1.5-5.3 3-10.6 4.5-15.8.8-2.8 1.5-5.6 2.3-8.4 2.1-7.8 4.4-15.1 7.6-22.4 1.9-5 3-10.1 4.2-15.2 3.2-12.7 8.2-24.9 13.6-36.7 2.4-5.2 2.4-5.2 4.2-10.1 1.8-4.1 3.5-7.3 5.9-11 3.4-5.4 6.2-11 8.9-16.8 3.3-7.1 6.6-13.1 11.4-19.3 1.7-2.2 3.3-4.3 5-6.5.9-1.1 1.7-2.2 2.6-3.3 2.1-2.8 4.1-5.6 6.1-8.5 3.3-4.7 3.3-4.7 6.9-8.8s6.4-8.3 9.4-12.9c6.1-8.9 12.9-16.9 20-25 1.2-1.4 2.3-2.8 3.5-4.2 4-4.3 8.3-8.2 12.6-12.2 4.3-3.9 8.4-8 12.4-12.3 2.9-2.7 6.1-4.3 9.5-6.3.4-.4.4-.4 2.2-2.4 2.9-2.7 4.9-3.5 8.5-4.8 4.6-1.8 7.7-3.8 11.2-7.2 4.6-4.5 9.2-6.8 15.1-9.3 3.9-1.7 7.4-4 11-6.3 2.3-1 4.7-2 7-3 .8-.4.8-.4 4.6-2.4 6.2-3.1 12.8-5.4 19.4-7.6 1.3-.5 2.7-.9 4-1.4 8.2-2.7 15.4-4.2 24-4.6 1-.3 2-.7 3-1 2.2-.2 4.5-.4 6.8-.5 1.3-.1 2.7-.2 4-.3 1.5 0 2.9-.1 4.3-.2 2.8-.2 5.6-.3 8.3-.5 1.4-.1 2.7-.2 4-.2 2.9-.2 5.8-.6 8.7-1 4.2-.3 6.8.5 10.9 1.7 3.9.1 7.7.1 11.6 0 10.6-.3 10.6-.3 14.6 1.1 4.1 1.3 7.5.5 11.8-.1.7-.1.7-.1 4.4-.3 11.7-1 21.7-3.6 32.6-7.7 1.5-.5 2.9-1 4.4-1.4 8.4-2.9 13.3-5.2 18.6-12.6 1.6-1.9 3.1-3.8 4.7-5.7 1.4-1.8 2.9-3.5 4.3-5.3.6-.7 1.3-1.4 1.9-2.1 3.2-4.5 5.6-9.3 8.1-14.2.3-.5.3-.5 1.6-3.1 1-1.9 2-3.9 3-5.9 1.2-2.3 2.4-4.7 3.7-7 1.6-3.4 2.5-6.3 3.3-9.9.9-4.3 1.9-8.5 3-12.7 3.8-15 3-31.4 1.2-46.7-.1-.5-.1-.5-.4-3.4-2.4-19.1-7.8-38.3-15.4-56-.9-2.8-1.9-5.5-2.8-8.3-6.1-18.7-12.9-35.2-25.2-50.7-1.1-1.7-2.2-3.5-3.3-5.2-7.9-12.6-17.1-23.6-28.7-32.8l-5-5c-6.1-6-12.3-10.7-19.7-15-2.1-1.3-4.2-2.6-6.3-4-8-5.3-16.4-8.7-25.3-12.2-3.7-1.4-7.2-2.9-10.7-4.6-13.1-5.8-23.5-6.7-37.7-6.7-8.2-.1-15-.9-22.6-3.6-5.3-1.7-9.4-.2-14.5 1.3M2203 1833c-.9.2-.9.2-5.4.9-7.4 1.4-13.3 4.1-19.6 8.1v2c-.8.2-1.6.5-2.4.7-7.2 2.6-13 7.2-17.6 13.3-1.7 1-3.3 2-5 3-5.5 4.8-10.3 10.8-11.9 18-1.1 3-1.1 3-5 3.8-1.3.1-2.7.1-4.1.2-8.3 4.1-10.3 14.5-12.2 23.1-1.3 4.9-3.6 9.3-5.8 13.9-.5 1.4-.9 2.8-1.4 4.2-1.9 5.8-4.4 11.3-6.9 17-2.6 5.7-4.9 11.6-7.1 17.5-3.8 9.5-8.2 18.4-13 27.3-2.7 5.2-5 10.5-7.3 15.9-3.3 7.8-6.8 15-11.3 22.1-8.3 13.7-8.3 13.7-11.6 20.1-5.1 10.3-11.6 19.8-18 29.3-2 3-3.9 6.1-5.8 9.2-3.7 5.9-8.2 11-12.8 16.2-1.7 1.9-3.3 3.8-4.9 5.8-1.9 2.4-1.9 2.4-4.3 4.8-3.1 3.1-5.8 6.5-8.6 10-.5.6-.5.6-3.1 3.8-1.9 2.5-3.8 5-5.6 7.6-3.8 5.3-8.4 9.1-13.3 13.2l-2.5 2.5c-2.5 2.5-2.5 2.5-5.4 4.8-3.1 2.7-3.1 2.7-5.7 6.3-3.8 4.9-7.9 8.7-12.5 12.7-3.6 3.3-6.7 7-9.9 10.7-5.3 5.7-10.1 9.4-17 13-2.7 2-5 4-7.4 6.4-2.8 2.8-5.6 5.1-8.6 7.6-2.1 2.1-4.3 4.3-6.3 6.4-2.9 2.8-5.9 5.2-9.1 7.6-11.9 9-11.9 9-14.6 13-2.3 1.4-4.6 2.7-7 4-1.9 1.1-3.9 2.3-5.8 3.4-3.9 2.3-7.7 4.4-11.8 6.4-4.4 2.2-4.4 2.2-7.4 5.2-3.3 1.7-6.7 3.3-10 5-.9.6-1.9 1.3-2.9 1.9-3.8 2.6-7.9 4.5-12 6.5-2.8 1.4-5.5 3-8.1 4.7-20.3 11.9-45.2 15.7-68.4 13.3-5.3-.4-7.5-.5-11.6 2.6-2 3-2 3-2 9 .3.4.3.4 2 2.2 3.1 4.3 2.1 8.6 2 13.8.7 1.3 1.3 2.6 2 4 .3 1.4.5 2.8.8 4.2 1.3 5.2 3.3 8.4 6.2 12.8l3 6 2 2c.1.8.1.8.9 4.6 1.1 5.2 2.7 8.8 5.1 13.4.5 1.5.9 3 1.4 4.5 2 5.6 4.3 10.7 9 14.4 3.8 3.1 6 7 8.6 11.1 3.9 3.9 4.9 4.1 10.4 3.7 5.9.4 5.6 1.5 8.6 6.3 11.5 6.9 21 8.3 34 7 1.3.7 2.6 1.3 4 2h4.9c4.6 0 6.9.6 11.1 2 11 1.1 22.5-.3 32-6 2-1 4-1.9 5.9-2.9 3.5-1.7 6.1-3.1 9-5.7 4-3.1 8.2-4.4 12.9-6.1 6.1-2.5 10.6-5.7 15.2-10.3 3.5-3.1 7-6.1 10.5-9.2 5.3-4.6 9.9-9.5 14.5-14.8 1.8-1.8 3.6-3.6 5.4-5.3 4.4-4.4 8.3-8.9 12.2-13.8 3.7-4.5 7.7-8.7 11.6-12.9 4.8-5.2 9.4-10.5 13.8-16.1 2.4-3.1 4.6-5.4 7.6-8 3.4-2.9 3.4-2.9 5.9-6.8 4.2-6.6 9.9-11.7 15.4-17.2 6.6-6.4 13.1-12.9 19.1-19.9 2.6-2.4 5.3-4.7 8-7 .9-.9 1.8-1.8 2.7-2.8 2.3-2.2 2.3-2.2 7.3-5.2.4-.4.4-.4 2.2-2.4 3.1-2.9 6-3.8 9.9-5.2 3.6-1.7 6.4-3.9 9.6-6.2 5.9-4.4 11.8-7.5 18.5-10.5 3.8-1.7 7.4-3.7 11-5.8 15.7-8.3 30.8-10.7 48.2-11.6 5.6-.3 5.6-.3 9.6-1.3 4.1-.1 8.2-.1 12.4-.1h3.4c8.5 0 8.5 0 12 .6 4 .6 7.8.7 11.8.8 1.7.1 3.4.1 5.1.1 7.2.2 14.4.4 21.6.5l11.4.3c15.9.3 29.8-2.6 44.3-9.2 7-3 7-3 9.9-4 17.8-6.8 25.7-26 29-43.8.3-12.5-2.3-24.3-5.9-36.2-.4-1.3-.8-2.7-1.2-4.1-5.9-18.3-19.4-34.3-38.8-38.9-9.7.3-16.6 6.8-22.1 14.3-2.9 3.7-2.9 3.7-7.9 4.7 2.4-12.2 17-22.3 27-29h7c.9-.3 1.8-.6 2.8-.9 3.2-1.1 3.2-1.1 8.4-1.5 5.8-.6 5.8-.6 10.6-2.1 4.5-1.3 7.8-1.7 12.5-1.8 8-.4 13.8-2.9 20.7-6.7 1.1-.5 2.1-1.1 3.2-1.6 12.3-6.5 22.1-18.8 23-33.2.2-8.8-.2-15.2-4.2-23.2-1-2.3-2-4.5-2.9-6.8-.5-1.2-1.1-2.4-1.6-3.6-1.5-3.5-2.8-7-4.1-10.6-6.8-17.7-25.4-27.6-43.6-30.7-9.6-.7-19.5 3.2-28.8 5.7-7.4 2-14.6 3.5-22.2 4.5-7 1.3-8.7 5.2-11.9 11-1.9 2.5-1.9 2.5-6.9 4.5 4.8-16.5 17.8-30.3 32.6-38.2 13.3-7.1 24.7-18.4 25.6-34.2-.2-3.7-1-6.2-2.2-9.6-.3-1.4-.5-2.8-.8-4.3-4.9-19.3-23.6-31.2-41.2-37.7-1.8-.8-3.5-1.5-5.4-2.3-13.9-4.2-33-2.6-46.6 2.3"/><path fill="#6b7d8c" d="M594.25 809.813h4.1c8.1 0 15.6.7 23.7 2.2 2.9.2 5.8.3 8.7.4 10.3.4 20 2.4 29.5 6.3 4.3 1.5 8 1.3 12.5 1.1 4.7.3 8.9 1.6 13.4 3 4.4 1.3 8.7 2.5 13.2 3.7 6.2 1.7 11.9 3.6 17.7 6.5.6.3.6.3 3.7 1.8 7.5 3.6 14.4 7.5 21.3 12.2 7.1 4.4 14.4 8.3 22 12 6.8 3.5 12.8 7.3 19 12q2.85 1.5 6 3c10.7 6.2 19.8 13.7 29 22 1.4 1.2 2.8 2.4 4.3 3.6 3.8 3.6 7 7.4 10.2 11.4 4.3 5.2 8.9 10.1 13.5 15 10.4 11.4 20.5 23.1 30.1 35.2 2.4 3 4.9 5.9 7.5 8.8 3.5 4.2 6.4 8.5 9.4 13 1.6 2.2 3.3 4.3 5 6.5 3.9 5 7.5 10.2 11 15.5 1.3 1.7 2.6 3.3 4 5 3.7 5.4 7.1 11 10.6 16.6 2.2 3.2 4.5 5.7 7.4 8.4 4.5 4.8 7.6 9.6 10.6 15.4 1.3 2.6 1.3 2.6 3.4 5.5 2.3 3.7 3.8 7.6 5.5 11.6 5.4 12.9 11.5 23.5 21.5 33.5 6.5 12.1 11.3 24.3 14.2 37.7 2 8.3 6 15.7 9.8 23.3 8.6 18.3 15.8 35.8 19 56 .6 1.6 1.3 3.3 2 5 .1 2 .3 4.1.3 6.1.3 4.6 1 8.4 2.7 12.6 1.9 5.1 2.4 9 3 14.3.6 2.6 1.3 5.1 2.1 7.7 1.5 5.7 2.7 11.5 3.9 17.3 1 4 1 4 3 8 .5 3.8 1 7.5 1.4 11.3.8 6.4 1.7 12.5 3.6 18.7.1 2.1.3 4.2.3 6.2.6 10.5 3.1 20.7 5.7 30.8.8 9.4 1.1 18.8 1.2 28.2.3 13.2 1.1 25.8 3.8 38.8 2 13.7 2.3 27.6 1.1 41.4-.2 3.7 0 7.3.3 11 .6 8.8.7 17.5.7 26.2v11.9c-.2 3.6-.6 7-1.1 10.5 0 2.7 0 5.5.1 8.2.1 7.8-1.2 12.7-4.1 19.8-.5 2.1-1 4.2-1.4 6.4-3 13.6-10.2 21.7-20.6 30.6-.6.6-.6.6-3.4 3.5-2.8 2.6-5.2 3.9-8.6 5.5-1.4.8-2.7 1.7-4.1 2.6-8.4 5.1-15.5 4.8-25 4.8-1.5.1-2.9.1-4.4.1-9.5.1-16-1.4-24.5-5.5-1.8-.4-3.6-.9-5.4-1.3-7.3-2.2-13.2-5.8-19.6-9.7-1.4-.8-2.8-1.5-4.2-2.3-4.7-3.3-8.4-7.1-12.2-11.2-2.6-2.5-2.6-2.5-7.6-5.5-1.5-2-2.8-4-4-6-1.4-1.7-2.7-3.4-4-5-1.8-2.3-3.6-4.6-5.4-6.8-3-4-6.1-7.7-9.5-11.5-3.7-4.3-6.3-8.8-9.1-13.7-4-5.3-6.6-5.6-13-5-4.7 4.7-4.6 5-3 11 .9 1.6 1.9 3.3 3 5 1 2.6 2 5.3 3 8 .5 1.3 1.1 2.5 1.7 3.9 2.1 4.6 4 9.3 5.9 14.1.3.7.3.7 1.8 4.5 1.5 4.5 2.6 8.9 3.6 13.5.2.7.2.7 1.3 4.1 1.8 5.4 3.3 10.9 4.7 16.4.9 3.5.9 3.5 3 8.5.4 2.9.7 5.9 1 8.9 1.6 15.3 1.6 15.3 4 20.1.4 2.9.4 2.9.6 6.2.1 1.2.2 2.5.2 3.7.1 1.3.2 2.5.3 3.8s.1 2.5.2 3.8c.3 3.5.5 7 .7 10.5 0 1.5.1 2.9.2 4.4-.3 4.1-1.4 6.9-3.1 10.5-2.5 5.4-4 10.3-5.1 16.1-4.1 11.8-9.5 17.9-19.7 24.7-7.3 4.9-13.6 10.3-19.3 17-4.8 5.4-9.6 8-16 11.3-2.4 2-4.7 4-7 6-2.7 1.3-5.4 2.7-8 4-1 .8-1.9 1.6-2.9 2.4-2.9 2.4-5.6 4-8.9 5.8-5.2 2.8-5.2 2.8-7.2 4.8-5-.4-9.6-1.9-14-4 .3-1.3.6-2.7 1-4 3.4-1 6.8-1.1 10.4-1.3 4.9-.8 7.4-2 11.6-4.7.8-.5 1.6-1 2.5-1.4 5.9-3.4 10-5.8 10.9-13-2.9-7.3-11.8-9.9-18.6-12.9-9.7-5.4-15.4-14.6-21.6-23.6-2.3-3.1-2.3-3.1-6.2-7.1-10.1-30.3-12.3-68.1 9-94 2.2-2.4 4.5-4.8 7-7 .8-.8 1.6-1.7 2.4-2.5.9-.8 1.7-1.7 2.6-2.5.5-.6.5-.6 3.1-3.3 15.8-15.3 29.9-18.3 51.9-14.7q1.35 1.5 3 3c3.5 1.2 6.2 1.3 10 1 4.4-4.5 4.7-5.1 4-11-2-5.3-3-6-8-9-.4-3.3-.8-6.7-1-10-2.3-4.3-4.1-6-8-9 0-1.8.1-3.6.1-5.5.3-7.5-2.7-11.7-7.1-17.5-1.2-1.6-2.3-3.2-3.4-4.9l-3.6-5.1c-8.3-11.9-8.3-11.9-11.7-17.3-2.7-4.3-6-7.9-9.3-11.7-1.4-2-2.7-4-4-6q-3.45-3.6-7.2-6.9c-5.3-5-8.5-9.8-11.5-16.4-1.6-3.3-3.7-5.3-6.3-7.7-1.4-2-2.7-4-4-6-2.4-2.7-4.7-5.4-7-8-1.1-1.4-2.1-2.8-3.2-4.3-2.8-3.7-2.8-3.7-5.4-5.6-3.8-3.3-5.3-7.6-7.4-12.1-6.3-10-14.4-18.5-22.4-27.1-2.2-2.4-4.4-4.9-6.5-7.3-1.8-2.1-3.6-4.1-5.5-6-2.7-2.7-5.3-5.5-7.8-8.3-13.3-14.5-13.3-14.5-19.5-18.9-4.2-3-7.1-6.5-10.3-10.4-6-6.2-12.3-11.6-19-17-1.1-.9-2.2-1.9-3.4-2.8-2.6-2.2-2.6-2.2-5.4-4-3.2-2.2-3.2-2.2-7.8-6-3.9-3.1-7.9-5.8-12.3-8.3-4.7-2.9-7.6-5.6-11.1-9.9-3.7-2.2-7.3-4.1-11-6-.6-.3-.6-.3-3.4-1.8-6.6-3.4-12.9-6.1-20-8.1-3.7-1.1-3.7-1.1-8.2-2.9-18.4-7.1-38.1-9-54.9 3.3-5.3 3.7-11.2 5.5-17.4 7.6-4.2 1.9-6 3.6-9.1 6.9-2.4 1.3-4.8 2.6-7.2 3.7-10.8 5.7-18.4 11.1-23.8 22.3-1.1 1.4-2.2 2.8-3.2 4.3-2.9 4.7-3.6 8.3-4.3 13.7-.7 4-2.5 7.4-4.2 11-3.9 8.7-5.5 18.2-6.8 27.5-.9 5.5-2.2 10.9-3.5 16.3-.4 1.4-.7 2.8-1 4.2-.4 1.4-.7 2.8-1.1 4.2-1.1 5.7-1.9 11.4-2.5 17.2-.1 1.2-.3 2.4-.4 3.6-1.5 14.3-2.2 28.8-2 43.2-.1 6.2-1.1 11.6-2.5 17.6-1.2 9.3.9 18.6 2.5 27.7 1 6.1 1.9 12.1 2.5 18.3.4 4.4 1.1 8.1 2.4 12.2 1.7 5.7 2.9 11.2 4.1 17 3.4 14.5 3.4 14.5 6 21 .2 1.7.4 3.4.7 5.2 2.1 13 7.3 25.3 12.7 37.2q1.95 4.5 3.6 9c2.2 5.2 4.9 9.8 8 14.6.3.6.3.6 2.1 3.4 3.2 5.1 6.4 10 10 14.6 2.4 3.4 4.3 6.6 6.2 10.2 5.4 10.3 12.3 18.7 20.7 26.8l2.4 3c4.2 5 9.2 8.9 14.2 12.9 3.4 3.1 3.4 3.1 5.6 7 3.2 4.7 6.3 6.5 11.1 9.3 2.7 1.8 2.7 1.8 5.5 5.7 3.7 4.8 7.6 7 12.8 10 5.2 3.2 9.7 7.1 14.4 11.1 5.9 4.8 11.9 8 19 11 1.4.6 2.9 1.3 4.4 1.9 7.3 3.2 14.4 6.2 22 8.4 5.6 1.7 5.6 1.7 9.6 4.7 10.5 3.8 20.7 6.7 32 7 1.4 0 2.8.1 4.3.2 12.1.3 12.1.3 16.7-4.2 0-7.1-3.3-11.1-7.9-16.2-3.8-4.6-6.5-9.5-9.1-14.8-.4-.6-.4-.6-2-3.8-10.9-20.9-14.6-42.9-18.5-66-.4-2.4-1-4.8-1.5-7.2-.3-6.4-.4-12.7-.5-19.1 0-2.1 0-4.2-.1-6.3-.3-13.4 1-24.2 6.6-36.6.8-2.9 1.5-5.9 2.2-8.8 2.7-10.3 7.6-19 12.8-28.2.3-.7.3-.7 2.1-4.3 4.6-9.1 10.1-16.6 18.3-22.7 5.4-4 10-8.2 14.4-13.3 5-4.5 10.3-7 16.3-9.9 3.9-1.8 3.9-1.8 8.2-4.6 3.7-2.2 3.7-2.2 8.8-4.3 4.9-1.9 4.9-1.9 7.2-3.9 12.2-9.3 38.4-6.1 51.7-1 1 4 1 4-1 6-9.2.3-18.4-.1-27.4-1.9-10.2-.3-19.2 4.4-27.6 9.9-1.9.8-3.7 1.6-5.6 2.3-11.9 4.8-20.8 9.1-28.4 19.7-5.1 4.2-10.5 8-16 11.5-5.1 4.4-7.6 8.9-10.6 14.9-.2.5-.2.5-1.6 3.2-1.1 2.1-2.2 4.3-3.3 6.4-1.4 2.6-2.8 5.2-4.2 7.7-4.3 8.1-5.6 13-5.3 22.3-1.4 2.9-2.9 5.5-4.6 8.3-3.4 6.3-3.9 12.7-2.4 19.7.8 4.1 1 5.9 0 10-.6 16-.1 31.5 4 47 .3 2 .5 4 .8 6 1.9 12.1 5.4 23.2 10 34.5.4 1 .8 2 1.2 3.1 2.7 6.5 5.7 10.6 11 15.4l6 9c2.6 3.3 5.4 6.4 8.4 9.4 2.6 2.6 2.6 2.6 5.6 6.6 4.4 4.4 7.9 5.9 13.8 7.9 3.2 1.1 3.2 1.1 6 2.8 8.9 3.7 26.2-.4 34.2-5.7 2.9-.1 6-.1 9 0-1.6 7.7-7.2 8.3-14 11-3.9 1.2-3.9 1.2-8 2-1 .2-1.9.4-2.9.6-8.8 1.5-17.5 1.5-26.4 1.2-1.2 0-2.4-.1-3.6-.1-8.5-.3-15.9-1.7-23.9-4.8-3.9-1.1-7.5-1.4-11.6-1.6-.8 0-.8 0-4.9-.3-3.4-.2-6.8-.4-10.1-.6-14.1-1-26.2-4.3-39.2-9.8-5.5-2.4-11-4.6-16.6-6.6-7.6-2.8-14.7-6.3-21.8-10-1.1-.5-2.1-1-3.1-1.5-3.1-1.6-5.6-3.5-8.3-5.8-1-.8-1.9-1.5-2.9-2.4-2.4-2-4.7-4.1-7.1-6.2-3.6-3.1-3.6-3.1-6.5-4.5-7.9-4-13.2-9.5-18.1-16.6-1-.5-1.9-1-2.9-1.4-4.5-2.3-7-5.8-10.1-9.6l-5-5c-4.2-4.1-8.2-8.3-12.1-12.5-.6-.7-.6-.7-3.7-3.9-1.9-2.1-3.7-4.2-5.5-6.4-1.7-2.2-1.7-2.2-4.7-4.5-3.6-3.2-5.6-6.5-8-10.7-1-1.5-1.9-3.1-2.9-4.6-2.4-4.1-4.8-8.3-7.1-12.4-8.9-15.5-8.9-15.5-13-20.8-15.1-20.7-22.7-48.9-27.4-73.9-.6-3.3-.6-3.3-2.2-8.4-1.4-4.9-2.2-9.5-2.8-14.5-.6-3.4-.6-3.4-2.1-7.7-1.6-4.8-2.4-9.3-3.1-14.3-.2-1.9-.4-3.7-.7-5.6-.2-1.9-.5-3.8-.7-5.8-.3-2.1-.6-4.1-.9-6.2-2.9-21.2-2.9-21.2-1.2-31 1.3-9.3 1.5-18.6 1.7-27.9 0-1.2.1-2.4.1-3.7 0-1.1.1-2.2.1-3.3.2-2.9.2-2.9 1.2-6.9-.1-3.2-.1-6.3-.2-9.4 0-8.4.8-15.6 3.2-23.6.6-3 1.3-6 2-9 .2-1.1.4-2.2.7-3.3 1.3-5.6 2.3-10.9 2.7-16.7.5-4.8 1.6-7.6 3.6-12 .7-3.7 1.3-7.3 2-11 .3-.7.6-1.3 1-2v-4.1c.7-8.5 5.8-15.6 10-22.9.6-1.3 1.2-2.5 1.9-3.8 7-13.6 17.1-21.9 30.8-28.5 3.3-1.7 3.3-1.7 7.3-5.7 2.6-1.4 2.6-1.4 5.7-2.8 5.2-2.3 10.2-4.7 15.3-7.3 22-11 38.2-14.9 62-6.9 3.1 1 6.2 2.1 9.3 3.1 1.5.5 3 1 4.5 1.6 3.4 1.1 6.8 2 10.3 2.8 5.4 1.7 8.4 4 12.9 7.5 3 1.6 6.1 3 9.2 4.4 3.1 1.8 4.6 3.8 6.8 6.6 2.3 1.4 4.7 2.9 7.1 4.2 6.3 3.9 12.2 8.5 17.8 13.4 4.1 3.2 8.5 5.7 13 8.2 3.4 2.4 4.9 4.7 7.1 8.2 2.3 1.7 4.6 3.3 7 5 1 1.2 2.1 2.4 3.2 3.7 5.1 5.8 10.8 10.9 16.5 16.1 3.3 3.2 3.3 3.2 3.3 5.2.8.2 1.7.5 2.6.7 4.3 1.6 5.8 3.8 8.7 7.3.9 1.2 1.9 2.3 2.8 3.5 1 1.2 1.9 2.3 2.9 3.5 1.5 1.8 3.1 3.5 4.7 5.3 4.6 5 9.1 10.1 13.4 15.3 6.1 7.1 6.1 7.1 10.8 9 4.5 2.1 4.3 4.7 5.1 9.4 1 4 1 4 5 6 1.8 2.9 1.8 2.9 3.5 6.4 3.2 6.5 5.3 10.2 12.9 10.9 3.6-.3 3.6-.3 7.6-4.3.1-7.3-3.6-13.1-9.2-17.4-2.8-2.6-2.8-2.6-4.4-7.3-1.4-4.3-1.4-4.3-4.4-5.3-4.8-1.6-4.6-5.4-6-10-3.9-7.1-8.7-13-14-19-1-1.3-2-2.7-3-4-3-4-3-4-7.1-8-4.1-4.1-6.2-7.9-8.9-13-4.8-7.7-9.8-15.2-15.2-22.5-3.9-5.3-7.4-10.8-10.9-16.3-2.5-3.6-4.9-6.2-7.9-9.2-6.6-7.1-11.6-14.4-16.3-22.9-2.2-3.8-4.8-6.9-7.7-10.1-1.6-1.9-3.1-3.8-4.7-5.6-.7-.9-1.4-1.8-2.2-2.8-.7-.8-1.4-1.7-2.1-2.6-.4-.4-.4-.4-2.1-2.5-2.1-2.8-3.8-5.6-5.6-8.7-3.4-5.7-7.3-10.1-12.1-14.6-2.8-2.8-4.9-6-7.2-9.2-1.2-.9-2.3-1.9-3.5-2.8-3.6-3.3-5.5-6.5-7.9-10.6-2.3-3.6-5.2-6.3-8.3-9.2-2.5-2.6-4.6-5.3-6.7-8.2-7.5-10.3-15.8-21.2-27.9-25.5-1.4-.5-2.9-1-4.4-1.5-14.5-3.9-28.7 2.2-40.3 10.8-4 4-4 4-7 9-1.4 1.3-2.7 2.6-4 4-1.3 2.3-2.4 4.6-3.6 7-2.8 6.1-5.2 9.9-11.4 13-4.6 4.9-8.1 10-11 16-4.1 3-4.1 3-9 6-.7.6-1.4 1.3-2 2-17.8 3.5-40.3-1-53.2-14.3-1.7-2.2-3.3-4.5-4.9-6.8-1.9-2.9-1.9-2.9-5.6-5.9-5.1-4.5-8-10.1-11.3-16-.4-.6-.4-.6-2.3-3.8-2.7-4.7-5.3-9.4-7.7-14.2-1-.7-1.9-1.4-2.8-2.1-4.5-4-6.5-8.5-9.2-13.9-.4-.3-.7-.7-1-1-.3-1.5-.5-3-.8-4.6-1.2-5.4-1.2-5.4-3.6-9.1-3.7-6.1-5-12.4-6.6-19.3-.9-3.4-1.7-6.8-2.6-10.1l-1.2-4.8c-1.2-4.1-1.2-4.1-4.2-9.1-.3-3-.5-5.9-.7-8.9-.3-3.1-.3-3.1-2.5-8.1-2-5.3-1.7-8.2-.5-13.7.8-3.8 1-7.6 1.1-11.6.3-5.5 1.2-10.3 2.6-15.7.1-2.4.2-4.9.3-7.3.4-7.1 2.1-12.2 4.7-18.7l.9-5.4c2.3-12.1 8.4-22.2 14.4-32.7 3.5-6.4 6-13.1 8.5-19.9 2.9-6.9 6.8-13 10.9-19.2 2.2-3.7 3.1-6.8 4.3-10.8 1.7-2.4 1.7-2.4 4-5l6-9c4.3-6.4 8.8-12.2 14-18 .6-1.1 1.3-2.1 2-3.2 2.3-3.3 4.8-5.3 8-7.8 1.6-1.7 3.3-3.3 5-5 8.4-8.6 16.9-16.2 26.9-22.8 3.1-2.2 3.1-2.2 5.6-4.9 3.2-3 6.7-3.9 10.9-5.1 4.1-1.4 8.2-3 12.2-4.7l4.5-1.8c2.8-1.3 5.6-2.6 8.4-4.1 5.3-1.9 9.9-2 15.5-2.2 8.5-.7 16.7-2.6 25-4.3 9.8-1.9 19.2-2.3 29.2-2.3m-47.4 13.5c-3.4.6-6.7 1-10.1 1.3-5.6.5-9.7 2.1-14.7 4.4-1.5.5-3 1.1-4.5 1.7-5.1 2.1-10.2 4.3-15.2 6.6-1.6.7-3.2 1.4-4.9 2.2-4.7 2.6-7.7 5.6-11.4 9.5-1.6.7-3.1 1.3-4.6 2-6.7 3.1-11.2 8.5-16.3 13.7-2.6 2.7-5.2 4.9-8.1 7.3-2.8 3.3-5.4 6.6-8 10-1.5 1.7-2.9 3.5-4.3 5.2-2.1 2.6-4 5.1-5.8 7.9-1.9 2.9-1.9 2.9-5.4 6.7-5.4 6.3-8.6 10.5-8.4 19-.1 5.2-.1 5.2-3.8 7.2-1.4.7-2.9 1.3-4.3 2-5.8 7.5-6.5 12.7-7 22-1 .3-2 .6-3 1-2 4.4-3.7 8.7-5 13.4-1 2.6-1 2.6-3.4 4.2-3.6 3.2-5 6.6-6.9 11.1-.3.7-.3.7-2.1 4.6-2.1 6-3.1 11.2-1.9 17.5.3 3.2.3 3.2-2.1 5.5-.9.6-1.8 1.1-2.6 1.7-2.2 4.3-1 10.2-.9 14.9-.1 4.1-.1 4.1-2.1 9.1a167 167 0 0 0-1.2 9.9c-.1 1.7-.3 3.4-.5 5.2-.5 7-.3 12.2 1.7 18.9.1 1.5.2 3 .4 4.5.5 4.5 1.7 7.4 3.6 11.5.7 3 1.4 5.9 2.1 8.9.9 3.1.9 3.1 3 8.3 1.9 4.8 1.9 4.8 2.3 9.5.6 4.8 2 7.2 4.6 11.3.4 1.4.8 2.8 1.3 4.2 2 4.7 4.2 5.5 8.7 7.8 2 4 2 4 2.9 8 1.4 5.3 3.2 6.6 8.1 9-.1 1.5-.1 3.1-.2 4.7.2 8.4 4.3 11.1 11.2 15.3 1.4 3.4 1.4 3.4 2.7 7.3 2.7 7.3 5.5 9.8 12.3 13.7.4 1.2.9 2.3 1.4 3.6 4.5 9.8 20.8 11.2 30.6 12.4 10.3.6 16.1-2.5 24-9 .9-1.7 1.9-3.3 3-5q1.35-.9 3-1.8c4-2.9 4.3-5.5 6-10.2 3.5-7.1 6.3-11.7 13-16 .4-1.5.9-2.9 1.3-4.4 2.1-5.8 4.5-7.3 9.7-10.6 8.8-5.8 8.8-5.8 11-9 11.9-5.3 30.3-4.6 42 1 1.1.2 2.2.5 3.3.8 9.3 3.1 16 13.5 21.7 21.2 1 1.3 2 2.7 3 4 2 2.7 4 5.4 6 8.2 3 3.8 3 3.8 6 6.2 3.3 2.9 5.1 6.2 7.2 10 1.9 2.8 3.8 4.6 6.3 6.7 4.3 3.8 6.5 7.1 9.5 11.9.9.8 1.8 1.5 2.8 2.3 3.7 3.2 5.8 6.6 8.4 10.8 4.5 7.4 9.6 14 15.5 20.4 3.5 3.9 6.3 8.1 9.3 12.5.6 1 1.3 2 2 3 1.6 2.4 3 4.9 4.4 7.5 2.8 4.7 6.2 8.5 10 12.4 4.6 4.9 8.4 9.6 11.9 15.4 2.5 4.1 5.5 8 8.5 11.9 2.2 2.8 4.2 5.8 6.2 8.8 1.1 1.5 2.2 3 3.3 4.6 2.7 3.7 4.7 7.4 6.6 11.6 2.7 5.7 6.1 8.8 11.1 12.8 4.5 5.5 8.7 11.4 12.9 17.2 1.3 1.8 2.7 3.6 4 5.4 4.9 6.5 9 13.2 13.1 20.2 2 3.2 2 3.2 5 6.2.9 1.6 1.9 3.3 3 5l4 4c1.3 2.7 2.6 5.3 4 8 3.5 5.5 7.2 10.5 12 15 3.3 3.8 5.8 8 8.4 12.4 2.3 3.7 4.9 7.1 7.6 10.6 3.1 4.2 6.2 8.3 9.1 12.7 2.9 4.3 2.9 4.3 6.9 8.3l6 9q1.35 2.25 3 4.5c2 3 3.9 6 5.9 9.1 3.1 4.4 6.5 8.3 10.1 12.4 1.2 1.7 2.4 3.4 3.6 5.2 3.4 4.8 3.4 4.8 5.8 7.2 3.3 3.3 5.4 7 7.8 10.9 2.3 3.5 5 6.5 7.8 9.7 1.4 1.9 2.8 3.8 4.3 5.7 15.3 20.6 31 36.7 55.7 45.3 10.9 4 10.9 4 15 5.7 5 1.6 9.6 2 14.9 2.2 1.9.1 3.7.2 5.6.4 15.9-.8 34.2-15.9 43.5-28.3 2.3-4.9 2.3-4.9 4-9 .3-.7.6-1.3 1-2 .4-3 .8-6 1.3-9 .7-3 .7-3 3.7-8 3.7-18.5 2.1-38.8 2.1-57.6v-14c0-38.7 0-38.7-2.7-53.2-.2-1.5-.5-2.9-.7-4.4-.6-3-1.2-5.9-1.7-8.8-.2-3.3-.4-6.6-.5-9.9-.1-1-.1-1-.3-5.9l-.3-9.3c-1-26.1-1-26.1-4-36.4-1.7-6.3-2.1-12.9-2.8-19.4-.6-5.5-1.6-10.7-3.1-16.1-.6-4.6-1.1-9.3-1.5-13.9-.5-4.1-.5-4.1-2.5-8.1-1.1-5.5-2-11-3-16.5-1-5-2.4-9.6-4-14.5-.4-2.2-.8-4.5-1-6.7-.5-3.6-.9-6.1-2.6-9.4-1.9-3.8-1.8-7.4-2.1-11.6-.5-5.3-1.8-10.3-3-15.5-.3-1.1-.6-2.2-.8-3.3-3.2-12.5-7-24.3-13.5-35.5-1.4-3-2.6-6-3.8-9-1.2-2.8-2.5-5.6-3.8-8.3-4.1-9-6.9-18.4-9.4-28-3.4-12.2-10.8-22.6-18.2-32.7-6.7-9.1-11.2-18.8-15.8-29-5.8-12.1-11.8-22.1-21.5-31.3-3.2-3.4-5.2-6.9-7.2-11.1-3.3-6.5-7.7-12.1-12.3-17.6-5.1-7.1-9.9-14.3-14.7-21.6-2.7-3.9-5.3-7.4-8.7-10.7-2.8-2.9-5.2-6-7.7-9.2-9.4-12.2-19.8-23.4-30.4-34.6-2.6-2.9-5-5.7-7.4-8.8-4.1-5.2-8.6-9.9-13.3-14.5-.8-.9-1.6-1.7-2.5-2.5-8.3-8.2-16.8-16.1-27.3-21.1-4.5-2.7-8.7-5.5-12.9-8.4-6.2-4.4-12.5-8.5-19.5-11.6-7.7-3.4-14.7-7.7-21.6-12.3-12.6-8.1-26.5-14.1-41-17.7-2.3-.7-4.5-1.4-6.7-2.1-5.6-1.6-10.9-2.3-16.7-2.9-6.3-.5-11.9-1.5-18-3.5-8.6-2.8-17.1-3.5-26.1-4.2-4.5-.3-4.5-.3-7.5-1.3-4.7-.5-9.4-.8-14-1-1.8-.1-3.5-.2-5.3-.3-17.7-.5-34.5 2.5-51.9 5.6m244.2 614.7c-.4 6.7 3.3 11.6 7 17 4.3 2.1 6.2 2.6 11 2 3.6-2.5 4.9-3.8 5.2-8.2-2.1-6.3-5.7-12.1-11.2-15.8-5.9-.8-8.7 0-12 5m13 158c-1.9 1.4-3.7 2.8-5.5 4.2-10.4 8.5-19.3 20-23.5 32.8-.4.9-.8 1.8-1.2 2.8-1.3 4.7-1.4 9.4-1.8 14.2-.2.3-.2.3-1 2-.8 9.4.6 16.2 4 25 .3 2.5.7 5 1 7.5 1 8.8 2.9 16.7 9 23.5.8 1.3 1.6 2.7 2.4 4.1 2.6 3.9 2.6 3.9 7.6 6.9.6 1 1.2 1.9 1.9 3 2.3 3.4 4.2 4.6 7.9 6.4 1.2.6 2.3 1.2 3.5 1.8s2.4 1.2 3.7 1.8c1.2.6 2.4 1.3 3.7 2 1.2.6 2.4 1.3 3.6 1.9.6.3.6.3 3.4 1.8 6.8 2.7 11.4 1.5 17.3-2.7 3-5 3-5 3-7 1.3-.7 2.6-1.3 4-2l2.1-2.4c2.9-2.6 2.9-2.6 7.2-4.5 12.4-5.6 17.4-15.3 21.3-27.9 3.2-9.9 3.2-9.9 5.4-14.2.3-7.3.3-14.3-3-21-.2-1.8-.3-3.5-.4-5.3-.3-4.6-1.1-8.4-2.7-12.8-2.4-7.2-2.1-14-1.9-21.5-.1-5.3-1.2-9.5-3-14.4-.4-1.3-.7-2.6-1-4-1-3-1-3-5-6-3.4-.6-3.4-.6-7-1-5.4-.6-10.1-1.9-15.1-3.6-16.4-4.9-27.2-3.2-39.9 8.6M1633 964c2.2 3.1 2.2 3.1 4 6 2 1.4 4 2.7 6 4 6.4 4.6 9.8 10.1 13.9 16.6 3.4 5.4 7 9.6 12.1 13.4l3 9c3 4.7 6.2 9.3 9.4 13.8 4.1 6.4 6.2 13.4 8.6 20.6 4.2 11.7 9.7 22.9 15.2 34.1 3.4 6.6 5.3 13.2 7 20.4 1.5 5.9 3.8 11.6 6 17.3 4.1 10.9 6.7 22 8.9 33.4.9 4.4.9 4.4 2.3 8 1.8 5 2.6 9.6 3.4 14.8 1 7.2 2.3 14.2 4 21.2 6.2 25.8 15.6 75.5 3.2 100.4-.4 3-.8 6-1.2 9.1-.9 4.3-2.3 8.4-3.8 12.7-1.7 5.3-2.8 10.7-4 16.1-1.8 7.9-3.6 15.6-6.1 23.2-1.4 4.6-2.7 9.3-4 13.9-.9 3-.9 3-2.9 7-.1.7-.1.7-.9 4.2-1.1 4.9-2.8 8.7-5 13.2-2.3 4.7-4.5 9.4-6.2 14.4-1.5 4-3 7.4-4.9 11.1-2 3.9-3.5 7.6-4.8 11.9-2.1 6.8-5.8 12.3-9.7 18.3-2.7 4.3-5.3 8.7-7.7 13.2-1.8 2.7-1.8 2.7-4.7 6-3.3 4-5.6 8-8 12.6-3.7 7-7.3 11.9-13.1 17.1-.7 1-1.3 2.1-2 3.1-2 2.9-2 2.9-5.8 5.7-4.7 3.6-7.6 7.5-11.2 12.2-2.5 2.6-5.1 5.2-7.7 7.7-2.3 2.3-2.3 2.3-4.9 5.5-3.1 3.7-6.8 6.6-10.4 9.8-.7.8-1.3 1.7-2 2.5-2.9 3.6-6.5 6.5-10 9.5l-2.7 2.7c-2.3 2.3-2.3 2.3-4.8 4.2-2.5 2.1-2.5 2.1-4.7 4.9-6.4 7.4-13.9 12-22.8 16.2-1 .6-2.1 1.3-3.1 1.9-4.7 2.5-9.3 3.8-14.5 5.2-5.8 1.5-11 3.2-16.4 5.9-2.9.6-2.9.6-5.9.9-12.7 1.8-23.7 5.5-35.2 11.2-10 4.9-20 7.8-30.9 9.9-1.7.5-3.4.9-5.2 1.4-8 2.1-16.2 2.9-24.4 3.9-4 .5-8 1.2-12 1.9-10.9 1.6-21.9-.5-32.6-2.4-1.2-.2-2.4-.4-3.6-.5-10.8-1.9-18.4-5.8-26-13.9-3.5-3.8-6.9-6.6-11.2-9.4-.6-.6-.6-.6-3.4-3.5-3.6-3.5-3.6-3.5-7.1-5.3-5-3.2-7.2-7.2-10.5-12.2l-4-4c-4.5-11.9-5.2-28-1-40 .4-2.8.6-5.6.9-8.4.7-7.6 1.8-15 3.2-22.4 1.3-7.4 2.4-14.6 2.6-22.1.4-4.1 1.4-8 2.3-12.1.5-3.1.9-6.1 1.3-9.2 1.1-7.4 2.9-13.9 5.6-20.8 1.4-4 1.7-7.8 2.1-12 .9-4 2-8 3-12 .7-2.7 1.3-5.4 2-8.1 1.1-4.5 2.3-8.8 3.6-13.2 1.6-5.2 2.5-10.4 3.4-15.7 5.6-31.3 5.6-31.3 11-42 .5-3 1-6 1.4-9.1.8-4.9 1.6-9.8 2.7-14.7.9-4.2.9-4.2 1.2-8.6.7-4.7 2.3-8.2 4.4-12.5 1.5-3.6 2.4-7.2 3.3-11 1.4-6.2 3.3-11.7 5.8-17.4 1.7-3.8 2.9-7.8 4.2-11.7 1-2.7 2-5.3 3-8l.9-2.7c3.2-8.7 7.4-16.7 11.7-24.8 2.4-4.5 4.4-9 6.3-13.8 1.2-2.9 2.6-5.6 4-8.5 2.3-4.3 4.1-8.7 5.7-13.4 3.1-8.5 7-16.5 11-24.6 3.4-7 6.5-13.9 9.2-21.1 2.4-6.2 5.1-11.8 8.5-17.5.4-.6.4-.6 2.4-4 1.8-2.7 3.6-5.5 5.4-8.2 2.5-3.7 4.4-7.3 6.3-11.3 2.7-5.6 5.8-10 9.7-14.7 3.9-4.9 6.3-10.3 8-16.3.9-3.1.9-3.1 4.9-7.1l1.2-3.6c1.8-3.4 1.8-3.4 6.2-4.3 6.1-1.5 6.3-3.5 8.6-9.1l5-5c1.4-2 2.7-4.1 4-6.2.7-1.2 1.4-2.3 2.1-3.5 1.5-2.7 3-5.4 4.4-8.2 2.5-4.1 2.5-4.1 6.6-7.6 4.5-4 5.2-6.9 6.9-12.5 4.8-5.4 10.7-9.6 16.4-14.1 3.6-2.9 3.6-2.9 6.3-5.7 5.2-5.1 12.7-7.2 19.3-9.9 3-1.3 3-1.3 8.2-4.2 6.9-3 12.9-2.1 19.8.9v2c-3.2 1.1-6.5 1.9-9.9 2.8-4.5 1.7-5.8 4.3-7.4 8.7-2.2 4.4-4.1 5.3-8.6 7.3-11.3 5.1-11.3 5.1-13.9 8.6-3.1 3.7-7 5.2-11.2 7.6-3.3 2.5-6.6 5-9.8 7.6-3.2 2.4-3.2 2.4-8.1 5.5-4.8 3.4-7.1 6.9-10.1 11.9-.9 1.4-1.9 2.8-2.9 4.2-1 1.6-2 3.2-3.1 4.8-.7 1-1.3 2-2 3-3.5 5.5-6.4 10.5-8.2 16.7-1.8 5.3-1.8 5.3-5.8 7.3-1.3 0-2.6-.1-4-.1-4 .1-4 .1-8 4.1-.7 3-1.3 6-2 9-1.9 2.7-1.9 2.7-4 5-6.7 9.6-12.8 20.1-17.8 30.7-2.2 4.3-2.2 4.3-5.2 8.2-5.6 7.6-8.1 15.2-10.2 24.2-1.3 4.6-3.6 8.7-5.8 12.9-.4 1.3-.9 2.7-1.3 4.1-3.4 9.8-7.9 19.3-13.7 27.9l-3.6 6.9c-.5 1.2-1.1 2.4-1.7 3.6-2.2 4.5-4.1 9-5.9 13.6l-1.2 3-1.2 3c-1.4 2.9-1.4 2.9-3.3 5.2-2.9 3.7-4.7 7.6-6.7 11.9-.7 1.6-1.5 3.2-2.3 4.8-2.1 5-3.6 9.9-5.1 15-2 5.3-4.1 10.7-6.2 16-2.1 5.8-3.6 11.3-4.2 17.5-.6 4.5-.6 4.5-2.1 8.4-1.5 4.1-1.5 4.1-1.9 9.5-.6 5.6-.6 5.6-2.6 10.5-1.7 4.4-2.3 6.8-2.5 11.3-.5 6-1.3 7.2-4.5 11.8-5.5 15.3-7.6 32.2-10.3 48.2-1.1 5.7-2.3 11-4.7 16.3-2.2 6-2.9 11.5-3.5 17.9-.5 3.6-.5 3.6-2.5 8.6-.4 2.5-.7 5-1 7.5-.5 4.7-1.2 8-3 12.5-.7 2.7-1.3 5.3-2 8-.3.7-.7 1.3-1 2-.5 3-1 6-1.5 9.1q-.6 3.45-1.5 6.9c0 4.3.1 8.7.2 13-.2 4-.2 4-2.2 8v9c-.3 1-.7 2-1 3 0 1.5 0 3.1.1 4.7-.1 5.3-.1 5.3-1.1 8.9-1.6 7-.9 14-.7 21.1-.3 5.6-1.6 8.5-4.3 13.3-1.6 12.3 5.7 21.9 15.1 29.1.6.5.6.5 3.9 2.9l5 5c4.3 3.6 8.3 6.7 13.4 9.1 3.6 1.9 3.6 1.9 6.6 6.9 9.8 4.6 17.4 5.1 28 4.7 4 .3 4 .3 7.4 1.9 4.8 1.9 8.1 1.3 13.2.7l5.4-.6c1.6-.2 3.3-.5 5-.7 1.2-.2 2.4-.3 3.7-.5 8.1-1.2 16.2-2.8 24.3-4.5l4.8-.9c5.5-1.2 10.7-2.7 16-4.5 1.8-.6 3.6-1.2 5.5-1.8 4.7-1.8 4.7-1.8 9.7-4.8l6-3 1-1c5.2-.8 10.5-1.5 15.8-2.2 4.2-.6 8.1-1.5 12.2-2.8 1.7-.3 3.4-.6 5.2-.9 16.2-3.1 16.2-3.1 19.8-7.6 2.5-3.1 4.5-3.7 8.2-4.9 7.6-2.8 12.8-6.3 18-12.4 3.2-3.5 6.2-6.3 9.9-9.3 4.5-3.6 8.2-7.4 11.9-11.9.9-.8 1.7-1.7 2.6-2.6 6.4-6.5 6.4-6.5 6.5-11.9-2.5-8.2-10.1-13.2-16.5-18.4-7.6-6.8-11.6-15.2-16.1-24.2-2.8-5.4-5.9-10-9.5-14.9-4.5-7.1-8.3-14.5-12-22.1-3.2-6.3-6.9-12.3-10.5-18.4-13.1-24.2-11.6-56.9-8.5-83.5.1-1.2.3-2.4.4-3.7 1.7-14.8 4.2-29 8.6-43.3.6-2.1 1.1-4.3 1.6-6.4.5-1.9.9-3.7 1.4-5.6s.9-3.8 1.4-5.8c1.6-5.2 1.6-5.2 3.7-8.5 4.1-6.7 7.2-13.8 10.4-20.9.3-.8.3-.8 2-4.4 3.6-8.1 7.1-16.2 10.5-24.4 2.7-5.5 3.6-6.7 9-10 1.4-2 2.7-4 4-6 3.7-4.7 5.4-6.8 11-9 1.7-2.6 3.4-5.3 5-8 1.6-1.4 3.3-2.7 5-4q4.8-5.4 9.3-11.1c3.9-4.1 7.7-6.3 12.7-8.9l3-3c2.2-1.1 4.5-2.1 6.8-3 3.5-1.4 6.9-2.8 10.2-4.6 8.3-4 21-8.4 30-5.4 2 .1 4.1.2 6.1.3 1 .1 1 .1 5.9.7.3 1.3.7 2.6 1 4-1.2.1-2.5.2-3.8.4-20.1 2.4-38.8 8-56.2 18.6-1.7 1-3.4 2-5.2 3-4.2 3.4-5.5 6.2-7.8 11-2.8 2.1-2.8 2.1-6 4-2.4 2.3-4.7 4.6-7 7-2.9 3-5.8 5.7-8.9 8.4-6.6 5.8-10.1 10.4-13.1 18.6l-2.4 2.4c-2.8 2.8-4.1 5.2-5.7 8.8-.5 1.2-1 2.4-1.6 3.5-1 2.6-1.9 5.1-2.7 7.7-1.9 5.4-4.3 10.2-6.9 15.2-1.4 2.8-2.7 5.6-3.9 8.5-1.8 3.9-1.8 3.9-4.8 8.9-.7 3-1.4 6-2 9-.5 1.2-.9 2.4-1.4 3.7-1.8 4.9-2.8 9.8-3.9 14.9-.7 3.4-.7 3.4-1.8 6.5-1.2 3.9-1.3 7.8-1.6 12-.4 3.7-1.3 7.2-2.3 10.9-5.8 26.7-8.9 72 10 94 1.6 2.7 3 5.5 4.5 8.2 1.4 2.6 2.9 5 4.4 7.5 2.5 4.2 4.7 8.5 6.9 13 4.8 9.7 10.7 18.6 17.2 27.3.5 1.5.9 2.9 1.4 4.4 3.5 9.2 15.2 21.5 24.6 24.6 6.5.6 8.8 0 13-5 .8-.7 1.7-1.3 2.6-2 2.4-2 2.4-2 4.3-4.5 2.1-2.5 2.1-2.5 5-4.4 3.7-2.5 5.6-5.4 8.1-9.1.8-.7 1.5-1.4 2.3-2.2 3.4-3.5 5.3-7.3 7.6-11.6 3.5-6.6 7-11.8 12.1-17.2 2.9-4.7 3-6.1 3-12-2.1-2.6-2.1-2.6-5-5-.9-.8-1.9-1.6-2.9-2.4-1-.9-2-1.7-3.1-2.6-1.1-1-2.2-2-3.4-3-3.6-3-3.6-3-7.7-5.6-15.1-9.5-21.9-25.4-23.9-42.4-.3-.7-.7-1.3-1-2-.2-5.5-.2-11.1-.2-16.6V1358c.3-5.3 1.5-10 3.2-15 0-1.7.1-3.4.1-5.1.9-11.9 6.5-22.8 13.9-31.9.3-.9.6-1.9.9-2.9 1.2-3.5 2.9-5.6 5.3-8.4 2.9-3.4 5.7-6.8 8.4-10.5 12.2-15 29.8-19.4 48.6-19.3h5.3c4.5.1 4.5.1 8.5 1.1 9.4.6 9.4.6 14-4 .9-5.3.7-10.6.7-16v-4.8c-.3-16.1-3.2-31.4-6.8-47.1-1.2-5.5-2.2-11-3.1-16.5-1.2-5.3-2.2-9.5-6.8-12.6-.2-2.8-.2-2.8 0-6.2.3-15-4.9-28.9-10-42.8-1.4-3.9-2.7-7.9-3.8-11.9-2.7-9.1-6.3-17.5-10.2-26.1-.4-1-.8-1.9-1.3-2.9-3-6.9-6.4-13.6-9.8-20.3-2.4-4.8-4.5-9.6-6.1-14.7-4.6-12.8-11-26.5-20.8-36.1-1.8-2.5-3.5-5-5.3-7.6-1.7-2.4-1.7-2.4-5.7-6.4-.3-.5-.3-.5-1.8-2.8-2.9-4.2-6.5-7.6-10.2-11.2l-4-4c-1.5-.8-2.9-1.6-4.4-2.4-4.4-2.5-6.8-4.4-9.6-8.6v-3c7.4-1.8 11.9 2 18 6m70.8 308c-19.4.5-33.6 6.7-43.9 23.1-1.9 2.9-1.9 2.9-3.9 5.3-2.4 3.1-4.1 6.2-6 9.6s-3.6 6.5-6.1 9.6c-4.4 5.5-5.5 10.7-6.5 17.6-.7 5-1.4 9.8-2.4 14.6-1.2 6-1.5 11.9-1.8 18 0 1-.1 2.1-.1 3.3-.2 5.4-.1 9.8 1.9 14.9.1 1.8.1 3.6.2 5.5.8 12.5 8.4 22.8 17.8 30.5.4.4.4.4 2.3 2.4 3.6 3.5 7.7 6.5 11.7 9.6l4 4c5.3 1.8 9 1.5 14-1 2.9-4.1 4.4-8.1 5.8-12.9 2.4-8.5 6.4-16.2 10.2-24.1 5.8-12.2 10.5-24 14-37 .9-3.2 1.9-6.4 2.8-9.6 3-10.6 5.8-21.3 8.5-31.9.3-1.3.6-2.6 1-3.9.3-1.1.5-2.2.8-3.4.6-2.1 1.2-4.2 2-6.3 1.3-4.2 1.9-8.5 2.6-12.8.3-1.8.5-3.5.8-5.3 1-10.3 1-10.3-3.5-14.8-9.1-4.2-16.4-5.1-26.2-5"/><path fill="#6b7d8c" d="M2039 1169c2.6.3 5.2.5 7.8.7 8.1.9 11.9 3.2 18.2 8.3 1.6 1 3.1 1.9 4.8 2.9 8 5.8 11.8 13.8 15.9 22.5.5 1 .9 2 1.4 3 2.7 5.8 5 11.5 6.9 17.6.8 1.9 1.5 3.8 2.3 5.7 3.2 8 5.3 16.4 7.5 24.7 1.2 4.6 1.2 4.6 2.2 6.6 0 2.5 0 5-.1 7.5 0 6.2.3 12.1 1.2 18.3 1.7 14.5.2 28.8-1.7 43.2-.4 3.9-.5 7.5-.4 11.4.2 16.7-3 33.2-6 49.6-.8 4.5-1.5 8.9-2.3 13.4-.7 3.6-.7 3.6-1.7 7.2-1 3.3-1.5 6.5-1.9 10-.8 6-2.2 11.4-4.1 17.1-1.1 3.5-1.8 7.1-2.5 10.8-1.1 6-2.7 11.7-4.6 17.5-1.9 6.3-2.9 12.3-3.3 18.9-.5 7.4-1.7 14.6-3 21.9-.3 1.3-.5 2.5-.7 3.8-1.1 6.2-2.4 12.3-3.9 18.4-.1 1.8-.3 3.6-.4 5.4-.6 5.5-1.8 9.5-3.6 14.6-1.4 4.7-2.7 9.3-4 14-6.1 21.8-6.1 21.8-9.9 28.4-3.4 6.5-4.7 13-6 20.1-1.1 4.5-1.1 4.5-3.1 9.2-2.3 6.2-3.5 12.2-4.6 18.7-2 11.8-4.5 23.2-8.4 34.6-.2.9-.2.9-1.4 5.2-1.5 4.4-3 7.1-5.6 10.8-1.7 3.6-3 6.9-3.9 10.8-1.1 4.3-2.9 8.1-4.8 12.2-1.8 4.2-3 8.4-4.3 12.7s-3.1 8.4-4.9 12.6c-1.4 3.5-2.2 7-3.1 10.7-.7 1.3-1.3 2.6-2 4-.1.6-.1.6-.8 3.8-2.8 11.7-8.2 22.6-13.2 33.5-1.5 3.6-2.9 7.1-4.3 10.8-2.9 7.6-6.3 15-9.8 22.4-.6 1.3-1.2 2.7-1.8 4l-1.8 3.9c-.6 1.2-1.1 2.3-1.6 3.5-1.7 3-3.5 5.5-5.7 8.1-8 12-13.1 24.1-16.8 38-2.5 9.1-6.6 17.5-10.8 26-2.2 4.6-4.3 9.3-6.4 14-.4.8-.4.8-2.6 5.1-2.2 4.4-3.3 8.1-4.4 12.9-3.6 14.9-9.7 27.8-18.7 40.2-3.5 5-6 10.1-8.6 15.6-1.7 3.2-1.7 3.2-4.8 7.3-3.9 5.2-5.7 10.8-7.9 16.9-2.3 6.2-4.9 11.7-8.4 17.4-3.7 6.2-7 12.4-9 19.4-4.1 13.3-11.7 29.3-21.6 39.2-1.3 2.1-2.6 4.2-3.8 6.4-.6 1.2-1.3 2.4-2 3.7-.8 1.3-1.5 2.6-2.2 3.9-4.2 7.4-8.5 14.8-13 22-.7 1.3-1.5 2.7-2.2 4.1-10.8 19.2-10.8 19.2-17.8 26.9-1.4 2-2.7 4-4 6-1 1.2-1.9 2.5-2.9 3.8-3.1 4.2-3.1 4.2-5.4 9-2.7 5.2-5.6 9-9.4 13.3-2.3 2.9-4.2 5.9-6.2 9-7.1 10.8-17.1 16.2-28.2 22.2-6.8 3.8-13.3 7.9-19.9 12.1-14 9-27.6 10.5-44 11.6l-5.7.6c-6.7-.7-12-3.2-18.2-5.7-5.5-2.1-11-3.4-16.7-4.5-8.1-1.7-15.9-3.6-23.7-6.3-21.9-6.6-45.5-3.5-66.7 3.9-1.4.5-2.7.9-4.1 1.4-10.1 3.6-17.4 7.9-24.9 15.6-4.9 4.7-9 8.2-15.1 11.1-10.4 4.9-14.3 12-19 22.2-1.7 3.3-3.5 5.8-5.9 8.7-1.7 3.3-3.4 6.7-5 10-2.9 5.5-5.9 10.8-9.2 16.1-2.8 4.9-4.2 9.5-5.8 14.9-1.8 2.9-1.8 2.9-4 6-1.1 1.7-2.1 3.5-3.2 5.2-3.7 5.9-8 10.8-12.8 15.8-.4.4-.4.4-2.5 2.6-.8.8-1.7 1.6-2.5 2.4-1.4 1.3-2.8 2.6-4.2 4-8.9 7.7-17 9.5-28.4 10.5-5.7.7-10.2 2.3-15.4 4.5-10.2 2-19.8-1.8-27-9-4-2.8-7.8-5.4-12.1-7.5-2.9-1.5-2.9-1.5-6.1-4.3-3-2.6-5.8-4.6-9.2-6.6-3.6-2.2-6.3-4.2-9.4-7.1-3.8-3.2-6.5-4.7-11-6.6-9.1-4.3-15.6-11.5-21.2-19.9-1.4-.5-2.8-.9-4.2-1.4-5.9-3.2-6.7-5.9-9.3-11.8-1.5-2.8-1.5-2.8-5.6-5.4-5.5-3.4-6-7.4-7.9-13.4-2.9-5.4-7.2-9.2-11.6-13.5-3-3.2-5.1-6.8-7.4-10.5-.9-.6-1.9-1.2-2.8-1.9-4.8-3.1-7.7-7.6-11.2-12.1-8.7-10.7-19.8-20.2-31.4-27.6-.9-.6-1.8-1.2-2.8-1.8-15.2-8.6-42.4-7.3-57.8.4-2 2.6-4 5.3-6 8-1.6 1.7-3.3 3.4-5 5-1.4 1.6-2.9 3.3-4.3 4.9-3.9 4.4-8 7.7-12.7 11.1-1.7 1.6-3.4 3.3-5 5-1.3 1.3-2.6 2.6-4 3.9-4 4.1-4 4.1-6.8 8-2.2 3.1-2.2 3.1-6.2 5.1-2 3-2 3-3.9 6.8-2 3.7-3.9 7-6.7 10.2-2.6 3.2-3.9 6.2-5.5 10-3.9 8.7-9.4 15.1-15.9 22-.4.4-.4.4-2.2 2.6-5.5 6.1-11.7 9.2-19.1 12.6-4.5 2.2-7.7 4.8-11.2 8.4-2.5 2.4-2.5 2.4-7.5 5.4-.7.5-.7.5-4.5 3-6.6 4.4-12.1 6.9-19.7 8.9l-6 1.5c-1 .3-1.9.6-3 .8q-6 1.65-12 3.6c-5.9 1.7-11.8 3.1-17.8 4.2-.7.2-.7.2-4.5 1-5.9 1.1-11.5 1.3-17.4 1.2h-3.2c-11.2-.1-19.6-1.5-29.9-6.2-2.7-.4-5.3-.7-8-1-2.8-1.7-5.5-3.3-8.3-5-3.9-2.1-7.7-3.5-11.9-4.9-5-1.7-9.9-3.5-14.7-5.6-5-2.2-10.1-3.8-15.2-5.4-7.5-2.4-12.7-5.4-18.9-10.1-3-1.4-6-2.7-9-4-10.3-5.2-19.8-11.5-29.4-17.9-4.8-3.3-9.6-6.4-14.5-9.3-3.5-2.2-6.7-4.3-10-6.7-3.7-2.8-7.5-5.2-11.5-7.5-8.8-5.3-16.9-11-24.9-17.4-4.1-3.4-8.4-6.6-12.6-9.8-2.2-1.7-4.2-3.4-6.3-5.1-2.8-2.3-2.8-2.3-5.8-3.7-3.7-2-6-4.6-9-7.6-2-1.1-4-2-6-3-6.1-3.8-10.5-7.5-15-13-.5-.4-.5-.4-3.1-2.5-2.9-2.5-2.9-2.5-5.5-6.1-2.4-3.4-2.4-3.4-7.4-6.4-2.7-2.6-5.4-5.3-8-8-.7-.6-.7-.6-4.1-3.5-3.9-3.5-3.9-3.5-7.4-7.6-3.5-3.9-3.5-3.9-7.4-6.8-4.8-3.6-8.2-7.6-12.1-12.1-2.7-2.9-5-5-8.4-7.2-4.6-3.6-6.8-7.7-9.6-12.8-2.3-3.7-4.8-7-7.5-10.5-3.5-4.5-3.5-4.5-5.6-7.8-1.9-2.7-1.9-2.7-4.3-4.6-3.3-2.6-5.2-5.7-7.6-9.1-1.6-1.7-3.3-3.4-5-5-.8-.9-1.7-1.7-2.5-2.6-2.5-2.4-2.5-2.4-7.5-5.4-1.8-2.4-1.8-2.4-3.4-5.2-2.2-3.6-4.1-6.4-7-9.5-3.4-4-5.2-7.4-7.4-12.1-3.7-7.7-8.1-13.3-14.2-19.2-5.1-5.1-7.8-10.8-11.2-17.1-2.8-3.9-2.8-3.9-7.5-6.7-6.8-4.4-9.5-11.4-13-18.5-2.7-5.6-5.9-10.5-9.3-15.7-.5-.8-.5-.8-3.2-4.8-1.6-2.4-3.2-4.8-4.9-7.2-1.5-2.4-2.9-4.8-4.3-7.3-3.7-6.7-8-13-12.6-19.1-3.7-5-6.9-10.2-10-15.6-.5-.8-.5-.8-3.1-5.1-1.8-3.1-3.6-6.2-5.3-9.3-3.5-6.2-7.3-12.2-11.3-18.1-4.5-6.8-7.9-13.8-11.2-21.1-2.1-4.3-4.3-8.6-6.5-12.8-3-5.9-4.3-11.1-5.6-17.6-1-1.2-2-2.3-3-3.5-5.8-6.7-5.1-14.5-4.9-23-.1-6-.7-11.8-1.2-17.7-1.2-15.9-1.4-30.7 4.1-45.8.2-.6.2-.6 1.4-3.8 2.7-7.1 5.2-11.7 11.6-16.2.8-.8 1.6-1.7 2.4-2.5 7.2-6.9 12.7-9.1 22.6-9.5 2.1-.4 4.3-.8 6.4-1.2 5.6-.8 5.6-.8 10.6 2.2l3.6 1.5c3.4 1.5 3.4 1.5 7.4 4.5 2.9.7 2.9.7 6.2 1.1 1.1.1 2.3.3 3.5.4 1.1.2 2.2.3 3.3.5 8.4 1.4 8.4 1.4 11.3 4.4 4.2 4 9.2 5 14.7 6.6 11.4 3.3 21.7 6.3 31 14 2 1.4 4 2.7 6 4 .9.6 1.8 1.3 2.8 1.9 3.2 2.1 6.5 3.8 10 5.4 6.2 3.1 11.6 6.6 17.2 10.7 5.2 3.4 10.4 6.6 15.7 9.8 3.3 2.2 3.3 2.2 3.3 4.2 1.3.4 2.5.7 3.8 1.1 5.5 2 9 4.5 13.6 8 2.6 1.9 2.6 1.9 6.8 4 3.8 1.9 3.8 1.9 7 5.2 4.1 4 8.1 6.2 13.2 8.9 3.8 1.9 7.5 4 11.2 6 1.2.7 2.3 1.3 3.5 2 2.9 1.8 2.9 1.8 5.9 4.8 4.4 2.2 8.9 4.2 13.3 6.2 4.8 2.2 7.9 4 11.7 7.8 1.9 1 3.8 2 5.8 2.9 3.8 1.8 6.4 3.2 9.5 6.1 6.4 5.2 14.4 7.9 22.4 10 3.3 1 3.3 1 8.3 4 2.2.9 4.5 1.7 6.8 2.4 4.1 1.5 7.9 2.9 11.9 4.8 5 2.1 9.9 2.9 15.3 3.8 2.3 1 4.7 2 7 3 1.5.3 3 .7 4.5 1 4.5 1 4.5 1 7.6 2.6 10.8 4 30.1 5 40.9 1.4 1.7-.1 3.5-.3 5.2-.4 4.7-.5 8.3-1.3 12.8-2.6l6.6-.9c4.7-.7 8.3-1.6 12.4-4.1.6-.3.6-.3 3.9-1.9 3.8-1.9 7.4-4 11.1-6.1 1-.4 2-.8 3.1-1.2 4.3-2.6 6.2-6.6 8.9-10.8 1.3-.7 2.6-1.3 4-2 .4-.8.4-.8 2.4-5 2.6-5 2.6-5 7.6-7 .7-1.7 1.3-3.3 2-5 1.5-2.4 3-4.7 4.5-7.1 6.7-10.1 6.7-10.1 5.5-15.8v-5.1c3.3-1.8 6.6-3.4 10-5 2.1-3.4 3.5-6.4 5-10 1.3-2.7 2.6-5.3 3.9-7.9l2.1-4.2c9-17.7 20.2-36.8 39.2-45.3 2.8-1.6 2.8-1.6 5.1-5 5.1-6.9 12.8-9.2 20.8-11.6 2.9-1 2.9-1 7.3-3.2 7.3-2.3 14-2 21.6-1.8 5 0 5 0 9.4-.6 10.4-1.2 23.4 6.9 33 10.8 3 1.2 6 2.3 9.1 3.2 8.5 3 15.4 7.1 22.5 12.6 1 .6 2.1 1.3 3.1 1.9 2.9 2.1 2.9 2.1 5.6 5.3 2.8 3.3 5.5 5.6 8.9 8.2 4.7 3.8 7.3 7.4 10.4 12.6 2.6 2.4 5.3 4.8 8 7 4.5 3.9 8.8 7.8 13 12 3.5 3.2 6.4 5.7 10.8 7.6 5.3 3 8.6 7 12.5 11.6 2.7 2.8 2.7 2.8 5.9 4.4 2.8 1.4 2.8 1.4 4.7 5.8 2.1 4.6 2.1 4.6 6.1 6.5 5.6 2.9 5.9 6.4 8 12.1 2.5 2.9 2.5 2.9 5 5l4 4c.8.5.8.5 5 3 1.3.9 2.7 1.8 4.1 2.8 13.1 8.6 30.5 19.7 47 14.2 3.4-1.2 5.5-.9 9.1-.4 9.2.8 17.2-.6 23.8-7.6.5-.8.5-.8 3-5 1.6-1.7 3.3-3.4 5-5l2.6-2.6 5.4-5.4c1.2-2.2 2.4-4.5 3.5-6.8q.9-1.65 1.8-3.6c1.1-2.4 2.2-4.8 3.2-7.3 1.5-3.2 3-5.4 5.4-8.1 4.8-5.9 8.8-11.7 9.4-19.4.8-5.6 2.7-9.3 5.5-14.2 3.8-6.8 6.7-13.2 9.2-20.6l3.6-7.8c2.4-5.6 4.1-11.4 6-17.3 1.4-3.9 1.4-3.9 4.4-7.9h2c.7-1.3 1.3-2.6 2-4 2.2-3.4 4.1-6.1 7-9 1.3-1.9 2.5-3.9 3.8-5.9 3.2-4.9 6.2-7.9 11.2-11.1 1.7-2 3.3-4 5-6 4.8-4.6 8.8-7.6 15-10l3-3c.8-.3.8-.3 5-1.9 5-2.1 5-2.1 8-6.1 7.6-3.4 15.9-1.7 23.8.1 6.2 1.3 10.5.7 16.2-2.1 1.3.3 2.6.7 4 1v2q4.5 1.65 9 3c10 3.3 19.5 7.4 29 12l4.5 2.1c1.5.7 3 1.4 4.6 2.1 1.3.6 2.7 1.3 4.1 1.9 3.5 1.8 6.6 3.7 9.8 5.9l6 3c.9.5.9.5 5.2 2.9 7.3 4 14.6 7.6 22.7 9.7 5.1 1.4 5.1 1.4 10.1 4.4 16.3 6.1 30.4-2 43-12 4.4-4 7.6-8.5 10.9-13.4 2.2-2.7 4.4-4.5 7.1-6.6 3.7-5.1 6.8-10.3 9.8-15.8 2.8-4.8 5.7-9.5 9-14.1 4.3-6.1 7.4-12.1 10.1-19 3-7.4 6.9-13.9 11.3-20.5 4.6-7 8.1-14.3 11.5-21.8 2.8-5.9 6-11.5 9.3-17.2 3.5-6.3 6.4-12.5 8.6-19.4 2.9-8.4 6.7-15.9 10.9-23.7 2.2-4 4.2-8 6.2-12.1 2.5-5 5.2-9.4 8.5-13.9 2.7-3.7 4.9-7.7 7.1-11.6 1.5-2.5 3-4.8 4.6-7.1 5.9-9.1 10.3-18.7 14.1-28.8l2.1-3.6c1.9-3.4 1.9-3.4 2.8-6.6 1.2-4.2 3-7.8 5-11.7.7-1.4 1.3-2.7 2-4.1 1.4-2.7 2.8-5.4 4.3-8.1 1.5-3.4 2.5-6.2 3.3-9.8 1.3-5.6 3.2-10.7 5.5-16.1.5-1.2.9-2.4 1.4-3.7 8.2-20.7 19.6-40 33.6-57.3.9-1.1 1.7-2.1 2.6-3.2 2.4-2.8 2.4-2.8 4.8-5.1 4.9-5 8.9-10.6 12.7-16.5 2.9-4.2 2.9-4.2 5.4-6.1 2.7-2.2 4.1-4.3 5.9-7.2l1.8-3c1.6-2.6 3.2-5.3 4.8-8 5.2-8.6 10.8-16 17.7-23.3 2.4-2.7 4.3-5.6 6.3-8.6 2.3-2.7 4.7-5.3 7-8 .6-1 1.2-1.9 1.9-2.9 2.5-3.7 5.6-6.6 8.8-9.8 2.7-2.7 4.9-5.7 7.1-8.7 4-4.8 8.5-9 13-13.3 2.9-3 4.9-5.9 7.2-9.3 2.3-1.9 4.5-3.9 6.8-5.8 3.5-3.5 5.7-7.9 8.2-12.2 5.6-7.6 10.2-10.5 19-14 2.4-2.9 4.8-5.9 7-9 2.6-2 5.3-4 8-6 3-3.3 5.7-6.9 8.4-10.5 13.8-17.1 37.4-24.6 58.6-18.5m-21 11c-.2 8.2 1.8 14.5 4.7 22.2 5 14.3 4.7 29.1 4.6 44.2v6.7c-.3 39.4-.3 39.4-4.3 50.9 0 2.6 0 5.2.1 7.8-.2 8-1.1 15.8-4.1 23.2-.1.6-.1.6-.8 3.7-4 13.9-14.1 26.4-28.2 30.3-6.7 0-6.7 0-10.9-3.5-4.2-3.1-6.8-4.8-12.1-3.5-5.8 4.2-5.6 8.3-5.8 15.2-.1 9.7-.1 9.7-1.2 11.8-.1 1.9-.2 3.7-.3 5.6-.5 7-1.4 13.8-2.6 20.6-.1 1.1-.3 2.1-.5 3.1-3 18.1-3 18.1-9.6 23.7-2.3 2.8-4.4 5.6-6.4 8.6-5.3 7-8.7 8.1-17.2 7.1-9.5-2-16.7-9-23.4-15.7-4.3-2.2-8-1.7-11.9.9-3.3 4.9-2.9 9.7-1.1 15.1.1 2.7.2 5.4.2 8.1v4.4c-.2 4.5-.2 4.5-1.2 8.9-1.2 5.4-.9 10.1-.4 15.6.7 12.9-.7 25.2-2.6 38-.2 1.3-.3 2.6-.5 3.9-2.1 15.6-5.2 32.6-16.5 44.1-.7.8-1.4 1.6-2.2 2.4-5.7 6.1-10.3 10.1-19.2 9.1-5.2-1.7-9.8-3.9-14.6-6.5-.9-.4-.9-.4-5.2-2.2-5.9-3.4-8.3-7.1-11.8-12.8-7.1-9.8-7.1-9.8-15-9-4.5 3.5-5.6 5.8-5.5 11.5v3.9c0 1.4 0 2.8.1 4.3v4.4c.1 4.7.1 9.4.2 14.1.1 6.1.2 12.2.2 18.3 0 1.5 0 3 .1 4.6.1 26.7-.9 56.9-11 82-1.1 2.9-1.1 2.9-2.1 6.5-4.2 14.1-15.1 19.9-28 24.4-1 .4-2 .9-3 1.3-10.5 2.4-18.3-1.4-25.4-8.9-2.6-3.4-2.6-3.4-4.6-7.4-5.2-2.6-8.8-3.4-13.9-.2-5 7.7-3.3 20.8-3.5 29.8-.3 10.4-.8 20.7-1.5 31-.1 1-.2 2.1-.3 3.2-.4 5-1 9.5-2.8 14.2-.3 2.1-.6 4.1-.9 6.2-2.1 14.2-7.3 25.9-21.1 31.8-15.4 4-25.4 2.4-37.1-8.7-4.9-5-8.9-10.5-12.9-16.3-1.1-1.6-2.2-3.1-3.3-4.8-2.4-3.6-4-7.2-5.7-11.2-3.8-2.5-5.6-2.5-10-2-6 4.7-6.1 9.4-6.7 16.6-.1.8-.1.8-.4 4.6-.1 1.6-.3 3.2-.4 4.9-.1 1.6-.3 3.3-.4 5-.7 7.8-1.2 15.7-1.5 23.6-.5 8.8-1.4 17.5-2.4 26.3-.1 1.4-.2 2.8-.4 4.3-1 8.6-2.9 15-6.8 22.7-.9 2.8-1.7 5.7-2.5 8.6-3.6 12.7-9.1 21-18.5 30.4-1.7 2-3.3 4-5 6-13.7 13.7-35.9 19.1-55 18-5-2-5-2-9.3-5.4-4.7-3.6-4.7-3.6-8.8-5.3-5.8-3.4-8.5-8.5-11.9-14.3l-3-4.8c-1-1.7-2-3.4-3-5.2-.3-.5-.3-.5-1.7-2.9-5.5-9.8-9.7-20.1-13.9-30.5-3.2-7.6-6.4-15.2-10-22.7-2-4.2-3.7-8.5-5.4-12.9-.8-1.9-1.6-3.7-2.4-5.6-2-4.9-3.8-9.9-5.6-14.9-3-8.6-6.4-16.9-10.1-25.2-1.9-4.3-1.9-4.3-3.4-9.2-1.5-4.1-1.5-4.1-5.5-7.1-4.3-.6-6.2-.6-9.7 2-3 4-2.7 6-2.3 10.8.1.8.1.8.4 4.6.7 5.5 1.6 10.8 2.8 16.2 2.4 13.1 3.3 26.1 3.9 39.3.1 1.7.2 3.4.3 5.2 2.4 50.8 2.4 50.8-10.4 64.9-.6.8-1.2 1.6-1.9 2.5-6.5 8.5-14.2 13.6-23.1 19.5l-2 2c-6.5.9-9.7-1.5-15-5-1.5-.7-3.1-1.3-4.6-2-7.6-3.5-12.1-8.7-17.4-15-1.2-1.3-2.4-2.6-3.6-4-3.4-4-3.4-4-6.5-8.3-3.3-4.2-6-6.4-11.4-7.2-4.6.7-5.7 1.9-8.5 5.5-.5 3.9-.5 3.9-.4 8.5 0 1.7.1 3.4.1 5.2 0 .9 0 .9.2 5.5.9 59.2.9 59.2-18.9 74.8-14.3 3-24.6-3.4-34.4-13.4-1.9-2.2-3.7-4.4-5.6-6.6-.8-.8-1.7-1.6-2.5-2.4-12.5-12.8-19.9-28.2-25.5-44.9l-2.1-6c-1.1-3.4-2.3-6.8-3.4-10.2-.4-1.2-.8-2.5-1.3-3.7-.3-1.1-.6-2.2-1-3.3-1.9-4-4.3-5.4-8.6-6-4.7.7-5.8 1.7-8.6 5.5-.9 4.9-.9 4.9-1.3 10.8-.1 1.1-.1 2.2-.2 3.2-.3 3.4-.5 6.8-.7 10.2s-.4 6.7-.7 10.1c-.1 2.2-.3 4.4-.4 6.6-.5 7.4-1.3 14.8-2.3 22.2-.8 7.8-1.2 15.5-1.6 23.3-.6 9.4-2.3 18-4.9 27.1-1.1 4.1-1.9 7.7-2.3 11.9-1.7 12.4-6.6 23-14.6 32.6-3 4-3 4-3 6-1.7.7-3.3 1.3-5 2-.5.8-.5.8-3 5-13.1 5-26-.9-36.8-8.3-1.4-1.2-2.8-2.4-4.2-3.7-1.4-1.2-2.8-2.4-4.2-3.7-7.3-7.3-12.4-16.6-17.8-25.3-.4-.6-.4-.6-2.4-3.8-1.3-2.1-2.6-4.2-3.8-6.3-1.7-2.8-3.4-5.5-5.2-8.2-.5-.9-1.1-1.8-1.7-2.7-1.4-2.3-2.9-4.5-4.4-6.8-4.7-7.2-8.5-14.1-11.4-22.3-1.8-4.6-4.5-8.7-7.1-12.9-.9-2-1.7-4-2.5-6-1.6-4-3.2-7.2-5.5-11-2.2-3.7-3.9-6.9-5.4-10.9-8.2-20.3-8.2-20.3-17-21.6-4.7.6-5.8 1.8-8.6 5.5-.5 4.1-.5 4.1-.3 9 0 .9 0 .9.1 5.4.1 3.7.3 7.4.4 11.1 0 .9 0 .9.1 5.3 0 .8 0 .8.2 4.9-.6 5.1-2.1 6.7-5.5 10.3-.7 2.3-1.4 4.6-2 7-.7.3-1.3.7-2 1 .1-2.5.2-5 .4-7.6 0-.7 0-.7.2-4.2.4-4.2.4-4.2 1.4-7.7 2.2-7.9.7-15.8-.4-23.7-1.5-11.1-2-22-2.1-33.1-.1-6.6-.8-11.5-3.5-17.7-2.4-9-4.1-18.1-5.4-27.4-1.8-12-5.1-23.6-9.7-34.8-2.3-5.7-3.5-11.4-4.8-17.4-1-4.1-2.3-8-3.7-11.9-2.4-6.9-3.5-13.6-4.4-20.8-1.2-4.3-2.5-6-6-8.7-5.5-.8-7 0-12 3-2.3 3.6-2.3 3.6-4.6 7.8-4.2 7.9-4.2 7.9-6.5 11.2-2.2 3.5-3.5 7.1-4.9 11-1.4 2.7-3 5.4-4.5 8.1-2.6 4.6-5.1 9.2-7.5 13.9-.5.8-.5.8-2.9 4.9-3.1 5.1-3.1 5.1-5 9-2.8 5.5-6.4 10.2-10.1 15.1-.8 1-1.5 2-2.3 3.1-4.3 5.9-8.9 11.4-13.7 16.9-.7 1.1-1.4 2.1-2.1 3.2-4.8 7-12 10-19.4 13.5-6.3 4.1-7.5 7.9-7.5 15.3 1.8 4.7 2.4 5.7 7 8 1.2.2 2.4.4 3.7.6 3.3 1.4 3.3 1.4 4 5.6l.3 4.8c2 4.8 3 6.6 7.9 8.7 5.2 2.9 6.4 5.6 8.9 10.9 3.8 8.2 3.8 8.2 8.2 10.4 1.7 2.6 3.4 5.3 5 8 2.3 3 4.6 6 7 9 .8 1.2 1.7 2.5 2.5 3.8 2.5 3.2 2.5 3.2 6.1 5.8 3.7 2.6 4.6 4.3 6.4 8.4 3.9 5.4 8.7 9 14 13 .8.9 1.7 1.8 2.5 2.7 3.5 3.2 7.1 4.5 11.5 6.3 1.6.7 3.3 1.4 4.9 2.2 10 3.5 17.7 3.3 27.1-1.2 3.7-3.5 5.6-7.4 6.8-12.4 1.5-4.5 3.8-8.4 8.2-10.6.6 10.5-1.2 20.5-9 28-4.3 1.7-4.3 1.7-9.2 2.9-1.7.4-3.3.8-4.9 1.2-14.3 2.6-24.8-2-36.9-9.1l-4.2-2.4c-4.4-3-7.4-6.5-10.8-10.6l-4-4c-.6-.8-1.3-1.6-1.9-2.4-2.1-2.6-2.1-2.6-4.6-5-2.5-2.6-2.5-2.6-4.5-6.2-2.1-3.5-3.8-4.9-7-7.4-2.4-3-4.7-5.9-7-9-5.8-7.6-11.6-14.9-18-22-.4-.5-.4-.5-2.3-3-3.2-3.7-7.1-3.5-11.7-3-5.2 3.9-5.6 6.8-5.5 13.2v5c0 .9 0 .9.1 5.5v5.6c.1 5 .1 10 .2 14.9.1 7 .1 13.9.2 20.8 0 3.7 0 7.4.1 11.1.2 25.3-1.8 51.4-25.1 65.9-1.7 2-3.4 4-5 6-6.3 3.2-13.7 3.1-20.4.9-3.4-2.5-6.5-5.1-9.6-7.9-1.2-1.1-2.5-2.1-3.7-3.3-11.1-9.6-21.6-19.7-31.3-30.7-.8-.9-1.6-1.7-2.4-2.6-4.8-5.3-9.3-10.7-13.6-16.4-2.2-2.7-4.4-5.3-6.7-7.9-2.5-3.4-4.6-6.9-6.7-10.5-1.5-2.5-3.1-5-4.6-7.5-5.3-8.5-10.2-16.9-13.7-26.3-1.3-2.8-1.3-2.8-5.3-6.8-3.6-6.1-6.5-12.4-8.7-19.2-1.3-3.8-1.3-3.8-5.3-6.8-4.4-.6-6.3-.5-9.9 2-2.7 3.9-2.2 6.2-2.1 11-1.1 11.8-3.1 22.6-7.6 33.6-1.4 3.4-1.4 3.4-2.7 8.5-5 14.4-14.3 24.1-27.7 30.9l-4.2 2.4c-6.3 2.1-11.4 1.6-17.8.6-1.4-.2-2.8-.4-4.3-.7-12.6-2.3-22.4-7.4-32.9-14.5-2.8-1.8-2.8-1.8-6.7-3.7-7.5-3.9-13.2-9.1-19.1-15.1-1-.8-2-1.6-3.1-2.4-5-4.5-8.5-10-12.2-15.5-3.1-4.5-6.6-8.2-10.5-12-5.9-5.8-10.6-12-15.1-18.9-5.6-8.4-11.9-16.3-18.1-24.2-.9-1.3-1.9-2.7-2.9-4.1-2.5-3.1-4.6-5.3-7.7-7.9-4.2-3.8-6.6-7-9.4-12-2.7-4.3-5.4-8.6-8.2-12.8-3.2-5-5.9-10.2-8.7-15.5-3-5.8-6.1-11.3-9.7-16.8-6.1-9.1-10.5-19.1-13.9-29.4-1.5-4.4-3.3-8.3-5.5-12.4-3-6-5.3-11.6-7-18.1-.6-2.1-1.3-4.2-1.9-6.3-1.1-3.4-2.1-6.7-3.1-10.1-4.5-15.9-4.5-15.9-10-18.6-6-.7-8.4.2-12 5-7 18.5-4.2 40.2-3.3 59.6 0 1.5.1 3.1.1 4.6.6 10.5 1.2 22.1 10.2 28.8.3 1.3.5 2.5.8 3.8 1.6 7.1 4.8 12.8 8.2 19.2.8 1.6 1.6 3.2 2.5 4.8 4.1 8.1 8.4 15.7 13.5 23.2 1.4 2.5 2.7 5.1 4 7.6 2.8 5.5 6 9.7 10 14.4.3.8.3.8 2 5.1 2.1 5.1 4.1 7.2 8 10.9 1.4 2.7 2.7 5.3 4 8l4 4c1.3 2.7 2.7 5.3 4 8l2.4 2.7c3.9 4.9 6.4 10.5 9.2 16.1 2.4 4.3 5.2 7.6 8.4 11.2q4.05 6.3 7.5 12.9c3.9 7.6 3.9 7.6 7.4 10.5s5.7 5.9 8.2 9.7c2.8 4.1 5.4 7.4 8.9 10.9 1 1.6 1.9 3.3 2.9 4.9 2.6 4.2 4.6 6.8 8.1 10.1 5.5 6.9 9.9 14.2 14.1 21.9 1.9 3.1 1.9 3.1 5.9 7.1 1.4 1.7 2.9 3.4 4.2 5.1.8 1 1.6 1.9 2.4 2.9 1.6 2 3.1 3.9 4.6 5.8 5.2 6.9 5.2 6.9 8.8 8.6 3.5 1.9 4.9 3.7 7.1 7 2 3.1 3.6 5.4 6.4 7.6 2.8 2.3 4 4.3 5.7 7.4 5.9 10.6 13.1 19.5 22.4 27.3 2.6 2.5 4.4 5.2 6.4 8.3 3.3 4.4 6.4 7 11 10 4.5 3.8 8.9 7.6 12.6 12.2 3.8 4.5 8.3 7.8 13.6 10.3 3.6 1.9 4.7 4.1 6.8 7.5 6.5 7.9 13.7 13.7 22.1 19.6 4.9 3.4 4.9 3.4 8.4 6.5 2.9 2.4 5.4 4.2 8.6 6 4.8 2.9 8.6 5.6 12.5 9.5 2.4 2.4 2.4 2.4 6.4 4.4.7.8 1.4 1.5 2.2 2.3 3.5 3.4 8.7 7.7 13.8 7.7.7 1.3 1.3 2.6 2 4 2.3 1.7 2.3 1.7 5.1 3.4.5.3.5.3 3 1.9 2.4 1.4 4.9 2.8 7.5 4.1 3.5 2.1 6.3 4.1 9.4 6.7 4.4 3.6 8.8 5.7 14 7.9 2 1.6 4.1 3.3 6 5 5.9 4.2 12.3 7.5 18.7 10.9 4.5 2.4 8.4 4.9 12.3 8.1 3 1.4 6 2.7 9 4l4.5 2.1c5.8 2.5 11.8 4.4 17.9 6.3 23 7.6 23 7.6 28.8 12.2 5 3.2 9.8 4 15.5 5.3 4.4 1.1 8.4 2.7 12.6 4.4 7 2.8 11.3 2.8 18.7 1.7 2 .6 4 1.3 6 2 10.6.7 22.6-.7 32-6 3.4-6.8.8-11.4-2-18-1-3.7-2-7.3-3-11-.4-1.1-.7-2.3-1.1-3.4-.9-3.6-.9-3.6-1.8-9.4s-2.7-10.8-5.1-16.2c-1.3-3.3-2.7-6.7-4-10-.7-1.6-1.3-3.1-2-4.7-2.8-7.7-3-15.5-3.6-23.5-.2-3.2-.4-6.4-.7-9.6-.1-1.6-.2-3.1-.3-4.7-.9-11-2.5-21.8-4-32.7-2.9-26.1-1.7-62.4 8.6-86.8.2-1.1.5-2.2.7-3.3 2.2-10.4 6.6-12.5 16.3-15.7 1.5-.6 2.9-1.1 4.5-1.7 12.5-4.6 20.5-6.1 32.5.7h2c.7 1.7 1.3 3.3 2 5 1.3 1.7 2.7 3.3 4 5 .5 1 .9 1.9 1.4 2.9 1.6 3.1 1.6 3.1 4 5.9 7.4 9 11.9 19.8 16.1 30.6 1.5 3.6 1.5 3.6 4.5 7.6.7 2.7 1.3 5.3 2 8 4.1 9.9 8.8 19.9 14.9 28.8 5.1 7.8 8.8 15.9 12.4 24.5 1.6 3.4 3.3 5.9 5.7 8.7l2.4 3.6c2.6 3.4 5 5 8.6 7.4 1.4 2 2.7 4 4 6 4.6 2.3 8.7 1.2 13-1 1-1.7 2-3.3 3-5 2.5-2.8 4.9-4.9 8.1-6.9 3.3-2.4 4.7-4.7 6.9-8.1 2.9-2.6 5.8-4.9 8.9-7.2 2.8-2.5 4.5-4.8 6.6-7.9 2.8-4.1 5.3-6.3 9.5-8.9 1.3-2 2.7-4 4-6 5-3 5-3 9-5 .3 1.7.7 3.3 1 5 4.8 3.6 7.5 4.1 13.3 4.4 1.3.1 2.5.1 3.8.2 2.7.1 5.3.3 7.9.4 7.6.4 13.2 1.5 20 5 4.9.6 6.9.8 10.9-2.2 3.3-4.3 4.4-8.9 5.5-14.1.3-1.2.6-2.5.8-3.8.5-2.6 1-5.2 1.4-7.8 1.9-11.3 5.3-21.8 10.4-32.1 4.9 3 6 4.5 9 9 1.3.7 2.6 1.3 4 2 4.7 5.9 6.1 11.9 7.9 19.1 1.1 3.9 2.5 7.4 4.2 11.1 2.7 5.9 4 11.4 4.9 17.8.3 1.3.6 2.6 1 4 1.2 6.1 1.8 12.2 2.4 18.4.9 8.5 1.8 17 3 25.5.2 1.5.4 2.9.6 4.4 1.2 4.3 2.5 6 6 8.7 4.2.7 6.1.5 9.8-1.7 2.7-4.1 3.5-7.7 4.4-12.5.9-4.1 1.8-8.1 2.9-12.1l.9-3.9c.7-2.6 1.4-5.3 2.1-8 .9-3.8.9-3.8 1.7-9 1.2-5.6 2.8-10.4 5-15.7 1.2-3.1 1.2-3.1 2.8-8.5 1.3-4.3 2.8-7.1 5.4-10.6.3-1 .7-2 1-3 4 1 4 1 5.6 3.4 2.4 2.6 2.4 2.6 7.3 3.7 7.3 2.7 8.4 6.8 11.1 13.9.5 1.2 1 2.5 1.4 3.8 3.4 9.1 6.2 18.5 9 27.8 2 6.8 4.5 13.3 7.2 19.8 3.3 8.4 5.8 17.1 8 25.9 1.4 4.7 1.4 4.7 5.4 7.7 4.2.6 6.2.5 9.7-1.8 3.4-4.7 2.9-9.4 2.7-15 0-1.1-.1-2.2-.1-3.4-.1-7.5-.6-15-1.1-22.5-1.1-21.6-1.1-21.6.8-29.3 0-3.5 0-7.1-.1-10.6-.1-19.2.5-46.8 15.1-61.4 7.1-.6 10.6-.7 15 5l4 4c3.4 6.2 5.8 12.3 8 19 2.1 4.9 4.3 9.6 6.8 14.4 4.2 8.3 7.6 17 11.2 25.6 1.4 3.4 2.9 6.8 4.3 10.2.3.8.3.8 1.9 4.6 1.1 2.6 2.3 5.3 3.4 7.9 1.3 3 2.5 6.1 3.6 9.2 10.9 28.7 10.9 28.7 17.8 32.1 6 .7 8.2-.3 12-5 3.2-6.5.1-13.7-2-20-.9-3.8-1.8-7.6-2.6-11.4-.2-1.1-.4-2.1-.6-3.2-2.6-12.9-3.9-25.7-4.5-38.8-.4-4.6-1.4-9-2.3-13.6-10.7-70-10.7-70 3-93 5.7-3.5 9.8-3.5 15.7-.7 8.8 5.9 12.1 13.2 16.3 22.7.9 1.6 1.8 3.2 2.8 4.9 2.5 4.6 4.3 9.2 6.2 14.1 1.3 2.7 2.6 5.4 4 8 .8 1.6 1.6 3.2 2.4 4.9 3.3 6.5 7.1 12.7 11 18.9 2.5 4 4.6 8.1 6.6 12.4.7 1.5 1.4 3 2.2 4.6 1.5 3.2 3 6.4 4.5 9.5.7 1.6 1.4 3.1 2.2 4.6.6 1.4 1.3 2.8 1.9 4.2 3.5 6.3 6.6 11.7 14.1 12.1 5.1-.2 5.1-.2 10.6-1.2 7.6-1.3 15-1.1 22.7-.8 10.1.1 10.1.1 14.8-3.2 1.6-3 1.6-3 3-7 .7-1.8 1.4-3.6 2.2-5.4 1.7-5.2 1.8-8.3 1.8-13.6.5-2.4 1.1-4.7 1.8-7 2.1-8.1 3.5-16.3 4.8-24.6.9-5.5 2-10.9 3.4-16.4q1.8-12.3 2.4-24.6c.3-4.8.9-9.3 2-14 2-9.1 2.4-18.3 2.9-27.5.4-7.5 1.3-14.6 2.7-21.9.2-3.3.4-6.5.6-9.8.3-8.7.3-8.7.9-12.1 1-6.2.5-12.6.3-18.8.2-5.3.2-5.3 1.2-9.6 1-4.7 1.4-9 1.5-13.8.1-1.7.2-3.4.2-5.1.2-3.5.3-7.1.4-10.6.1-.8.1-.8.2-5.1.1-1.5.2-3.1.2-4.6.5-4.9 1.5-9 3.5-13.5 4.7-.6 4.7-.6 9 0-1 4-1 4-3.1 6.4-2.5 4.7-2.1 8.3-1.8 13.5-.1 3.1-.1 3.1-2.1 8.1-.1 2.9-.1 5.8-.1 8.8.2 6.2-.2 12-.9 18.2-.2 5.2-.4 10.3-.6 15.5-.2 4.6-.5 8.9-1.4 13.5-.3 4.7-.5 9.4-.7 14-.3 4-.3 4-1.3 6-.2 2.5-.4 5-.5 7.4-.4 7.3-.4 7.3-1.5 10.6-.2 2.5-.3 5-.4 7.5-.5 9.4-1.7 18.6-3 27.9-1.6 11.3-3.1 22.6-4 34-.6 3.6-.6 3.6-2.1 7.3-1.5 4.2-2.2 8-2.8 12.4-.2 1.5-.4 3-.6 4.6s-.4 3.1-.6 4.7c-2.4 18.7-2.4 18.7-5.5 26.6-6.4 17.7-6.4 17.7-2.4 24.7 3 2.9 5.4 3.5 9.5 4.5 1.3.3 2.6.6 4 1 3.2.7 6.4 1.2 9.7 1.8 6.6 1.3 12.7 3.6 19 6.1 9.8 3.9 18.8 3 29.2 2.1 1.8-.1 3.7-.2 5.6-.4 11.1-1.7 21.7-6.8 30.4-13.8 2.7-1.5 5.5-3 8.3-4.5 2.7-1.5 2.7-1.5 6.1-4 4.1-2.9 8.3-4.8 12.8-6.9 3.1-1.8 4.6-3.7 6.8-6.6.8-.7 1.7-1.3 2.5-2 2.7-2.2 4.1-4.2 5.9-7.2 2.3-3.8 4.7-7.3 7.4-10.7 4.4-5.6 5.9-8.2 4.2-15.1-.6-.9-1.2-1.7-1.8-2.6-2.6-4-3.5-7.9-4.8-12.4-3-8.6-7.3-16.8-11.4-25-.9-1.8-1.7-3.5-2.6-5.3-1.7-3.3-3.5-6.5-5.4-9.7-1.3-2.8-2.6-5.7-3.9-8.6l-2.1-4.8c-1.6-3.6-3-7.1-4.4-10.7-3.8-9.2-9.1-17.8-14.4-26.3-2.1-3.4-3.9-7-5.7-10.6-4.4-8.7-9.3-17.1-14.5-25.3-4.3-6.8-7.5-14-10.9-21.3-2.4-5-5.2-9.7-8.1-14.4-2.3-4.4-4.6-8.7-6.9-13.1-1.8-3.3-3.7-6-6.1-8.9-.7-1.4-1.3-2.7-2-4.1-2-3.9-2-3.9-6-6.9.7-1.3 1.3-2.6 2-4 18.8 7.5 30.4 43.3 39.2 60.2 4.8 9.3 9.9 18.4 15.1 27.5 3.6 6.3 7 12.5 10.3 18.9 1.4 2.4 1.4 2.4 4.4 6.4 5.4 9.9 9.8 20.1 14.1 30.5 2.7 6.3 5.7 12.4 8.9 18.5 1.3 2.5 2.5 5 3.8 7.6.7 1.3 1.3 2.6 2 3.9 1.7 3.4 3.2 6.7 4.8 10.1.4 1 .9 1.9 1.3 2.9 1.3 2.8 2.6 5.5 3.8 8.3 2.7 4.9 4.2 6 9.7 6.5 10.7-.9 16.6-12.8 21-21.3 1.7-3.3 3.6-6.4 5.5-9.5 3.1-5 6-10 8.8-15.1.3-.6.3-.6 1.9-3.6l3.9-7.2c3.7-6.7 7.6-12.7 12.5-18.6 8.2-11.3 12.9-24.1 18-37 3.5-8.9 7.2-17.3 13-25 1-2.6 1.9-5.3 2.8-7.9 2.6-6.7 5.9-13 9.7-19 2.8-4.6 4.9-9.2 7-14.1 1.5-3 1.5-3 5.5-7 6.4-10 12.3-20.3 15-32 2.8-11.5 7-21.3 12.7-31.7 1.9-3.5 3.3-6.7 4.6-10.4 1.7-4.9 1.7-4.9 4.2-9.2 3.2-6 4.7-12.1 6.5-18.7 2.8-10.1 6.6-18.3 12.4-27.1 5.7-8.6 10.3-17.2 14.6-26.6.5-1.1 1.1-2.3 1.6-3.5 3.2-7.1 6.2-14.2 9-21.5 2-4.8 4.4-9.4 6.8-14.1 3.7-7.5 6.3-15.2 8.7-23.2 1.1-3.7 2.5-7.3 3.9-11 1-3.3 2-6.7 3-10 1-3 1-3 3-7 .2-1.2.5-2.4.7-3.7 1.6-6.4 4.1-12.2 6.6-18.3 1.8-4.3 3.3-8.6 4.7-13 1.8-4.2 3.5-8.2 6-12.1 3.1-6 4.4-12.4 6-18.9.2-.6.2-.6 1-3.7 2.1-8.3 4-16.7 5.7-25.1.1-.5.1-.5.6-3.2 1-5 1.8-9.9 2.2-15 .5-5.5 1.9-8.2 4.5-13 1-2.7 2-5.3 3-8 1.5-4.2 3.1-8.2 5.1-12.2 2.7-5.4 4.2-11 5.9-16.8.5-1.7 1-3.5 1.5-5.3 1.5-5.2 3-10.5 4.5-15.7.4-1.2.8-2.5 1.2-3.8 1-4 1.2-8 1.5-12.1.3-3.1.3-3.1 1.7-8.3 1.7-6.1 2.4-11.8 3.1-18 .6-4.7 1.6-9.2 2.5-13.8.3-2.6.6-5.2.9-7.9.7-5.8 1.9-10.9 4-16.4 1.9-6.3 3-12.7 4.3-19.1.8-4.3 1.7-8.4 3.3-12.5 1.7-4.6 2.3-8.9 3-13.6 1-6.9 2.4-13.6 3.6-20.4 1.3-6.6 2.4-13.2 3.4-19.9.4-2.5.9-5 1.5-7.4 1.1-5.2 1.5-10.1 1.8-15.3.1-1.9.3-3.9.4-5.9.1-2.1.2-4.2.4-6.2.2-4.1.5-8.1.7-12.2l.3-5.4c.3-2.9.5-5.7.9-8.5 3.8-26.3.5-54.5-8.5-79.3-.6-1.9-1.3-3.7-1.9-5.6-.4-.9-.4-.9-2.1-5.4-.6-1.5-1.1-3-1.7-4.6-13.3-34.2-13.3-34.2-29.3-41.4l-3.3-1.5c-9-3.6-30-10-35.7.5m-38 20c-5.6 6-11.9 11.4-18 17-.8.7-1.6 1.5-2.4 2.2-3.7 3.4-7.2 5.6-11.6 7.8-2.7 2.9-4.5 5.8-6.5 9.2-2.5 3.8-2.5 3.8-6.5 5.8-4.2 5.5-5.7 8.3-4 15 1.5 2.9 3.2 5.6 4.9 8.4 3.6 5.8 6.1 11.1 8.1 17.6.5 1.2 1 2.3 1.6 3.5 1.6 4 2.4 7.8 3.3 12.1 3.6 17 10.2 31.1 20.1 45.4 1.1 1.6 2.1 3.2 3.2 4.9 2.8 4.1 2.8 4.1 5.8 7.1 1 1.3 2 2.6 3 4 7.3 2.7 11.4 2.1 18-2 12.5-11.9 16.9-27.8 18-44.6.6-8.1 1.2-16.1 2.5-24.2 2.4-16.1 1.7-32.4 1.5-48.6v-8.2c0-13.8-2.4-25.5-7-38.4-.4-1.1-.8-2.2-1.1-3.4-2.3-6.3-2.3-6.3-6.9-8.6-12.3-1.2-20.8 7.6-26 18m-74 75c-3.5 4.1-7.1 8.1-10.7 12.1-3.3 3.9-3.3 3.9-5.3 7-2 2.9-2 2.9-5.4 6.2-3.6 3.7-3.6 3.7-6.6 8.2s-3 4.5-6.3 7.6c-7.1 7.6-16.3 20.2-13.7 30.9 1.3 2.4 2.7 4.7 4.1 6.9 7.6 13.1 10.8 27.8 14 42.5 2.4 10.4 6.3 19 14.8 26 3.8 3.2 6.8 6.8 10.1 10.6 17.8 18.7 17.8 18.7 31 17 18.8-16.7 20.1-38.3 22.8-61.9.1-1.2.2-2.4.4-3.6 1.1-10.8.8-20.9-2.1-31.4-1.7-6.9-2.8-13.8-3.7-20.9-.9-8-2.2-15.5-4.4-23.2-.6-2.7-1.3-5.4-1.9-8.1-1.6-6.2-3.5-12-6.1-17.9-.6-1.3-1.1-2.7-1.7-4.1s-1.2-2.8-1.8-4.3c-.6-1.4-1.1-2.8-1.7-4.2-2.3-4.3-4.2-6.2-9.1-6.8-7.9.9-11.9 5.4-16.7 11.4m-73 95c-3.1 3.7-6.3 7.3-9.7 10.8-5.7 6.1-10.3 11.8-14.3 19.2-.7 1.1-1.3 2.2-2 3.4-10.2 17.5-20 36.3-24.9 56.1-1.6 6.5-4.2 11.8-7.7 17.5-1.7 3.6-1.8 6.1-1.4 10 .9 1 1.7 1.9 2.6 2.9 8.2 9.9 10.5 23.8 13.4 36.1 2.4 9.7 5.3 16.7 13.4 22.9 3.3 2.7 5.9 5.8 8.6 9.1.8.8 1.7 1.6 2.6 2.4 3 3.3 5.1 6.8 7.4 10.6 3.7 5.2 7.2 7.4 13 10 1.7.9 3.3 1.8 5.1 2.8 6.4 2.9 9.6 3.4 15.9.2 9.3-8.1 15.9-19.5 18.1-31.4.1-.9.1-.9 1-5.4.3-1.7.6-3.4.9-5.2l.9-4.5c2.9-14.8 3.2-29.1 3.1-44.1-.1-8.6.2-16.9 1-25.4.3-7.1-.6-13.8-1.5-20.8-.5-4-.8-8-1-12.1-.4-5.8-1.2-11.4-2.5-17.1-.1-.8-.1-.8-.8-4.6-1.1-4.8-2.5-9.2-4.2-13.8-1.8-4.8-3.1-9.1-4-14.2-1.7-9.3-5-24.9-14-29.4-10.1-1.3-13.4 6.7-19 14m-79 151.4c-2.7 6.2-5.5 11.5-10 16.6-1.4 2.6-2.7 5.3-4 8-2.7 4.5-5.5 8.8-8.6 13-4 5.7-6.8 11.5-9.4 18-1.1 2.1-2.3 4.2-3.4 6.2-2.8 5.2-4.9 10.2-6.6 15.8-2.5 8-5.3 15-10 21.9-2.5 3.9-4.8 7.8-7 11.9q-1.2 1.95-2.4 4.2c-2.8 7-.3 12.1 2.3 19 3.3 8.9 5.4 17.7 7.1 27 1.3 4.3 2.2 7.2 5.4 10.4 2.9 2.9 4.3 6.1 6.1 9.9 2.3 4.1 5.3 7.5 8.3 11 2.2 2.7 2.2 2.7 5.4 7.6 5 7.3 9.8 10.6 18.6 11.5 8.3-.8 14.1-3 18.2-10.4 1.1-1.4 2.3-2.8 3.4-4.3 6.3-8.3 9.6-15.9 11.8-25.9.2-1.1.5-2.1.7-3.2 2.9-12.2 4.4-24.3 5.2-36.8 0-1.3.1-2.7.2-4.1 4-69.9 4-69.9-.3-82.7.1-3.4.1-6.8.2-10.1.3-14.3-.6-37.3-10.4-48.4-12-6.4-16.6 4.5-20.8 13.9m-88.1 167.9c-2 5-4.6 8.4-7.9 12.7-3.9 6.6-7.6 13.2-11 20-1.3 1.1-2.5 2.1-3.8 3.2-4.2 3.8-6.4 7.1-9.2 11.8-2.3 2.7-4.6 5.4-7 8-.8.9-1.7 1.9-2.6 2.8-2.4 2.2-2.4 2.2-5.5 3.7-3.9 2-6 4.6-7.9 8.5 0 6.6 1.4 10 4.1 16 .9 1.9 1.7 3.8 2.5 5.6l2.4 5.4c1 2.5 2.1 5.1 3.1 7.6 5.4 12.5 15.1 30.3 27.9 35.4l3 3c10 4 17.4-1.1 25.6-6.8 7.8-7.2 10.1-18.1 11.4-28.2.7-1.7 1.3-3.3 2-5 .4-2.9.4-2.9.6-6.2 0-.6 0-.6.2-3.8l.3-4.2c0-1.5.1-3 .2-4.5.7-13.8 1.1-27.7 1.4-41.5 0-1.1 0-2.2.1-3.3 0-3.2.1-6.3.1-9.4.1-1.8.1-3.6.2-5.5-.1-3.7-.4-7-1.1-10.6 0-2.3 0-4.5.1-6.8 0-5.9-.3-11.9-.8-17.8-.1-1.5-.2-3-.4-4.5-1-4.5-2.2-6.1-5.9-8.9-13.3-2.1-18 12.9-22.1 23.3M1392 1741c-2.3 4.6-1 7.9 1.2 12.2 2.8 3.8 2.8 3.8 7.8 6.8 9.9 12.8 17.3 27.2 22.1 42.6 2.6 8.2 5.8 15.4 10.1 22.9 1.9 3.8 2.9 7.3 3.8 11.5 5 16.2 12.1 31.5 19.6 46.7 1.8 4 3.3 7.9 4.8 12 2.6 7.6 5.9 14.8 9.4 22.1.6 1.2 1.2 2.4 1.8 3.7 3.7 7.7 7.8 14 13.4 20.5.6 1.1 1.2 2.1 1.9 3.2 3.2 4.2 7.6 6.2 12.1 8.8l3 3c7.5 3.3 14.7 2.1 22.4.1.7-.1.7-.1 4.2-1 3.4-1.1 3.4-1.1 5.4-3.1 1.8-.3 3.5-.6 5.3-.9 11-2.1 19.2-10.4 25.7-19.1.3-1.7.7-3.3 1-5 1.3-.7 2.6-1.3 4-2 7-10.5 9.9-22.9 13-35 .4-1.4.8-2.9 1.1-4.3 3.3-13.8 4-27.6 4.7-41.7.2-3 .2-3 1.2-8 .3-5.2.5-10.4.7-15.6.3-4.4.3-4.4 1.3-6.4 1.3-12.7 1.8-23.6-2-36-.3-1.8-.6-3.6-.9-5.5-1.3-5.4-2.9-6.8-8.2-8.5-1.2-.2-2.4-.5-3.7-.8-20.6-5.2-39.4-14.9-58.1-25-5.9-3.1-11.8-5.8-18.1-8.2-1.7-1-3.3-2-5-3-6.6-2.8-13.3-5.4-20-8-.5-.2-.5-.2-3.2-1.3-8.5-3.4-17.4-3.7-26.4-4.3-5.4-.4-5.4-.4-9.8-1.1-16.7-1.5-34.7 16.8-45.6 27.7m-395 25c-1.1.5-2.3 1-3.4 1.5-7.2 3.4-15.9 8.1-19.6 15.5 0 5.1.4 8.7 1.7 13.6.3 1.2.6 2.5.9 3.8 1.5 4 3.4 5.7 6.4 8.6.3 3 .7 6 1 9 4.4 13.7 4.4 13.7 8 19 .3 1.4.6 2.7.9 4.1 1.1 5 3 9.2 5.1 13.9.7 2.7 1.3 5.3 2 8 .7 1.7 1.3 3.3 2 5 2 5 2 5 2.9 8.9 2.3 8.8 6.4 16.9 10.6 25 3.9 7.8 7.4 15.6 10.3 23.8 4.9 13.6 10.6 26.5 17.2 39.3 1.3 2.7 2.7 5.4 4 8.1 2.6 5.2 5.3 10.3 8.2 15.3 3.2 5.4 5.5 10.8 7.8 16.6 2.6 5.4 5.3 10.7 8 16 .3.7.3.7 2.1 4.2 2.3 4.6 5 8.6 7.9 12.8 6 9.1 11.7 18.3 17.2 27.8.8 1.3 1.6 2.6 2.4 4 .7 1.3 1.4 2.5 2.2 3.8 2.1 3.3 4.3 5.7 7.2 8.4 1 1.1 2.1 2.2 3.1 3.4 8.7 8.1 20.6 16.7 32.9 13.6 15.3-9.2 21.8-31.5 24.7-47.9.2-1.4.5-2.8.7-4.3.3-1.3.5-2.6.7-4 .9-3.8.9-3.8 2.4-6.8 2.3-6.2 2.2-12.5 2.5-19.1.6-11.1 1.3-22.2 2.5-33.3 2-19.1 3.5-38.3 4.2-57.5 0-1.3.1-2.5.1-3.8.2-5.5.2-10.9-.3-16.4-.3-4.1-.6-8-.5-12.2 0-17.9-2-32.1-18.1-42.6-2.9-2.1-5-4.3-7.3-7-4.3-5-9.1-8.8-14.3-12.6-3.2-2.4-6.2-4.8-9.3-7.3-.8-.7-1.7-1.4-2.6-2.1-4.9-4.3-9-9-13.2-14-4.4-5.2-8.9-9.8-14.2-14.1-1.4-1.3-2.7-2.6-4.1-3.9-10.5-9.2-21.8-14.6-34.9-19.1-2.8-1-5.5-2.1-8.3-3.1-2.6-1-5.1-1.9-7.7-2.9l-5.1-2.1c-6.7-2.5-13.2-2.5-20.3-2.5h-3.8c-8.7 0-15.1 1.8-22.8 5.6m-568 5c-.5 5.9-.2 7.7 3 13 1 2.9 2 5.9 2.9 8.8.5 1.7 1 3.4 1.6 5.2.9 3 1.8 6 2.7 9.1 2.8 9.4 6.5 18.2 10.6 27.1 1.9 4.1 3.6 8.2 5.3 12.4 5.6 14.2 11.8 27.4 19.9 40.4 1.3 2.3 2.7 4.6 4 6.9.7 1.2 1.3 2.3 2 3.5 1.4 2.5 2.8 5 4.1 7.6 5 9 10.4 17.1 16.9 25 .8 1 1.7 2.1 2.6 3.2 2.4 2.8 2.4 2.8 6.3 5.9 4.3 4.1 6.6 7.9 9.4 13.1 1.7 2.8 1.7 2.8 5.2 6.3 3.9 3.9 6.1 7.9 8.8 12.6 4.3 7.3 10.6 12.9 16.7 18.7 4 4.2 6.2 8.1 9 13.2 4.3 5.3 9.1 10.2 14 15 .8.8 1.6 1.7 2.5 2.5 5.6 5.4 10.5 8.7 17.8 11.4 3.9 1.6 6.6 4.4 9.7 7.1 11.9 6.4 30.1 12.8 43.4 7.7 2.3-1.5 4.4-3.1 6.6-4.7 1.1-.4 2.3-.8 3.4-1.2 4.7-2.4 6-5.3 8.6-9.8.4-.5.4-.5 2.7-3.2 3.3-4 4.3-7.5 5.1-12.6 1.3-5.7 3.5-8.7 7.2-13.2 2.6-5.2 1.1-13.3.3-18.9-.3-4.1-.3-4.1 2.7-9.1 0-6 0-6-1-8-.5-3-1-6-1.4-9-.8-5-1.6-9.9-2.6-14.8-1.1-6-1.6-11.8-1.9-17.9-.9-12.3-2.1-23.9-7.1-35.3-.3-1.2-.6-2.5-.9-3.8-1.7-5.1-4.8-6.1-9.6-7.9-5.4-2.3-9.6-5-14.4-8.3-3-1.9-6-3.5-9.2-5-5.1-2.4-9.2-5.4-13.5-9.1-4.8-3.9-10.1-7.1-15.4-10.4-2.8-1.8-5.6-3.6-8.3-5.4-4.7-3.1-4.7-3.1-9.9-5.9-5.8-3-10.9-6.8-16.2-10.7-4.5-3.1-9-5.9-13.7-8.7l-6-3.9c-2.9-1.9-2.9-1.9-7.8-3.8-5.1-2.1-5.1-2.1-8.3-4.9-9.6-8.2-22.1-12-33.8-16.2-5-2-5-2-8.2-3.9-15-8.5-15-8.5-23.8-4.1-5-1-5-1-7.1-3.2-8.5-8.2-27-14.6-34.9-2.8m937 4c-.3 1.2-.6 2.4-.9 3.7-1.2 4.6-2.9 8.6-4.9 12.9-2.5 5.5-4.8 10.9-6.7 16.6-1.7 5.1-3.9 9.6-6.6 14.3-3.3 6-5.3 11.7-7 18.3-1.6 5.8-4.4 10.5-8.3 15-2.8 3.5-4.7 6.9-6.6 11l-2.1 4.2c-1.5 3.1-2.9 6.3-4.4 9.4-2.5 4.7-5.4 8.3-8.9 12.2-1.6 2.4-1.6 2.4-1.6 8.4 5 8.5 11.4 16.2 18.1 23.4 2.9 3.3 5.2 6.6 7.5 10.3 2.8 4.7 6 7.8 10.4 11.3.6.8 1.1 1.6 1.7 2.4 5.6 6.3 15.5 8.8 23.5 8.2 9.4-3.9 16.5-10.1 21.8-18.6.6-1 1.2-1.9 1.8-2.9 9.4-16.3 9.9-35 7.7-53.4-.5-4.7-.5-9.2-.4-13.9.1-11-1.4-21.5-3.2-32.3-.3-1.9-.6-3.9-.9-5.9-2.1-12.7-4.3-25.4-6.8-38-.1-.8-.1-.8-.8-4.6-.3-1.3-.5-2.7-.8-4.1-.1-.6-.1-.6-.7-3.6-1.3-5-2.6-8.4-6.9-11.3-6.8-.6-10.8.6-14 7m-682 128c-1.5 11 4.2 19.3 10 28 2.6 4.2 4.6 8.3 6.4 12.9 2.9 7 6.3 13.3 10.8 19.5s7.5 13.2 10.7 20.1c1.6 3.5 3.3 6.7 5.3 9.9 2.2 3.5 3.6 6.5 5 10.2 2.7 6.7 6.5 12.6 10.4 18.6 1.9 3.1 3.8 6.2 5.6 9.3 2.9 4.6 6.2 8.4 9.8 12.5.9 1.4 1.8 2.8 2.8 4.2 6 8.9 12.3 16.6 21.2 22.8.7 1.2 1.5 2.5 2.2 3.8 3.7 5.6 8.5 9.1 13.8 13.2 3.3 2.6 5.7 4.8 8.5 8.1 5.2 5.8 10.5 9 18.4 8.8 7.7-1.7 15.4-5 18.2-13 .3-.9.6-1.9.9-2.9l4-4c1.6-3.1 1.6-3.1 3.1-6.8l1.5-3.6c3.6-11.9 3.7-24.3 3.6-36.6v-44.1c-.1-8.9-.4-17.8-1-26.8-.2-4.1-.3-8.3-.3-12.5-.1-1.3-.1-2.6-.1-4 0-2.6-.1-5.3-.1-8v-4c0-1.1 0-2.3-.1-3.5-.8-4-2.4-5.5-5.6-8.1-4.8-1.6-8.2-.6-13 .9-11.7 3.3-23.1 3.2-35.2 3.2h-3.3c-11.8 0-22.4-1.3-33.6-5-1.1-.3-2.3-.7-3.4-1-9.6-3.1-19.1-6.3-28.5-10.1-.8-.3-.8-.3-5-2-1.1-.5-2.3-1-3.4-1.5-3.6-1.5-3.6-1.5-6.5-2.3-3.1-1.2-3.1-1.2-6.9-4.6-7.4-6.3-19.7-11.3-26.2-1.6m527 5c-4 6.1-.1 12.7 2.4 18.9 2.4 6 4.6 12 6.6 18.1 3.4 9.9 6.8 19.8 10.6 29.5.6 1.4 1.1 2.7 1.6 4.1 1.9 3.6 3.6 5.1 6.8 7.4.7 1 .7 1 4 6 2.2 2.5 4.5 5 6.8 7.5 2.2 2.5 2.2 2.5 5.1 6.7 5.3 6.5 14.6 12.8 23.2 12.8 9.5-3.3 13.1-15 14.9-24 .5-3.3 1-6.7 1.5-10 .5-4 .5-4 1.5-7 .1-2.1.2-4.2.2-6.2v-3.9c.1-5.9.1-11.8.2-17.6v-9.3c.1-4.5.1-8.9.1-13.4 0-.7 0-.7.1-4.2v-7.4c-.8-4-2.4-5.5-5.6-8-5.4-.6-10.2.3-15.4 1.4-18 3.5-31.5 4.7-48.6-2.4-10.6-2.9-10.6-2.9-16 1m262 212c-.5 3.8-.8 7.1-.8 10.9 0 1.1-.1 2.2-.1 3.3 0 2.4-.1 4.7-.1 7.1 0 3.8-.1 7.5-.2 11.2-.2 16.8.6 32.9 4.3 49.3 1 5.9 1.1 11.5 1.2 17.4.9 36.6.9 36.6 10.8 42.7 7 2 11.8-.3 17.9-3.9.8-.8 1.6-1.7 2.4-2.5 2.6-2.5 2.6-2.5 5.7-4 2.9-1.5 2.9-1.5 4.7-3.8 3-3.7 6.7-5.9 10.6-8.5 3-2.5 4-4.8 5.6-8.2 3.1-2.2 3.1-2.2 6-4 2.9-5.7.2-10.3-2.5-15.4-.7-1.4-1.5-2.8-2.2-4.2-.8-1.5-1.5-2.9-2.3-4.4l-3.9-8.1c-3.3-6.6-7-12.9-10.9-19.2-6.5-10.8-12.5-21.4-16.9-33.2-11.2-26.6-11.2-26.6-20.8-28-4.6.7-5.7 1.7-8.5 5.5m-514.7 13.2c-.5 1.2-.9 2.5-1.4 3.7s-1 2.4-1.5 3.7c-14.3 44.3-16.7 127.8 7.6 168.4 3 8.5 4.7 17.4 6.2 26.3.8 3.9 2.2 7.1 3.8 10.7 1 3.9 1.9 7.8 2.8 11.7 1.6 4.3 3.6 5.9 8.1 7.1 12 .9 22.8-6.1 32.1-12.8 1-.7 2-1.3 3-2v-2c1.6-.7 3.3-1.3 5-2 2.3-2 4.7-4 7-6q3-1.65 6-3c12-5.7 19.8-14.5 26-26 3-5.2 6-10.1 9.8-14.8 3.2-4.2 3.2-4.2 5.2-9.2 1.6-1.4 3.3-2.7 5-4 2.9-5.8 2.7-8.8-.6-14.4-3.2-4.4-6.8-8.5-10.4-12.6-1.3-2-2.7-4-4-6-.3-.5-.3-.5-2-2.8-5.8-7.9-10.3-16.2-14.7-25-2.3-4.2-2.3-4.2-4.3-6.6-3.1-4.1-5.1-8.7-7.3-13.4l-1.5-3q-5.25-11.4-9.9-23.1c-1.3-3.1-1.3-3.1-3.3-5.1-.2-1.1-.5-2.3-.8-3.4-1.5-5.8-4.2-10.5-7.2-15.6-.8-1.4-1.5-2.7-2.3-4.1-14.3-25.1-14.3-25.1-32.6-27.4-9 1.1-19.4 4.4-23.8 12.7m432.1 43.2c-7.3 15.2-6.8 31.9-7 48.4-.1 3.1-.2 6.3-.2 9.4-.2 10.4-.1 20.6.6 31 .3 5.8.3 11.6.3 17.5 0 2.3 0 4.6.1 6.9v10.4c-.1 15.2 1.4 28.8 5.4 43.5 1.7 6.6 2.1 12.9 2.2 19.7.4 6.7.7 10.6 6.2 14.8 9.9 2.6 19.9-.9 27-8 1-.5 2-.9 3-1.4 3.4-1.8 4.7-3.6 7-6.6.8-.6 1.7-1.2 2.6-1.9 3.1-2.7 3.8-5.3 5.4-9.1.5-.7.5-.7 3.1-4.3 4.8-6.7 8.3-14 11.9-21.4.7-1.4 1.4-2.7 2.1-4.2.6-1.3 1.3-2.6 2-4 .6-1.2 1.1-2.4 1.7-3.6 1.4-4.1 1.4-6.4.2-10.5l-4-4c-1.3-2.9-1.3-2.9-2.4-6.1-1.8-4.9-3.9-9.4-6.2-14.1-2.7-5.4-4.9-11-7.2-16.6-1-2.6-2.1-5.2-3.1-7.8-.3-.6-.3-.6-1.6-3.8-2.7-6.6-5.6-13.2-8.4-19.7-2.2-5-4.3-10.1-6.3-15.1-2.1-4.9-4.2-9.7-6.6-14.4-2.2-4.4-2.2-4.4-3.6-8.6-5.7-16.9-5.7-16.9-11.6-20.8-5.4-.4-9.4-.4-12.6 4.4M1228 2193c-4.1 10.4-5.7 21.4-6.6 32.5-.4 3.5-.4 3.5-1.4 5.5 0 6.4.3 7.1 4.2 11.6.8.9 1.5 1.9 2.3 2.8 2.4 2.5 4.8 4.5 7.5 6.6 2.9 3.3 5 6 7 10 4.6 2.6 7.9 3.8 13 2 4-2.8 4.9-4.2 5.4-9.1q-.6-6.75-1.8-13.5c-.7-3.8-1-7.7-1.4-11.5-1-9.5-3.8-18-7.2-26.9-.4-1.2-.9-2.4-1.4-3.7-2-5.1-3.1-7.9-7.6-11.3-6.1-.9-8.2.3-12 5m80 21c-3.6 8.6-5.8 16.9-6.9 26.1-.8 6.5-2.3 12.5-4.2 18.7-1.2 4.3-1.5 8.7-1.9 13.2-.7 2.7-1.5 5.3-2.2 8-1.3 4.8-1.9 9.7-2.5 14.7-.2 1.9-.5 3.9-.7 5.9-1.4 13.8-1.4 13.8 3.4 19.4 1.7 1 3.3 2 5 3 1.4 2 2.7 4 4 6 1 .3 2 .7 3 1v2c5.7 6.2 12.3 11 19 16 1 .8 2 1.6 3.1 2.5 6.1 4.8 11.7 8.4 18.9 11.5 2.4 2 4.7 4 7 6 5.8 3.8 10 6.2 17 5 4.4-2.8 5-4.1 5.1-9.4-1.1-4.6-1.1-4.6-3-7.8-2-3.6-2.7-5.9-3.5-9.7-1.4-6.6-3.6-12.6-6.1-18.9-2.5-7-4.5-14.1-6.5-21.2-1-3.3-2-6.5-3-9.8-.7-2.1-1.3-4.3-2-6.5-2.8-9.4-6.1-18.5-9.5-27.6-3.9-10.6-7.5-21.2-10.5-32.1-.9-3.1-1.7-6.3-2.6-9.4l-1.2-4.2c-1.3-3.7-2.6-5.6-6.2-7.4-6.4-.6-9.2-.3-13 5"/></svg>